<svg width="710" height="360" viewBox="0 0 710 360" fill="none" xmlns="http://www.w3.org/2000/svg">
<path d="M82.7051 71.72L67.2713 121H60.9533L47.3246 79.6626L33.6959 121H27.2877L11.8538 71.72H18.2621L30.5369 114.592L44.3462 71.72H50.6641L64.2928 114.682L76.4774 71.72H82.7051ZM109.249 50.6V71.6598H137.53V85.0178H109.249V107.281H141.14V121H92.4013V36.881H141.14V50.6H109.249ZM192.633 54.2103V121H188.571V54.2103H192.633ZM229.093 121.722C224.52 121.722 220.398 120.699 216.728 118.653C213.057 116.608 210.169 113.689 208.063 109.898C206.017 106.048 204.995 101.565 204.995 96.4503C204.995 91.3959 206.048 86.9733 208.154 83.1826C210.26 79.3316 213.148 76.4133 216.818 74.4277C220.549 72.3819 224.701 71.359 229.274 71.359C233.847 71.359 237.968 72.3819 241.639 74.4277C245.309 76.4133 248.167 79.3015 250.213 83.0923C252.319 86.8831 253.372 91.3357 253.372 96.4503C253.372 101.565 252.319 106.048 250.213 109.898C248.107 113.689 245.189 116.608 241.458 118.653C237.788 120.699 233.666 121.722 229.093 121.722ZM229.093 118.112C232.643 118.112 235.953 117.33 239.021 115.765C242.15 114.141 244.647 111.704 246.513 108.454C248.378 105.205 249.31 101.204 249.31 96.4503C249.31 91.7569 248.378 87.7856 246.513 84.5364C244.647 81.2872 242.18 78.8803 239.111 77.3159C236.043 75.6913 232.733 74.879 229.183 74.879C225.633 74.879 222.324 75.6913 219.255 77.3159C216.247 78.8803 213.81 81.2872 211.944 84.5364C210.079 87.7856 209.146 91.7569 209.146 96.4503C209.146 101.204 210.049 105.205 211.854 108.454C213.719 111.704 216.156 114.141 219.165 115.765C222.234 117.33 225.543 118.112 229.093 118.112ZM282.302 116.577L300.353 71.9908H304.686L284.378 121H280.136L259.828 71.9908H264.251L282.302 116.577ZM357.779 93.201C357.779 95.3672 357.719 96.9918 357.598 98.0749H315.268C315.389 102.467 316.351 106.168 318.156 109.176C319.961 112.185 322.338 114.441 325.287 115.946C328.235 117.45 331.454 118.202 334.944 118.202C339.758 118.202 343.789 117.029 347.038 114.682C350.288 112.275 352.333 109.026 353.176 104.934H357.418C356.455 109.929 353.988 113.99 350.017 117.119C346.046 120.188 341.021 121.722 334.944 121.722C330.371 121.722 326.279 120.699 322.669 118.653C319.059 116.608 316.231 113.689 314.185 109.898C312.139 106.048 311.116 101.565 311.116 96.4503C311.116 91.3357 312.109 86.8831 314.095 83.0923C316.141 79.3015 318.969 76.4133 322.579 74.4277C326.189 72.3819 330.311 71.359 334.944 71.359C339.637 71.359 343.699 72.3819 347.129 74.4277C350.619 76.4133 353.266 79.0909 355.071 82.4605C356.876 85.7699 357.779 89.3501 357.779 93.201ZM353.717 94.7354C353.898 90.4031 353.116 86.7326 351.371 83.7241C349.686 80.7156 347.369 78.4892 344.421 77.0451C341.473 75.5409 338.284 74.7887 334.854 74.7887C331.424 74.7887 328.235 75.5409 325.287 77.0451C322.398 78.4892 320.022 80.7156 318.156 83.7241C316.351 86.7326 315.389 90.4031 315.268 94.7354H353.717ZM411.175 121.812C407.384 121.812 403.984 121.181 400.976 119.917C397.967 118.593 395.59 116.788 393.846 114.502C392.101 112.155 391.138 109.477 390.957 106.469H399.441C399.682 108.936 400.825 110.951 402.871 112.516C404.977 114.08 407.715 114.863 411.085 114.863C414.213 114.863 416.68 114.171 418.486 112.787C420.291 111.403 421.193 109.658 421.193 107.552C421.193 105.386 420.23 103.791 418.305 102.768C416.38 101.685 413.401 100.632 409.37 99.6092C405.699 98.6465 402.691 97.6838 400.344 96.721C398.057 95.6981 396.072 94.2239 394.387 92.2985C392.762 90.3128 391.95 87.7255 391.95 84.5364C391.95 82.0092 392.702 79.6926 394.207 77.5867C395.711 75.4807 397.847 73.826 400.615 72.6226C403.383 71.359 406.542 70.7272 410.092 70.7272C415.567 70.7272 419.99 72.1111 423.359 74.879C426.729 77.6468 428.534 81.4376 428.775 86.2513H420.561C420.381 83.6639 419.328 81.588 417.402 80.0236C415.537 78.4591 413.01 77.6769 409.821 77.6769C406.873 77.6769 404.526 78.3087 402.781 79.5723C401.036 80.8359 400.163 82.4906 400.163 84.5364C400.163 86.161 400.675 87.5149 401.698 88.5979C402.781 89.6209 404.105 90.4632 405.669 91.1251C407.294 91.7268 409.52 92.4188 412.348 93.201C415.898 94.1638 418.786 95.1265 421.013 96.0892C423.239 96.9918 425.134 98.3757 426.699 100.241C428.323 102.106 429.166 104.543 429.226 107.552C429.226 110.259 428.474 112.696 426.97 114.863C425.465 117.029 423.329 118.744 420.561 120.007C417.854 121.211 414.725 121.812 411.175 121.812ZM465.37 70.6369C469.101 70.6369 472.47 71.4492 475.479 73.0738C478.487 74.6383 480.834 77.015 482.519 80.2041C484.264 83.3932 485.136 87.2742 485.136 91.8472V121H477.013V93.0205C477.013 88.0865 475.78 84.3258 473.313 81.7385C470.846 79.0909 467.476 77.7672 463.204 77.7672C458.872 77.7672 455.412 79.121 452.825 81.8287C450.297 84.5364 449.034 88.4776 449.034 93.6523V121H440.82V54.2103H449.034V78.5795C450.658 76.0523 452.885 74.0968 455.713 72.7128C458.601 71.3289 461.82 70.6369 465.37 70.6369ZM536.641 109.808H512.994L509.203 121H493.047L515.972 57.64H533.843L556.768 121H540.432L536.641 109.808ZM532.67 97.8944L524.817 74.6985L517.055 97.8944H532.67ZM573.313 79.5723C574.757 76.7443 576.803 74.548 579.45 72.9836C582.158 71.4191 585.437 70.6369 589.288 70.6369V79.121H587.122C577.916 79.121 573.313 84.1152 573.313 94.1036V121H565.099V71.5395H573.313V79.5723ZM643.897 94.3744C643.897 95.9388 643.807 97.5935 643.627 99.3385H604.094C604.395 104.212 606.05 108.033 609.058 110.801C612.127 113.509 615.828 114.863 620.16 114.863C623.71 114.863 626.658 114.05 629.005 112.426C631.412 110.741 633.097 108.515 634.059 105.747H642.905C641.581 110.5 638.933 114.381 634.962 117.39C630.991 120.338 626.057 121.812 620.16 121.812C615.467 121.812 611.255 120.759 607.524 118.653C603.854 116.547 600.965 113.569 598.859 109.718C596.753 105.807 595.7 101.294 595.7 96.1795C595.7 91.065 596.723 86.5822 598.769 82.7313C600.815 78.8803 603.673 75.932 607.344 73.8862C611.074 71.7802 615.346 70.7272 620.16 70.7272C624.853 70.7272 629.005 71.7501 632.615 73.7959C636.226 75.8417 638.993 78.6697 640.919 82.28C642.905 85.8301 643.897 89.8615 643.897 94.3744ZM635.413 92.6595C635.413 89.5306 634.721 86.853 633.337 84.6267C631.953 82.3402 630.058 80.6253 627.651 79.4821C625.305 78.2786 622.687 77.6769 619.799 77.6769C615.647 77.6769 612.097 79.0007 609.149 81.6482C606.26 84.2957 604.606 87.9662 604.185 92.6595H635.413ZM11.9554 215.658C11.9554 213.763 12.339 212.105 13.1062 210.683C13.8733 209.239 14.9226 208.122 16.2538 207.332C17.6077 206.543 19.1082 206.148 20.7554 206.148C22.38 206.148 23.7903 206.497 24.9862 207.197C26.1821 207.896 27.0733 208.776 27.66 209.837V206.452H30.7738V225H27.66V221.548C27.0508 222.631 26.1369 223.533 24.9185 224.255C23.7226 224.955 22.3236 225.305 20.7215 225.305C19.0744 225.305 17.5851 224.898 16.2538 224.086C14.9226 223.274 13.8733 222.134 13.1062 220.668C12.339 219.201 11.9554 217.531 11.9554 215.658ZM27.66 215.692C27.66 214.293 27.3779 213.075 26.8138 212.037C26.2497 210.999 25.4826 210.209 24.5123 209.668C23.5646 209.104 22.5154 208.822 21.3646 208.822C20.2138 208.822 19.1646 209.092 18.2169 209.634C17.2692 210.175 16.5133 210.965 15.9492 212.003C15.3851 213.041 15.1031 214.259 15.1031 215.658C15.1031 217.08 15.3851 218.321 15.9492 219.382C16.5133 220.419 17.2692 221.221 18.2169 221.785C19.1646 222.326 20.2138 222.597 21.3646 222.597C22.5154 222.597 23.5646 222.326 24.5123 221.785C25.4826 221.221 26.2497 220.419 26.8138 219.382C27.3779 218.321 27.66 217.091 27.66 215.692ZM45.0157 206.114C47.2721 206.114 49.0998 206.802 50.4987 208.178C51.8977 209.532 52.5972 211.495 52.5972 214.068V225H49.5511V214.508C49.5511 212.657 49.0885 211.247 48.1634 210.277C47.2382 209.284 45.9746 208.788 44.3726 208.788C42.748 208.788 41.4505 209.295 40.4803 210.311C39.5326 211.326 39.0587 212.804 39.0587 214.745V225H35.9787V206.452H39.0587V209.092C39.668 208.145 40.4916 207.411 41.5295 206.892C42.59 206.373 43.7521 206.114 45.0157 206.114ZM56.4776 215.658C56.4776 213.763 56.8612 212.105 57.6284 210.683C58.3956 209.239 59.4448 208.122 60.7761 207.332C62.1299 206.543 63.6417 206.148 65.3115 206.148C66.7556 206.148 68.0981 206.486 69.3392 207.163C70.5802 207.817 71.5279 208.686 72.1822 209.769V199.954H75.2961V225H72.1822V221.514C71.573 222.619 70.6704 223.533 69.4745 224.255C68.2786 224.955 66.8797 225.305 65.2776 225.305C63.6304 225.305 62.1299 224.898 60.7761 224.086C59.4448 223.274 58.3956 222.134 57.6284 220.668C56.8612 219.201 56.4776 217.531 56.4776 215.658ZM72.1822 215.692C72.1822 214.293 71.9002 213.075 71.3361 212.037C70.772 210.999 70.0048 210.209 69.0345 209.668C68.0868 209.104 67.0376 208.822 65.8868 208.822C64.7361 208.822 63.6868 209.092 62.7392 209.634C61.7915 210.175 61.0356 210.965 60.4715 212.003C59.9074 213.041 59.6253 214.259 59.6253 215.658C59.6253 217.08 59.9074 218.321 60.4715 219.382C61.0356 220.419 61.7915 221.221 62.7392 221.785C63.6868 222.326 64.7361 222.597 65.8868 222.597C67.0376 222.597 68.0868 222.326 69.0345 221.785C70.0048 221.221 70.772 220.419 71.3361 219.382C71.9002 218.321 72.1822 217.091 72.1822 215.692ZM154.035 198.374C154.035 199.939 153.945 201.594 153.765 203.338H114.232C114.533 208.212 116.188 212.033 119.196 214.801C122.265 217.509 125.966 218.863 130.298 218.863C133.848 218.863 136.796 218.05 139.143 216.426C141.55 214.741 143.235 212.515 144.197 209.747H153.042C151.719 214.5 149.071 218.381 145.1 221.39C141.129 224.338 136.195 225.812 130.298 225.812C125.605 225.812 121.393 224.759 117.662 222.653C113.992 220.547 111.103 217.569 108.997 213.718C106.891 209.807 105.838 205.294 105.838 200.179C105.838 195.065 106.861 190.582 108.907 186.731C110.953 182.88 113.811 179.932 117.481 177.886C121.212 175.78 125.484 174.727 130.298 174.727C134.991 174.727 139.143 175.75 142.753 177.796C146.363 179.842 149.131 182.67 151.057 186.28C153.042 189.83 154.035 193.862 154.035 198.374ZM145.551 196.659C145.551 193.531 144.859 190.853 143.475 188.627C142.091 186.34 140.196 184.625 137.789 183.482C135.442 182.279 132.825 181.677 129.937 181.677C125.785 181.677 122.235 183.001 119.287 185.648C116.398 188.296 114.744 191.966 114.322 196.659H145.551ZM190.69 225L178.957 206.588L167.675 225H159.1L175.076 200.45L159.1 175.539H168.397L180.13 193.862L191.322 175.539H199.896L184.011 199.999L199.986 225H190.69ZM216.279 184.655C217.904 181.827 220.311 179.481 223.5 177.615C226.749 175.69 230.509 174.727 234.782 174.727C239.174 174.727 243.145 175.78 246.695 177.886C250.306 179.992 253.134 182.971 255.18 186.822C257.225 190.612 258.248 195.035 258.248 200.089C258.248 205.083 257.225 209.536 255.18 213.447C253.134 217.358 250.306 220.397 246.695 222.563C243.145 224.729 239.174 225.812 234.782 225.812C230.57 225.812 226.839 224.88 223.59 223.014C220.401 221.089 217.964 218.712 216.279 215.884V248.467H208.066V175.539H216.279V184.655ZM249.854 200.089C249.854 196.359 249.102 193.109 247.598 190.342C246.094 187.574 244.048 185.468 241.461 184.024C238.933 182.579 236.135 181.857 233.067 181.857C230.058 181.857 227.26 182.61 224.673 184.114C222.146 185.558 220.1 187.694 218.535 190.522C217.031 193.29 216.279 196.509 216.279 200.179C216.279 203.91 217.031 207.189 218.535 210.017C220.1 212.785 222.146 214.921 224.673 216.426C227.26 217.87 230.058 218.592 233.067 218.592C236.135 218.592 238.933 217.87 241.461 216.426C244.048 214.921 246.094 212.785 247.598 210.017C249.102 207.189 249.854 203.88 249.854 200.089ZM300.83 225L286.93 200.45H280.973V225H268.337V162.001H291.984C296.858 162.001 301.01 162.874 304.44 164.618C307.87 166.303 310.427 168.62 312.112 171.568C313.857 174.456 314.729 177.706 314.729 181.316C314.729 185.468 313.526 189.228 311.119 192.598C308.712 195.907 305.132 198.194 300.378 199.457L315.451 225H300.83ZM280.973 190.973H291.533C294.963 190.973 297.52 190.161 299.205 188.536C300.89 186.852 301.732 184.535 301.732 181.587C301.732 178.698 300.89 176.472 299.205 174.908C297.52 173.283 294.963 172.471 291.533 172.471H280.973V190.973ZM372.008 198.374C372.008 199.939 371.918 201.594 371.737 203.338H332.205C332.506 208.212 334.161 212.033 337.169 214.801C340.238 217.509 343.938 218.863 348.271 218.863C351.821 218.863 354.769 218.05 357.116 216.426C359.523 214.741 361.207 212.515 362.17 209.747H371.015C369.691 214.5 367.044 218.381 363.073 221.39C359.101 224.338 354.167 225.812 348.271 225.812C343.577 225.812 339.365 224.759 335.635 222.653C331.964 220.547 329.076 217.569 326.97 213.718C324.864 209.807 323.811 205.294 323.811 200.179C323.811 195.065 324.834 190.582 326.88 186.731C328.926 182.88 331.784 179.932 335.454 177.886C339.185 175.78 343.457 174.727 348.271 174.727C352.964 174.727 357.116 175.75 360.726 177.796C364.336 179.842 367.104 182.67 369.03 186.28C371.015 189.83 372.008 193.862 372.008 198.374ZM363.524 196.659C363.524 193.531 362.832 190.853 361.448 188.627C360.064 186.34 358.169 184.625 355.762 183.482C353.415 182.279 350.798 181.677 347.91 181.677C343.758 181.677 340.208 183.001 337.259 185.648C334.371 188.296 332.716 191.966 332.295 196.659H363.524ZM400.359 225.812C396.568 225.812 393.169 225.181 390.16 223.917C387.152 222.593 384.775 220.788 383.03 218.502C381.285 216.155 380.322 213.477 380.142 210.469H388.626C388.866 212.936 390.01 214.951 392.056 216.516C394.162 218.08 396.899 218.863 400.269 218.863C403.398 218.863 405.865 218.171 407.67 216.787C409.475 215.403 410.378 213.658 410.378 211.552C410.378 209.386 409.415 207.791 407.489 206.768C405.564 205.685 402.585 204.632 398.554 203.609C394.884 202.646 391.875 201.684 389.528 200.721C387.242 199.698 385.256 198.224 383.571 196.298C381.947 194.313 381.134 191.725 381.134 188.536C381.134 186.009 381.887 183.693 383.391 181.587C384.895 179.481 387.031 177.826 389.799 176.623C392.567 175.359 395.726 174.727 399.276 174.727C404.752 174.727 409.174 176.111 412.544 178.879C415.913 181.647 417.718 185.438 417.959 190.251H409.746C409.565 187.664 408.512 185.588 406.587 184.024C404.722 182.459 402.194 181.677 399.005 181.677C396.057 181.677 393.71 182.309 391.965 183.572C390.22 184.836 389.348 186.491 389.348 188.536C389.348 190.161 389.859 191.515 390.882 192.598C391.965 193.621 393.289 194.463 394.853 195.125C396.478 195.727 398.704 196.419 401.532 197.201C405.083 198.164 407.971 199.126 410.197 200.089C412.423 200.992 414.319 202.376 415.883 204.241C417.508 206.106 418.35 208.543 418.41 211.552C418.41 214.259 417.658 216.696 416.154 218.863C414.65 221.029 412.514 222.744 409.746 224.007C407.038 225.211 403.909 225.812 400.359 225.812ZM447.515 225.812C443.724 225.812 440.324 225.181 437.316 223.917C434.307 222.593 431.93 220.788 430.185 218.502C428.44 216.155 427.478 213.477 427.297 210.469H435.781C436.022 212.936 437.165 214.951 439.211 216.516C441.317 218.08 444.055 218.863 447.424 218.863C450.553 218.863 453.02 218.171 454.825 216.787C456.63 215.403 457.533 213.658 457.533 211.552C457.533 209.386 456.57 207.791 454.645 206.768C452.719 205.685 449.741 204.632 445.709 203.609C442.039 202.646 439.03 201.684 436.684 200.721C434.397 199.698 432.412 198.224 430.727 196.298C429.102 194.313 428.29 191.725 428.29 188.536C428.29 186.009 429.042 183.693 430.546 181.587C432.051 179.481 434.187 177.826 436.955 176.623C439.722 175.359 442.881 174.727 446.431 174.727C451.907 174.727 456.33 176.111 459.699 178.879C463.069 181.647 464.874 185.438 465.115 190.251H456.901C456.721 187.664 455.668 185.588 453.742 184.024C451.877 182.459 449.35 181.677 446.161 181.677C443.212 181.677 440.866 182.309 439.121 183.572C437.376 184.836 436.503 186.491 436.503 188.536C436.503 190.161 437.015 191.515 438.038 192.598C439.121 193.621 440.444 194.463 442.009 195.125C443.634 195.727 445.86 196.419 448.688 197.201C452.238 198.164 455.126 199.126 457.353 200.089C459.579 200.992 461.474 202.376 463.039 204.241C464.663 206.106 465.506 208.543 465.566 211.552C465.566 214.259 464.814 216.696 463.309 218.863C461.805 221.029 459.669 222.744 456.901 224.007C454.194 225.211 451.065 225.812 447.515 225.812ZM525.569 215.08H506.113L502.529 225H496.385L512.513 180.648H519.233L535.297 225H529.153L525.569 215.08ZM523.905 210.344L515.841 187.816L507.777 210.344H523.905ZM548.15 195.624C549.174 193.619 550.625 192.061 552.502 190.952C554.422 189.843 556.747 189.288 559.478 189.288V195.304H557.942C551.414 195.304 548.15 198.845 548.15 205.928V225H542.326V189.928H548.15V195.624ZM598.841 179.88V189.864H586.809V225H574.265V189.864H562.361V179.88H598.841ZM629.15 195.712C628.518 195.712 627.977 195.486 627.526 195.035C627.074 194.584 626.849 194.027 626.849 193.365C626.849 192.703 627.074 192.162 627.526 191.741C627.977 191.289 628.518 191.064 629.15 191.064C629.782 191.064 630.324 191.289 630.775 191.741C631.226 192.162 631.452 192.703 631.452 193.365C631.452 194.027 631.226 194.584 630.775 195.035C630.324 195.486 629.782 195.712 629.15 195.712ZM630.73 200.36V225H627.571V200.36H630.73ZM649.436 199.909C652.384 199.909 654.791 200.826 656.657 202.662C658.522 204.467 659.455 207.099 659.455 210.559V225H656.341V210.92C656.341 208.242 655.664 206.197 654.31 204.783C652.986 203.369 651.166 202.662 648.849 202.662C646.473 202.662 644.577 203.414 643.163 204.918C641.749 206.422 641.042 208.634 641.042 211.552V225H637.883V200.36H641.042V204.557C641.824 203.053 642.953 201.909 644.427 201.127C645.901 200.315 647.571 199.909 649.436 199.909ZM15.6897 299.712C15.0579 299.712 14.5164 299.486 14.0651 299.035C13.6138 298.584 13.3882 298.027 13.3882 297.365C13.3882 296.703 13.6138 296.162 14.0651 295.741C14.5164 295.289 15.0579 295.064 15.6897 295.064C16.3215 295.064 16.8631 295.289 17.3144 295.741C17.7656 296.162 17.9913 296.703 17.9913 297.365C17.9913 298.027 17.7656 298.584 17.3144 299.035C16.8631 299.486 16.3215 299.712 15.6897 299.712ZM17.2692 304.36V329H14.1103V304.36H17.2692ZM28.5294 307.023V322.321C28.5294 323.825 28.8152 324.863 29.3869 325.435C29.9585 326.006 30.9663 326.292 32.4104 326.292H35.2987V329H31.914C29.6877 329 28.033 328.489 26.9499 327.466C25.8669 326.413 25.3253 324.698 25.3253 322.321V307.023H21.8956V304.36H25.3253V298.177H28.5294V304.36H35.2987V307.023H28.5294ZM48.9926 329.361C46.1646 329.361 43.848 328.714 42.0429 327.421C40.2678 326.097 39.275 324.307 39.0644 322.05H42.3136C42.464 323.434 43.1109 324.562 44.2541 325.435C45.4275 326.277 46.9919 326.698 48.9475 326.698C50.6623 326.698 52.0011 326.292 52.9639 325.48C53.9567 324.668 54.4531 323.66 54.4531 322.456C54.4531 321.614 54.1823 320.922 53.6408 320.381C53.0993 319.839 52.4073 319.418 51.5649 319.117C50.7526 318.786 49.6394 318.44 48.2254 318.079C46.3902 317.598 44.901 317.116 43.7577 316.635C42.6145 316.154 41.6367 315.446 40.8244 314.514C40.0422 313.551 39.6511 312.272 39.6511 310.678C39.6511 309.475 40.0121 308.361 40.7341 307.338C41.4562 306.316 42.4791 305.503 43.8029 304.902C45.1266 304.3 46.6309 303.999 48.3157 303.999C50.9632 303.999 53.0993 304.676 54.7239 306.03C56.3485 307.354 57.221 309.189 57.3413 311.535H54.1823C54.0921 310.091 53.5205 308.933 52.4675 308.061C51.4446 307.158 50.0305 306.707 48.2254 306.707C46.6309 306.707 45.3372 307.083 44.3444 307.835C43.3516 308.587 42.8552 309.52 42.8552 310.633C42.8552 311.596 43.141 312.393 43.7126 313.025C44.3143 313.626 45.0514 314.108 45.9239 314.469C46.7964 314.8 47.9697 315.176 49.4439 315.597C51.2189 316.078 52.6329 316.545 53.6859 316.996C54.7389 317.447 55.6415 318.109 56.3936 318.982C57.1458 319.854 57.5369 321.012 57.567 322.456C57.567 323.78 57.2059 324.969 56.4839 326.022C55.7618 327.044 54.754 327.857 53.4603 328.458C52.1666 329.06 50.6774 329.361 48.9926 329.361ZM76.6192 304.27C76.6192 299.215 77.612 294.793 79.5976 291.002C81.6434 287.151 84.4414 284.203 87.9915 282.157C91.6017 280.051 95.6633 278.998 100.176 278.998C104.869 278.998 108.901 280.081 112.27 282.247C115.7 284.413 118.167 287.181 119.671 290.551V279.72H125.989V329H119.671V318.079C118.107 321.449 115.61 324.246 112.18 326.473C108.811 328.639 104.779 329.722 100.086 329.722C95.6332 329.722 91.6017 328.669 87.9915 326.563C84.4414 324.457 81.6434 321.479 79.5976 317.628C77.612 313.777 76.6192 309.324 76.6192 304.27ZM119.671 304.36C119.671 300.389 118.859 296.899 117.235 293.89C115.61 290.882 113.384 288.565 110.556 286.941C107.788 285.316 104.719 284.504 101.349 284.504C97.8595 284.504 94.7306 285.286 91.9628 286.85C89.1949 288.415 86.9987 290.701 85.374 293.71C83.8096 296.658 83.0274 300.178 83.0274 304.27C83.0274 308.301 83.8096 311.851 85.374 314.92C86.9987 317.929 89.1949 320.245 91.9628 321.87C94.7306 323.434 97.8595 324.216 101.349 324.216C104.719 324.216 107.788 323.404 110.556 321.779C113.384 320.155 115.61 317.838 117.235 314.83C118.859 311.821 119.671 308.331 119.671 304.36ZM183.104 279.72V329H176.786V320.335C175.342 323.404 173.116 325.751 170.107 327.375C167.099 329 163.729 329.812 159.998 329.812C154.102 329.812 149.288 328.007 145.557 324.397C141.827 320.726 139.962 315.431 139.962 308.512V279.72H146.189V307.79C146.189 313.145 147.513 317.237 150.161 320.065C152.868 322.893 156.539 324.307 161.172 324.307C165.925 324.307 169.716 322.802 172.544 319.794C175.372 316.785 176.786 312.363 176.786 306.526V279.72H183.104ZM205.742 285.045V315.642C205.742 318.651 206.313 320.726 207.456 321.87C208.6 323.013 210.615 323.585 213.504 323.585H219.28V329H212.511C208.058 329 204.749 327.977 202.583 325.931C200.416 323.825 199.333 320.396 199.333 315.642V285.045H192.474V279.72H199.333V267.355H205.742V279.72H219.28V285.045H205.742ZM282.951 265.64V329H267.517V302.916H243.509V329H228.075V265.64H243.509V290.461H267.517V265.64H282.951ZM340.033 301.201C340.033 303.367 339.973 304.992 339.853 306.075H297.522C297.643 310.467 298.606 314.168 300.411 317.176C302.216 320.185 304.593 322.441 307.541 323.946C310.489 325.45 313.708 326.202 317.198 326.202C322.012 326.202 326.043 325.029 329.293 322.682C332.542 320.275 334.588 317.026 335.43 312.934H339.672C338.709 317.929 336.242 321.99 332.271 325.119C328.3 328.188 323.276 329.722 317.198 329.722C312.625 329.722 308.534 328.699 304.923 326.653C301.313 324.608 298.485 321.689 296.439 317.898C294.394 314.048 293.371 309.565 293.371 304.45C293.371 299.336 294.363 294.883 296.349 291.092C298.395 287.302 301.223 284.413 304.833 282.428C308.443 280.382 312.565 279.359 317.198 279.359C321.892 279.359 325.953 280.382 329.383 282.428C332.873 284.413 335.52 287.091 337.326 290.461C339.131 293.77 340.033 297.35 340.033 301.201ZM335.972 302.735C336.152 298.403 335.37 294.733 333.625 291.724C331.94 288.716 329.624 286.489 326.675 285.045C323.727 283.541 320.538 282.789 317.108 282.789C313.678 282.789 310.489 283.541 307.541 285.045C304.653 286.489 302.276 288.716 300.411 291.724C298.606 294.733 297.643 298.403 297.522 302.735H335.972ZM374.421 278.998C380.257 278.998 385.011 280.803 388.681 284.413C392.352 287.963 394.187 293.258 394.187 300.298V329H390.216V300.569C390.216 294.733 388.742 290.28 385.793 287.211C382.845 284.082 378.843 282.518 373.789 282.518C368.494 282.518 364.252 284.203 361.063 287.572C357.934 290.942 356.37 295.936 356.37 302.555V329H352.308V279.991H356.37V290.37C357.754 286.7 360.04 283.902 363.229 281.976C366.478 279.991 370.209 278.998 374.421 278.998ZM414.589 283.511V315.913C414.589 319.523 415.251 322.02 416.575 323.404C417.899 324.728 420.245 325.39 423.615 325.39H429.121V329H422.983C418.711 329 415.552 328.007 413.506 326.022C411.521 323.976 410.528 320.606 410.528 315.913V283.511H403.127V279.991H410.528V267.535H414.589V279.991H429.121V283.511H414.589ZM441.908 269.07C440.945 269.07 440.133 268.769 439.471 268.167C438.809 267.505 438.478 266.633 438.478 265.55C438.478 264.527 438.809 263.684 439.471 263.023C440.133 262.361 440.945 262.03 441.908 262.03C442.871 262.03 443.683 262.361 444.345 263.023C445.007 263.684 445.338 264.527 445.338 265.55C445.338 266.633 445.007 267.505 444.345 268.167C443.683 268.769 442.871 269.07 441.908 269.07ZM443.894 279.991V329H439.832V279.991H443.894ZM455.262 304.179C455.262 299.065 456.285 294.612 458.331 290.822C460.377 286.971 463.205 283.992 466.815 281.886C470.486 279.78 474.668 278.727 479.361 278.727C485.438 278.727 490.432 280.201 494.343 283.15C498.315 286.098 500.932 290.19 502.196 295.425H493.351C492.508 292.416 490.854 290.039 488.387 288.294C485.98 286.549 482.971 285.677 479.361 285.677C474.668 285.677 470.877 287.302 467.989 290.551C465.1 293.74 463.656 298.283 463.656 304.179C463.656 310.136 465.1 314.739 467.989 317.989C470.877 321.238 474.668 322.863 479.361 322.863C482.971 322.863 485.98 322.02 488.387 320.335C490.793 318.651 492.448 316.244 493.351 313.115H502.196C500.872 318.169 498.224 322.231 494.253 325.299C490.282 328.308 485.318 329.812 479.361 329.812C474.668 329.812 470.486 328.759 466.815 326.653C463.205 324.547 460.377 321.569 458.331 317.718C456.285 313.867 455.262 309.354 455.262 304.179ZM517.397 271.507C515.832 271.507 514.509 270.965 513.426 269.882C512.343 268.799 511.801 267.475 511.801 265.911C511.801 264.346 512.343 263.023 513.426 261.939C514.509 260.856 515.832 260.315 517.397 260.315C518.901 260.315 520.165 260.856 521.188 261.939C522.271 263.023 522.812 264.346 522.812 265.911C522.812 267.475 522.271 268.799 521.188 269.882C520.165 270.965 518.901 271.507 517.397 271.507ZM521.368 279.539V329H513.155V279.539H521.368ZM545.385 286.309V315.462C545.385 317.868 545.896 319.583 546.919 320.606C547.942 321.569 549.717 322.05 552.244 322.05H558.291V329H550.89C546.317 329 542.888 327.947 540.601 325.841C538.315 323.735 537.171 320.275 537.171 315.462V286.309H530.763V279.539H537.171V267.084H545.385V279.539H558.291V286.309H545.385ZM610.844 279.539L581.059 352.286H572.575L582.323 328.458L562.376 279.539H571.492L587.016 319.613L602.36 279.539H610.844Z" fill="#1E0734"/>
</svg>
