<svg width="548" height="627" viewBox="0 0 548 627" fill="none" xmlns="http://www.w3.org/2000/svg">
<rect x="1.5" y="1.5" width="544.5" height="624" rx="8.5" stroke="url(#paint0_linear_2365_293)" stroke-width="3"/>
<path d="M428.089 68.0296L407.621 51.6546C403.621 48.4671 397.371 48.4358 393.402 51.6233L372.933 68.0296C369.996 70.3734 368.214 75.0609 368.839 78.7484L372.777 102.311C373.683 107.592 378.589 111.748 383.933 111.748H417.058C422.339 111.748 427.339 107.498 428.246 102.28L432.183 78.7171C432.746 75.0609 430.964 70.3734 428.089 68.0296ZM402.839 99.2484C402.839 100.53 401.777 101.592 400.496 101.592C399.214 101.592 398.152 100.53 398.152 99.2484V89.8734C398.152 88.5921 399.214 87.5296 400.496 87.5296C401.777 87.5296 402.839 88.5921 402.839 89.8734V99.2484Z" fill="#FD8EEA"/>
<path d="M98.3162 172.585C98.3162 170.166 98.8735 167.996 99.9882 166.075C101.127 164.154 102.656 162.66 104.577 161.593C106.522 160.502 108.644 159.956 110.945 159.956C113.577 159.956 115.913 160.608 117.953 161.913C120.016 163.193 121.51 165.019 122.435 167.391H117.562C116.921 166.087 116.032 165.114 114.894 164.474C113.755 163.834 112.439 163.514 110.945 163.514C109.308 163.514 107.85 163.881 106.569 164.616C105.289 165.352 104.281 166.407 103.546 167.782C102.834 169.158 102.478 170.759 102.478 172.585C102.478 174.411 102.834 176.012 103.546 177.387C104.281 178.763 105.289 179.83 106.569 180.589C107.85 181.324 109.308 181.692 110.945 181.692C112.439 181.692 113.755 181.371 114.894 180.731C116.032 180.091 116.921 179.118 117.562 177.814H122.435C121.51 180.186 120.016 182.012 117.953 183.292C115.913 184.573 113.577 185.213 110.945 185.213C108.621 185.213 106.498 184.68 104.577 183.613C102.656 182.522 101.127 181.016 99.9882 179.095C98.8735 177.174 98.3162 175.004 98.3162 172.585ZM135.684 185.32C133.834 185.32 132.162 184.905 130.668 184.075C129.174 183.221 128 182.036 127.146 180.518C126.293 178.976 125.866 177.198 125.866 175.182C125.866 173.19 126.304 171.423 127.182 169.881C128.059 168.34 129.257 167.154 130.775 166.324C132.293 165.494 133.988 165.079 135.862 165.079C137.735 165.079 139.431 165.494 140.949 166.324C142.467 167.154 143.664 168.34 144.542 169.881C145.419 171.423 145.858 173.19 145.858 175.182C145.858 177.174 145.408 178.941 144.506 180.482C143.605 182.024 142.372 183.221 140.807 184.075C139.265 184.905 137.558 185.32 135.684 185.32ZM135.684 181.798C136.728 181.798 137.7 181.549 138.601 181.051C139.526 180.553 140.273 179.806 140.842 178.81C141.411 177.814 141.696 176.605 141.696 175.182C141.696 173.759 141.423 172.561 140.878 171.589C140.332 170.593 139.609 169.846 138.708 169.348C137.807 168.85 136.834 168.601 135.791 168.601C134.747 168.601 133.775 168.85 132.874 169.348C131.996 169.846 131.297 170.593 130.775 171.589C130.253 172.561 129.992 173.759 129.992 175.182C129.992 177.292 130.526 178.929 131.593 180.091C132.684 181.229 134.048 181.798 135.684 181.798ZM159.757 165.079C161.298 165.079 162.674 165.399 163.883 166.039C165.116 166.68 166.077 167.628 166.765 168.885C167.452 170.142 167.796 171.66 167.796 173.439V185H163.776V174.043C163.776 172.288 163.338 170.948 162.46 170.024C161.583 169.075 160.385 168.601 158.867 168.601C157.349 168.601 156.14 169.075 155.239 170.024C154.361 170.948 153.922 172.288 153.922 174.043V185H149.867V165.399H153.922V167.64C154.587 166.834 155.428 166.205 156.448 165.755C157.492 165.304 158.594 165.079 159.757 165.079ZM182.859 165.079C184.4 165.079 185.776 165.399 186.985 166.039C188.218 166.68 189.179 167.628 189.867 168.885C190.554 170.142 190.898 171.66 190.898 173.439V185H186.878V174.043C186.878 172.288 186.44 170.948 185.562 170.024C184.685 169.075 183.487 168.601 181.969 168.601C180.451 168.601 179.242 169.075 178.341 170.024C177.463 170.948 177.024 172.288 177.024 174.043V185H172.969V165.399H177.024V167.64C177.689 166.834 178.53 166.205 179.55 165.755C180.594 165.304 181.696 165.079 182.859 165.079ZM214.036 174.719C214.036 175.454 213.988 176.118 213.893 176.711H198.917C199.036 178.277 199.617 179.534 200.66 180.482C201.704 181.431 202.984 181.905 204.502 181.905C206.684 181.905 208.225 180.992 209.127 179.166H213.502C212.909 180.968 211.83 182.451 210.265 183.613C208.723 184.751 206.802 185.32 204.502 185.32C202.628 185.32 200.945 184.905 199.451 184.075C197.98 183.221 196.818 182.036 195.964 180.518C195.134 178.976 194.719 177.198 194.719 175.182C194.719 173.166 195.122 171.399 195.929 169.881C196.759 168.34 197.909 167.154 199.379 166.324C200.874 165.494 202.581 165.079 204.502 165.079C206.352 165.079 208 165.482 209.447 166.288C210.893 167.095 212.02 168.233 212.826 169.703C213.633 171.15 214.036 172.822 214.036 174.719ZM209.803 173.439C209.779 171.944 209.245 170.747 208.202 169.846C207.158 168.944 205.866 168.494 204.324 168.494C202.925 168.494 201.727 168.944 200.731 169.846C199.735 170.723 199.142 171.921 198.953 173.439H209.803ZM216.675 175.182C216.675 173.166 217.078 171.399 217.884 169.881C218.714 168.34 219.853 167.154 221.299 166.324C222.746 165.494 224.406 165.079 226.28 165.079C228.651 165.079 230.608 165.648 232.149 166.786C233.715 167.901 234.77 169.502 235.315 171.589H230.94C230.584 170.616 230.015 169.858 229.232 169.312C228.45 168.767 227.466 168.494 226.28 168.494C224.62 168.494 223.292 169.087 222.296 170.273C221.323 171.435 220.837 173.071 220.837 175.182C220.837 177.292 221.323 178.941 222.296 180.126C223.292 181.312 224.62 181.905 226.28 181.905C228.628 181.905 230.181 180.873 230.94 178.81H235.315C234.746 180.802 233.679 182.391 232.114 183.577C230.549 184.739 228.604 185.32 226.28 185.32C224.406 185.32 222.746 184.905 221.299 184.075C219.853 183.221 218.714 182.036 217.884 180.518C217.078 178.976 216.675 177.198 216.675 175.182ZM244.088 168.707V179.557C244.088 180.292 244.254 180.826 244.586 181.158C244.942 181.466 245.535 181.621 246.365 181.621H248.855V185H245.653C243.827 185 242.428 184.573 241.456 183.719C240.483 182.866 239.997 181.478 239.997 179.557V168.707H237.685V165.399H239.997V160.525H244.088V165.399H248.855V168.707H244.088ZM288.158 165.399L282.075 185H277.806L273.858 170.522L269.909 185H265.64L259.521 165.399H263.648L267.739 181.158L271.901 165.399H276.134L280.118 181.087L284.174 165.399H288.158ZM293.252 162.802C292.517 162.802 291.9 162.553 291.402 162.055C290.904 161.557 290.655 160.94 290.655 160.205C290.655 159.47 290.904 158.853 291.402 158.355C291.9 157.857 292.517 157.608 293.252 157.608C293.964 157.608 294.568 157.857 295.066 158.355C295.564 158.853 295.813 159.47 295.813 160.205C295.813 160.94 295.564 161.557 295.066 162.055C294.568 162.553 293.964 162.802 293.252 162.802ZM295.244 165.399V185H291.189V165.399H295.244ZM305.3 168.707V179.557C305.3 180.292 305.466 180.826 305.798 181.158C306.154 181.466 306.747 181.621 307.577 181.621H310.067V185H306.865C305.039 185 303.64 184.573 302.667 183.719C301.695 182.866 301.209 181.478 301.209 179.557V168.707H298.897V165.399H301.209V160.525H305.3V165.399H310.067V168.707H305.3ZM323.943 165.079C325.437 165.079 326.765 165.399 327.927 166.039C329.113 166.68 330.038 167.628 330.702 168.885C331.39 170.142 331.734 171.66 331.734 173.439V185H327.714V174.043C327.714 172.288 327.275 170.948 326.398 170.024C325.52 169.075 324.322 168.601 322.805 168.601C321.287 168.601 320.077 169.075 319.176 170.024C318.299 170.948 317.86 172.288 317.86 174.043V185H313.804V158.676H317.86V167.676C318.548 166.846 319.413 166.205 320.457 165.755C321.524 165.304 322.686 165.079 323.943 165.079ZM103.723 212.676V239H99.668V212.676H103.723ZM111.111 216.802C110.376 216.802 109.759 216.553 109.261 216.055C108.763 215.557 108.514 214.94 108.514 214.205C108.514 213.47 108.763 212.853 109.261 212.355C109.759 211.857 110.376 211.608 111.111 211.608C111.823 211.608 112.427 211.857 112.925 212.355C113.423 212.853 113.672 213.47 113.672 214.205C113.672 214.94 113.423 215.557 112.925 216.055C112.427 216.553 111.823 216.802 111.111 216.802ZM113.103 219.399V239H109.048V219.399H113.103ZM126.183 229.217L135.218 239H129.74L122.483 230.569V239H118.428V212.676H122.483V227.972L129.598 219.399H135.218L126.183 229.217ZM156.09 228.719C156.09 229.454 156.042 230.118 155.947 230.711H140.971C141.089 232.277 141.671 233.534 142.714 234.482C143.758 235.431 145.038 235.905 146.556 235.905C148.738 235.905 150.279 234.992 151.181 233.166H155.556C154.963 234.968 153.884 236.451 152.319 237.613C150.777 238.751 148.856 239.32 146.556 239.32C144.682 239.32 142.999 238.905 141.505 238.075C140.034 237.221 138.872 236.036 138.018 234.518C137.188 232.976 136.773 231.198 136.773 229.182C136.773 227.166 137.176 225.399 137.983 223.881C138.813 222.34 139.963 221.154 141.433 220.324C142.927 219.494 144.635 219.079 146.556 219.079C148.406 219.079 150.054 219.482 151.501 220.288C152.947 221.095 154.074 222.233 154.88 223.703C155.687 225.15 156.09 226.822 156.09 228.719ZM151.856 227.439C151.833 225.944 151.299 224.747 150.256 223.846C149.212 222.944 147.92 222.494 146.378 222.494C144.979 222.494 143.781 222.944 142.785 223.846C141.789 224.723 141.196 225.921 141.006 227.439H151.856ZM175.128 224.415V227.83H160.508V224.415H175.128ZM204.617 219.079C206.159 219.079 207.534 219.399 208.744 220.039C209.977 220.68 210.938 221.628 211.625 222.885C212.337 224.142 212.693 225.66 212.693 227.439V239H208.673V228.043C208.673 226.288 208.234 224.948 207.357 224.024C206.479 223.075 205.281 222.601 203.764 222.601C202.246 222.601 201.036 223.075 200.135 224.024C199.258 224.948 198.819 226.288 198.819 228.043V239H194.799V228.043C194.799 226.288 194.36 224.948 193.483 224.024C192.605 223.075 191.408 222.601 189.89 222.601C188.372 222.601 187.163 223.075 186.261 224.024C185.384 224.948 184.945 226.288 184.945 228.043V239H180.89V219.399H184.945V221.64C185.609 220.834 186.451 220.205 187.471 219.755C188.491 219.304 189.582 219.079 190.744 219.079C192.309 219.079 193.708 219.411 194.941 220.075C196.175 220.739 197.123 221.699 197.787 222.956C198.38 221.771 199.305 220.834 200.562 220.146C201.819 219.435 203.171 219.079 204.617 219.079ZM219.916 216.802C219.181 216.802 218.564 216.553 218.066 216.055C217.568 215.557 217.319 214.94 217.319 214.205C217.319 213.47 217.568 212.853 218.066 212.355C218.564 211.857 219.181 211.608 219.916 211.608C220.628 211.608 221.232 211.857 221.731 212.355C222.229 212.853 222.478 213.47 222.478 214.205C222.478 214.94 222.229 215.557 221.731 216.055C221.232 216.553 220.628 216.802 219.916 216.802ZM221.908 219.399V239H217.853V219.399H221.908ZM237.122 219.079C238.664 219.079 240.039 219.399 241.249 220.039C242.482 220.68 243.442 221.628 244.13 222.885C244.818 224.142 245.162 225.66 245.162 227.439V239H241.142V228.043C241.142 226.288 240.703 224.948 239.826 224.024C238.948 223.075 237.751 222.601 236.233 222.601C234.715 222.601 233.506 223.075 232.604 224.024C231.727 224.948 231.288 226.288 231.288 228.043V239H227.233V219.399H231.288V221.64C231.952 220.834 232.794 220.205 233.814 219.755C234.857 219.304 235.96 219.079 237.122 219.079ZM248.983 229.111C248.983 227.142 249.386 225.399 250.192 223.881C251.022 222.363 252.137 221.189 253.536 220.359C254.959 219.506 256.536 219.079 258.268 219.079C259.548 219.079 260.805 219.363 262.038 219.933C263.295 220.478 264.291 221.213 265.027 222.138V212.676H269.118V239H265.027V236.047C264.363 236.996 263.438 237.779 262.252 238.395C261.09 239.012 259.75 239.32 258.232 239.32C256.525 239.32 254.959 238.893 253.536 238.04C252.137 237.162 251.022 235.953 250.192 234.411C249.386 232.846 248.983 231.079 248.983 229.111ZM265.027 229.182C265.027 227.83 264.742 226.656 264.173 225.66C263.627 224.664 262.904 223.905 262.003 223.383C261.102 222.861 260.129 222.601 259.086 222.601C258.042 222.601 257.07 222.861 256.169 223.383C255.268 223.881 254.532 224.628 253.963 225.624C253.418 226.597 253.145 227.759 253.145 229.111C253.145 230.462 253.418 231.648 253.963 232.668C254.532 233.688 255.268 234.47 256.169 235.016C257.094 235.538 258.066 235.798 259.086 235.798C260.129 235.798 261.102 235.538 262.003 235.016C262.904 234.494 263.627 233.735 264.173 232.739C264.742 231.719 265.027 230.533 265.027 229.182ZM292.409 228.719C292.409 229.454 292.361 230.118 292.267 230.711H277.29C277.409 232.277 277.99 233.534 279.033 234.482C280.077 235.431 281.357 235.905 282.875 235.905C285.057 235.905 286.599 234.992 287.5 233.166H291.875C291.282 234.968 290.203 236.451 288.638 237.613C287.097 238.751 285.176 239.32 282.875 239.32C281.002 239.32 279.318 238.905 277.824 238.075C276.353 237.221 275.191 236.036 274.337 234.518C273.507 232.976 273.092 231.198 273.092 229.182C273.092 227.166 273.496 225.399 274.302 223.881C275.132 222.34 276.282 221.154 277.753 220.324C279.247 219.494 280.954 219.079 282.875 219.079C284.725 219.079 286.373 219.482 287.82 220.288C289.267 221.095 290.393 222.233 291.199 223.703C292.006 225.15 292.409 226.822 292.409 228.719ZM288.176 227.439C288.152 225.944 287.618 224.747 286.575 223.846C285.531 222.944 284.239 222.494 282.697 222.494C281.298 222.494 280.1 222.944 279.104 223.846C278.108 224.723 277.515 225.921 277.326 227.439H288.176ZM295.048 229.111C295.048 227.142 295.451 225.399 296.257 223.881C297.088 222.363 298.202 221.189 299.601 220.359C301.024 219.506 302.601 219.079 304.333 219.079C305.613 219.079 306.87 219.363 308.104 219.933C309.36 220.478 310.356 221.213 311.092 222.138V212.676H315.183V239H311.092V236.047C310.428 236.996 309.503 237.779 308.317 238.395C307.155 239.012 305.815 239.32 304.297 239.32C302.59 239.32 301.024 238.893 299.601 238.04C298.202 237.162 297.088 235.953 296.257 234.411C295.451 232.846 295.048 231.079 295.048 229.111ZM311.092 229.182C311.092 227.83 310.807 226.656 310.238 225.66C309.692 224.664 308.969 223.905 308.068 223.383C307.167 222.861 306.194 222.601 305.151 222.601C304.107 222.601 303.135 222.861 302.234 223.383C301.333 223.881 300.597 224.628 300.028 225.624C299.483 226.597 299.21 227.759 299.21 229.111C299.21 230.462 299.483 231.648 300.028 232.668C300.597 233.688 301.333 234.47 302.234 235.016C303.159 235.538 304.131 235.798 305.151 235.798C306.194 235.798 307.167 235.538 308.068 235.016C308.969 234.494 309.692 233.735 310.238 232.739C310.807 231.719 311.092 230.533 311.092 229.182ZM337.896 239.249C336.236 239.249 334.742 238.964 333.414 238.395C332.086 237.802 331.043 236.972 330.284 235.905C329.525 234.838 329.145 233.593 329.145 232.17H333.485C333.58 233.237 333.995 234.115 334.73 234.802C335.489 235.49 336.545 235.834 337.896 235.834C339.296 235.834 340.387 235.502 341.169 234.838C341.952 234.15 342.343 233.273 342.343 232.205C342.343 231.375 342.094 230.699 341.596 230.178C341.122 229.656 340.517 229.253 339.782 228.968C339.07 228.684 338.074 228.375 336.794 228.043C335.181 227.616 333.865 227.19 332.845 226.763C331.849 226.312 330.995 225.624 330.284 224.699C329.572 223.774 329.216 222.541 329.216 221C329.216 219.577 329.572 218.332 330.284 217.265C330.995 216.197 331.991 215.379 333.272 214.81C334.552 214.241 336.035 213.956 337.719 213.956C340.114 213.956 342.07 214.561 343.588 215.77C345.13 216.956 345.983 218.593 346.149 220.68H341.667C341.596 219.778 341.169 219.008 340.387 218.367C339.604 217.727 338.572 217.407 337.292 217.407C336.13 217.407 335.181 217.703 334.446 218.296C333.711 218.889 333.343 219.743 333.343 220.857C333.343 221.616 333.568 222.245 334.019 222.743C334.493 223.217 335.086 223.597 335.798 223.881C336.509 224.166 337.481 224.474 338.715 224.806C340.351 225.257 341.679 225.707 342.699 226.158C343.742 226.609 344.62 227.308 345.331 228.257C346.066 229.182 346.434 230.427 346.434 231.992C346.434 233.249 346.09 234.435 345.402 235.549C344.738 236.664 343.754 237.565 342.45 238.253C341.169 238.917 339.651 239.249 337.896 239.249ZM359.721 239.32C357.872 239.32 356.2 238.905 354.705 238.075C353.211 237.221 352.037 236.036 351.184 234.518C350.33 232.976 349.903 231.198 349.903 229.182C349.903 227.19 350.342 225.423 351.219 223.881C352.097 222.34 353.294 221.154 354.812 220.324C356.33 219.494 358.026 219.079 359.899 219.079C361.773 219.079 363.468 219.494 364.986 220.324C366.504 221.154 367.702 222.34 368.579 223.881C369.457 225.423 369.895 227.19 369.895 229.182C369.895 231.174 369.445 232.941 368.544 234.482C367.642 236.024 366.409 237.221 364.844 238.075C363.302 238.905 361.595 239.32 359.721 239.32ZM359.721 235.798C360.765 235.798 361.737 235.549 362.638 235.051C363.563 234.553 364.31 233.806 364.88 232.81C365.449 231.814 365.733 230.605 365.733 229.182C365.733 227.759 365.461 226.561 364.915 225.589C364.37 224.593 363.646 223.846 362.745 223.348C361.844 222.85 360.872 222.601 359.828 222.601C358.785 222.601 357.812 222.85 356.911 223.348C356.034 223.846 355.334 224.593 354.812 225.589C354.29 226.561 354.03 227.759 354.03 229.182C354.03 231.292 354.563 232.929 355.63 234.091C356.721 235.229 358.085 235.798 359.721 235.798ZM391.656 219.399V239H387.6V236.688C386.96 237.494 386.118 238.134 385.074 238.609C384.055 239.059 382.964 239.285 381.802 239.285C380.26 239.285 378.873 238.964 377.64 238.324C376.43 237.684 375.47 236.735 374.758 235.478C374.07 234.221 373.727 232.703 373.727 230.925V219.399H377.746V230.32C377.746 232.075 378.185 233.427 379.063 234.375C379.94 235.3 381.138 235.763 382.655 235.763C384.173 235.763 385.371 235.3 386.248 234.375C387.15 233.427 387.6 232.075 387.6 230.32V219.399H391.656ZM401.062 212.676V239H397.006V212.676H401.062ZM413.501 239.32C411.959 239.32 410.572 239.047 409.339 238.502C408.129 237.933 407.169 237.174 406.457 236.225C405.746 235.253 405.366 234.174 405.319 232.988H409.517C409.588 233.818 409.979 234.518 410.691 235.087C411.426 235.632 412.339 235.905 413.43 235.905C414.568 235.905 415.446 235.692 416.062 235.265C416.702 234.814 417.023 234.245 417.023 233.557C417.023 232.822 416.667 232.277 415.955 231.921C415.268 231.565 414.165 231.174 412.647 230.747C411.177 230.344 409.979 229.952 409.054 229.573C408.129 229.194 407.323 228.613 406.635 227.83C405.971 227.047 405.639 226.016 405.639 224.735C405.639 223.691 405.947 222.743 406.564 221.889C407.181 221.012 408.058 220.324 409.196 219.826C410.359 219.328 411.687 219.079 413.181 219.079C415.41 219.079 417.201 219.648 418.552 220.786C419.928 221.901 420.663 223.431 420.758 225.375H416.702C416.631 224.498 416.276 223.798 415.635 223.276C414.995 222.755 414.129 222.494 413.038 222.494C411.971 222.494 411.153 222.695 410.584 223.099C410.015 223.502 409.73 224.035 409.73 224.699C409.73 225.221 409.92 225.66 410.299 226.016C410.679 226.371 411.141 226.656 411.687 226.869C412.232 227.059 413.038 227.308 414.106 227.616C415.529 227.996 416.691 228.387 417.592 228.79C418.517 229.17 419.311 229.739 419.975 230.498C420.639 231.257 420.983 232.265 421.007 233.522C421.007 234.636 420.699 235.632 420.082 236.51C419.465 237.387 418.588 238.075 417.45 238.573C416.335 239.071 415.019 239.32 413.501 239.32Z" fill="#F3F3F3"/>
<path d="M103.469 299.844L106.855 287.938H108.496L107.547 292.566L103.902 305H102.273L103.469 299.844ZM99.9648 287.938L102.66 299.609L103.469 305H101.852L97.7148 287.938H99.9648ZM112.879 299.598L115.516 287.938H117.777L113.652 305H112.035L112.879 299.598ZM108.742 287.938L112.035 299.844L113.23 305H111.602L108.086 292.566L107.125 287.938H108.742ZM122.125 287V305H119.957V287H122.125ZM121.609 298.18L120.707 298.145C120.715 297.277 120.844 296.477 121.094 295.742C121.344 295 121.695 294.355 122.148 293.809C122.602 293.262 123.141 292.84 123.766 292.543C124.398 292.238 125.098 292.086 125.863 292.086C126.488 292.086 127.051 292.172 127.551 292.344C128.051 292.508 128.477 292.773 128.828 293.141C129.188 293.508 129.461 293.984 129.648 294.57C129.836 295.148 129.93 295.855 129.93 296.691V305H127.75V296.668C127.75 296.004 127.652 295.473 127.457 295.074C127.262 294.668 126.977 294.375 126.602 294.195C126.227 294.008 125.766 293.914 125.219 293.914C124.68 293.914 124.188 294.027 123.742 294.254C123.305 294.48 122.926 294.793 122.605 295.191C122.293 295.59 122.047 296.047 121.867 296.562C121.695 297.07 121.609 297.609 121.609 298.18ZM138.438 305.234C137.555 305.234 136.754 305.086 136.035 304.789C135.324 304.484 134.711 304.059 134.195 303.512C133.688 302.965 133.297 302.316 133.023 301.566C132.75 300.816 132.613 299.996 132.613 299.105V298.613C132.613 297.582 132.766 296.664 133.07 295.859C133.375 295.047 133.789 294.359 134.312 293.797C134.836 293.234 135.43 292.809 136.094 292.52C136.758 292.23 137.445 292.086 138.156 292.086C139.062 292.086 139.844 292.242 140.5 292.555C141.164 292.867 141.707 293.305 142.129 293.867C142.551 294.422 142.863 295.078 143.066 295.836C143.27 296.586 143.371 297.406 143.371 298.297V299.27H133.902V297.5H141.203V297.336C141.172 296.773 141.055 296.227 140.852 295.695C140.656 295.164 140.344 294.727 139.914 294.383C139.484 294.039 138.898 293.867 138.156 293.867C137.664 293.867 137.211 293.973 136.797 294.184C136.383 294.387 136.027 294.691 135.73 295.098C135.434 295.504 135.203 296 135.039 296.586C134.875 297.172 134.793 297.848 134.793 298.613V299.105C134.793 299.707 134.875 300.273 135.039 300.805C135.211 301.328 135.457 301.789 135.777 302.188C136.105 302.586 136.5 302.898 136.961 303.125C137.43 303.352 137.961 303.465 138.555 303.465C139.32 303.465 139.969 303.309 140.5 302.996C141.031 302.684 141.496 302.266 141.895 301.742L143.207 302.785C142.934 303.199 142.586 303.594 142.164 303.969C141.742 304.344 141.223 304.648 140.605 304.883C139.996 305.117 139.273 305.234 138.438 305.234ZM151.211 292.32V293.984H144.355V292.32H151.211ZM146.676 289.238H148.844V301.859C148.844 302.289 148.91 302.613 149.043 302.832C149.176 303.051 149.348 303.195 149.559 303.266C149.77 303.336 149.996 303.371 150.238 303.371C150.418 303.371 150.605 303.355 150.801 303.324C151.004 303.285 151.156 303.254 151.258 303.23L151.27 305C151.098 305.055 150.871 305.105 150.59 305.152C150.316 305.207 149.984 305.234 149.594 305.234C149.062 305.234 148.574 305.129 148.129 304.918C147.684 304.707 147.328 304.355 147.062 303.863C146.805 303.363 146.676 302.691 146.676 301.848V289.238ZM155.922 287V305H153.754V287H155.922ZM155.406 298.18L154.504 298.145C154.512 297.277 154.641 296.477 154.891 295.742C155.141 295 155.492 294.355 155.945 293.809C156.398 293.262 156.938 292.84 157.562 292.543C158.195 292.238 158.895 292.086 159.66 292.086C160.285 292.086 160.848 292.172 161.348 292.344C161.848 292.508 162.273 292.773 162.625 293.141C162.984 293.508 163.258 293.984 163.445 294.57C163.633 295.148 163.727 295.855 163.727 296.691V305H161.547V296.668C161.547 296.004 161.449 295.473 161.254 295.074C161.059 294.668 160.773 294.375 160.398 294.195C160.023 294.008 159.562 293.914 159.016 293.914C158.477 293.914 157.984 294.027 157.539 294.254C157.102 294.48 156.723 294.793 156.402 295.191C156.09 295.59 155.844 296.047 155.664 296.562C155.492 297.07 155.406 297.609 155.406 298.18ZM172.234 305.234C171.352 305.234 170.551 305.086 169.832 304.789C169.121 304.484 168.508 304.059 167.992 303.512C167.484 302.965 167.094 302.316 166.82 301.566C166.547 300.816 166.41 299.996 166.41 299.105V298.613C166.41 297.582 166.562 296.664 166.867 295.859C167.172 295.047 167.586 294.359 168.109 293.797C168.633 293.234 169.227 292.809 169.891 292.52C170.555 292.23 171.242 292.086 171.953 292.086C172.859 292.086 173.641 292.242 174.297 292.555C174.961 292.867 175.504 293.305 175.926 293.867C176.348 294.422 176.66 295.078 176.863 295.836C177.066 296.586 177.168 297.406 177.168 298.297V299.27H167.699V297.5H175V297.336C174.969 296.773 174.852 296.227 174.648 295.695C174.453 295.164 174.141 294.727 173.711 294.383C173.281 294.039 172.695 293.867 171.953 293.867C171.461 293.867 171.008 293.973 170.594 294.184C170.18 294.387 169.824 294.691 169.527 295.098C169.23 295.504 169 296 168.836 296.586C168.672 297.172 168.59 297.848 168.59 298.613V299.105C168.59 299.707 168.672 300.273 168.836 300.805C169.008 301.328 169.254 301.789 169.574 302.188C169.902 302.586 170.297 302.898 170.758 303.125C171.227 303.352 171.758 303.465 172.352 303.465C173.117 303.465 173.766 303.309 174.297 302.996C174.828 302.684 175.293 302.266 175.691 301.742L177.004 302.785C176.73 303.199 176.383 303.594 175.961 303.969C175.539 304.344 175.02 304.648 174.402 304.883C173.793 305.117 173.07 305.234 172.234 305.234ZM181.867 294.312V305H179.699V292.32H181.809L181.867 294.312ZM185.828 292.25L185.816 294.266C185.637 294.227 185.465 294.203 185.301 294.195C185.145 294.18 184.965 294.172 184.762 294.172C184.262 294.172 183.82 294.25 183.438 294.406C183.055 294.562 182.73 294.781 182.465 295.062C182.199 295.344 181.988 295.68 181.832 296.07C181.684 296.453 181.586 296.875 181.539 297.336L180.93 297.688C180.93 296.922 181.004 296.203 181.152 295.531C181.309 294.859 181.547 294.266 181.867 293.75C182.188 293.227 182.594 292.82 183.086 292.531C183.586 292.234 184.18 292.086 184.867 292.086C185.023 292.086 185.203 292.105 185.406 292.145C185.609 292.176 185.75 292.211 185.828 292.25ZM197.348 303.688L200.875 292.32H203.195L198.109 306.957C197.992 307.27 197.836 307.605 197.641 307.965C197.453 308.332 197.211 308.68 196.914 309.008C196.617 309.336 196.258 309.602 195.836 309.805C195.422 310.016 194.926 310.121 194.348 310.121C194.176 310.121 193.957 310.098 193.691 310.051C193.426 310.004 193.238 309.965 193.129 309.934L193.117 308.176C193.18 308.184 193.277 308.191 193.41 308.199C193.551 308.215 193.648 308.223 193.703 308.223C194.195 308.223 194.613 308.156 194.957 308.023C195.301 307.898 195.59 307.684 195.824 307.379C196.066 307.082 196.273 306.672 196.445 306.148L197.348 303.688ZM194.758 292.32L198.051 302.164L198.613 304.449L197.055 305.246L192.391 292.32H194.758ZM204.391 298.801V298.531C204.391 297.617 204.523 296.77 204.789 295.988C205.055 295.199 205.438 294.516 205.938 293.938C206.438 293.352 207.043 292.898 207.754 292.578C208.465 292.25 209.262 292.086 210.145 292.086C211.035 292.086 211.836 292.25 212.547 292.578C213.266 292.898 213.875 293.352 214.375 293.938C214.883 294.516 215.27 295.199 215.535 295.988C215.801 296.77 215.934 297.617 215.934 298.531V298.801C215.934 299.715 215.801 300.562 215.535 301.344C215.27 302.125 214.883 302.809 214.375 303.395C213.875 303.973 213.27 304.426 212.559 304.754C211.855 305.074 211.059 305.234 210.168 305.234C209.277 305.234 208.477 305.074 207.766 304.754C207.055 304.426 206.445 303.973 205.938 303.395C205.438 302.809 205.055 302.125 204.789 301.344C204.523 300.562 204.391 299.715 204.391 298.801ZM206.559 298.531V298.801C206.559 299.434 206.633 300.031 206.781 300.594C206.93 301.148 207.152 301.641 207.449 302.07C207.754 302.5 208.133 302.84 208.586 303.09C209.039 303.332 209.566 303.453 210.168 303.453C210.762 303.453 211.281 303.332 211.727 303.09C212.18 302.84 212.555 302.5 212.852 302.07C213.148 301.641 213.371 301.148 213.52 300.594C213.676 300.031 213.754 299.434 213.754 298.801V298.531C213.754 297.906 213.676 297.316 213.52 296.762C213.371 296.199 213.145 295.703 212.84 295.273C212.543 294.836 212.168 294.492 211.715 294.242C211.27 293.992 210.746 293.867 210.145 293.867C209.551 293.867 209.027 293.992 208.574 294.242C208.129 294.492 207.754 294.836 207.449 295.273C207.152 295.703 206.93 296.199 206.781 296.762C206.633 297.316 206.559 297.906 206.559 298.531ZM226.41 302.07V292.32H228.59V305H226.516L226.41 302.07ZM226.82 299.398L227.723 299.375C227.723 300.219 227.633 301 227.453 301.719C227.281 302.43 227 303.047 226.609 303.57C226.219 304.094 225.707 304.504 225.074 304.801C224.441 305.09 223.672 305.234 222.766 305.234C222.148 305.234 221.582 305.145 221.066 304.965C220.559 304.785 220.121 304.508 219.754 304.133C219.387 303.758 219.102 303.27 218.898 302.668C218.703 302.066 218.605 301.344 218.605 300.5V292.32H220.773V300.523C220.773 301.094 220.836 301.566 220.961 301.941C221.094 302.309 221.27 302.602 221.488 302.82C221.715 303.031 221.965 303.18 222.238 303.266C222.52 303.352 222.809 303.395 223.105 303.395C224.027 303.395 224.758 303.219 225.297 302.867C225.836 302.508 226.223 302.027 226.457 301.426C226.699 300.816 226.82 300.141 226.82 299.398ZM233.219 287V288.289L232.973 292.602H231.461L231.473 288.488V287H233.219ZM238.258 294.312V305H236.09V292.32H238.199L238.258 294.312ZM242.219 292.25L242.207 294.266C242.027 294.227 241.855 294.203 241.691 294.195C241.535 294.18 241.355 294.172 241.152 294.172C240.652 294.172 240.211 294.25 239.828 294.406C239.445 294.562 239.121 294.781 238.855 295.062C238.59 295.344 238.379 295.68 238.223 296.07C238.074 296.453 237.977 296.875 237.93 297.336L237.32 297.688C237.32 296.922 237.395 296.203 237.543 295.531C237.699 294.859 237.938 294.266 238.258 293.75C238.578 293.227 238.984 292.82 239.477 292.531C239.977 292.234 240.57 292.086 241.258 292.086C241.414 292.086 241.594 292.105 241.797 292.145C242 292.176 242.141 292.211 242.219 292.25ZM249.25 305.234C248.367 305.234 247.566 305.086 246.848 304.789C246.137 304.484 245.523 304.059 245.008 303.512C244.5 302.965 244.109 302.316 243.836 301.566C243.562 300.816 243.426 299.996 243.426 299.105V298.613C243.426 297.582 243.578 296.664 243.883 295.859C244.188 295.047 244.602 294.359 245.125 293.797C245.648 293.234 246.242 292.809 246.906 292.52C247.57 292.23 248.258 292.086 248.969 292.086C249.875 292.086 250.656 292.242 251.312 292.555C251.977 292.867 252.52 293.305 252.941 293.867C253.363 294.422 253.676 295.078 253.879 295.836C254.082 296.586 254.184 297.406 254.184 298.297V299.27H244.715V297.5H252.016V297.336C251.984 296.773 251.867 296.227 251.664 295.695C251.469 295.164 251.156 294.727 250.727 294.383C250.297 294.039 249.711 293.867 248.969 293.867C248.477 293.867 248.023 293.973 247.609 294.184C247.195 294.387 246.84 294.691 246.543 295.098C246.246 295.504 246.016 296 245.852 296.586C245.688 297.172 245.605 297.848 245.605 298.613V299.105C245.605 299.707 245.688 300.273 245.852 300.805C246.023 301.328 246.27 301.789 246.59 302.188C246.918 302.586 247.312 302.898 247.773 303.125C248.242 303.352 248.773 303.465 249.367 303.465C250.133 303.465 250.781 303.309 251.312 302.996C251.844 302.684 252.309 302.266 252.707 301.742L254.02 302.785C253.746 303.199 253.398 303.594 252.977 303.969C252.555 304.344 252.035 304.648 251.418 304.883C250.809 305.117 250.086 305.234 249.25 305.234ZM270.051 301.637C270.051 301.324 269.98 301.035 269.84 300.77C269.707 300.496 269.43 300.25 269.008 300.031C268.594 299.805 267.969 299.609 267.133 299.445C266.43 299.297 265.793 299.121 265.223 298.918C264.66 298.715 264.18 298.469 263.781 298.18C263.391 297.891 263.09 297.551 262.879 297.16C262.668 296.77 262.562 296.312 262.562 295.789C262.562 295.289 262.672 294.816 262.891 294.371C263.117 293.926 263.434 293.531 263.84 293.188C264.254 292.844 264.75 292.574 265.328 292.379C265.906 292.184 266.551 292.086 267.262 292.086C268.277 292.086 269.145 292.266 269.863 292.625C270.582 292.984 271.133 293.465 271.516 294.066C271.898 294.66 272.09 295.32 272.09 296.047H269.922C269.922 295.695 269.816 295.355 269.605 295.027C269.402 294.691 269.102 294.414 268.703 294.195C268.312 293.977 267.832 293.867 267.262 293.867C266.66 293.867 266.172 293.961 265.797 294.148C265.43 294.328 265.16 294.559 264.988 294.84C264.824 295.121 264.742 295.418 264.742 295.73C264.742 295.965 264.781 296.176 264.859 296.363C264.945 296.543 265.094 296.711 265.305 296.867C265.516 297.016 265.812 297.156 266.195 297.289C266.578 297.422 267.066 297.555 267.66 297.688C268.699 297.922 269.555 298.203 270.227 298.531C270.898 298.859 271.398 299.262 271.727 299.738C272.055 300.215 272.219 300.793 272.219 301.473C272.219 302.027 272.102 302.535 271.867 302.996C271.641 303.457 271.309 303.855 270.871 304.191C270.441 304.52 269.926 304.777 269.324 304.965C268.73 305.145 268.062 305.234 267.32 305.234C266.203 305.234 265.258 305.035 264.484 304.637C263.711 304.238 263.125 303.723 262.727 303.09C262.328 302.457 262.129 301.789 262.129 301.086H264.309C264.34 301.68 264.512 302.152 264.824 302.504C265.137 302.848 265.52 303.094 265.973 303.242C266.426 303.383 266.875 303.453 267.32 303.453C267.914 303.453 268.41 303.375 268.809 303.219C269.215 303.062 269.523 302.848 269.734 302.574C269.945 302.301 270.051 301.988 270.051 301.637ZM280.328 305.234C279.445 305.234 278.645 305.086 277.926 304.789C277.215 304.484 276.602 304.059 276.086 303.512C275.578 302.965 275.188 302.316 274.914 301.566C274.641 300.816 274.504 299.996 274.504 299.105V298.613C274.504 297.582 274.656 296.664 274.961 295.859C275.266 295.047 275.68 294.359 276.203 293.797C276.727 293.234 277.32 292.809 277.984 292.52C278.648 292.23 279.336 292.086 280.047 292.086C280.953 292.086 281.734 292.242 282.391 292.555C283.055 292.867 283.598 293.305 284.02 293.867C284.441 294.422 284.754 295.078 284.957 295.836C285.16 296.586 285.262 297.406 285.262 298.297V299.27H275.793V297.5H283.094V297.336C283.062 296.773 282.945 296.227 282.742 295.695C282.547 295.164 282.234 294.727 281.805 294.383C281.375 294.039 280.789 293.867 280.047 293.867C279.555 293.867 279.102 293.973 278.688 294.184C278.273 294.387 277.918 294.691 277.621 295.098C277.324 295.504 277.094 296 276.93 296.586C276.766 297.172 276.684 297.848 276.684 298.613V299.105C276.684 299.707 276.766 300.273 276.93 300.805C277.102 301.328 277.348 301.789 277.668 302.188C277.996 302.586 278.391 302.898 278.852 303.125C279.32 303.352 279.852 303.465 280.445 303.465C281.211 303.465 281.859 303.309 282.391 302.996C282.922 302.684 283.387 302.266 283.785 301.742L285.098 302.785C284.824 303.199 284.477 303.594 284.055 303.969C283.633 304.344 283.113 304.648 282.496 304.883C281.887 305.117 281.164 305.234 280.328 305.234ZM293.055 305.234C292.172 305.234 291.371 305.086 290.652 304.789C289.941 304.484 289.328 304.059 288.812 303.512C288.305 302.965 287.914 302.316 287.641 301.566C287.367 300.816 287.23 299.996 287.23 299.105V298.613C287.23 297.582 287.383 296.664 287.688 295.859C287.992 295.047 288.406 294.359 288.93 293.797C289.453 293.234 290.047 292.809 290.711 292.52C291.375 292.23 292.062 292.086 292.773 292.086C293.68 292.086 294.461 292.242 295.117 292.555C295.781 292.867 296.324 293.305 296.746 293.867C297.168 294.422 297.48 295.078 297.684 295.836C297.887 296.586 297.988 297.406 297.988 298.297V299.27H288.52V297.5H295.82V297.336C295.789 296.773 295.672 296.227 295.469 295.695C295.273 295.164 294.961 294.727 294.531 294.383C294.102 294.039 293.516 293.867 292.773 293.867C292.281 293.867 291.828 293.973 291.414 294.184C291 294.387 290.645 294.691 290.348 295.098C290.051 295.504 289.82 296 289.656 296.586C289.492 297.172 289.41 297.848 289.41 298.613V299.105C289.41 299.707 289.492 300.273 289.656 300.805C289.828 301.328 290.074 301.789 290.395 302.188C290.723 302.586 291.117 302.898 291.578 303.125C292.047 303.352 292.578 303.465 293.172 303.465C293.938 303.465 294.586 303.309 295.117 302.996C295.648 302.684 296.113 302.266 296.512 301.742L297.824 302.785C297.551 303.199 297.203 303.594 296.781 303.969C296.359 304.344 295.84 304.648 295.223 304.883C294.613 305.117 293.891 305.234 293.055 305.234ZM302.699 287V305H300.52V287H302.699ZM310.445 292.32L304.914 298.238L301.82 301.449L301.645 299.141L303.859 296.492L307.797 292.32H310.445ZM308.465 305L303.941 298.953L305.066 297.02L311.02 305H308.465ZM315.039 292.32V305H312.859V292.32H315.039ZM312.695 288.957C312.695 288.605 312.801 288.309 313.012 288.066C313.23 287.824 313.551 287.703 313.973 287.703C314.387 287.703 314.703 287.824 314.922 288.066C315.148 288.309 315.262 288.605 315.262 288.957C315.262 289.293 315.148 289.582 314.922 289.824C314.703 290.059 314.387 290.176 313.973 290.176C313.551 290.176 313.23 290.059 313.012 289.824C312.801 289.582 312.695 289.293 312.695 288.957ZM320.688 295.027V305H318.52V292.32H320.57L320.688 295.027ZM320.172 298.18L319.27 298.145C319.277 297.277 319.406 296.477 319.656 295.742C319.906 295 320.258 294.355 320.711 293.809C321.164 293.262 321.703 292.84 322.328 292.543C322.961 292.238 323.66 292.086 324.426 292.086C325.051 292.086 325.613 292.172 326.113 292.344C326.613 292.508 327.039 292.773 327.391 293.141C327.75 293.508 328.023 293.984 328.211 294.57C328.398 295.148 328.492 295.855 328.492 296.691V305H326.312V296.668C326.312 296.004 326.215 295.473 326.02 295.074C325.824 294.668 325.539 294.375 325.164 294.195C324.789 294.008 324.328 293.914 323.781 293.914C323.242 293.914 322.75 294.027 322.305 294.254C321.867 294.48 321.488 294.793 321.168 295.191C320.855 295.59 320.609 296.047 320.43 296.562C320.258 297.07 320.172 297.609 320.172 298.18ZM340 292.32H341.969V304.73C341.969 305.848 341.742 306.801 341.289 307.59C340.836 308.379 340.203 308.977 339.391 309.383C338.586 309.797 337.656 310.004 336.602 310.004C336.164 310.004 335.648 309.934 335.055 309.793C334.469 309.66 333.891 309.43 333.32 309.102C332.758 308.781 332.285 308.348 331.902 307.801L333.039 306.512C333.57 307.152 334.125 307.598 334.703 307.848C335.289 308.098 335.867 308.223 336.438 308.223C337.125 308.223 337.719 308.094 338.219 307.836C338.719 307.578 339.105 307.195 339.379 306.688C339.66 306.188 339.801 305.57 339.801 304.836V295.109L340 292.32ZM331.27 298.801V298.555C331.27 297.586 331.383 296.707 331.609 295.918C331.844 295.121 332.176 294.438 332.605 293.867C333.043 293.297 333.57 292.859 334.188 292.555C334.805 292.242 335.5 292.086 336.273 292.086C337.07 292.086 337.766 292.227 338.359 292.508C338.961 292.781 339.469 293.184 339.883 293.715C340.305 294.238 340.637 294.871 340.879 295.613C341.121 296.355 341.289 297.195 341.383 298.133V299.211C341.297 300.141 341.129 300.977 340.879 301.719C340.637 302.461 340.305 303.094 339.883 303.617C339.469 304.141 338.961 304.543 338.359 304.824C337.758 305.098 337.055 305.234 336.25 305.234C335.492 305.234 334.805 305.074 334.188 304.754C333.578 304.434 333.055 303.984 332.617 303.406C332.18 302.828 331.844 302.148 331.609 301.367C331.383 300.578 331.27 299.723 331.27 298.801ZM333.438 298.555V298.801C333.438 299.434 333.5 300.027 333.625 300.582C333.758 301.137 333.957 301.625 334.223 302.047C334.496 302.469 334.844 302.801 335.266 303.043C335.688 303.277 336.191 303.395 336.777 303.395C337.496 303.395 338.09 303.242 338.559 302.938C339.027 302.633 339.398 302.23 339.672 301.73C339.953 301.23 340.172 300.688 340.328 300.102V297.277C340.242 296.848 340.109 296.434 339.93 296.035C339.758 295.629 339.531 295.27 339.25 294.957C338.977 294.637 338.637 294.383 338.23 294.195C337.824 294.008 337.348 293.914 336.801 293.914C336.207 293.914 335.695 294.039 335.266 294.289C334.844 294.531 334.496 294.867 334.223 295.297C333.957 295.719 333.758 296.211 333.625 296.773C333.5 297.328 333.438 297.922 333.438 298.555ZM101.008 326.32V339H98.8281V326.32H101.008ZM98.6641 322.957C98.6641 322.605 98.7695 322.309 98.9805 322.066C99.1992 321.824 99.5195 321.703 99.9414 321.703C100.355 321.703 100.672 321.824 100.891 322.066C101.117 322.309 101.23 322.605 101.23 322.957C101.23 323.293 101.117 323.582 100.891 323.824C100.672 324.059 100.355 324.176 99.9414 324.176C99.5195 324.176 99.1992 324.059 98.9805 323.824C98.7695 323.582 98.6641 323.293 98.6641 322.957ZM106.656 329.027V339H104.488V326.32H106.539L106.656 329.027ZM106.141 332.18L105.238 332.145C105.246 331.277 105.375 330.477 105.625 329.742C105.875 329 106.227 328.355 106.68 327.809C107.133 327.262 107.672 326.84 108.297 326.543C108.93 326.238 109.629 326.086 110.395 326.086C111.02 326.086 111.582 326.172 112.082 326.344C112.582 326.508 113.008 326.773 113.359 327.141C113.719 327.508 113.992 327.984 114.18 328.57C114.367 329.148 114.461 329.855 114.461 330.691V339H112.281V330.668C112.281 330.004 112.184 329.473 111.988 329.074C111.793 328.668 111.508 328.375 111.133 328.195C110.758 328.008 110.297 327.914 109.75 327.914C109.211 327.914 108.719 328.027 108.273 328.254C107.836 328.48 107.457 328.793 107.137 329.191C106.824 329.59 106.578 330.047 106.398 330.562C106.227 331.07 106.141 331.609 106.141 332.18ZM125.137 335.637C125.137 335.324 125.066 335.035 124.926 334.77C124.793 334.496 124.516 334.25 124.094 334.031C123.68 333.805 123.055 333.609 122.219 333.445C121.516 333.297 120.879 333.121 120.309 332.918C119.746 332.715 119.266 332.469 118.867 332.18C118.477 331.891 118.176 331.551 117.965 331.16C117.754 330.77 117.648 330.312 117.648 329.789C117.648 329.289 117.758 328.816 117.977 328.371C118.203 327.926 118.52 327.531 118.926 327.188C119.34 326.844 119.836 326.574 120.414 326.379C120.992 326.184 121.637 326.086 122.348 326.086C123.363 326.086 124.23 326.266 124.949 326.625C125.668 326.984 126.219 327.465 126.602 328.066C126.984 328.66 127.176 329.32 127.176 330.047H125.008C125.008 329.695 124.902 329.355 124.691 329.027C124.488 328.691 124.188 328.414 123.789 328.195C123.398 327.977 122.918 327.867 122.348 327.867C121.746 327.867 121.258 327.961 120.883 328.148C120.516 328.328 120.246 328.559 120.074 328.84C119.91 329.121 119.828 329.418 119.828 329.73C119.828 329.965 119.867 330.176 119.945 330.363C120.031 330.543 120.18 330.711 120.391 330.867C120.602 331.016 120.898 331.156 121.281 331.289C121.664 331.422 122.152 331.555 122.746 331.688C123.785 331.922 124.641 332.203 125.312 332.531C125.984 332.859 126.484 333.262 126.812 333.738C127.141 334.215 127.305 334.793 127.305 335.473C127.305 336.027 127.188 336.535 126.953 336.996C126.727 337.457 126.395 337.855 125.957 338.191C125.527 338.52 125.012 338.777 124.41 338.965C123.816 339.145 123.148 339.234 122.406 339.234C121.289 339.234 120.344 339.035 119.57 338.637C118.797 338.238 118.211 337.723 117.812 337.09C117.414 336.457 117.215 335.789 117.215 335.086H119.395C119.426 335.68 119.598 336.152 119.91 336.504C120.223 336.848 120.605 337.094 121.059 337.242C121.512 337.383 121.961 337.453 122.406 337.453C123 337.453 123.496 337.375 123.895 337.219C124.301 337.062 124.609 336.848 124.82 336.574C125.031 336.301 125.137 335.988 125.137 335.637ZM132.32 328.758V343.875H130.141V326.32H132.133L132.32 328.758ZM140.863 332.555V332.801C140.863 333.723 140.754 334.578 140.535 335.367C140.316 336.148 139.996 336.828 139.574 337.406C139.16 337.984 138.648 338.434 138.039 338.754C137.43 339.074 136.73 339.234 135.941 339.234C135.137 339.234 134.426 339.102 133.809 338.836C133.191 338.57 132.668 338.184 132.238 337.676C131.809 337.168 131.465 336.559 131.207 335.848C130.957 335.137 130.785 334.336 130.691 333.445V332.133C130.785 331.195 130.961 330.355 131.219 329.613C131.477 328.871 131.816 328.238 132.238 327.715C132.668 327.184 133.188 326.781 133.797 326.508C134.406 326.227 135.109 326.086 135.906 326.086C136.703 326.086 137.41 326.242 138.027 326.555C138.645 326.859 139.164 327.297 139.586 327.867C140.008 328.438 140.324 329.121 140.535 329.918C140.754 330.707 140.863 331.586 140.863 332.555ZM138.684 332.801V332.555C138.684 331.922 138.617 331.328 138.484 330.773C138.352 330.211 138.145 329.719 137.863 329.297C137.59 328.867 137.238 328.531 136.809 328.289C136.379 328.039 135.867 327.914 135.273 327.914C134.727 327.914 134.25 328.008 133.844 328.195C133.445 328.383 133.105 328.637 132.824 328.957C132.543 329.27 132.312 329.629 132.133 330.035C131.961 330.434 131.832 330.848 131.746 331.277V334.312C131.902 334.859 132.121 335.375 132.402 335.859C132.684 336.336 133.059 336.723 133.527 337.02C133.996 337.309 134.586 337.453 135.297 337.453C135.883 337.453 136.387 337.332 136.809 337.09C137.238 336.84 137.59 336.5 137.863 336.07C138.145 335.641 138.352 335.148 138.484 334.594C138.617 334.031 138.684 333.434 138.684 332.801ZM145.984 326.32V339H143.805V326.32H145.984ZM143.641 322.957C143.641 322.605 143.746 322.309 143.957 322.066C144.176 321.824 144.496 321.703 144.918 321.703C145.332 321.703 145.648 321.824 145.867 322.066C146.094 322.309 146.207 322.605 146.207 322.957C146.207 323.293 146.094 323.582 145.867 323.824C145.648 324.059 145.332 324.176 144.918 324.176C144.496 324.176 144.176 324.059 143.957 323.824C143.746 323.582 143.641 323.293 143.641 322.957ZM151.633 328.312V339H149.465V326.32H151.574L151.633 328.312ZM155.594 326.25L155.582 328.266C155.402 328.227 155.23 328.203 155.066 328.195C154.91 328.18 154.73 328.172 154.527 328.172C154.027 328.172 153.586 328.25 153.203 328.406C152.82 328.562 152.496 328.781 152.23 329.062C151.965 329.344 151.754 329.68 151.598 330.07C151.449 330.453 151.352 330.875 151.305 331.336L150.695 331.688C150.695 330.922 150.77 330.203 150.918 329.531C151.074 328.859 151.312 328.266 151.633 327.75C151.953 327.227 152.359 326.82 152.852 326.531C153.352 326.234 153.945 326.086 154.633 326.086C154.789 326.086 154.969 326.105 155.172 326.145C155.375 326.176 155.516 326.211 155.594 326.25ZM164.605 336.832V330.305C164.605 329.805 164.504 329.371 164.301 329.004C164.105 328.629 163.809 328.34 163.41 328.137C163.012 327.934 162.52 327.832 161.934 327.832C161.387 327.832 160.906 327.926 160.492 328.113C160.086 328.301 159.766 328.547 159.531 328.852C159.305 329.156 159.191 329.484 159.191 329.836H157.023C157.023 329.383 157.141 328.934 157.375 328.488C157.609 328.043 157.945 327.641 158.383 327.281C158.828 326.914 159.359 326.625 159.977 326.414C160.602 326.195 161.297 326.086 162.062 326.086C162.984 326.086 163.797 326.242 164.5 326.555C165.211 326.867 165.766 327.34 166.164 327.973C166.57 328.598 166.773 329.383 166.773 330.328V336.234C166.773 336.656 166.809 337.105 166.879 337.582C166.957 338.059 167.07 338.469 167.219 338.812V339H164.957C164.848 338.75 164.762 338.418 164.699 338.004C164.637 337.582 164.605 337.191 164.605 336.832ZM164.98 331.312L165.004 332.836H162.812C162.195 332.836 161.645 332.887 161.16 332.988C160.676 333.082 160.27 333.227 159.941 333.422C159.613 333.617 159.363 333.863 159.191 334.16C159.02 334.449 158.934 334.789 158.934 335.18C158.934 335.578 159.023 335.941 159.203 336.27C159.383 336.598 159.652 336.859 160.012 337.055C160.379 337.242 160.828 337.336 161.359 337.336C162.023 337.336 162.609 337.195 163.117 336.914C163.625 336.633 164.027 336.289 164.324 335.883C164.629 335.477 164.793 335.082 164.816 334.699L165.742 335.742C165.688 336.07 165.539 336.434 165.297 336.832C165.055 337.23 164.73 337.613 164.324 337.98C163.926 338.34 163.449 338.641 162.895 338.883C162.348 339.117 161.73 339.234 161.043 339.234C160.184 339.234 159.43 339.066 158.781 338.73C158.141 338.395 157.641 337.945 157.281 337.383C156.93 336.812 156.754 336.176 156.754 335.473C156.754 334.793 156.887 334.195 157.152 333.68C157.418 333.156 157.801 332.723 158.301 332.379C158.801 332.027 159.402 331.762 160.105 331.582C160.809 331.402 161.594 331.312 162.461 331.312H164.98ZM175.492 326.32V327.984H168.637V326.32H175.492ZM170.957 323.238H173.125V335.859C173.125 336.289 173.191 336.613 173.324 336.832C173.457 337.051 173.629 337.195 173.84 337.266C174.051 337.336 174.277 337.371 174.52 337.371C174.699 337.371 174.887 337.355 175.082 337.324C175.285 337.285 175.438 337.254 175.539 337.23L175.551 339C175.379 339.055 175.152 339.105 174.871 339.152C174.598 339.207 174.266 339.234 173.875 339.234C173.344 339.234 172.855 339.129 172.41 338.918C171.965 338.707 171.609 338.355 171.344 337.863C171.086 337.363 170.957 336.691 170.957 335.848V323.238ZM180.391 326.32V339H178.211V326.32H180.391ZM178.047 322.957C178.047 322.605 178.152 322.309 178.363 322.066C178.582 321.824 178.902 321.703 179.324 321.703C179.738 321.703 180.055 321.824 180.273 322.066C180.5 322.309 180.613 322.605 180.613 322.957C180.613 323.293 180.5 323.582 180.273 323.824C180.055 324.059 179.738 324.176 179.324 324.176C178.902 324.176 178.582 324.059 178.363 323.824C178.152 323.582 178.047 323.293 178.047 322.957ZM183.297 332.801V332.531C183.297 331.617 183.43 330.77 183.695 329.988C183.961 329.199 184.344 328.516 184.844 327.938C185.344 327.352 185.949 326.898 186.66 326.578C187.371 326.25 188.168 326.086 189.051 326.086C189.941 326.086 190.742 326.25 191.453 326.578C192.172 326.898 192.781 327.352 193.281 327.938C193.789 328.516 194.176 329.199 194.441 329.988C194.707 330.77 194.84 331.617 194.84 332.531V332.801C194.84 333.715 194.707 334.562 194.441 335.344C194.176 336.125 193.789 336.809 193.281 337.395C192.781 337.973 192.176 338.426 191.465 338.754C190.762 339.074 189.965 339.234 189.074 339.234C188.184 339.234 187.383 339.074 186.672 338.754C185.961 338.426 185.352 337.973 184.844 337.395C184.344 336.809 183.961 336.125 183.695 335.344C183.43 334.562 183.297 333.715 183.297 332.801ZM185.465 332.531V332.801C185.465 333.434 185.539 334.031 185.688 334.594C185.836 335.148 186.059 335.641 186.355 336.07C186.66 336.5 187.039 336.84 187.492 337.09C187.945 337.332 188.473 337.453 189.074 337.453C189.668 337.453 190.188 337.332 190.633 337.09C191.086 336.84 191.461 336.5 191.758 336.07C192.055 335.641 192.277 335.148 192.426 334.594C192.582 334.031 192.66 333.434 192.66 332.801V332.531C192.66 331.906 192.582 331.316 192.426 330.762C192.277 330.199 192.051 329.703 191.746 329.273C191.449 328.836 191.074 328.492 190.621 328.242C190.176 327.992 189.652 327.867 189.051 327.867C188.457 327.867 187.934 327.992 187.48 328.242C187.035 328.492 186.66 328.836 186.355 329.273C186.059 329.703 185.836 330.199 185.688 330.762C185.539 331.316 185.465 331.906 185.465 332.531ZM199.727 329.027V339H197.559V326.32H199.609L199.727 329.027ZM199.211 332.18L198.309 332.145C198.316 331.277 198.445 330.477 198.695 329.742C198.945 329 199.297 328.355 199.75 327.809C200.203 327.262 200.742 326.84 201.367 326.543C202 326.238 202.699 326.086 203.465 326.086C204.09 326.086 204.652 326.172 205.152 326.344C205.652 326.508 206.078 326.773 206.43 327.141C206.789 327.508 207.062 327.984 207.25 328.57C207.438 329.148 207.531 329.855 207.531 330.691V339H205.352V330.668C205.352 330.004 205.254 329.473 205.059 329.074C204.863 328.668 204.578 328.375 204.203 328.195C203.828 328.008 203.367 327.914 202.82 327.914C202.281 327.914 201.789 328.027 201.344 328.254C200.906 328.48 200.527 328.793 200.207 329.191C199.895 329.59 199.648 330.047 199.469 330.562C199.297 331.07 199.211 331.609 199.211 332.18ZM212.793 336.422V338.168C212.793 338.879 212.613 339.629 212.254 340.418C211.895 341.215 211.391 341.879 210.742 342.41L209.512 341.555C209.762 341.211 209.973 340.859 210.145 340.5C210.316 340.148 210.445 339.781 210.531 339.398C210.625 339.023 210.672 338.625 210.672 338.203V336.422H212.793ZM224.746 339H222.578V324.984C222.578 324.07 222.742 323.301 223.07 322.676C223.406 322.043 223.887 321.566 224.512 321.246C225.137 320.918 225.879 320.754 226.738 320.754C226.988 320.754 227.238 320.77 227.488 320.801C227.746 320.832 227.996 320.879 228.238 320.941L228.121 322.711C227.957 322.672 227.77 322.645 227.559 322.629C227.355 322.613 227.152 322.605 226.949 322.605C226.488 322.605 226.09 322.699 225.754 322.887C225.426 323.066 225.176 323.332 225.004 323.684C224.832 324.035 224.746 324.469 224.746 324.984V339ZM227.441 326.32V327.984H220.574V326.32H227.441ZM234.836 339.234C233.953 339.234 233.152 339.086 232.434 338.789C231.723 338.484 231.109 338.059 230.594 337.512C230.086 336.965 229.695 336.316 229.422 335.566C229.148 334.816 229.012 333.996 229.012 333.105V332.613C229.012 331.582 229.164 330.664 229.469 329.859C229.773 329.047 230.188 328.359 230.711 327.797C231.234 327.234 231.828 326.809 232.492 326.52C233.156 326.23 233.844 326.086 234.555 326.086C235.461 326.086 236.242 326.242 236.898 326.555C237.562 326.867 238.105 327.305 238.527 327.867C238.949 328.422 239.262 329.078 239.465 329.836C239.668 330.586 239.77 331.406 239.77 332.297V333.27H230.301V331.5H237.602V331.336C237.57 330.773 237.453 330.227 237.25 329.695C237.055 329.164 236.742 328.727 236.312 328.383C235.883 328.039 235.297 327.867 234.555 327.867C234.062 327.867 233.609 327.973 233.195 328.184C232.781 328.387 232.426 328.691 232.129 329.098C231.832 329.504 231.602 330 231.438 330.586C231.273 331.172 231.191 331.848 231.191 332.613V333.105C231.191 333.707 231.273 334.273 231.438 334.805C231.609 335.328 231.855 335.789 232.176 336.188C232.504 336.586 232.898 336.898 233.359 337.125C233.828 337.352 234.359 337.465 234.953 337.465C235.719 337.465 236.367 337.309 236.898 336.996C237.43 336.684 237.895 336.266 238.293 335.742L239.605 336.785C239.332 337.199 238.984 337.594 238.562 337.969C238.141 338.344 237.621 338.648 237.004 338.883C236.395 339.117 235.672 339.234 234.836 339.234ZM247.562 339.234C246.68 339.234 245.879 339.086 245.16 338.789C244.449 338.484 243.836 338.059 243.32 337.512C242.812 336.965 242.422 336.316 242.148 335.566C241.875 334.816 241.738 333.996 241.738 333.105V332.613C241.738 331.582 241.891 330.664 242.195 329.859C242.5 329.047 242.914 328.359 243.438 327.797C243.961 327.234 244.555 326.809 245.219 326.52C245.883 326.23 246.57 326.086 247.281 326.086C248.188 326.086 248.969 326.242 249.625 326.555C250.289 326.867 250.832 327.305 251.254 327.867C251.676 328.422 251.988 329.078 252.191 329.836C252.395 330.586 252.496 331.406 252.496 332.297V333.27H243.027V331.5H250.328V331.336C250.297 330.773 250.18 330.227 249.977 329.695C249.781 329.164 249.469 328.727 249.039 328.383C248.609 328.039 248.023 327.867 247.281 327.867C246.789 327.867 246.336 327.973 245.922 328.184C245.508 328.387 245.152 328.691 244.855 329.098C244.559 329.504 244.328 330 244.164 330.586C244 331.172 243.918 331.848 243.918 332.613V333.105C243.918 333.707 244 334.273 244.164 334.805C244.336 335.328 244.582 335.789 244.902 336.188C245.23 336.586 245.625 336.898 246.086 337.125C246.555 337.352 247.086 337.465 247.68 337.465C248.445 337.465 249.094 337.309 249.625 336.996C250.156 336.684 250.621 336.266 251.02 335.742L252.332 336.785C252.059 337.199 251.711 337.594 251.289 337.969C250.867 338.344 250.348 338.648 249.73 338.883C249.121 339.117 248.398 339.234 247.562 339.234ZM263.02 336.539V321H265.199V339H263.207L263.02 336.539ZM254.488 332.801V332.555C254.488 331.586 254.605 330.707 254.84 329.918C255.082 329.121 255.422 328.438 255.859 327.867C256.305 327.297 256.832 326.859 257.441 326.555C258.059 326.242 258.746 326.086 259.504 326.086C260.301 326.086 260.996 326.227 261.59 326.508C262.191 326.781 262.699 327.184 263.113 327.715C263.535 328.238 263.867 328.871 264.109 329.613C264.352 330.355 264.52 331.195 264.613 332.133V333.211C264.527 334.141 264.359 334.977 264.109 335.719C263.867 336.461 263.535 337.094 263.113 337.617C262.699 338.141 262.191 338.543 261.59 338.824C260.988 339.098 260.285 339.234 259.48 339.234C258.738 339.234 258.059 339.074 257.441 338.754C256.832 338.434 256.305 337.984 255.859 337.406C255.422 336.828 255.082 336.148 254.84 335.367C254.605 334.578 254.488 333.723 254.488 332.801ZM256.668 332.555V332.801C256.668 333.434 256.73 334.027 256.855 334.582C256.988 335.137 257.191 335.625 257.465 336.047C257.738 336.469 258.086 336.801 258.508 337.043C258.93 337.277 259.434 337.395 260.02 337.395C260.738 337.395 261.328 337.242 261.789 336.938C262.258 336.633 262.633 336.23 262.914 335.73C263.195 335.23 263.414 334.688 263.57 334.102V331.277C263.477 330.848 263.34 330.434 263.16 330.035C262.988 329.629 262.762 329.27 262.48 328.957C262.207 328.637 261.867 328.383 261.461 328.195C261.062 328.008 260.59 327.914 260.043 327.914C259.449 327.914 258.938 328.039 258.508 328.289C258.086 328.531 257.738 328.867 257.465 329.297C257.191 329.719 256.988 330.211 256.855 330.773C256.73 331.328 256.668 331.922 256.668 332.555ZM268.562 321H270.742V336.539L270.555 339H268.562V321ZM279.309 332.555V332.801C279.309 333.723 279.199 334.578 278.98 335.367C278.762 336.148 278.441 336.828 278.02 337.406C277.598 337.984 277.082 338.434 276.473 338.754C275.863 339.074 275.164 339.234 274.375 339.234C273.57 339.234 272.863 339.098 272.254 338.824C271.652 338.543 271.145 338.141 270.73 337.617C270.316 337.094 269.984 336.461 269.734 335.719C269.492 334.977 269.324 334.141 269.23 333.211V332.133C269.324 331.195 269.492 330.355 269.734 329.613C269.984 328.871 270.316 328.238 270.73 327.715C271.145 327.184 271.652 326.781 272.254 326.508C272.855 326.227 273.555 326.086 274.352 326.086C275.148 326.086 275.855 326.242 276.473 326.555C277.09 326.859 277.605 327.297 278.02 327.867C278.441 328.438 278.762 329.121 278.98 329.918C279.199 330.707 279.309 331.586 279.309 332.555ZM277.129 332.801V332.555C277.129 331.922 277.07 331.328 276.953 330.773C276.836 330.211 276.648 329.719 276.391 329.297C276.133 328.867 275.793 328.531 275.371 328.289C274.949 328.039 274.43 327.914 273.812 327.914C273.266 327.914 272.789 328.008 272.383 328.195C271.984 328.383 271.645 328.637 271.363 328.957C271.082 329.27 270.852 329.629 270.672 330.035C270.5 330.434 270.371 330.848 270.285 331.277V334.102C270.41 334.648 270.613 335.176 270.895 335.684C271.184 336.184 271.566 336.594 272.043 336.914C272.527 337.234 273.125 337.395 273.836 337.395C274.422 337.395 274.922 337.277 275.336 337.043C275.758 336.801 276.098 336.469 276.355 336.047C276.621 335.625 276.816 335.137 276.941 334.582C277.066 334.027 277.129 333.434 277.129 332.801ZM289.527 336.832V330.305C289.527 329.805 289.426 329.371 289.223 329.004C289.027 328.629 288.73 328.34 288.332 328.137C287.934 327.934 287.441 327.832 286.855 327.832C286.309 327.832 285.828 327.926 285.414 328.113C285.008 328.301 284.688 328.547 284.453 328.852C284.227 329.156 284.113 329.484 284.113 329.836H281.945C281.945 329.383 282.062 328.934 282.297 328.488C282.531 328.043 282.867 327.641 283.305 327.281C283.75 326.914 284.281 326.625 284.898 326.414C285.523 326.195 286.219 326.086 286.984 326.086C287.906 326.086 288.719 326.242 289.422 326.555C290.133 326.867 290.688 327.34 291.086 327.973C291.492 328.598 291.695 329.383 291.695 330.328V336.234C291.695 336.656 291.73 337.105 291.801 337.582C291.879 338.059 291.992 338.469 292.141 338.812V339H289.879C289.77 338.75 289.684 338.418 289.621 338.004C289.559 337.582 289.527 337.191 289.527 336.832ZM289.902 331.312L289.926 332.836H287.734C287.117 332.836 286.566 332.887 286.082 332.988C285.598 333.082 285.191 333.227 284.863 333.422C284.535 333.617 284.285 333.863 284.113 334.16C283.941 334.449 283.855 334.789 283.855 335.18C283.855 335.578 283.945 335.941 284.125 336.27C284.305 336.598 284.574 336.859 284.934 337.055C285.301 337.242 285.75 337.336 286.281 337.336C286.945 337.336 287.531 337.195 288.039 336.914C288.547 336.633 288.949 336.289 289.246 335.883C289.551 335.477 289.715 335.082 289.738 334.699L290.664 335.742C290.609 336.07 290.461 336.434 290.219 336.832C289.977 337.23 289.652 337.613 289.246 337.98C288.848 338.34 288.371 338.641 287.816 338.883C287.27 339.117 286.652 339.234 285.965 339.234C285.105 339.234 284.352 339.066 283.703 338.73C283.062 338.395 282.562 337.945 282.203 337.383C281.852 336.812 281.676 336.176 281.676 335.473C281.676 334.793 281.809 334.195 282.074 333.68C282.34 333.156 282.723 332.723 283.223 332.379C283.723 332.027 284.324 331.762 285.027 331.582C285.73 331.402 286.516 331.312 287.383 331.312H289.902ZM300.18 337.453C300.695 337.453 301.172 337.348 301.609 337.137C302.047 336.926 302.406 336.637 302.688 336.27C302.969 335.895 303.129 335.469 303.168 334.992H305.23C305.191 335.742 304.938 336.441 304.469 337.09C304.008 337.73 303.402 338.25 302.652 338.648C301.902 339.039 301.078 339.234 300.18 339.234C299.227 339.234 298.395 339.066 297.684 338.73C296.98 338.395 296.395 337.934 295.926 337.348C295.465 336.762 295.117 336.09 294.883 335.332C294.656 334.566 294.543 333.758 294.543 332.906V332.414C294.543 331.562 294.656 330.758 294.883 330C295.117 329.234 295.465 328.559 295.926 327.973C296.395 327.387 296.98 326.926 297.684 326.59C298.395 326.254 299.227 326.086 300.18 326.086C301.172 326.086 302.039 326.289 302.781 326.695C303.523 327.094 304.105 327.641 304.527 328.336C304.957 329.023 305.191 329.805 305.23 330.68H303.168C303.129 330.156 302.98 329.684 302.723 329.262C302.473 328.84 302.129 328.504 301.691 328.254C301.262 327.996 300.758 327.867 300.18 327.867C299.516 327.867 298.957 328 298.504 328.266C298.059 328.523 297.703 328.875 297.438 329.32C297.18 329.758 296.992 330.246 296.875 330.785C296.766 331.316 296.711 331.859 296.711 332.414V332.906C296.711 333.461 296.766 334.008 296.875 334.547C296.984 335.086 297.168 335.574 297.426 336.012C297.691 336.449 298.047 336.801 298.492 337.066C298.945 337.324 299.508 337.453 300.18 337.453ZM309.848 321V339H307.668V321H309.848ZM317.594 326.32L312.062 332.238L308.969 335.449L308.793 333.141L311.008 330.492L314.945 326.32H317.594ZM315.613 339L311.09 332.953L312.215 331.02L318.168 339H315.613ZM321.801 336.422V338.168C321.801 338.879 321.621 339.629 321.262 340.418C320.902 341.215 320.398 341.879 319.75 342.41L318.52 341.555C318.77 341.211 318.98 340.859 319.152 340.5C319.324 340.148 319.453 339.781 319.539 339.398C319.633 339.023 319.68 338.625 319.68 338.203V336.422H321.801ZM329.945 332.801V332.531C329.945 331.617 330.078 330.77 330.344 329.988C330.609 329.199 330.992 328.516 331.492 327.938C331.992 327.352 332.598 326.898 333.309 326.578C334.02 326.25 334.816 326.086 335.699 326.086C336.59 326.086 337.391 326.25 338.102 326.578C338.82 326.898 339.43 327.352 339.93 327.938C340.438 328.516 340.824 329.199 341.09 329.988C341.355 330.77 341.488 331.617 341.488 332.531V332.801C341.488 333.715 341.355 334.562 341.09 335.344C340.824 336.125 340.438 336.809 339.93 337.395C339.43 337.973 338.824 338.426 338.113 338.754C337.41 339.074 336.613 339.234 335.723 339.234C334.832 339.234 334.031 339.074 333.32 338.754C332.609 338.426 332 337.973 331.492 337.395C330.992 336.809 330.609 336.125 330.344 335.344C330.078 334.562 329.945 333.715 329.945 332.801ZM332.113 332.531V332.801C332.113 333.434 332.188 334.031 332.336 334.594C332.484 335.148 332.707 335.641 333.004 336.07C333.309 336.5 333.688 336.84 334.141 337.09C334.594 337.332 335.121 337.453 335.723 337.453C336.316 337.453 336.836 337.332 337.281 337.09C337.734 336.84 338.109 336.5 338.406 336.07C338.703 335.641 338.926 335.148 339.074 334.594C339.23 334.031 339.309 333.434 339.309 332.801V332.531C339.309 331.906 339.23 331.316 339.074 330.762C338.926 330.199 338.699 329.703 338.395 329.273C338.098 328.836 337.723 328.492 337.27 328.242C336.824 327.992 336.301 327.867 335.699 327.867C335.105 327.867 334.582 327.992 334.129 328.242C333.684 328.492 333.309 328.836 333.004 329.273C332.707 329.703 332.484 330.199 332.336 330.762C332.188 331.316 332.113 331.906 332.113 332.531ZM346.375 328.312V339H344.207V326.32H346.316L346.375 328.312ZM350.336 326.25L350.324 328.266C350.145 328.227 349.973 328.203 349.809 328.195C349.652 328.18 349.473 328.172 349.27 328.172C348.77 328.172 348.328 328.25 347.945 328.406C347.562 328.562 347.238 328.781 346.973 329.062C346.707 329.344 346.496 329.68 346.34 330.07C346.191 330.453 346.094 330.875 346.047 331.336L345.438 331.688C345.438 330.922 345.512 330.203 345.66 329.531C345.816 328.859 346.055 328.266 346.375 327.75C346.695 327.227 347.102 326.82 347.594 326.531C348.094 326.234 348.688 326.086 349.375 326.086C349.531 326.086 349.711 326.105 349.914 326.145C350.117 326.176 350.258 326.211 350.336 326.25ZM101.887 373H99.7188V358.984C99.7188 358.07 99.8828 357.301 100.211 356.676C100.547 356.043 101.027 355.566 101.652 355.246C102.277 354.918 103.02 354.754 103.879 354.754C104.129 354.754 104.379 354.77 104.629 354.801C104.887 354.832 105.137 354.879 105.379 354.941L105.262 356.711C105.098 356.672 104.91 356.645 104.699 356.629C104.496 356.613 104.293 356.605 104.09 356.605C103.629 356.605 103.23 356.699 102.895 356.887C102.566 357.066 102.316 357.332 102.145 357.684C101.973 358.035 101.887 358.469 101.887 358.984V373ZM104.582 360.32V361.984H97.7148V360.32H104.582ZM109.164 362.312V373H106.996V360.32H109.105L109.164 362.312ZM113.125 360.25L113.113 362.266C112.934 362.227 112.762 362.203 112.598 362.195C112.441 362.18 112.262 362.172 112.059 362.172C111.559 362.172 111.117 362.25 110.734 362.406C110.352 362.562 110.027 362.781 109.762 363.062C109.496 363.344 109.285 363.68 109.129 364.07C108.98 364.453 108.883 364.875 108.836 365.336L108.227 365.688C108.227 364.922 108.301 364.203 108.449 363.531C108.605 362.859 108.844 362.266 109.164 361.75C109.484 361.227 109.891 360.82 110.383 360.531C110.883 360.234 111.477 360.086 112.164 360.086C112.32 360.086 112.5 360.105 112.703 360.145C112.906 360.176 113.047 360.211 113.125 360.25ZM117.484 360.32V373H115.305V360.32H117.484ZM115.141 356.957C115.141 356.605 115.246 356.309 115.457 356.066C115.676 355.824 115.996 355.703 116.418 355.703C116.832 355.703 117.148 355.824 117.367 356.066C117.594 356.309 117.707 356.605 117.707 356.957C117.707 357.293 117.594 357.582 117.367 357.824C117.148 358.059 116.832 358.176 116.418 358.176C115.996 358.176 115.676 358.059 115.457 357.824C115.246 357.582 115.141 357.293 115.141 356.957ZM126.227 373.234C125.344 373.234 124.543 373.086 123.824 372.789C123.113 372.484 122.5 372.059 121.984 371.512C121.477 370.965 121.086 370.316 120.812 369.566C120.539 368.816 120.402 367.996 120.402 367.105V366.613C120.402 365.582 120.555 364.664 120.859 363.859C121.164 363.047 121.578 362.359 122.102 361.797C122.625 361.234 123.219 360.809 123.883 360.52C124.547 360.23 125.234 360.086 125.945 360.086C126.852 360.086 127.633 360.242 128.289 360.555C128.953 360.867 129.496 361.305 129.918 361.867C130.34 362.422 130.652 363.078 130.855 363.836C131.059 364.586 131.16 365.406 131.16 366.297V367.27H121.691V365.5H128.992V365.336C128.961 364.773 128.844 364.227 128.641 363.695C128.445 363.164 128.133 362.727 127.703 362.383C127.273 362.039 126.688 361.867 125.945 361.867C125.453 361.867 125 361.973 124.586 362.184C124.172 362.387 123.816 362.691 123.52 363.098C123.223 363.504 122.992 364 122.828 364.586C122.664 365.172 122.582 365.848 122.582 366.613V367.105C122.582 367.707 122.664 368.273 122.828 368.805C123 369.328 123.246 369.789 123.566 370.188C123.895 370.586 124.289 370.898 124.75 371.125C125.219 371.352 125.75 371.465 126.344 371.465C127.109 371.465 127.758 371.309 128.289 370.996C128.82 370.684 129.285 370.266 129.684 369.742L130.996 370.785C130.723 371.199 130.375 371.594 129.953 371.969C129.531 372.344 129.012 372.648 128.395 372.883C127.785 373.117 127.062 373.234 126.227 373.234ZM135.859 363.027V373H133.691V360.32H135.742L135.859 363.027ZM135.344 366.18L134.441 366.145C134.449 365.277 134.578 364.477 134.828 363.742C135.078 363 135.43 362.355 135.883 361.809C136.336 361.262 136.875 360.84 137.5 360.543C138.133 360.238 138.832 360.086 139.598 360.086C140.223 360.086 140.785 360.172 141.285 360.344C141.785 360.508 142.211 360.773 142.562 361.141C142.922 361.508 143.195 361.984 143.383 362.57C143.57 363.148 143.664 363.855 143.664 364.691V373H141.484V364.668C141.484 364.004 141.387 363.473 141.191 363.074C140.996 362.668 140.711 362.375 140.336 362.195C139.961 362.008 139.5 361.914 138.953 361.914C138.414 361.914 137.922 362.027 137.477 362.254C137.039 362.48 136.66 362.793 136.34 363.191C136.027 363.59 135.781 364.047 135.602 364.562C135.43 365.07 135.344 365.609 135.344 366.18ZM154.949 370.539V355H157.129V373H155.137L154.949 370.539ZM146.418 366.801V366.555C146.418 365.586 146.535 364.707 146.77 363.918C147.012 363.121 147.352 362.438 147.789 361.867C148.234 361.297 148.762 360.859 149.371 360.555C149.988 360.242 150.676 360.086 151.434 360.086C152.23 360.086 152.926 360.227 153.52 360.508C154.121 360.781 154.629 361.184 155.043 361.715C155.465 362.238 155.797 362.871 156.039 363.613C156.281 364.355 156.449 365.195 156.543 366.133V367.211C156.457 368.141 156.289 368.977 156.039 369.719C155.797 370.461 155.465 371.094 155.043 371.617C154.629 372.141 154.121 372.543 153.52 372.824C152.918 373.098 152.215 373.234 151.41 373.234C150.668 373.234 149.988 373.074 149.371 372.754C148.762 372.434 148.234 371.984 147.789 371.406C147.352 370.828 147.012 370.148 146.77 369.367C146.535 368.578 146.418 367.723 146.418 366.801ZM148.598 366.555V366.801C148.598 367.434 148.66 368.027 148.785 368.582C148.918 369.137 149.121 369.625 149.395 370.047C149.668 370.469 150.016 370.801 150.438 371.043C150.859 371.277 151.363 371.395 151.949 371.395C152.668 371.395 153.258 371.242 153.719 370.938C154.188 370.633 154.562 370.23 154.844 369.73C155.125 369.23 155.344 368.688 155.5 368.102V365.277C155.406 364.848 155.27 364.434 155.09 364.035C154.918 363.629 154.691 363.27 154.41 362.957C154.137 362.637 153.797 362.383 153.391 362.195C152.992 362.008 152.52 361.914 151.973 361.914C151.379 361.914 150.867 362.039 150.438 362.289C150.016 362.531 149.668 362.867 149.395 363.297C149.121 363.719 148.918 364.211 148.785 364.773C148.66 365.328 148.598 365.922 148.598 366.555ZM167.887 369.637C167.887 369.324 167.816 369.035 167.676 368.77C167.543 368.496 167.266 368.25 166.844 368.031C166.43 367.805 165.805 367.609 164.969 367.445C164.266 367.297 163.629 367.121 163.059 366.918C162.496 366.715 162.016 366.469 161.617 366.18C161.227 365.891 160.926 365.551 160.715 365.16C160.504 364.77 160.398 364.312 160.398 363.789C160.398 363.289 160.508 362.816 160.727 362.371C160.953 361.926 161.27 361.531 161.676 361.188C162.09 360.844 162.586 360.574 163.164 360.379C163.742 360.184 164.387 360.086 165.098 360.086C166.113 360.086 166.98 360.266 167.699 360.625C168.418 360.984 168.969 361.465 169.352 362.066C169.734 362.66 169.926 363.32 169.926 364.047H167.758C167.758 363.695 167.652 363.355 167.441 363.027C167.238 362.691 166.938 362.414 166.539 362.195C166.148 361.977 165.668 361.867 165.098 361.867C164.496 361.867 164.008 361.961 163.633 362.148C163.266 362.328 162.996 362.559 162.824 362.84C162.66 363.121 162.578 363.418 162.578 363.73C162.578 363.965 162.617 364.176 162.695 364.363C162.781 364.543 162.93 364.711 163.141 364.867C163.352 365.016 163.648 365.156 164.031 365.289C164.414 365.422 164.902 365.555 165.496 365.688C166.535 365.922 167.391 366.203 168.062 366.531C168.734 366.859 169.234 367.262 169.562 367.738C169.891 368.215 170.055 368.793 170.055 369.473C170.055 370.027 169.938 370.535 169.703 370.996C169.477 371.457 169.145 371.855 168.707 372.191C168.277 372.52 167.762 372.777 167.16 372.965C166.566 373.145 165.898 373.234 165.156 373.234C164.039 373.234 163.094 373.035 162.32 372.637C161.547 372.238 160.961 371.723 160.562 371.09C160.164 370.457 159.965 369.789 159.965 369.086H162.145C162.176 369.68 162.348 370.152 162.66 370.504C162.973 370.848 163.355 371.094 163.809 371.242C164.262 371.383 164.711 371.453 165.156 371.453C165.75 371.453 166.246 371.375 166.645 371.219C167.051 371.062 167.359 370.848 167.57 370.574C167.781 370.301 167.887 369.988 167.887 369.637ZM175.07 355V373H172.902V355H175.07ZM174.555 366.18L173.652 366.145C173.66 365.277 173.789 364.477 174.039 363.742C174.289 363 174.641 362.355 175.094 361.809C175.547 361.262 176.086 360.84 176.711 360.543C177.344 360.238 178.043 360.086 178.809 360.086C179.434 360.086 179.996 360.172 180.496 360.344C180.996 360.508 181.422 360.773 181.773 361.141C182.133 361.508 182.406 361.984 182.594 362.57C182.781 363.148 182.875 363.855 182.875 364.691V373H180.695V364.668C180.695 364.004 180.598 363.473 180.402 363.074C180.207 362.668 179.922 362.375 179.547 362.195C179.172 362.008 178.711 361.914 178.164 361.914C177.625 361.914 177.133 362.027 176.688 362.254C176.25 362.48 175.871 362.793 175.551 363.191C175.238 363.59 174.992 364.047 174.812 364.562C174.641 365.07 174.555 365.609 174.555 366.18ZM188.477 360.32V373H186.297V360.32H188.477ZM186.133 356.957C186.133 356.605 186.238 356.309 186.449 356.066C186.668 355.824 186.988 355.703 187.41 355.703C187.824 355.703 188.141 355.824 188.359 356.066C188.586 356.309 188.699 356.605 188.699 356.957C188.699 357.293 188.586 357.582 188.359 357.824C188.141 358.059 187.824 358.176 187.41 358.176C186.988 358.176 186.668 358.059 186.449 357.824C186.238 357.582 186.133 357.293 186.133 356.957ZM194.125 362.758V377.875H191.945V360.32H193.938L194.125 362.758ZM202.668 366.555V366.801C202.668 367.723 202.559 368.578 202.34 369.367C202.121 370.148 201.801 370.828 201.379 371.406C200.965 371.984 200.453 372.434 199.844 372.754C199.234 373.074 198.535 373.234 197.746 373.234C196.941 373.234 196.23 373.102 195.613 372.836C194.996 372.57 194.473 372.184 194.043 371.676C193.613 371.168 193.27 370.559 193.012 369.848C192.762 369.137 192.59 368.336 192.496 367.445V366.133C192.59 365.195 192.766 364.355 193.023 363.613C193.281 362.871 193.621 362.238 194.043 361.715C194.473 361.184 194.992 360.781 195.602 360.508C196.211 360.227 196.914 360.086 197.711 360.086C198.508 360.086 199.215 360.242 199.832 360.555C200.449 360.859 200.969 361.297 201.391 361.867C201.812 362.438 202.129 363.121 202.34 363.918C202.559 364.707 202.668 365.586 202.668 366.555ZM200.488 366.801V366.555C200.488 365.922 200.422 365.328 200.289 364.773C200.156 364.211 199.949 363.719 199.668 363.297C199.395 362.867 199.043 362.531 198.613 362.289C198.184 362.039 197.672 361.914 197.078 361.914C196.531 361.914 196.055 362.008 195.648 362.195C195.25 362.383 194.91 362.637 194.629 362.957C194.348 363.27 194.117 363.629 193.938 364.035C193.766 364.434 193.637 364.848 193.551 365.277V368.312C193.707 368.859 193.926 369.375 194.207 369.859C194.488 370.336 194.863 370.723 195.332 371.02C195.801 371.309 196.391 371.453 197.102 371.453C197.688 371.453 198.191 371.332 198.613 371.09C199.043 370.84 199.395 370.5 199.668 370.07C199.949 369.641 200.156 369.148 200.289 368.594C200.422 368.031 200.488 367.434 200.488 366.801ZM207.402 370.422V372.168C207.402 372.879 207.223 373.629 206.863 374.418C206.504 375.215 206 375.879 205.352 376.41L204.121 375.555C204.371 375.211 204.582 374.859 204.754 374.5C204.926 374.148 205.055 373.781 205.141 373.398C205.234 373.023 205.281 372.625 205.281 372.203V370.422H207.402ZM219.684 371.688L223.211 360.32H225.531L220.445 374.957C220.328 375.27 220.172 375.605 219.977 375.965C219.789 376.332 219.547 376.68 219.25 377.008C218.953 377.336 218.594 377.602 218.172 377.805C217.758 378.016 217.262 378.121 216.684 378.121C216.512 378.121 216.293 378.098 216.027 378.051C215.762 378.004 215.574 377.965 215.465 377.934L215.453 376.176C215.516 376.184 215.613 376.191 215.746 376.199C215.887 376.215 215.984 376.223 216.039 376.223C216.531 376.223 216.949 376.156 217.293 376.023C217.637 375.898 217.926 375.684 218.16 375.379C218.402 375.082 218.609 374.672 218.781 374.148L219.684 371.688ZM217.094 360.32L220.387 370.164L220.949 372.449L219.391 373.246L214.727 360.32H217.094ZM226.727 366.801V366.531C226.727 365.617 226.859 364.77 227.125 363.988C227.391 363.199 227.773 362.516 228.273 361.938C228.773 361.352 229.379 360.898 230.09 360.578C230.801 360.25 231.598 360.086 232.48 360.086C233.371 360.086 234.172 360.25 234.883 360.578C235.602 360.898 236.211 361.352 236.711 361.938C237.219 362.516 237.605 363.199 237.871 363.988C238.137 364.77 238.27 365.617 238.27 366.531V366.801C238.27 367.715 238.137 368.562 237.871 369.344C237.605 370.125 237.219 370.809 236.711 371.395C236.211 371.973 235.605 372.426 234.895 372.754C234.191 373.074 233.395 373.234 232.504 373.234C231.613 373.234 230.812 373.074 230.102 372.754C229.391 372.426 228.781 371.973 228.273 371.395C227.773 370.809 227.391 370.125 227.125 369.344C226.859 368.562 226.727 367.715 226.727 366.801ZM228.895 366.531V366.801C228.895 367.434 228.969 368.031 229.117 368.594C229.266 369.148 229.488 369.641 229.785 370.07C230.09 370.5 230.469 370.84 230.922 371.09C231.375 371.332 231.902 371.453 232.504 371.453C233.098 371.453 233.617 371.332 234.062 371.09C234.516 370.84 234.891 370.5 235.188 370.07C235.484 369.641 235.707 369.148 235.855 368.594C236.012 368.031 236.09 367.434 236.09 366.801V366.531C236.09 365.906 236.012 365.316 235.855 364.762C235.707 364.199 235.48 363.703 235.176 363.273C234.879 362.836 234.504 362.492 234.051 362.242C233.605 361.992 233.082 361.867 232.48 361.867C231.887 361.867 231.363 361.992 230.91 362.242C230.465 362.492 230.09 362.836 229.785 363.273C229.488 363.703 229.266 364.199 229.117 364.762C228.969 365.316 228.895 365.906 228.895 366.531ZM248.746 370.07V360.32H250.926V373H248.852L248.746 370.07ZM249.156 367.398L250.059 367.375C250.059 368.219 249.969 369 249.789 369.719C249.617 370.43 249.336 371.047 248.945 371.57C248.555 372.094 248.043 372.504 247.41 372.801C246.777 373.09 246.008 373.234 245.102 373.234C244.484 373.234 243.918 373.145 243.402 372.965C242.895 372.785 242.457 372.508 242.09 372.133C241.723 371.758 241.438 371.27 241.234 370.668C241.039 370.066 240.941 369.344 240.941 368.5V360.32H243.109V368.523C243.109 369.094 243.172 369.566 243.297 369.941C243.43 370.309 243.605 370.602 243.824 370.82C244.051 371.031 244.301 371.18 244.574 371.266C244.855 371.352 245.145 371.395 245.441 371.395C246.363 371.395 247.094 371.219 247.633 370.867C248.172 370.508 248.559 370.027 248.793 369.426C249.035 368.816 249.156 368.141 249.156 367.398ZM255.555 355V356.289L255.309 360.602H253.797L253.809 356.488V355H255.555ZM260.781 355V373H258.602V355H260.781ZM266.617 355V373H264.438V355H266.617ZM278.945 373H276.777V359.219C276.777 358.258 276.965 357.445 277.34 356.781C277.715 356.117 278.25 355.613 278.945 355.27C279.641 354.926 280.465 354.754 281.418 354.754C281.98 354.754 282.531 354.824 283.07 354.965C283.609 355.098 284.164 355.266 284.734 355.469L284.371 357.297C284.012 357.156 283.594 357.023 283.117 356.898C282.648 356.766 282.133 356.699 281.57 356.699C280.641 356.699 279.969 356.91 279.555 357.332C279.148 357.746 278.945 358.375 278.945 359.219V373ZM281.535 360.32V361.984H274.773V360.32H281.535ZM285.801 360.32V373H283.633V360.32H285.801ZM291.531 363.027V373H289.363V360.32H291.414L291.531 363.027ZM291.016 366.18L290.113 366.145C290.121 365.277 290.25 364.477 290.5 363.742C290.75 363 291.102 362.355 291.555 361.809C292.008 361.262 292.547 360.84 293.172 360.543C293.805 360.238 294.504 360.086 295.27 360.086C295.895 360.086 296.457 360.172 296.957 360.344C297.457 360.508 297.883 360.773 298.234 361.141C298.594 361.508 298.867 361.984 299.055 362.57C299.242 363.148 299.336 363.855 299.336 364.691V373H297.156V364.668C297.156 364.004 297.059 363.473 296.863 363.074C296.668 362.668 296.383 362.375 296.008 362.195C295.633 362.008 295.172 361.914 294.625 361.914C294.086 361.914 293.594 362.027 293.148 362.254C292.711 362.48 292.332 362.793 292.012 363.191C291.699 363.59 291.453 364.047 291.273 364.562C291.102 365.07 291.016 365.609 291.016 366.18ZM310.621 370.539V355H312.801V373H310.809L310.621 370.539ZM302.09 366.801V366.555C302.09 365.586 302.207 364.707 302.441 363.918C302.684 363.121 303.023 362.438 303.461 361.867C303.906 361.297 304.434 360.859 305.043 360.555C305.66 360.242 306.348 360.086 307.105 360.086C307.902 360.086 308.598 360.227 309.191 360.508C309.793 360.781 310.301 361.184 310.715 361.715C311.137 362.238 311.469 362.871 311.711 363.613C311.953 364.355 312.121 365.195 312.215 366.133V367.211C312.129 368.141 311.961 368.977 311.711 369.719C311.469 370.461 311.137 371.094 310.715 371.617C310.301 372.141 309.793 372.543 309.191 372.824C308.59 373.098 307.887 373.234 307.082 373.234C306.34 373.234 305.66 373.074 305.043 372.754C304.434 372.434 303.906 371.984 303.461 371.406C303.023 370.828 302.684 370.148 302.441 369.367C302.207 368.578 302.09 367.723 302.09 366.801ZM304.27 366.555V366.801C304.27 367.434 304.332 368.027 304.457 368.582C304.59 369.137 304.793 369.625 305.066 370.047C305.34 370.469 305.688 370.801 306.109 371.043C306.531 371.277 307.035 371.395 307.621 371.395C308.34 371.395 308.93 371.242 309.391 370.938C309.859 370.633 310.234 370.23 310.516 369.73C310.797 369.23 311.016 368.688 311.172 368.102V365.277C311.078 364.848 310.941 364.434 310.762 364.035C310.59 363.629 310.363 363.27 310.082 362.957C309.809 362.637 309.469 362.383 309.062 362.195C308.664 362.008 308.191 361.914 307.645 361.914C307.051 361.914 306.539 362.039 306.109 362.289C305.688 362.531 305.34 362.867 305.066 363.297C304.793 363.719 304.59 364.211 304.457 364.773C304.332 365.328 304.27 365.922 304.27 366.555ZM324.484 360.32V373H322.305V360.32H324.484ZM322.141 356.957C322.141 356.605 322.246 356.309 322.457 356.066C322.676 355.824 322.996 355.703 323.418 355.703C323.832 355.703 324.148 355.824 324.367 356.066C324.594 356.309 324.707 356.605 324.707 356.957C324.707 357.293 324.594 357.582 324.367 357.824C324.148 358.059 323.832 358.176 323.418 358.176C322.996 358.176 322.676 358.059 322.457 357.824C322.246 357.582 322.141 357.293 322.141 356.957ZM333.273 360.32V361.984H326.418V360.32H333.273ZM328.738 357.238H330.906V369.859C330.906 370.289 330.973 370.613 331.105 370.832C331.238 371.051 331.41 371.195 331.621 371.266C331.832 371.336 332.059 371.371 332.301 371.371C332.48 371.371 332.668 371.355 332.863 371.324C333.066 371.285 333.219 371.254 333.32 371.23L333.332 373C333.16 373.055 332.934 373.105 332.652 373.152C332.379 373.207 332.047 373.234 331.656 373.234C331.125 373.234 330.637 373.129 330.191 372.918C329.746 372.707 329.391 372.355 329.125 371.863C328.867 371.363 328.738 370.691 328.738 369.848V357.238ZM343.938 355V373H341.77V355H343.938ZM343.422 366.18L342.52 366.145C342.527 365.277 342.656 364.477 342.906 363.742C343.156 363 343.508 362.355 343.961 361.809C344.414 361.262 344.953 360.84 345.578 360.543C346.211 360.238 346.91 360.086 347.676 360.086C348.301 360.086 348.863 360.172 349.363 360.344C349.863 360.508 350.289 360.773 350.641 361.141C351 361.508 351.273 361.984 351.461 362.57C351.648 363.148 351.742 363.855 351.742 364.691V373H349.562V364.668C349.562 364.004 349.465 363.473 349.27 363.074C349.074 362.668 348.789 362.375 348.414 362.195C348.039 362.008 347.578 361.914 347.031 361.914C346.492 361.914 346 362.027 345.555 362.254C345.117 362.48 344.738 362.793 344.418 363.191C344.105 363.59 343.859 364.047 343.68 364.562C343.508 365.07 343.422 365.609 343.422 366.18ZM360.25 373.234C359.367 373.234 358.566 373.086 357.848 372.789C357.137 372.484 356.523 372.059 356.008 371.512C355.5 370.965 355.109 370.316 354.836 369.566C354.562 368.816 354.426 367.996 354.426 367.105V366.613C354.426 365.582 354.578 364.664 354.883 363.859C355.188 363.047 355.602 362.359 356.125 361.797C356.648 361.234 357.242 360.809 357.906 360.52C358.57 360.23 359.258 360.086 359.969 360.086C360.875 360.086 361.656 360.242 362.312 360.555C362.977 360.867 363.52 361.305 363.941 361.867C364.363 362.422 364.676 363.078 364.879 363.836C365.082 364.586 365.184 365.406 365.184 366.297V367.27H355.715V365.5H363.016V365.336C362.984 364.773 362.867 364.227 362.664 363.695C362.469 363.164 362.156 362.727 361.727 362.383C361.297 362.039 360.711 361.867 359.969 361.867C359.477 361.867 359.023 361.973 358.609 362.184C358.195 362.387 357.84 362.691 357.543 363.098C357.246 363.504 357.016 364 356.852 364.586C356.688 365.172 356.605 365.848 356.605 366.613V367.105C356.605 367.707 356.688 368.273 356.852 368.805C357.023 369.328 357.27 369.789 357.59 370.188C357.918 370.586 358.312 370.898 358.773 371.125C359.242 371.352 359.773 371.465 360.367 371.465C361.133 371.465 361.781 371.309 362.312 370.996C362.844 370.684 363.309 370.266 363.707 369.742L365.02 370.785C364.746 371.199 364.398 371.594 363.977 371.969C363.555 372.344 363.035 372.648 362.418 372.883C361.809 373.117 361.086 373.234 360.25 373.234ZM369.883 362.312V373H367.715V360.32H369.824L369.883 362.312ZM373.844 360.25L373.832 362.266C373.652 362.227 373.48 362.203 373.316 362.195C373.16 362.18 372.98 362.172 372.777 362.172C372.277 362.172 371.836 362.25 371.453 362.406C371.07 362.562 370.746 362.781 370.48 363.062C370.215 363.344 370.004 363.68 369.848 364.07C369.699 364.453 369.602 364.875 369.555 365.336L368.945 365.688C368.945 364.922 369.02 364.203 369.168 363.531C369.324 362.859 369.562 362.266 369.883 361.75C370.203 361.227 370.609 360.82 371.102 360.531C371.602 360.234 372.195 360.086 372.883 360.086C373.039 360.086 373.219 360.105 373.422 360.145C373.625 360.176 373.766 360.211 373.844 360.25ZM380.875 373.234C379.992 373.234 379.191 373.086 378.473 372.789C377.762 372.484 377.148 372.059 376.633 371.512C376.125 370.965 375.734 370.316 375.461 369.566C375.188 368.816 375.051 367.996 375.051 367.105V366.613C375.051 365.582 375.203 364.664 375.508 363.859C375.812 363.047 376.227 362.359 376.75 361.797C377.273 361.234 377.867 360.809 378.531 360.52C379.195 360.23 379.883 360.086 380.594 360.086C381.5 360.086 382.281 360.242 382.938 360.555C383.602 360.867 384.145 361.305 384.566 361.867C384.988 362.422 385.301 363.078 385.504 363.836C385.707 364.586 385.809 365.406 385.809 366.297V367.27H376.34V365.5H383.641V365.336C383.609 364.773 383.492 364.227 383.289 363.695C383.094 363.164 382.781 362.727 382.352 362.383C381.922 362.039 381.336 361.867 380.594 361.867C380.102 361.867 379.648 361.973 379.234 362.184C378.82 362.387 378.465 362.691 378.168 363.098C377.871 363.504 377.641 364 377.477 364.586C377.312 365.172 377.23 365.848 377.23 366.613V367.105C377.23 367.707 377.312 368.273 377.477 368.805C377.648 369.328 377.895 369.789 378.215 370.188C378.543 370.586 378.938 370.898 379.398 371.125C379.867 371.352 380.398 371.465 380.992 371.465C381.758 371.465 382.406 371.309 382.938 370.996C383.469 370.684 383.934 370.266 384.332 369.742L385.645 370.785C385.371 371.199 385.023 371.594 384.602 371.969C384.18 372.344 383.66 372.648 383.043 372.883C382.434 373.117 381.711 373.234 380.875 373.234ZM388.375 371.852C388.375 371.484 388.488 371.176 388.715 370.926C388.949 370.668 389.285 370.539 389.723 370.539C390.16 370.539 390.492 370.668 390.719 370.926C390.953 371.176 391.07 371.484 391.07 371.852C391.07 372.211 390.953 372.516 390.719 372.766C390.492 373.016 390.16 373.141 389.723 373.141C389.285 373.141 388.949 373.016 388.715 372.766C388.488 372.516 388.375 372.211 388.375 371.852Z" fill="#F3F3F3"/>
<defs>
<linearGradient id="paint0_linear_2365_293" x1="-105.904" y1="-134.504" x2="685.424" y2="613.107" gradientUnits="userSpaceOnUse">
<stop stop-color="#EA6EE7"/>
<stop offset="0.244792" stop-color="#FD68E3"/>
<stop offset="0.5" stop-color="#B66FFA"/>
<stop offset="0.739583" stop-color="#7668FD"/>
<stop offset="1" stop-color="#7D2AE7"/>
</linearGradient>
</defs>
</svg>
