<svg width="722" height="152" viewBox="0 0 722 152" fill="none" xmlns="http://www.w3.org/2000/svg">
<path d="M34.272 7.744V43.024C34.272 47.92 32.856 51.736 30.024 54.472C27.192 57.16 23.4 58.504 18.648 58.504C13.848 58.504 9.96 57.112 6.984 54.328C4.056 51.544 2.592 47.656 2.592 42.664H12.672C12.72 44.824 13.224 46.504 14.184 47.704C15.192 48.904 16.632 49.504 18.504 49.504C20.328 49.504 21.72 48.928 22.68 47.776C23.64 46.624 24.12 45.04 24.12 43.024V7.744H34.272ZM63.7425 58.648C59.9025 58.648 56.4465 57.808 53.3745 56.128C50.3025 54.4 47.8785 51.976 46.1025 48.856C44.3745 45.736 43.5105 42.136 43.5105 38.056C43.5105 33.976 44.3985 30.376 46.1745 27.256C47.9985 24.136 50.4705 21.736 53.5905 20.056C56.7105 18.328 60.1905 17.464 64.0305 17.464C67.8705 17.464 71.3505 18.328 74.4705 20.056C77.5905 21.736 80.0385 24.136 81.8145 27.256C83.6385 30.376 84.5505 33.976 84.5505 38.056C84.5505 42.136 83.6145 45.736 81.7425 48.856C79.9185 51.976 77.4225 54.4 74.2545 56.128C71.1345 57.808 67.6305 58.648 63.7425 58.648ZM63.7425 49.864C65.5665 49.864 67.2705 49.432 68.8545 48.568C70.4865 47.656 71.7825 46.312 72.7425 44.536C73.7025 42.76 74.1825 40.6 74.1825 38.056C74.1825 34.264 73.1745 31.36 71.1585 29.344C69.1905 27.28 66.7665 26.248 63.8865 26.248C61.0065 26.248 58.5825 27.28 56.6145 29.344C54.6945 31.36 53.7345 34.264 53.7345 38.056C53.7345 41.848 54.6705 44.776 56.5425 46.84C58.4625 48.856 60.8625 49.864 63.7425 49.864ZM97.0566 13.36C95.2806 13.36 93.7926 12.808 92.5926 11.704C91.4406 10.552 90.8646 9.136 90.8646 7.456C90.8646 5.776 91.4406 4.384 92.5926 3.28C93.7926 2.128 95.2806 1.552 97.0566 1.552C98.8326 1.552 100.297 2.128 101.449 3.28C102.649 4.384 103.249 5.776 103.249 7.456C103.249 9.136 102.649 10.552 101.449 11.704C100.297 12.808 98.8326 13.36 97.0566 13.36ZM102.025 18.112V58H91.9446V18.112H102.025ZM134.088 17.536C138.84 17.536 142.68 19.048 145.608 22.072C148.536 25.048 150 29.224 150 34.6V58H139.92V35.968C139.92 32.8 139.128 30.376 137.544 28.696C135.96 26.968 133.8 26.104 131.064 26.104C128.28 26.104 126.072 26.968 124.44 28.696C122.856 30.376 122.064 32.8 122.064 35.968V58H111.984V18.112H122.064V23.08C123.408 21.352 125.112 20.008 127.176 19.048C129.288 18.04 131.592 17.536 134.088 17.536ZM174.149 37.912C174.149 33.88 174.941 30.304 176.525 27.184C178.157 24.064 180.341 21.664 183.077 19.984C185.861 18.304 188.957 17.464 192.365 17.464C195.341 17.464 197.933 18.064 200.141 19.264C202.397 20.464 204.197 21.976 205.541 23.8V18.112H215.693V58H205.541V52.168C204.245 54.04 202.445 55.6 200.141 56.848C197.885 58.048 195.269 58.648 192.293 58.648C188.933 58.648 185.861 57.784 183.077 56.056C180.341 54.328 178.157 51.904 176.525 48.784C174.941 45.616 174.149 41.992 174.149 37.912ZM205.541 38.056C205.541 35.608 205.061 33.52 204.101 31.792C203.141 30.016 201.845 28.672 200.213 27.76C198.581 26.8 196.829 26.32 194.957 26.32C193.085 26.32 191.357 26.776 189.773 27.688C188.189 28.6 186.893 29.944 185.885 31.72C184.925 33.448 184.445 35.512 184.445 37.912C184.445 40.312 184.925 42.424 185.885 44.248C186.893 46.024 188.189 47.392 189.773 48.352C191.405 49.312 193.133 49.792 194.957 49.792C196.829 49.792 198.581 49.336 200.213 48.424C201.845 47.464 203.141 46.12 204.101 44.392C205.061 42.616 205.541 40.504 205.541 38.056ZM247.642 17.536C252.394 17.536 256.234 19.048 259.162 22.072C262.09 25.048 263.554 29.224 263.554 34.6V58H253.474V35.968C253.474 32.8 252.682 30.376 251.098 28.696C249.514 26.968 247.354 26.104 244.618 26.104C241.834 26.104 239.626 26.968 237.994 28.696C236.41 30.376 235.618 32.8 235.618 35.968V58H225.538V18.112H235.618V23.08C236.962 21.352 238.666 20.008 240.73 19.048C242.842 18.04 245.146 17.536 247.642 17.536ZM270.548 37.912C270.548 33.88 271.34 30.304 272.924 27.184C274.556 24.064 276.764 21.664 279.548 19.984C282.332 18.304 285.428 17.464 288.836 17.464C291.428 17.464 293.9 18.04 296.252 19.192C298.604 20.296 300.476 21.784 301.868 23.656V4.72H312.092V58H301.868V52.096C300.62 54.064 298.868 55.648 296.612 56.848C294.356 58.048 291.74 58.648 288.764 58.648C285.404 58.648 282.332 57.784 279.548 56.056C276.764 54.328 274.556 51.904 272.924 48.784C271.34 45.616 270.548 41.992 270.548 37.912ZM301.94 38.056C301.94 35.608 301.46 33.52 300.5 31.792C299.54 30.016 298.244 28.672 296.612 27.76C294.98 26.8 293.228 26.32 291.356 26.32C289.484 26.32 287.756 26.776 286.172 27.688C284.588 28.6 283.292 29.944 282.284 31.72C281.324 33.448 280.844 35.512 280.844 37.912C280.844 40.312 281.324 42.424 282.284 44.248C283.292 46.024 284.588 47.392 286.172 48.352C287.804 49.312 289.532 49.792 291.356 49.792C293.228 49.792 294.98 49.336 296.612 48.424C298.244 47.464 299.54 46.12 300.5 44.392C301.46 42.616 301.94 40.504 301.94 38.056ZM356.661 7.744C361.941 7.744 366.573 8.776 370.557 10.84C374.589 12.904 377.685 15.856 379.845 19.696C382.053 23.488 383.157 27.904 383.157 32.944C383.157 37.984 382.053 42.4 379.845 46.192C377.685 49.936 374.589 52.84 370.557 54.904C366.573 56.968 361.941 58 356.661 58H339.093V7.744H356.661ZM356.301 49.432C361.581 49.432 365.661 47.992 368.541 45.112C371.421 42.232 372.861 38.176 372.861 32.944C372.861 27.712 371.421 23.632 368.541 20.704C365.661 17.728 361.581 16.24 356.301 16.24H349.173V49.432H356.301ZM395.814 13.36C394.038 13.36 392.55 12.808 391.35 11.704C390.198 10.552 389.622 9.136 389.622 7.456C389.622 5.776 390.198 4.384 391.35 3.28C392.55 2.128 394.038 1.552 395.814 1.552C397.59 1.552 399.054 2.128 400.206 3.28C401.406 4.384 402.006 5.776 402.006 7.456C402.006 9.136 401.406 10.552 400.206 11.704C399.054 12.808 397.59 13.36 395.814 13.36ZM400.782 18.112V58H390.702V18.112H400.782ZM426.005 58.648C422.741 58.648 419.813 58.072 417.221 56.92C414.629 55.72 412.565 54.112 411.029 52.096C409.541 50.08 408.725 47.848 408.581 45.4H418.733C418.925 46.936 419.669 48.208 420.965 49.216C422.309 50.224 423.965 50.728 425.933 50.728C427.853 50.728 429.341 50.344 430.397 49.576C431.501 48.808 432.053 47.824 432.053 46.624C432.053 45.328 431.381 44.368 430.037 43.744C428.741 43.072 426.653 42.352 423.773 41.584C420.797 40.864 418.349 40.12 416.429 39.352C414.557 38.584 412.925 37.408 411.533 35.824C410.189 34.24 409.517 32.104 409.517 29.416C409.517 27.208 410.141 25.192 411.389 23.368C412.685 21.544 414.509 20.104 416.861 19.048C419.261 17.992 422.069 17.464 425.285 17.464C430.037 17.464 433.829 18.664 436.661 21.064C439.493 23.416 441.053 26.608 441.341 30.64H431.693C431.549 29.056 430.877 27.808 429.677 26.896C428.525 25.936 426.965 25.456 424.997 25.456C423.173 25.456 421.757 25.792 420.749 26.464C419.789 27.136 419.309 28.072 419.309 29.272C419.309 30.616 419.981 31.648 421.325 32.368C422.669 33.04 424.757 33.736 427.589 34.456C430.469 35.176 432.845 35.92 434.717 36.688C436.589 37.456 438.197 38.656 439.541 40.288C440.933 41.872 441.653 43.984 441.701 46.624C441.701 48.928 441.053 50.992 439.757 52.816C438.509 54.64 436.685 56.08 434.285 57.136C431.933 58.144 429.173 58.648 426.005 58.648ZM447.384 38.056C447.384 33.928 448.224 30.328 449.904 27.256C451.584 24.136 453.912 21.736 456.888 20.056C459.864 18.328 463.272 17.464 467.112 17.464C472.056 17.464 476.136 18.712 479.352 21.208C482.616 23.656 484.8 27.112 485.904 31.576H475.032C474.456 29.848 473.472 28.504 472.08 27.544C470.736 26.536 469.056 26.032 467.04 26.032C464.16 26.032 461.88 27.088 460.2 29.2C458.52 31.264 457.68 34.216 457.68 38.056C457.68 41.848 458.52 44.8 460.2 46.912C461.88 48.976 464.16 50.008 467.04 50.008C471.12 50.008 473.784 48.184 475.032 44.536H485.904C484.8 48.856 482.616 52.288 479.352 54.832C476.088 57.376 472.008 58.648 467.112 58.648C463.272 58.648 459.864 57.808 456.888 56.128C453.912 54.4 451.584 52 449.904 48.928C448.224 45.808 447.384 42.184 447.384 38.056ZM511 58.648C507.16 58.648 503.704 57.808 500.632 56.128C497.56 54.4 495.136 51.976 493.36 48.856C491.632 45.736 490.768 42.136 490.768 38.056C490.768 33.976 491.656 30.376 493.432 27.256C495.256 24.136 497.728 21.736 500.848 20.056C503.968 18.328 507.448 17.464 511.288 17.464C515.128 17.464 518.608 18.328 521.728 20.056C524.848 21.736 527.296 24.136 529.072 27.256C530.896 30.376 531.808 33.976 531.808 38.056C531.808 42.136 530.872 45.736 529 48.856C527.176 51.976 524.68 54.4 521.512 56.128C518.392 57.808 514.888 58.648 511 58.648ZM511 49.864C512.824 49.864 514.528 49.432 516.112 48.568C517.744 47.656 519.04 46.312 520 44.536C520.96 42.76 521.44 40.6 521.44 38.056C521.44 34.264 520.432 31.36 518.416 29.344C516.448 27.28 514.024 26.248 511.144 26.248C508.264 26.248 505.84 27.28 503.872 29.344C501.952 31.36 500.992 34.264 500.992 38.056C500.992 41.848 501.928 44.776 503.8 46.84C505.72 48.856 508.12 49.864 511 49.864ZM555.834 48.712L565.914 18.112H576.642L561.882 58H549.642L534.954 18.112H545.754L555.834 48.712ZM619.384 37.192C619.384 38.632 619.288 39.928 619.096 41.08H589.936C590.176 43.96 591.184 46.216 592.96 47.848C594.736 49.48 596.92 50.296 599.512 50.296C603.256 50.296 605.92 48.688 607.504 45.472H618.376C617.224 49.312 615.016 52.48 611.752 54.976C608.488 57.424 604.48 58.648 599.728 58.648C595.888 58.648 592.432 57.808 589.36 56.128C586.336 54.4 583.96 51.976 582.232 48.856C580.552 45.736 579.712 42.136 579.712 38.056C579.712 33.928 580.552 30.304 582.232 27.184C583.912 24.064 586.264 21.664 589.288 19.984C592.312 18.304 595.792 17.464 599.728 17.464C603.52 17.464 606.904 18.28 609.88 19.912C612.904 21.544 615.232 23.872 616.864 26.896C618.544 29.872 619.384 33.304 619.384 37.192ZM608.944 34.312C608.896 31.72 607.96 29.656 606.136 28.12C604.312 26.536 602.08 25.744 599.44 25.744C596.944 25.744 594.832 26.512 593.104 28.048C591.424 29.536 590.392 31.624 590.008 34.312H608.944ZM636.821 24.304C638.117 22.192 639.797 20.536 641.861 19.336C643.973 18.136 646.373 17.536 649.061 17.536V28.12H646.397C643.229 28.12 640.829 28.864 639.197 30.352C637.613 31.84 636.821 34.432 636.821 38.128V58H626.741V18.112H636.821V24.304Z" fill="#1E0734"/>
<path d="M308.784 128.424H288.768L285.456 138H274.872L292.944 87.672H304.68L322.752 138H312.096L308.784 128.424ZM306.048 120.36L298.776 99.336L291.504 120.36H306.048ZM339.587 104.304C340.883 102.192 342.563 100.536 344.627 99.336C346.739 98.136 349.139 97.536 351.827 97.536V108.12H349.163C345.995 108.12 343.595 108.864 341.963 110.352C340.379 111.84 339.587 114.432 339.587 118.128V138H329.507V98.112H339.587V104.304ZM370.352 106.392V125.688C370.352 127.032 370.664 128.016 371.288 128.64C371.96 129.216 373.064 129.504 374.6 129.504H379.28V138H372.944C364.448 138 360.2 133.872 360.2 125.616V106.392H355.448V98.112H360.2V88.248H370.352V98.112H379.28V106.392H370.352ZM443.647 87.744L426.655 120.504V138H416.575V120.504L399.511 87.744H410.887L421.687 110.712L432.415 87.744H443.647ZM467.172 138.648C463.332 138.648 459.876 137.808 456.804 136.128C453.732 134.4 451.308 131.976 449.532 128.856C447.804 125.736 446.94 122.136 446.94 118.056C446.94 113.976 447.828 110.376 449.604 107.256C451.428 104.136 453.9 101.736 457.02 100.056C460.14 98.328 463.62 97.464 467.46 97.464C471.3 97.464 474.78 98.328 477.9 100.056C481.02 101.736 483.468 104.136 485.244 107.256C487.068 110.376 487.98 113.976 487.98 118.056C487.98 122.136 487.044 125.736 485.172 128.856C483.348 131.976 480.852 134.4 477.684 136.128C474.564 137.808 471.06 138.648 467.172 138.648ZM467.172 129.864C468.996 129.864 470.7 129.432 472.284 128.568C473.916 127.656 475.212 126.312 476.172 124.536C477.132 122.76 477.612 120.6 477.612 118.056C477.612 114.264 476.604 111.36 474.588 109.344C472.62 107.28 470.196 106.248 467.316 106.248C464.436 106.248 462.012 107.28 460.044 109.344C458.124 111.36 457.164 114.264 457.164 118.056C457.164 121.848 458.1 124.776 459.972 126.84C461.892 128.856 464.292 129.864 467.172 129.864ZM533.03 98.112V138H522.878V132.96C521.582 134.688 519.878 136.056 517.766 137.064C515.702 138.024 513.446 138.504 510.998 138.504C507.878 138.504 505.118 137.856 502.718 136.56C500.318 135.216 498.422 133.272 497.03 130.728C495.686 128.136 495.014 125.064 495.014 121.512V98.112H505.094V120.072C505.094 123.24 505.886 125.688 507.47 127.416C509.054 129.096 511.214 129.936 513.95 129.936C516.734 129.936 518.918 129.096 520.502 127.416C522.086 125.688 522.878 123.24 522.878 120.072V98.112H533.03ZM570.212 130.008H586.772V138H560.132V87.744H570.212V130.008ZM610.891 138.648C607.051 138.648 603.595 137.808 600.523 136.128C597.451 134.4 595.027 131.976 593.251 128.856C591.523 125.736 590.659 122.136 590.659 118.056C590.659 113.976 591.547 110.376 593.323 107.256C595.147 104.136 597.619 101.736 600.739 100.056C603.859 98.328 607.339 97.464 611.179 97.464C615.019 97.464 618.499 98.328 621.619 100.056C624.739 101.736 627.187 104.136 628.963 107.256C630.787 110.376 631.699 113.976 631.699 118.056C631.699 122.136 630.763 125.736 628.891 128.856C627.067 131.976 624.571 134.4 621.403 136.128C618.283 137.808 614.779 138.648 610.891 138.648ZM610.891 129.864C612.715 129.864 614.419 129.432 616.003 128.568C617.635 127.656 618.931 126.312 619.891 124.536C620.851 122.76 621.331 120.6 621.331 118.056C621.331 114.264 620.323 111.36 618.307 109.344C616.339 107.28 613.915 106.248 611.035 106.248C608.155 106.248 605.731 107.28 603.763 109.344C601.843 111.36 600.883 114.264 600.883 118.056C600.883 121.848 601.819 124.776 603.691 126.84C605.611 128.856 608.011 129.864 610.891 129.864ZM655.725 128.712L665.805 98.112H676.533L661.773 138H649.533L634.845 98.112H645.645L655.725 128.712ZM719.275 117.192C719.275 118.632 719.179 119.928 718.987 121.08H689.827C690.067 123.96 691.075 126.216 692.851 127.848C694.627 129.48 696.811 130.296 699.403 130.296C703.147 130.296 705.811 128.688 707.395 125.472H718.267C717.115 129.312 714.907 132.48 711.643 134.976C708.379 137.424 704.371 138.648 699.619 138.648C695.779 138.648 692.323 137.808 689.251 136.128C686.227 134.4 683.851 131.976 682.123 128.856C680.443 125.736 679.603 122.136 679.603 118.056C679.603 113.928 680.443 110.304 682.123 107.184C683.803 104.064 686.155 101.664 689.179 99.984C692.203 98.304 695.683 97.464 699.619 97.464C703.411 97.464 706.795 98.28 709.771 99.912C712.795 101.544 715.123 103.872 716.755 106.896C718.435 109.872 719.275 113.304 719.275 117.192ZM708.835 114.312C708.787 111.72 707.851 109.656 706.027 108.12C704.203 106.536 701.971 105.744 699.331 105.744C696.835 105.744 694.723 106.512 692.995 108.048C691.315 109.536 690.283 111.624 689.899 114.312H708.835Z" fill="#1E0734"/>
</svg>
