<svg width="61" height="60" viewBox="0 0 61 60" fill="none" xmlns="http://www.w3.org/2000/svg">
<path d="M14.7443 10.9874C17.0045 6.01264 20.5539 2.41303 25.806 0.630285C26.046 0.587815 26.1454 0.678224 26.082 0.922101C25.2455 1.81171 24.5119 2.84449 23.5403 3.54652C22.7385 4.12565 22.382 4.84183 22.1462 5.6732C21.8058 6.87071 21.217 7.72268 19.8583 7.78606C19.6974 7.79378 19.4951 7.78348 19.3879 7.87261C17.971 9.04856 15.9058 9.37866 15.0046 11.2238C14.7832 11.2943 14.6648 11.2505 14.7443 10.9874Z" fill="url(#paint0_linear_1245_705)"/>
<path d="M26.0431 32.8012C20.9197 30.8997 17.0775 27.6138 14.9273 22.5014C14.8681 22.2649 14.9512 22.1594 15.1992 22.2054C16.1458 22.9776 17.2278 23.6355 17.9983 24.5541C18.6325 25.3131 19.3725 25.6158 20.2183 25.7944C21.4371 26.0489 22.3286 26.5759 22.4882 27.9269C22.5069 28.0858 22.5114 28.2891 22.6079 28.3898C23.8813 29.7193 24.3565 31.7559 26.2609 32.5242C26.3452 32.7413 26.3101 32.8623 26.0431 32.8012Z" fill="url(#paint1_linear_1245_705)"/>
<path d="M26.9784 11.479C26.9244 11.466 26.8715 11.4485 26.8204 11.4268L26.645 11.4211C26.7068 11.3651 26.7737 11.3612 26.8493 11.3863C26.8606 11.3981 26.8729 11.4088 26.886 11.4185C26.9148 11.4415 26.9457 11.4618 26.9784 11.479Z" fill="url(#paint2_linear_1245_705)"/>
<path d="M33.6393 12.5574L33.0727 12.4439C33.1828 12.3937 33.3156 12.4053 33.4659 12.4728C33.5235 12.4995 33.5814 12.5269 33.6393 12.5574Z" fill="url(#paint3_linear_1245_705)"/>
<path d="M37.8943 16.8684C37.8651 16.9073 37.838 16.9478 37.8132 16.9897C37.7888 16.9725 37.7701 16.9484 37.7595 16.9205C37.802 16.8975 37.8473 16.88 37.8943 16.8684Z" fill="url(#paint4_linear_1245_705)"/>
<path d="M40.3665 24.0499C40.5917 24.7729 40.2057 25.2503 39.9985 25.7529C39.8196 26.1875 39.5358 26.5791 39.2977 26.9896C39.2825 27.0174 39.2639 27.0433 39.2424 27.0665C39.0493 27.2612 38.7897 27.5092 38.559 27.3451C38.3376 27.1875 38.4541 26.8426 38.6127 26.6274C38.8154 26.3523 38.9666 26.0865 38.957 25.7246C38.9522 25.5466 39.0731 25.3668 39.2642 25.277C39.7703 25.0405 40.0821 24.6181 40.3665 24.0499Z" fill="url(#paint5_linear_1245_705)"/>
<path d="M27.0559 7.51483C26.9616 7.51934 26.9102 7.48491 26.9179 7.37938C26.9362 7.12585 27.3712 6.69826 27.5868 6.7314C27.6859 6.74684 27.765 6.78867 27.7538 6.91479C27.7316 7.16317 27.313 7.52545 27.0559 7.51483Z" fill="url(#paint6_linear_1245_705)"/>
<path d="M33.4659 12.4728C33.3156 12.4053 33.1828 12.3937 33.0727 12.4439L33.6393 12.5574C33.5814 12.5269 33.5235 12.4995 33.4659 12.4728Z" fill="url(#paint7_linear_1245_705)"/>
<path d="M40.7603 17.3018C40.5029 17.5656 40.149 17.6715 39.8337 17.841C39.3868 18.0839 39.1191 17.9279 39.0384 17.4404C38.6031 17.111 38.0638 16.907 37.7382 16.4543C37.7801 16.5292 37.8032 16.6131 37.8055 16.6988C37.7978 16.7181 37.79 16.7355 37.7804 16.7548L37.8943 16.8684C37.8651 16.9073 37.838 16.9478 37.8132 16.9897C37.7888 16.9725 37.7701 16.9484 37.7595 16.9205C37.7478 16.8983 37.7406 16.8741 37.7382 16.8491C37.7247 16.7912 37.7247 16.7297 37.7035 16.6757C37.6131 16.5293 37.4876 16.3945 37.5166 16.1998C37.0388 16.0747 37.2045 15.7262 37.245 15.4199C37.1758 15.3878 37.1102 15.3466 37.0388 15.3331C36.9214 15.3122 36.7595 15.4891 36.6923 15.2687C36.6279 15.0606 36.7904 14.9663 36.9291 14.8662C36.7788 14.6732 36.6286 14.4801 36.4764 14.2845C36.1492 14.1822 36.0469 13.9473 36.0903 13.6275H36.0884C35.9304 13.3618 35.7203 13.1057 35.8995 12.7646L35.8879 12.7608C35.2544 12.811 34.6167 12.9216 33.9945 12.7202C33.9578 12.7086 33.9234 12.6971 33.8887 12.6836C33.806 12.6414 33.723 12.5989 33.6403 12.5584L33.0737 12.4448C32.9794 12.4873 32.9025 12.5735 32.8485 12.7067C32.6442 13.2038 32.4016 13.3444 32.0029 13.0014C31.6098 12.6665 31.1343 12.5854 30.716 12.3525C30.5828 12.2772 30.4194 12.2791 30.577 12.0057C30.5867 11.9883 30.5963 11.9735 30.604 11.9555C30.789 11.5781 30.5445 11.2949 30.0892 11.349C29.4979 11.4182 28.8988 11.4239 28.3055 11.4992C28.0013 11.5334 27.7009 11.5952 27.4079 11.6839C27.2422 11.736 26.8165 11.9555 26.8223 11.4265L26.647 11.4207C26.6489 11.6575 26.4372 11.7193 26.3005 11.839C25.9401 12.1569 25.4913 12.3859 25.4183 12.9583C25.3861 13.2086 25.1158 13.3766 24.8555 13.4165C24.2893 13.5072 24.0756 13.9869 23.7867 14.3682C23.4978 14.7494 23.0567 15.1098 23.3514 15.7108C23.409 15.8301 23.3418 16.0229 23.3012 16.1731C23.1973 16.5718 23.0818 16.9685 22.9602 17.3616C22.92 17.4903 22.8659 17.6216 22.9679 17.7197C23.3707 18.1184 23.4167 18.7194 23.7597 19.1354C24.2491 19.7264 24.6458 20.495 25.6203 20.4027C26.5064 20.3178 27.4253 20.5047 28.2727 20.0713C28.4963 19.9558 28.7601 20.0308 28.8332 20.2643C28.9854 20.7495 29.309 20.7112 29.6925 20.6668C30.1066 20.6205 30.3067 20.8499 30.2588 21.2659C30.2356 21.4853 30.1945 21.7032 30.1584 21.9229C29.8965 22.1423 30.0062 22.3563 30.17 22.5664C30.4956 22.9824 30.8846 23.3524 31.1178 23.8356C31.1928 24.1747 31.1696 24.5946 31.3662 24.8279C31.5898 25.0898 31.3739 25.1342 31.3086 25.269C30.6459 25.9816 30.5593 26.5923 31.2121 27.1798C31.3682 27.4513 31.5454 27.6946 31.4759 28.0581C31.4338 28.2891 31.584 28.5407 31.7842 28.7225C32.0094 28.9249 32.1812 29.1655 32.2195 29.4738C32.26 29.8052 32.5258 29.9844 32.8263 29.8399C33.1635 29.679 33.5235 29.6337 33.8819 29.57C34.768 29.4162 35.3902 28.865 35.8715 28.1563C35.9931 27.977 36.0739 27.8023 36.2879 27.7576C36.6418 27.6785 36.7827 27.3741 36.7328 27.1161C36.6247 26.5788 36.9715 26.3996 37.3068 26.1724C37.4915 26.0469 37.6668 25.9102 37.846 25.7773C38.3872 25.371 38.5336 24.6545 38.3161 23.9975C38.1465 23.4827 38.0658 22.9248 38.3737 22.4045C38.8563 21.8364 39.0867 21.0967 39.6394 20.5748C40.4714 19.7869 40.6834 18.7293 40.8565 17.6624C40.8739 17.554 40.9144 17.4115 40.7603 17.3018Z" fill="url(#paint8_linear_1245_705)"/>
<path d="M45.9484 10.7843C44.3075 5.69927 37.7206 0.577016 33.1673 0.55532C33.6399 0.557572 33.7603 1.45039 34.2477 1.31237C33.8475 1.74028 35.0788 2.06974 35.2309 2.59321C35.044 2.6183 34.9092 2.63568 34.6952 2.66656C35.0286 2.88792 35.302 3.07099 35.5929 3.26564C35.3696 3.38694 35.0865 3.10477 34.9536 3.51209C34.8822 3.73152 34.4005 3.70674 34.4237 4.08607C34.1772 4.08993 34.1522 3.70481 33.8478 3.84927C33.9884 3.98215 34.1135 4.09959 34.239 4.21702C33.8999 4.24018 34.0386 4.84312 33.5994 4.7392C33.5254 4.62273 33.0383 4.35311 33.4414 4.36148C34.6962 4.21638 33.0087 3.88145 32.6535 3.77431C32.2143 3.62953 31.4766 3.718 31.2745 4.088C31.1011 4.98276 29.5243 5.19317 29.9702 6.11817C30.2002 6.57311 30.5448 5.9055 30.7852 6.08149C30.9892 6.32086 31.2002 6.92605 30.6462 6.82567C30.9383 6.28354 30.3614 6.2755 30.3566 6.75071C30.578 7.2687 30.1504 7.23814 29.8817 7.34528C29.2505 7.78992 28.6047 8.32658 27.8419 8.3565C28.0292 8.70044 28.5529 8.92598 28.2541 9.48258C28.0288 9.89312 27.4996 9.54339 27.1428 9.51733C26.4443 9.1898 26.6302 9.9742 26.3954 10.3645C26.0627 10.9314 26.7145 11.3718 27.1717 11.4799C27.139 11.4623 27.108 11.4416 27.0791 11.4182C28.1958 11.4844 28.3599 10.2872 29.2366 9.83102C30.2411 9.04341 31.8035 10.0807 31.9219 11.1331C32.0969 11.0655 32.1934 10.9211 32.1471 10.7843C31.9775 10.2798 32.3401 10.6878 32.4013 10.5128C31.9621 10.1968 31.2752 9.99801 31.1069 9.21457C32.3517 9.60323 32.8311 10.4993 33.4453 11.4761C33.6268 11.0678 33.0685 10.719 33.5457 10.4011C34.1248 9.81558 34.111 11.164 34.5933 11.2525C35.2149 11.6743 36.1106 10.7943 36.3207 11.4056C36.4304 11.8374 36.6424 12.5336 36.0855 12.7041C35.8069 13.9004 36.7518 13.3312 37.1948 14.2144C37.7096 14.5631 39.0007 18.4439 39.9138 17.1602C41.3214 16.1483 42.9655 14.2253 41.0721 13.0568C40.6336 14.5429 40.2899 13.2865 39.5316 13.1353C39.1243 12.1218 39.3971 12.0838 40.1487 12.7704C40.604 13.4068 40.843 12.6186 41.1731 12.8953C41.6464 13.4586 42.3829 12.5378 42.8355 12.6758C43.2014 12.8158 43.7409 13.9859 43.9719 13.1633C44.4516 14.3016 44.905 15.3784 45.3876 16.5245C45.875 15.9946 44.6691 9.83231 45.9484 12.3116C46.5307 13.43 46.5404 12.6192 45.9484 10.7843ZM34.3597 1.23322C34.4153 1.20652 34.4829 1.20845 34.5501 1.21038C34.486 1.21124 34.4222 1.2189 34.3597 1.23322ZM32.6355 6.32633C32.2883 6.36012 32.0583 7.094 31.3324 6.94214C32.1342 6.59241 31.7999 5.7131 32.0271 5.0915C31.9035 5.71374 32.1831 6.00073 32.6606 5.85048C32.5123 6.03741 32.5374 6.18959 32.6355 6.32633ZM35.7081 9.64892C35.1 9.58457 34.757 10.3011 34.2844 9.48805C34.5308 9.30723 34.6927 9.01638 34.9797 8.88865C34.9797 9.52795 35.7004 9.30016 35.6946 8.74001C35.7029 9.41341 36.4757 9.32075 36.7425 9.79563C36.3976 9.74898 36.0527 9.7049 35.7081 9.64892ZM39.2597 10.2866C39.0651 10.2107 38.7575 10.3355 38.6436 10.2712C38.652 9.40408 37.1092 9.0566 37.7206 8.24421C38.1855 7.72943 37.9326 8.86999 38.3447 8.8124C38.688 9.18015 39.235 9.81429 39.2597 10.2866ZM39.3389 8.35071C39.0918 8.34846 38.9608 7.95433 39.2118 7.84976C39.4312 7.89867 39.6758 8.29183 39.3389 8.35071Z" fill="url(#paint9_linear_1245_705)"/>
<path d="M33.2326 0.595215L33.2886 0.672111C33.1828 0.633824 33.0785 0.591354 32.9746 0.556607C33.048 0.550815 33.1191 0.545024 33.1924 0.541163L33.2326 0.595215Z" fill="url(#paint10_linear_1245_705)"/>
<path d="M30.5014 33.4286C21.2852 33.4286 13.7871 25.9321 13.7871 16.7143C13.7871 7.49649 21.2852 0 30.5014 0C39.7176 0 47.2157 7.4981 47.2157 16.7143C47.2157 25.9305 39.7176 33.4286 30.5014 33.4286ZM30.5014 0.297929C21.4493 0.297929 14.085 7.66219 14.085 16.7143C14.085 25.7664 21.4493 33.1306 30.5014 33.1306C39.5535 33.1306 46.9178 25.7664 46.9178 16.7143C46.9178 7.66219 39.5535 0.297929 30.5014 0.297929Z" fill="url(#paint11_linear_1245_705)"/>
<path d="M10.1569 48.3285C10.0475 48.3285 9.99285 48.3229 9.99285 48.3117L10.0397 48.2949C10.071 48.2837 10.1022 48.2669 10.1335 48.2444C10.1647 48.222 10.1882 48.1996 10.2038 48.1772C10.2351 48.1547 10.2585 48.1435 10.2741 48.1435C10.321 48.1435 10.3444 48.1604 10.3444 48.194C10.3444 48.2164 10.3366 48.2388 10.321 48.2613C10.3054 48.2837 10.2819 48.3005 10.2507 48.3117C10.2194 48.3229 10.1882 48.3285 10.1569 48.3285ZM9.19592 48.5808H9.14904C9.14904 48.5584 9.19592 48.5135 9.28968 48.4462C9.38344 48.379 9.49282 48.3453 9.61783 48.3453C9.74284 48.3453 9.80534 48.3678 9.80534 48.4126C9.80534 48.435 9.78972 48.4519 9.75846 48.4631C9.72721 48.4743 9.68033 48.4799 9.61783 48.4799C9.57095 48.4799 9.51626 48.4911 9.45375 48.5135C9.40688 48.5247 9.36 48.5415 9.31312 48.564C9.26624 48.5752 9.22718 48.5808 9.19592 48.5808ZM18.6888 35.1942C18.72 35.183 18.7435 35.1605 18.7591 35.1269C18.7903 35.0933 18.8138 35.0764 18.8294 35.0764C18.845 35.0877 18.8607 35.1157 18.8763 35.1605V35.1774L18.6888 35.1942ZM11.6336 59.9998C11.3367 59.9998 11.0789 59.9774 10.8601 59.9325C10.4851 59.8652 10.0241 59.7251 9.47719 59.5121C8.94591 59.3103 8.55525 59.1253 8.30524 58.9571C8.1646 58.8562 7.97709 58.7385 7.7427 58.6039C7.30517 58.3124 7.0239 58.1162 6.89889 58.0153C6.78951 57.9032 6.73481 57.8247 6.73481 57.7799C6.73481 57.7238 6.62543 57.5669 6.40667 57.309C6.14102 56.939 5.88319 56.4289 5.63317 55.7786C5.25815 54.8032 5.04719 53.8502 5.00032 52.9197C4.96906 52.5609 4.95344 52.1909 4.95344 51.8097C4.95344 50.8119 4.90656 50.313 4.8128 50.313C4.78155 50.313 4.72686 50.341 4.64873 50.3971C4.5706 50.4419 4.48466 50.4924 4.3909 50.5484C4.01587 50.739 3.80492 50.8511 3.75804 50.8848L3.33614 51.1707C3.27363 51.2043 3.22675 51.2267 3.1955 51.2379C3.16425 51.2379 3.04705 51.322 2.84391 51.4902C2.75016 51.5687 2.50795 51.7312 2.1173 51.9779C1.82041 52.1124 1.64852 52.2077 1.60164 52.2638C1.57039 52.3198 1.53132 52.3479 1.48444 52.3479H1.29693C1.25005 52.3479 1.22661 52.3311 1.22661 52.2974C1.22661 52.2526 1.17192 52.2133 1.06254 52.1797C0.953157 52.1349 0.890652 52.0956 0.875026 52.062L0.898466 51.6752C0.898466 51.6303 0.882839 51.6079 0.851587 51.6079C0.835961 51.6079 0.812522 51.6191 0.78127 51.6415C0.703139 51.6415 0.648448 51.6303 0.617196 51.6079C0.585944 51.5743 0.554691 51.4958 0.523439 51.3725C0.507813 51.294 0.5 51.2099 0.5 51.1202C0.5 51.0866 0.531252 51.0698 0.593757 51.0698C0.687513 51.0361 0.773457 50.9576 0.851587 50.8343C0.914092 50.711 0.968783 50.6493 1.01566 50.6493H1.0391C1.13286 50.6493 1.25005 50.6101 1.39069 50.5316C1.45319 50.4868 1.56257 50.4307 1.71884 50.3634C1.8751 50.2849 2.03917 50.2065 2.21106 50.128C2.52358 50.0271 2.80485 49.9038 3.05487 49.758L3.8518 49.3544C4.22682 49.2198 4.50028 49.0909 4.67217 48.9676C4.79718 48.8779 4.88312 48.749 4.93 48.5808C4.97688 48.4126 5.03938 48.0482 5.11751 47.4877L5.4691 45.5705C5.57848 45.1781 5.63317 44.9202 5.63317 44.7969C5.6488 44.6736 5.68005 44.4998 5.72693 44.2755C5.86756 43.6477 5.9457 43.317 5.96132 43.2833C5.97695 43.2497 5.99257 43.1824 6.0082 43.0815C6.0707 42.7003 6.32072 41.6632 6.75825 39.9703L6.85201 39.6003C6.85201 39.5779 6.8442 39.5667 6.82857 39.5667C6.82857 39.5555 6.82076 39.5499 6.80513 39.5499C6.74263 39.5499 6.45354 39.634 5.93788 39.8021C5.73474 39.8806 5.56286 39.9647 5.42222 40.0544C5.28159 40.1329 5.13314 40.2057 4.97688 40.273C4.82062 40.3291 4.68779 40.3739 4.57841 40.4076C4.12525 40.5197 3.71898 40.7103 3.35958 40.9793C3.23457 41.0578 3.10175 41.0971 2.96111 41.0971C2.63296 41.0971 2.38294 40.9513 2.21106 40.6598C2.10168 40.5028 2.00011 40.3403 1.90635 40.1721C1.82822 39.9927 1.77353 39.8414 1.74227 39.718L1.71884 39.5162L1.67196 39.2808C1.67196 39.2247 1.70321 39.1967 1.76571 39.1967C1.84384 39.1967 1.88291 39.1743 1.88291 39.1294C1.88291 39.0734 1.92198 39.0173 2.00011 38.9613C2.07824 38.9052 2.15637 38.8772 2.2345 38.8772L2.35169 38.894C2.44545 38.894 2.58608 38.8491 2.7736 38.7594C3.27363 38.5352 4.20339 38.2213 5.56286 37.8177L7.25047 37.2795C8.51619 36.8198 10.0554 36.3826 11.868 35.9678L13.2743 35.6314C14.2432 35.3848 15.712 35.0933 17.6809 34.7569H17.7512H17.6106L18.2669 34.656C19.2044 34.5215 20.4623 34.4542 22.0406 34.4542C22.2125 34.4654 22.3453 34.4878 22.439 34.5215C22.5328 34.5439 22.6422 34.5887 22.7672 34.656C23.0485 34.8018 23.1891 34.9027 23.1891 34.9587C23.1891 34.9924 23.1344 35.0092 23.025 35.0092C22.9313 35.0092 22.8844 35.0316 22.8844 35.0764C22.8844 35.1213 22.9547 35.1886 23.0953 35.2783C23.2516 35.3567 23.3688 35.4745 23.4469 35.6314C23.4782 35.7211 23.5563 35.8276 23.6813 35.9509C23.7594 35.9958 23.8063 36.0462 23.822 36.1023C23.822 36.4274 23.7829 36.6573 23.7048 36.7918C23.6579 36.8703 23.5797 36.9544 23.4704 37.0441C23.2203 37.1898 23.0485 37.2627 22.9547 37.2627H22.9313C22.7906 37.2627 22.6969 37.2739 22.65 37.2963C22.6187 37.3075 22.5875 37.3132 22.5562 37.3132C22.4469 37.3132 22.3922 37.2683 22.3922 37.1786C22.3922 37.0889 22.3297 37.0441 22.2047 37.0441C22.0953 37.0441 22.025 37.0329 21.9937 37.0104C21.9624 36.988 21.9468 36.9432 21.9468 36.8759C21.9468 36.7974 21.8999 36.6741 21.8062 36.5059C21.7437 36.4274 21.7124 36.3546 21.7124 36.2873C21.7124 36.2649 21.7202 36.2425 21.7359 36.22C21.7671 36.1864 21.7827 36.1584 21.7827 36.1359C21.7515 36.0911 21.6499 36.0687 21.478 36.0687L19.9545 36.1528C19.4701 36.1976 18.9779 36.2537 18.4778 36.3209C18.3216 36.3434 18.1966 36.3546 18.1028 36.3546C17.0871 36.4667 16.2277 36.6236 15.5245 36.8255C15.3057 36.8815 15.1963 36.9208 15.1963 36.9432C15.1963 36.9544 15.2198 36.96 15.2667 36.96C15.4073 36.96 15.7433 36.9151 16.2745 36.8255C16.5402 36.7694 16.798 36.7189 17.048 36.6741C17.3137 36.6292 17.5481 36.5956 17.7512 36.5732L17.5168 36.6741L17.1418 36.775C17.0168 36.775 16.8136 36.8086 16.5324 36.8759C16.4542 36.8983 16.3449 36.9208 16.2042 36.9432C15.9542 36.9992 15.7198 37.0441 15.5011 37.0777C14.5947 37.2683 13.665 37.4813 12.7118 37.7168C11.9461 37.9074 11.0867 38.154 10.1335 38.4567V38.7594C10.1335 39.0397 9.8991 39.9647 9.43032 41.5343C9.32093 41.8594 9.18811 42.2687 9.03185 42.762C8.87559 43.2553 8.79746 43.5356 8.79746 43.6028C8.75058 43.7598 8.71152 43.8551 8.68026 43.8887C8.66464 43.9224 8.63338 44.0121 8.58651 44.1578C8.55525 44.3036 8.53181 44.4661 8.51619 44.6455C8.43806 45.0604 8.38337 45.2846 8.35212 45.3182C8.33649 45.3406 8.32086 45.3799 8.30524 45.4359C8.30524 45.4808 8.30524 45.5256 8.30524 45.5705C8.27398 45.9292 8.21148 46.1815 8.11772 46.3273C8.05522 46.417 8.02397 46.5739 8.02397 46.7981C8.02397 46.9663 8.00053 47.1513 7.95365 47.3531C7.9224 47.4204 7.90677 47.4708 7.90677 47.5045L7.93021 47.5549L8.07084 47.5045C8.22711 47.4484 8.32868 47.4036 8.37555 47.3699L8.91465 47.1681C9.28968 47.0112 9.59439 46.8934 9.82878 46.815C9.95379 46.7701 10.0319 46.7477 10.0632 46.7477C10.1101 46.7477 10.3054 46.6804 10.6492 46.5459C11.0554 46.4001 11.2742 46.3273 11.3054 46.3273C11.3367 46.3273 11.6258 46.2488 12.1727 46.0918C13.1571 45.8115 13.9072 45.6714 14.4229 45.6714C14.7041 45.6714 14.9151 45.7106 15.0557 45.7891L15.2432 45.9236C15.0557 45.8788 14.9463 45.8564 14.9151 45.8564C14.8838 45.8564 14.8604 45.862 14.8448 45.8732V45.89C14.8448 46.047 14.962 46.1535 15.1963 46.2095C15.3682 46.2432 15.4542 46.3048 15.4542 46.3945C15.4542 46.4282 15.462 46.4674 15.4776 46.5123C15.5089 46.5459 15.5401 46.5795 15.5714 46.6132C15.6964 46.7028 15.7589 46.8542 15.7589 47.0672C15.7589 47.1569 15.7354 47.2298 15.6886 47.2859C15.4542 47.4989 15.1338 47.7007 14.7276 47.8913L14.5635 47.9417C14.5166 47.8745 14.4307 47.8408 14.3057 47.8408C14.1963 47.8408 14.0635 47.8745 13.9072 47.9417C13.7509 47.9978 13.6181 48.0258 13.5087 48.0258C13.3681 48.0258 13.2978 47.9866 13.2978 47.9081V47.8576C13.2978 47.7904 13.2431 47.7455 13.1337 47.7231C13.0868 47.7231 13.0399 47.7175 12.9931 47.7063C12.9618 47.6839 12.9462 47.6614 12.9462 47.639C12.9462 47.6054 12.9306 47.5886 12.8993 47.5886L12.7587 47.6222C12.7274 47.6222 12.7118 47.611 12.7118 47.5886C12.7118 47.5549 12.6493 47.5381 12.5243 47.5381C12.3524 47.5381 12.2039 47.583 12.0789 47.6727L11.9852 47.7063C11.9539 47.7063 11.9305 47.7007 11.9149 47.6895C11.9149 47.6783 11.9149 47.667 11.9149 47.6558C11.9149 47.6334 11.9305 47.6054 11.9617 47.5717C11.993 47.5269 12.0086 47.4989 12.0086 47.4877H11.9852C11.8914 47.4877 11.7039 47.5381 11.4226 47.639C11.3758 47.639 11.3133 47.6446 11.2351 47.6558C11.157 47.667 11.0789 47.6727 11.0007 47.6727C10.7663 47.7063 10.6179 47.7455 10.5554 47.7904C10.4929 47.8352 10.3835 47.8913 10.2272 47.9585C9.74284 48.1491 9.43032 48.2613 9.28968 48.2949C9.2428 48.2949 9.20374 48.2725 9.17248 48.2276C9.17248 48.2052 9.22718 48.166 9.33656 48.1099C9.64908 47.9529 9.8991 47.8632 10.0866 47.8408C10.2898 47.796 10.4382 47.7511 10.532 47.7063C11.282 47.4036 11.7664 47.2354 11.9852 47.2018C12.1414 47.1793 12.2821 47.1401 12.4071 47.084C12.5477 47.0168 12.7665 46.9551 13.0634 46.8991C13.6572 46.7533 13.9541 46.6524 13.9541 46.5963C13.9541 46.5851 13.9384 46.5795 13.9072 46.5795C13.7197 46.5795 13.2353 46.6804 12.454 46.8822C11.3914 47.1625 10.4616 47.454 9.66471 47.7567L7.85989 48.4631C7.76614 48.5191 7.71926 48.564 7.71926 48.5976C7.71926 48.6088 7.72707 48.62 7.7427 48.6312C7.77395 48.6425 7.8052 48.6481 7.83645 48.6481C7.91458 48.6481 8.02397 48.62 8.1646 48.564C8.33649 48.4631 8.46931 48.4126 8.56307 48.4126C8.67245 48.4126 8.73495 48.3902 8.75058 48.3453C8.78183 48.3005 8.80527 48.2781 8.8209 48.2781C8.83652 48.2781 8.85996 48.2893 8.89121 48.3117C8.92247 48.3341 8.93809 48.3566 8.93809 48.379C8.93809 48.4126 8.84434 48.4743 8.65682 48.564C8.48494 48.6425 8.38337 48.6817 8.35212 48.6817C8.32086 48.6817 8.26617 48.6985 8.18804 48.7321L7.67238 49.0349V49.0517C7.67238 49.0741 7.70363 49.0853 7.76614 49.0853C7.85989 49.0853 7.97709 49.0349 8.11772 48.934C8.27398 48.8218 8.38337 48.7658 8.44587 48.7658C8.47712 48.7658 8.50056 48.777 8.51619 48.7994C8.51619 48.8667 8.4615 48.9227 8.35212 48.9676C8.25836 49.0012 8.1646 49.0461 8.07084 49.1021C8.03959 49.1245 7.99271 49.1526 7.93021 49.1862C7.86771 49.2198 7.8052 49.2535 7.7427 49.2871C7.69582 49.3095 7.64113 49.332 7.57862 49.3544V51.6415C7.59425 53.8278 7.66457 55.005 7.78958 55.1732C7.8052 55.218 7.82864 55.2965 7.85989 55.4086C7.90677 55.5208 7.94584 55.6497 7.97709 55.7954C8.1021 56.2327 8.25836 56.6419 8.44587 57.0231C8.64901 57.4043 8.89903 57.7575 9.19592 58.0826C9.2428 58.1611 9.28187 58.2283 9.31312 58.2844C9.34437 58.3405 9.38344 58.3965 9.43032 58.4526C9.50845 58.5983 9.68815 58.7217 9.96942 58.8226C10.1569 58.901 10.3288 58.9403 10.4851 58.9403C10.8132 58.9403 11.1648 58.8786 11.5398 58.7553C11.7117 58.7104 11.8289 58.6712 11.8914 58.6376C12.0477 58.5703 12.1961 58.5255 12.3368 58.503C12.5555 58.4694 12.8759 58.3517 13.2978 58.1499C13.7197 57.9368 13.9384 57.8303 13.9541 57.8303C13.9697 57.8303 13.9775 57.8359 13.9775 57.8472C13.9775 57.8584 13.9541 57.8864 13.9072 57.9312C13.8759 57.9649 13.8056 58.0209 13.6962 58.0994C13.6025 58.1667 13.5009 58.2283 13.3915 58.2844C13.2821 58.3405 13.1962 58.3853 13.1337 58.4189L13.0399 58.4862C13.0712 58.4974 13.1103 58.503 13.1571 58.503C13.2353 58.503 13.3837 58.4694 13.6025 58.4021C13.8212 58.3349 14.0556 58.2283 14.3057 58.0826C14.4619 57.9817 14.6026 57.9088 14.7276 57.864L14.9854 57.7967C15.0792 57.7967 15.212 57.735 15.3839 57.6117L15.9464 57.2754C16.0558 57.2193 16.212 57.096 16.4152 56.9054C16.6183 56.7148 16.8058 56.5074 16.9777 56.2831L17.1418 56.0981L17.5637 55.6441C17.6106 55.5768 17.634 55.5264 17.634 55.4927C17.634 55.4479 17.6887 55.3862 17.7981 55.3077C17.845 55.2741 17.884 55.2349 17.9153 55.19C17.9465 55.134 17.9622 55.0947 17.9622 55.0723C17.9622 54.9826 18.009 54.9041 18.1028 54.8368C18.1966 54.7584 18.2434 54.6799 18.2434 54.6014V54.5173C18.2434 54.4613 18.2591 54.422 18.2903 54.3996C18.3372 54.366 18.3606 54.3211 18.3606 54.2651C18.3606 54.209 18.3763 54.1529 18.4075 54.0969C18.4544 54.0408 18.5013 53.9904 18.5481 53.9455C18.6106 53.9007 18.6653 53.8783 18.7122 53.8783C18.7435 53.8783 18.7591 53.8951 18.7591 53.9287C18.7591 54.0408 18.6341 54.2931 18.3841 54.6855C18.3216 54.82 18.1419 55.0947 17.845 55.5095C17.7825 55.5768 17.7043 55.6889 17.6106 55.8459C17.5168 55.9916 17.4153 56.1486 17.3059 56.3168C17.2121 56.4737 17.1184 56.6195 17.0246 56.754C16.9465 56.8886 16.884 56.9783 16.8371 57.0231C16.8058 57.0567 16.7902 57.0904 16.7902 57.124V57.2081C16.7902 57.2642 16.7511 57.3314 16.673 57.4099C16.6261 57.4323 16.5871 57.466 16.5558 57.5108C16.5246 57.5557 16.5089 57.6005 16.5089 57.6453C16.5089 57.679 16.4777 57.6958 16.4152 57.6958C16.3683 57.6958 16.3449 57.7294 16.3449 57.7967C16.3449 57.8528 16.2902 57.9481 16.1808 58.0826C15.8683 58.4189 15.5557 58.688 15.2432 58.8898C14.9932 59.0692 14.5713 59.2878 13.9775 59.5457C13.5087 59.7587 13.1571 59.8821 12.9227 59.9157C12.7665 59.9381 12.5633 59.9549 12.3133 59.9661C12.0633 59.9886 11.8367 59.9998 11.6336 59.9998ZM10.696 37.7336C10.7273 37.7336 10.821 37.7056 10.9773 37.6495C11.1492 37.5822 11.2351 37.543 11.2351 37.5318H11.2117C11.1961 37.5318 11.1492 37.543 11.0711 37.5654C10.9929 37.5878 10.9226 37.6103 10.8601 37.6327C10.7976 37.6439 10.7507 37.6607 10.7195 37.6831C10.6882 37.7056 10.6726 37.7224 10.6726 37.7336H10.696ZM9.99285 37.5822C10.4148 37.5598 10.7273 37.515 10.9304 37.4477C11.7899 37.1898 12.2821 37.0609 12.4071 37.0609L12.4305 37.0777C12.4305 37.1226 12.3368 37.1786 12.1493 37.2459C11.9774 37.3132 11.8914 37.358 11.8914 37.3804C11.8914 37.3916 11.9071 37.3972 11.9383 37.3972C12.0946 37.3972 12.4149 37.3356 12.8993 37.2123C13.3837 37.0777 13.7041 36.9936 13.8603 36.96C14.0009 36.9039 14.0713 36.8535 14.0713 36.8086C14.0713 36.7526 14.4072 36.6405 15.0791 36.4723C15.5792 36.3377 15.9073 36.2705 16.0636 36.2705C16.1261 36.2705 16.1574 36.2873 16.1574 36.3209C16.1574 36.3434 16.1261 36.3546 16.0636 36.3546C16.0011 36.3546 15.923 36.3658 15.8292 36.3882C15.7511 36.4106 15.6651 36.4387 15.5714 36.4723C15.4776 36.5059 15.4307 36.5283 15.4307 36.5396C15.4307 36.5508 15.4464 36.5564 15.4776 36.5564C15.6026 36.5564 15.8917 36.5059 16.3449 36.405C16.798 36.3041 17.5481 36.1808 18.595 36.035L20.0248 35.8164L20.0014 35.7996L19.392 35.8669L19.0404 35.8837C19.1966 35.7267 19.3529 35.6482 19.5091 35.6482L19.6263 35.6651C19.6732 35.6651 19.7201 35.6482 19.767 35.6146C19.9389 35.5361 20.2748 35.4969 20.7749 35.4969C21.0093 35.4857 21.189 35.4745 21.314 35.4632C21.439 35.452 21.564 35.4408 21.689 35.4296C22.0953 35.4184 22.2984 35.4016 22.2984 35.3792C22.2984 35.3231 22.025 35.2951 21.478 35.2951C19.8685 35.2951 18.2669 35.452 16.673 35.766C16.0323 35.9005 15.3292 36.0575 14.5635 36.2368L12.5008 36.6909L10.0163 37.3636C9.70377 37.4757 9.54751 37.543 9.54751 37.5654C9.54751 37.5766 9.59439 37.5822 9.68815 37.5822H9.99285ZM8.30524 37.3804C8.36774 37.3804 8.40681 37.3748 8.42243 37.3636C8.45368 37.3524 8.53182 37.3412 8.65682 37.33C8.79746 37.3188 8.95372 37.3075 9.12561 37.2963C9.56314 37.2963 9.85222 37.2515 9.99285 37.1618L10.1804 37.0777L10.2976 37.0609C10.3601 37.0609 10.4382 37.0497 10.532 37.0273C10.6413 36.9936 10.7663 36.9544 10.907 36.9095C11.3289 36.7302 11.7274 36.6292 12.1024 36.6068L12.7587 36.4218L13.4384 36.3209C13.579 36.2873 13.6572 36.2705 13.6728 36.2705C13.7041 36.2705 13.8447 36.2312 14.0947 36.1528C14.4854 36.0294 14.8057 35.9453 15.0557 35.9005C15.2276 35.8781 15.4151 35.8444 15.6182 35.7996C15.837 35.7547 16.0245 35.7211 16.1808 35.6987C17.1027 35.5193 18.0169 35.3567 18.9232 35.211C18.9388 35.2222 18.9622 35.2278 18.9935 35.2278C19.0247 35.2278 19.0794 35.2166 19.1576 35.1942C19.392 35.1381 19.8217 35.0877 20.4467 35.0428L20.8452 35.0092C20.8764 34.998 20.9702 34.9924 21.1264 34.9924L22.1109 35.0092C22.2515 35.0092 22.3218 34.9811 22.3218 34.9251C22.3218 34.8915 22.2593 34.8522 22.1343 34.8074C22.0093 34.7513 21.8296 34.7121 21.5952 34.6896C21.4858 34.6784 21.1655 34.6728 20.6342 34.6728C19.9311 34.6728 19.3451 34.7009 18.8763 34.7569L17.8684 34.8915C17.4465 34.9363 17.1262 34.9811 16.9074 35.026C16.8136 35.0596 16.7199 35.0877 16.6261 35.1101C16.548 35.1213 16.3996 35.1493 16.1808 35.1942C15.9777 35.2278 15.7511 35.267 15.5011 35.3119L14.376 35.5305C13.2196 35.7996 12.5712 35.9622 12.4305 36.0182L11.8211 36.1528C11.618 36.1976 11.2664 36.2873 10.7663 36.4218C9.67252 36.7021 8.8209 36.9544 8.21148 37.1786C8.00834 37.2459 7.90677 37.3019 7.90677 37.3468C7.95365 37.3692 8.04741 37.3804 8.18804 37.3804H8.30524ZM7.90677 48.1772C7.96928 48.1772 8.30524 48.0426 8.91465 47.7736C9.46157 47.5493 9.7819 47.4372 9.87566 47.4372C9.98504 47.4372 10.0397 47.4148 10.0397 47.3699C10.0397 47.3251 10.0632 47.3027 10.1101 47.3027C10.1726 47.3027 10.4069 47.2354 10.8132 47.1009C12.1102 46.6748 13.0165 46.417 13.5322 46.3273C14.0947 46.26 14.376 46.1703 14.376 46.0582C14.376 45.9797 14.251 45.9405 14.0009 45.9405C13.6884 45.9405 13.079 46.047 12.1727 46.26C11.282 46.473 10.0944 46.8598 8.60995 47.4204C8.10991 47.611 7.84427 47.7343 7.81301 47.7904C7.79739 47.8352 7.78958 47.8969 7.78958 47.9754C7.78958 48.1099 7.82864 48.1772 7.90677 48.1772ZM7.13328 38.4399C7.18016 38.4399 7.2036 38.4175 7.2036 38.3726C7.2036 38.3278 7.18016 38.3054 7.13328 38.3054C7.0864 38.3054 7.06296 38.3278 7.06296 38.3726C7.06296 38.4175 7.0864 38.4399 7.13328 38.4399ZM5.30503 38.4399L5.63317 38.3895C5.86756 38.3558 6.10196 38.2942 6.33635 38.2045C6.57074 38.1148 6.71919 38.0699 6.78169 38.0699C6.85982 38.0699 6.91451 38.0643 6.94577 38.0531C6.99264 38.0307 7.01608 38.0083 7.01608 37.9858C7.06296 37.9186 7.11765 37.8849 7.18016 37.8849C7.25829 37.8849 7.29735 37.8121 7.29735 37.6663V37.4645L6.9692 37.5991C6.76607 37.7 6.61762 37.7504 6.52386 37.7504C6.44573 37.7504 6.40667 37.7728 6.40667 37.8177C6.40667 37.8625 6.3676 37.9074 6.28947 37.9522C6.08633 38.0868 5.92226 38.154 5.79725 38.154C5.73474 38.154 5.57067 38.2493 5.30503 38.4399ZM3.80492 50.3466C3.83617 50.3466 4.02369 50.2737 4.36746 50.128C4.71123 49.971 4.88312 49.8813 4.88312 49.8589C4.88312 49.8477 4.87531 49.8421 4.85968 49.8421C4.76592 49.8421 4.61748 49.8981 4.41434 50.0103C3.99243 50.2121 3.78148 50.3242 3.78148 50.3466H3.80492ZM2.28138 50.7166L2.49233 50.6157C2.55483 50.5821 2.63296 50.5484 2.72672 50.5148L3.17206 50.2962C3.45333 50.1504 3.61741 50.0607 3.66428 50.0271C3.71116 49.9934 3.92212 49.8869 4.29714 49.7076C4.4534 49.6515 4.58622 49.5898 4.69561 49.5226C4.82062 49.4553 4.88312 49.3936 4.88312 49.3376L4.85968 49.3208L4.78936 49.3712C4.72686 49.4048 4.67998 49.4217 4.64873 49.4217C4.6331 49.4217 4.61748 49.4217 4.60185 49.4217C4.5706 49.4217 4.55497 49.4048 4.55497 49.3712C4.55497 49.36 4.57841 49.3488 4.62529 49.3376C4.67217 49.3151 4.71905 49.2871 4.76592 49.2535C4.82843 49.2198 4.87531 49.1918 4.90656 49.1694C4.93781 49.1358 4.95344 49.1077 4.95344 49.0853C4.95344 49.0741 4.95344 49.0685 4.95344 49.0685H4.93C4.88312 49.0685 4.77374 49.1021 4.60185 49.1694C4.13307 49.36 3.46896 49.7019 2.60952 50.1953L2.53921 50.2289C2.44545 50.2962 2.39857 50.3354 2.39857 50.3466C2.44545 50.3466 2.53921 50.313 2.67984 50.2457C2.75797 50.1896 2.82829 50.1616 2.89079 50.1616C2.90642 50.1616 2.91423 50.1672 2.91423 50.1784C2.92986 50.1896 2.93767 50.2009 2.93767 50.2121C2.90642 50.2793 2.71109 50.4251 2.35169 50.6493L2.28138 50.6998V50.7166ZM18.009 35.3119H17.9856L18.6888 35.1942C18.6419 35.2502 18.4153 35.2895 18.009 35.3119ZM18.9232 35.211L18.8763 35.1774L19.4623 35.0933V35.1101L18.9232 35.211Z" fill="url(#paint12_linear_1245_705)"/>
<path d="M27.3704 55.6273H27.3235C27.261 55.6273 27.1829 55.6048 27.0891 55.56C27.011 55.5151 26.9329 55.4927 26.8548 55.4927C26.8235 55.4927 26.7923 55.4983 26.761 55.5095C26.7454 55.5208 26.7219 55.5264 26.6907 55.5264C26.6594 55.5264 26.6126 55.4927 26.55 55.4255C26.5032 55.347 26.4172 55.3077 26.2922 55.3077C26.1828 55.3077 26.0578 55.1956 25.9172 54.9714C25.7453 54.6911 25.5969 54.2426 25.4718 53.626C25.4718 53.5811 25.464 53.5419 25.4484 53.5083C25.4172 53.3065 25.4015 53.015 25.4015 52.6338C25.4015 51.4453 25.5109 50.0495 25.7297 48.4462L25.589 48.6481C25.4484 48.805 25.3547 48.9283 25.3078 49.018C25.2765 49.1077 25.2609 49.2367 25.2609 49.4048C25.2609 49.573 25.2296 49.6963 25.1671 49.7748C25.1046 49.8421 24.9874 49.8925 24.8155 49.9262C24.6593 49.9486 24.5812 49.9878 24.5812 50.0439L24.6046 50.0775L24.4405 50.2962C24.3311 50.4531 24.2765 50.554 24.2765 50.5989C24.2765 50.6437 24.2452 50.6717 24.1827 50.683C24.1202 50.6942 24.0889 50.7334 24.0889 50.8007C24.1046 50.8231 24.1124 50.8511 24.1124 50.8848C24.1124 50.9072 24.0968 50.9296 24.0655 50.952C23.9874 51.0642 23.9092 51.2043 23.8311 51.3725C23.7217 51.6079 23.6436 51.7425 23.5967 51.7761C23.5498 51.8097 23.4639 51.9555 23.3389 52.2133C23.0889 52.6506 22.7842 53.1103 22.4248 53.5924C22.0341 54.052 21.8388 54.3043 21.8388 54.3491C21.8388 54.3828 21.8232 54.422 21.7919 54.4669C21.7763 54.5005 21.6591 54.5958 21.4403 54.7528C21.2997 54.8537 21.2294 54.9209 21.2294 54.9546C21.2294 54.9882 21.1747 55.005 21.0653 55.005C20.7684 55.005 20.5418 54.9714 20.3856 54.9041C20.2918 54.8481 20.2137 54.82 20.1512 54.82L20.0808 54.8368C20.0027 54.8368 19.9402 54.792 19.8933 54.7023C19.7839 54.5902 19.6746 54.5341 19.5652 54.5341C19.4714 54.5341 19.3152 54.3155 19.0964 53.8783C19.0339 53.7437 19.0026 53.5251 19.0026 53.2224C19.0026 52.7739 19.0573 52.2694 19.1667 51.7088C19.323 51.0137 19.5496 50.3578 19.8465 49.7412C20.159 49.1133 20.4481 48.7041 20.7137 48.5135C20.7918 48.4687 20.8309 48.4238 20.8309 48.379L20.8075 48.3117C20.8075 48.2781 20.8543 48.2613 20.9481 48.2613C21.0418 48.2613 21.0887 48.2444 21.0887 48.2108C21.0887 48.1772 21.3153 48.0819 21.7685 47.9249C21.9872 47.8576 22.3076 47.824 22.7295 47.824C22.9795 47.8352 23.1826 47.8576 23.3389 47.8913C23.4951 47.9137 23.7061 47.9754 23.9717 48.0763C24.003 48.0987 24.1514 48.1491 24.4171 48.2276C24.4952 48.2613 24.5499 48.2837 24.5812 48.2949H24.628L24.6749 48.2781L24.6515 48.2444C24.6515 48.1772 25.0031 47.7679 25.7062 47.0168C26.0188 46.6916 26.2141 46.5291 26.2922 46.5291C26.3235 46.5291 26.3391 46.5515 26.3391 46.5963C26.3391 46.6412 26.4016 46.6636 26.5266 46.6636C26.6516 46.6636 26.7297 46.6468 26.761 46.6132C26.7923 46.5795 26.8235 46.5627 26.8548 46.5627C26.9485 46.5627 26.9954 46.5851 26.9954 46.63V46.7309C26.9954 46.7421 26.9954 46.7477 26.9954 46.7477C27.011 46.7477 27.0345 46.7477 27.0657 46.7477L27.3939 46.7309C27.5189 46.7309 27.5814 46.7701 27.5814 46.8486C27.5814 46.871 27.5736 46.9047 27.5579 46.9495C27.5423 46.9831 27.5345 47.0336 27.5345 47.1009C27.5345 47.1569 27.5423 47.213 27.5579 47.269C27.5892 47.3251 27.6048 47.4148 27.6048 47.5381C27.6048 47.7399 27.5814 48.0538 27.5345 48.4799C27.4564 49.175 27.4095 49.573 27.3939 49.6739C27.3939 49.7748 27.3939 50.5316 27.3939 51.9443V52.8692C27.3939 53.1271 27.3939 53.3849 27.3939 53.6428C27.3939 53.9007 27.4251 54.1305 27.4876 54.3323C27.5501 54.5341 27.6517 54.7808 27.7923 55.0723C27.8705 55.2405 27.9095 55.3638 27.9095 55.4423C27.9095 55.532 27.8314 55.5768 27.6751 55.5768C27.5189 55.5768 27.4173 55.5936 27.3704 55.6273ZM21.1356 53.0878C21.1512 53.0878 21.1747 53.071 21.2059 53.0374C21.2997 52.9365 21.7294 52.3311 22.4951 51.2211L23.667 49.5226C23.6045 49.3992 23.542 49.2871 23.4795 49.1862C23.417 49.0853 23.3545 48.9956 23.292 48.9171C23.2451 48.8274 23.2061 48.7714 23.1748 48.749C23.1436 48.7265 23.1123 48.7153 23.0811 48.7153C23.0654 48.7153 23.0342 48.7209 22.9873 48.7321C22.956 48.7434 22.7607 49.0012 22.4013 49.5057C21.745 50.4699 21.3309 51.5687 21.159 52.8019C21.1278 52.9141 21.1122 52.9925 21.1122 53.0374C21.1122 53.071 21.12 53.0878 21.1356 53.0878ZM21.8153 52.8188V52.8019C21.831 52.8019 21.9013 52.7515 22.0263 52.6506C22.2294 52.5048 22.3466 52.3703 22.3779 52.247C22.456 52.1012 22.5185 52.0115 22.5654 51.9779C22.6123 51.9443 22.6513 51.8714 22.6826 51.7593C22.7295 51.6472 22.7763 51.5911 22.8232 51.5911C22.8857 51.5911 22.917 51.5462 22.917 51.4566C22.917 51.3669 22.9795 51.2547 23.1045 51.1202C23.2295 50.9745 23.292 50.8792 23.292 50.8343C23.292 50.7895 23.3389 50.7166 23.4326 50.6157C23.542 50.5036 23.6123 50.4139 23.6436 50.3466C23.6905 50.2681 23.7374 50.2121 23.7842 50.1784C23.878 50.0887 23.9327 50.0103 23.9483 49.943C23.9483 49.8869 23.9171 49.8477 23.8545 49.8253H23.8311C23.753 49.8253 23.542 50.0775 23.1983 50.5821C23.0107 50.8399 22.8389 51.0978 22.6826 51.3557C22.2763 51.9611 22.0732 52.2862 22.0732 52.3311L22.1904 52.3142C22.1904 52.3255 22.1669 52.3479 22.12 52.3815C22.0732 52.4039 22.0419 52.4264 22.0263 52.4488V52.4656C22.0575 52.4656 22.0732 52.4712 22.0732 52.4824L22.0497 52.4992C22.0185 52.5104 21.9872 52.5385 21.956 52.5833C21.9247 52.617 21.8935 52.6618 21.8622 52.7179C21.831 52.7627 21.8153 52.7963 21.8153 52.8188ZM24.8624 48.5808C24.8781 48.5808 24.9171 48.5191 24.9796 48.3958C25.0578 48.2725 25.1203 48.2108 25.1671 48.2108C25.2296 48.2108 25.2609 48.1828 25.2609 48.1267C25.2609 48.0707 25.2843 48.0426 25.3312 48.0426C25.3781 48.0426 25.4093 48.0146 25.425 47.9585C25.4562 47.9025 25.5812 47.7511 25.8 47.5045C25.925 47.3139 25.9875 47.1625 25.9875 47.0504C25.9875 47.0168 25.9797 47 25.9641 47C25.9172 47 25.8781 47.0392 25.8469 47.1177C25.7687 47.2298 25.6906 47.3139 25.6125 47.3699C25.5031 47.4821 25.3859 47.6166 25.2609 47.7736C24.9484 48.1547 24.7921 48.3902 24.7921 48.4799V48.4967C24.8234 48.5528 24.8468 48.5808 24.8624 48.5808ZM25.8469 52.617C25.8625 52.617 25.9094 52.0396 25.9875 50.8848C26.05 49.9991 26.1125 49.3432 26.175 48.9171C26.2844 48.4462 26.3391 48.1267 26.3391 47.9585L26.3157 47.9417C26.2688 47.9641 26.1516 48.6481 25.9641 49.9934C25.9172 50.2737 25.8938 50.5933 25.8938 50.952C25.8781 51.1651 25.8703 51.4173 25.8703 51.7088L25.8469 52.617Z" fill="url(#paint13_linear_1245_705)"/>
<path d="M31.2981 55.7786C31.1887 55.7786 31.0872 55.7786 30.9934 55.7786C30.9153 55.7674 30.8684 55.7562 30.8528 55.745C30.8372 55.7226 30.7981 55.7057 30.7356 55.6945C30.6887 55.6721 30.6262 55.6609 30.5481 55.6609C30.4856 55.6497 30.4231 55.6329 30.3606 55.6104C30.2981 55.5768 30.2512 55.5432 30.2199 55.5095C30.1887 55.4759 30.1652 55.4591 30.1496 55.4591C30.134 55.4479 30.1027 55.4367 30.0558 55.4255H30.0324C29.9855 55.4255 29.8605 55.3638 29.6574 55.2405C29.5793 55.1732 29.4855 55.1171 29.3761 55.0723C29.2824 55.0162 29.2277 54.9826 29.212 54.9714C29.1808 54.949 29.1652 54.9209 29.1652 54.8873C29.1652 54.8649 29.1808 54.8537 29.212 54.8537C29.2433 54.8537 29.2589 54.6014 29.2589 54.0969C29.2589 53.8727 29.2745 53.6428 29.3058 53.4074C29.3214 53.1719 29.3527 52.9757 29.3996 52.8188C29.5402 52.2133 29.6183 51.7368 29.6339 51.3893C29.6652 50.8848 29.7199 50.3242 29.798 49.7076C29.8918 49.0797 29.9777 48.5247 30.0558 48.0426C30.1496 47.5605 30.2277 47.2802 30.2902 47.2018L30.3137 47.1345C30.3137 47.1121 30.2981 47.1009 30.2668 47.1009C30.2355 47.1009 30.2199 47.084 30.2199 47.0504C30.2199 46.9831 30.259 46.9159 30.3371 46.8486C30.4309 46.7701 30.5403 46.7141 30.6653 46.6804C30.8059 46.6356 30.9231 46.6132 31.0169 46.6132C31.0637 46.6132 31.1028 46.6188 31.134 46.63C31.1653 46.6412 31.3372 46.6636 31.6497 46.6972C31.8997 46.7085 32.0872 46.7365 32.2123 46.7813C32.3373 46.8262 32.431 46.8934 32.4935 46.9831C32.556 47.0616 32.5873 47.1233 32.5873 47.1681C32.5873 47.2242 32.5638 47.2915 32.517 47.3699C32.4857 47.4484 32.4232 47.7175 32.3294 48.1772C32.2513 48.6368 32.2123 48.8947 32.2123 48.9508V49.0012C32.2279 49.0012 32.2826 48.9396 32.3763 48.8162C33.1264 47.8857 33.7749 47.4204 34.3218 47.4204C34.4312 47.4204 34.5327 47.4372 34.6265 47.4708C34.7359 47.5045 34.8374 47.5269 34.9312 47.5381L35.1421 47.5886C35.6422 47.7231 35.9547 47.8296 36.0797 47.9081C36.2203 47.9754 36.3532 48.0819 36.4782 48.2276C36.6969 48.4406 36.9704 48.6761 37.2985 48.934C37.5798 49.1358 37.7673 49.2591 37.8611 49.3039H38.0252C38.1345 49.2815 38.2127 49.2535 38.2595 49.2198C38.2595 49.2086 38.283 49.1918 38.3299 49.1694C38.3924 49.147 38.4627 49.1302 38.5408 49.1189C38.7127 49.0853 38.869 48.9844 39.0096 48.8162C39.0877 48.6817 39.1581 48.6144 39.2206 48.6144C39.2518 48.6144 39.2831 48.6256 39.3143 48.6481C39.3612 48.6705 39.4003 48.6929 39.4315 48.7153C39.4784 48.7265 39.5096 48.7321 39.5253 48.7321C39.5565 48.7321 39.5956 48.7546 39.6425 48.7994C39.705 48.833 39.7597 48.8723 39.8065 48.9171C39.869 48.962 39.9081 48.9956 39.9237 49.018C39.9394 49.0292 39.955 49.0629 39.9706 49.1189C39.9706 49.1302 39.9706 49.147 39.9706 49.1694C39.9862 49.1806 40.0253 49.1918 40.0878 49.203C40.1503 49.2142 40.1816 49.2535 40.1816 49.3208C40.1816 49.5001 40.0097 49.6907 39.6659 49.8925C39.4784 49.9934 39.2284 50.0439 38.9158 50.0439C38.6658 50.0439 38.3689 50.0103 38.0252 49.943C37.7908 49.8869 37.6111 49.8589 37.4861 49.8589H37.4626C37.3689 49.8589 37.0876 49.7468 36.6188 49.5226C36.3688 49.4217 36.1344 49.3151 35.9156 49.203C35.1656 48.8218 34.7906 48.5696 34.7906 48.4462V48.4294C34.8531 48.4406 34.8843 48.4462 34.8843 48.4462L35.1656 48.6481C35.1968 48.6929 35.2125 48.7209 35.2125 48.7321C35.2125 48.7434 35.2203 48.7546 35.2359 48.7658C35.2672 48.777 35.3531 48.8162 35.4937 48.8835H35.5172C35.5172 48.8723 35.4703 48.833 35.3765 48.7658C35.314 48.7209 35.2515 48.6593 35.189 48.5808L34.8609 48.2613C34.8452 48.25 34.8218 48.2444 34.7906 48.2444H34.7437C34.7281 48.2444 34.6968 48.2613 34.6499 48.2949C34.5249 48.351 34.4624 48.3902 34.4624 48.4126C34.4624 48.435 34.439 48.4799 34.3921 48.5472C34.0796 48.8835 33.9233 49.0629 33.9233 49.0853C33.9233 49.0965 33.9077 49.1245 33.8764 49.1694C33.8452 49.203 33.8139 49.2479 33.7827 49.3039C33.767 49.3039 33.7592 49.3095 33.7592 49.3208C33.6811 49.4104 33.5639 49.5786 33.4076 49.8253C33.017 50.4755 32.7826 50.9072 32.7045 51.1202L32.6342 51.2716C32.6029 51.294 32.556 51.3893 32.4935 51.5575C32.4466 51.6472 32.3919 51.7761 32.3294 51.9443C32.2669 52.1124 32.181 52.3367 32.0716 52.617C31.7435 53.5027 31.5794 54.1361 31.5794 54.5173L31.6028 54.82C31.6028 55.1676 31.6263 55.4255 31.6731 55.5936V55.7113C31.6575 55.7338 31.5325 55.7562 31.2981 55.7786ZM30.0793 53.1551C30.1105 53.1551 30.1262 53.1159 30.1262 53.0374C30.1262 52.9813 30.1105 52.9533 30.0793 52.9533L30.0324 52.9869C30.0012 53.0094 29.9933 53.0374 30.009 53.071C30.009 53.0822 30.0168 53.0991 30.0324 53.1215C30.048 53.1439 30.0637 53.1551 30.0793 53.1551ZM30.1965 51.5575C30.2434 51.535 30.2668 51.5126 30.2668 51.4902C30.2668 51.479 30.2434 51.4734 30.1965 51.4734C30.1496 51.4734 30.1262 51.4902 30.1262 51.5238C30.1262 51.5462 30.134 51.5575 30.1496 51.5575H30.1965ZM32.2591 51.0866C32.2748 51.0866 32.2982 51.0754 32.3294 51.0529C32.3607 51.0305 32.4154 50.9408 32.4935 50.7839C32.5091 50.7166 32.5404 50.6437 32.5873 50.5652L32.8685 50.0943C33.0717 49.7019 33.3295 49.2927 33.642 48.8667C33.6733 48.8443 33.7124 48.805 33.7592 48.749C33.8061 48.6929 33.853 48.6424 33.8999 48.5976C34.0249 48.4855 34.0874 48.407 34.0874 48.3622C34.0874 48.3173 34.1421 48.2613 34.2515 48.194C34.3765 48.1155 34.439 48.0482 34.439 47.9922H34.4155C34.2905 47.9922 33.9858 48.2949 33.5014 48.9003C33.142 49.3488 32.7357 50.0607 32.2826 51.0361L32.2591 51.0866ZM33.5014 48.0594L33.6655 47.9417C33.7905 47.8745 33.853 47.824 33.853 47.7904V47.7736C33.7905 47.7736 33.728 47.8072 33.6655 47.8745C33.5405 47.9417 33.478 47.9978 33.478 48.0426C33.478 48.0538 33.4858 48.0594 33.5014 48.0594ZM32.7045 48.9003C32.7201 48.9003 32.7514 48.8835 32.7982 48.8499C32.8451 48.805 32.8998 48.7434 32.9623 48.6649C33.0404 48.5752 33.1108 48.4911 33.1733 48.4126C33.2514 48.3229 33.3061 48.25 33.3373 48.194C33.3686 48.1379 33.3842 48.1043 33.3842 48.0931C33.353 48.0931 33.2279 48.2164 33.0092 48.4631C32.806 48.7097 32.7045 48.8499 32.7045 48.8835V48.9003ZM32.0716 50.4811C32.1185 50.4811 32.2044 50.3915 32.3294 50.2121C32.4857 49.9542 32.5717 49.7804 32.5873 49.6907C32.6185 49.601 32.6498 49.545 32.681 49.5226C32.7279 49.4889 32.8451 49.3376 33.0326 49.0685C33.1576 48.8779 33.2905 48.7041 33.4311 48.5472C33.6967 48.3005 33.8686 48.1155 33.9467 47.9922L34.0171 47.8913C33.8921 47.9473 33.7045 48.1043 33.4545 48.3622C33.2201 48.62 33.0092 48.8891 32.8217 49.1694C32.5404 49.5506 32.3998 49.7636 32.3998 49.8085C32.3998 49.8421 32.3451 49.9486 32.2357 50.128C32.1263 50.2625 32.0716 50.3802 32.0716 50.4811ZM32.0482 51.6247C32.0951 51.6247 32.1263 51.5911 32.1419 51.5238C32.1732 51.4566 32.2122 51.3388 32.2591 51.1707L32.1419 51.3388C32.0794 51.4397 32.0404 51.5182 32.0247 51.5743C32.0247 51.6079 32.0325 51.6247 32.0482 51.6247Z" fill="url(#paint14_linear_1245_705)"/>
<path d="M39.8867 39.1631C39.8711 39.1631 39.8633 39.1575 39.8633 39.1462C39.8633 39.135 39.8867 39.1238 39.9336 39.1126C39.9649 39.0902 39.9961 39.079 40.0274 39.079C40.0586 39.079 40.0743 39.0846 40.0743 39.0958L40.0274 39.1294C39.9961 39.1519 39.9492 39.1631 39.8867 39.1631ZM39.582 40.6262C39.5195 40.6262 39.4883 40.6206 39.4883 40.6094L39.5352 40.5757C39.5508 40.5645 39.5898 40.5589 39.6523 40.5589C39.6836 40.5589 39.6992 40.5645 39.6992 40.5757C39.6992 40.6094 39.6602 40.6262 39.582 40.6262ZM42.3947 58.9571H42.3479C42.2541 58.9571 42.1291 58.9459 41.9728 58.9235H41.9259C41.7228 58.8786 41.6212 58.8394 41.6212 58.8057C41.6212 58.7721 41.6056 58.7217 41.5744 58.6544C41.4337 58.4526 41.34 58.3012 41.2931 58.2003C41.2618 58.0994 41.215 57.7799 41.1525 57.2417C41.1212 56.6475 41.0821 56.2383 41.0353 56.0141C40.9571 55.1059 40.9181 53.9455 40.9181 52.5329C40.9181 51.1202 40.9571 49.7748 41.0353 48.4967C41.0821 48.1267 41.1056 47.7287 41.1056 47.3027C41.1368 46.7757 41.1915 46.3104 41.2696 45.9068L41.2931 45.8564C41.34 45.5649 41.3868 45.2678 41.4337 44.9651C41.4962 44.6511 41.5665 44.1971 41.6447 43.6028L41.9728 41.837C42.2385 40.6934 42.3713 40.0376 42.3713 39.8694C42.3713 39.847 42.3479 39.8358 42.301 39.8358C42.2385 39.8358 42.0822 39.8694 41.8322 39.9367C41.7697 39.9703 41.6447 39.9871 41.4572 39.9871C40.9728 40.1553 40.6368 40.2562 40.4493 40.2898C40.2461 40.3123 40.0352 40.3571 39.8164 40.4244C39.582 40.4916 39.418 40.5533 39.3242 40.6094C39.1992 40.6991 38.6054 40.8896 37.5428 41.1811C36.6365 41.4278 36.074 41.5904 35.8552 41.6689C35.824 41.6913 35.6364 41.7585 35.2927 41.8707C35.0114 41.9379 34.6207 42.0613 34.1207 42.2406C33.8082 42.3528 33.5894 42.4256 33.4644 42.4593C33.3238 42.4817 33.1675 42.4929 32.9956 42.4929C32.7144 42.4593 32.5737 42.2014 32.5737 41.7193L32.5503 41.6184V41.5343C32.5503 41.5007 32.5347 41.4783 32.5034 41.467C32.4565 41.4446 32.4331 41.4166 32.4331 41.383C32.4331 41.3157 32.48 41.2372 32.5737 41.1475C32.6987 40.9569 32.8316 40.8616 32.9722 40.8616C33.0347 40.8616 33.0972 40.856 33.1597 40.8448C33.2066 40.8224 33.2378 40.8 33.2535 40.7775C33.3628 40.6991 34.4645 40.3683 36.5584 39.7853C38.3085 39.3144 39.9805 38.9164 41.5744 38.5913C41.9025 38.524 42.176 38.4623 42.3947 38.4063C42.4572 38.3951 42.5041 38.3895 42.5354 38.3895C42.5666 38.3783 42.5979 38.3726 42.6291 38.3726C42.6604 38.3614 42.6994 38.3446 42.7463 38.3222C42.8088 38.2998 42.8791 38.1821 42.9573 37.969C43.0041 37.8457 43.137 37.4141 43.3557 36.6741C43.4026 36.5508 43.4417 36.4218 43.4729 36.2873L44.0823 34.2692C44.0823 34.2132 44.0745 34.1683 44.0589 34.1347C44.0589 34.045 44.0823 33.9777 44.1292 33.9329C44.1761 33.8768 44.1995 33.8376 44.1995 33.8151L44.1761 33.7479C44.1605 33.7142 44.1683 33.6862 44.1995 33.6638C44.2464 33.6302 44.2699 33.6021 44.2699 33.5797L44.2464 33.5461C44.2464 33.5236 44.262 33.5012 44.2933 33.4788C44.3246 33.4564 44.4886 33.4452 44.7855 33.4452L45.0199 33.4283C45.3481 33.4283 45.8012 33.5573 46.3794 33.8151C46.5981 33.9273 46.7075 34.1235 46.7075 34.4038C46.7075 34.5271 46.6763 34.656 46.6138 34.7906L46.4731 35.3119C46.4106 35.5585 46.3559 35.7491 46.3091 35.8837C46.1216 36.2873 45.9653 36.7358 45.8403 37.2291C45.7621 37.4757 45.7231 37.6383 45.7231 37.7168C45.7231 37.7728 45.7309 37.8009 45.7465 37.8009C45.7778 37.8009 45.8012 37.8009 45.8168 37.8009L46.3794 37.7504C46.4106 37.7504 46.4263 37.756 46.4263 37.7672H46.4497L46.3559 37.8009C46.2778 37.8233 46.0512 37.8625 45.6762 37.9186C45.645 38.0083 45.6059 38.1036 45.559 38.2045C45.5278 38.3054 45.5121 38.4007 45.5121 38.4904C45.6059 38.4904 45.7543 38.4792 45.9575 38.4567C46.7232 38.3334 47.5045 38.2269 48.3014 38.1372L49.8249 37.9522C50.1531 37.9298 50.575 37.8849 51.0907 37.8177C51.6063 37.7392 51.9501 37.7 52.122 37.7C52.2157 37.7 52.2626 37.7112 52.2626 37.7336C52.2626 37.7448 52.2157 37.7616 52.122 37.784C52.0282 37.7953 51.9032 37.8065 51.7469 37.8177C51.3407 37.8513 50.0046 38.0083 47.7389 38.2886L46.895 38.4063C46.3169 38.4848 45.934 38.5464 45.7465 38.5913C45.559 38.6361 45.4496 38.6922 45.4184 38.7594C45.4184 38.7931 45.4262 38.8267 45.4418 38.8604C45.4574 38.8828 45.4731 38.894 45.4887 38.894C45.5356 38.894 45.559 38.8716 45.559 38.8267C45.559 38.7819 45.6918 38.7594 45.9575 38.7594C46.0356 38.7594 46.0903 38.7651 46.1216 38.7763C46.1528 38.7875 46.1919 38.7931 46.2387 38.7931C46.2856 38.7931 46.3481 38.7819 46.4263 38.7594C46.5044 38.737 46.8247 38.7034 47.3873 38.6585C47.5279 38.6249 47.606 38.5969 47.6217 38.5745C47.6373 38.552 47.7232 38.5408 47.8795 38.5408L48.0436 38.5576C48.1217 38.5576 48.1608 38.5464 48.1608 38.524C48.1608 38.4904 48.1764 38.4736 48.2076 38.4736H48.2545C48.2701 38.4736 48.2858 38.4736 48.3014 38.4736C48.317 38.4736 48.3248 38.4679 48.3248 38.4567C48.3405 38.4455 48.3795 38.4399 48.442 38.4399C48.5202 38.4287 48.5827 38.4231 48.6295 38.4231C48.692 38.4231 48.7467 38.4287 48.7936 38.4399C49.0749 38.4399 49.2155 38.4287 49.2155 38.4063C49.2155 38.3727 49.2936 38.3558 49.4499 38.3558C49.6218 38.3558 49.7312 38.3446 49.7781 38.3222C49.8406 38.2998 49.8796 38.2886 49.8953 38.2886C49.9109 38.2886 49.9187 38.2942 49.9187 38.3054L49.8718 38.339C49.8249 38.3726 49.7702 38.4007 49.7077 38.4231C49.6609 38.4455 49.6218 38.4567 49.5905 38.4567L49.5202 38.4736C49.5202 38.4848 49.6296 38.4904 49.8484 38.4904C50.0828 38.4904 50.2 38.4623 50.2 38.4063C50.2 38.3839 50.1765 38.3614 50.1296 38.339C50.0828 38.3166 50.0593 38.2998 50.0593 38.2886C50.0593 38.2774 50.075 38.2717 50.1062 38.2717C50.1531 38.2605 50.2 38.2549 50.2468 38.2549C50.3093 38.2437 50.364 38.2325 50.4109 38.2213L50.5984 38.2045C50.6609 38.2045 50.6922 38.2325 50.6922 38.2886C50.6922 38.3446 50.7 38.3726 50.7156 38.3726C50.7469 38.3726 50.7781 38.3726 50.8094 38.3726L51.1375 38.339H51.3954L51.4188 38.3222C51.4188 38.311 51.4032 38.2998 51.3719 38.2886C51.3563 38.2774 51.2547 38.2717 51.0672 38.2717C50.8953 38.2717 50.8094 38.2493 50.8094 38.2045C50.8094 38.1821 50.8406 38.1652 50.9031 38.154L51.1844 38.1708C51.4344 38.1708 51.5672 38.1484 51.5829 38.1036C51.6141 38.0587 51.7548 38.0363 52.0048 38.0363L52.3329 38.0531C52.7861 38.0531 53.0283 38.0419 53.0595 38.0195V38.0027C53.0595 37.9802 53.0048 37.9634 52.8955 37.9522C52.8798 37.9522 52.872 37.9466 52.872 37.9354L53.2236 37.9018L53.5986 37.8849C53.708 37.8849 53.7783 37.8962 53.8096 37.9186C53.8408 37.9298 53.9346 37.9354 54.0909 37.9354C54.2627 37.9354 54.3565 37.9186 54.3721 37.8849C54.3878 37.8513 54.4112 37.8289 54.4424 37.8177C54.4737 37.8065 54.5206 37.8009 54.5831 37.8009C54.5987 37.8009 54.6065 37.8121 54.6065 37.8345V37.8513C54.6065 37.8737 54.63 37.8849 54.6768 37.8849C54.7237 37.8849 54.794 37.8737 54.8878 37.8513C54.9972 37.8177 55.0753 37.7953 55.1222 37.784C55.1691 37.7728 55.2003 37.7672 55.2159 37.7672C55.2472 37.7672 55.2706 37.7728 55.2863 37.784C55.3019 37.7953 55.3253 37.8177 55.3566 37.8513C55.3878 37.8737 55.4191 37.8849 55.4503 37.8849C55.4816 37.8849 55.5206 37.8681 55.5675 37.8345C55.63 37.7896 55.6769 37.7672 55.7082 37.7672C55.7394 37.7672 55.7629 37.7728 55.7785 37.784C55.8097 37.7953 55.8644 37.8009 55.9426 37.8009C56.0051 37.8009 56.091 37.7953 56.2004 37.784C56.3098 37.7728 56.5051 37.7672 56.7864 37.7672C56.927 37.756 57.0754 37.7504 57.2317 37.7504L57.7005 37.7672C58.013 37.7672 58.2708 37.7672 58.474 37.7672C58.6771 37.756 58.7787 37.7448 58.7787 37.7336C58.7474 37.7112 58.6459 37.6887 58.474 37.6663C58.3177 37.6439 58.1224 37.6215 57.888 37.5991C57.6536 37.5766 57.4427 37.5654 57.2551 37.5654C57.0833 37.5542 56.9426 37.543 56.8332 37.5318C56.7395 37.5206 56.6926 37.5094 56.6926 37.4981C56.6926 37.4869 56.7785 37.4813 56.9504 37.4813L57.2317 37.4645C57.3411 37.4645 57.4817 37.4701 57.6536 37.4813C57.8411 37.4925 58.0443 37.5094 58.263 37.5318C58.4818 37.543 58.6537 37.5598 58.7787 37.5822C58.9037 37.6047 58.9975 37.6159 59.06 37.6159C59.1068 37.6159 59.1303 37.6103 59.1303 37.5991C59.1303 37.5654 59.06 37.515 58.9193 37.4477C58.513 37.2571 57.6614 37.1618 56.3645 37.1618L55.3097 37.145C55.3097 37.1338 54.8878 37.1282 54.044 37.1282C54.044 37.117 54.2784 37.0945 54.7472 37.0609C55.2159 37.0273 55.4503 37.0048 55.4503 36.9936L54.9581 36.96L55.3331 36.9095C55.4113 36.9095 55.466 36.9264 55.4972 36.96C55.5441 36.9936 55.5753 37.0104 55.591 37.0104H55.6144V36.9432C55.6144 36.9208 55.6222 36.9039 55.6378 36.8927C55.6691 36.8703 55.8175 36.8591 56.0832 36.8591C56.2238 36.8703 56.4113 36.8759 56.6457 36.8759C57.3333 36.8983 57.6927 36.9264 57.7239 36.96C57.7708 36.9936 57.8021 37.0104 57.8177 37.0104C57.8333 37.0104 57.8411 37.0048 57.8411 36.9936C57.8568 36.9712 57.8958 36.96 57.9583 36.96C58.1458 36.96 58.4584 37.0329 58.8959 37.1786C59.349 37.3244 59.5991 37.4477 59.6459 37.5486C59.6459 37.6047 59.6303 37.6439 59.5991 37.6663C59.5678 37.6775 59.5522 37.6943 59.5522 37.7168C59.5522 37.7728 59.5991 37.8681 59.6928 38.0027C59.8022 38.126 59.8647 38.2605 59.8803 38.4063C59.8803 38.552 59.8335 38.6585 59.7397 38.7258C59.6616 38.7931 59.5131 38.8267 59.2944 38.8267C59.1381 38.8267 58.9428 38.8604 58.7084 38.9276C58.5834 38.9613 58.4818 38.9781 58.4037 38.9781C58.263 38.9781 58.1927 38.9164 58.1927 38.7931V38.7763C58.1927 38.7202 58.1771 38.6866 58.1458 38.6754C58.099 38.6754 58.0521 38.6922 58.0052 38.7258C57.9739 38.7594 57.8646 38.7763 57.6771 38.7763C57.5989 38.7763 57.513 38.7707 57.4192 38.7594C57.3411 38.737 57.302 38.7034 57.302 38.6585C57.302 38.6137 57.388 38.5801 57.5599 38.5576C57.8099 38.524 57.9583 38.5016 58.0052 38.4904C58.0677 38.4679 58.1693 38.3951 58.3099 38.2717L58.0755 38.3054C57.9974 38.3054 57.9427 38.2998 57.9114 38.2886C57.8802 38.2661 57.5989 38.2549 57.0676 38.2549C56.5363 38.2549 56.2629 38.2493 56.2473 38.2381C56.2316 38.2269 56.0988 38.2213 55.8488 38.2213C55.6144 38.2213 55.3175 38.2325 54.9581 38.2549C54.5362 38.2886 54.1456 38.3054 53.7862 38.3054C52.708 38.3502 51.872 38.4119 51.2782 38.4904L50.1765 38.5913C49.9734 38.6025 49.6765 38.6305 49.2858 38.6754C48.2233 38.7987 47.6529 38.8772 47.5748 38.9108C47.4966 38.9332 47.1607 38.9725 46.5669 39.0285C45.8481 39.1294 45.434 39.2135 45.3246 39.2808C45.2309 39.3368 45.059 39.8526 44.809 40.828L44.5746 41.8034C44.5121 42.0725 44.4339 42.4985 44.3402 43.0815C44.262 43.3282 44.2074 43.5412 44.1761 43.7206C44.1448 43.9 44.1136 44.0737 44.0823 44.2419C44.0511 44.3989 44.0355 44.511 44.0355 44.5783C44.0355 44.6343 44.0198 44.6848 43.9886 44.7296L43.9183 45.066C43.9183 45.2453 43.887 45.4359 43.8245 45.6377C43.7933 45.7835 43.7854 45.89 43.8011 45.9573V46.0077C43.8011 46.0974 43.7776 46.1927 43.7308 46.2936C43.6839 46.4842 43.6214 47.1401 43.5432 48.2613C43.4964 48.9452 43.4729 49.5618 43.4729 50.1112C43.4573 50.2793 43.4339 50.3746 43.4026 50.3971C43.387 50.4195 43.3714 50.5596 43.3557 50.8175C43.3089 51.6247 43.2854 52.275 43.2854 52.7683L43.262 53.256L43.3089 54.4837C43.3401 55.0218 43.3557 55.5432 43.3557 56.0477L43.3792 56.1991C43.3792 56.7596 43.4729 57.4211 43.6604 58.1835C43.6761 58.318 43.6917 58.4189 43.7073 58.4862C43.7229 58.5423 43.7308 58.6039 43.7308 58.6712C43.7151 58.6936 43.6761 58.7048 43.6136 58.7048C43.5667 58.7048 43.4651 58.716 43.3089 58.7385C42.9182 58.817 42.6526 58.8842 42.5119 58.9403L42.3947 58.9571ZM35.363 40.7271C35.5817 40.6934 35.9802 40.6038 36.5584 40.458L37.5428 40.2057C38.0585 40.0824 38.3554 40.0095 38.4335 39.9871C38.496 39.9647 38.5663 39.9423 38.6445 39.9198C38.8164 39.8414 38.9961 39.7909 39.1836 39.7685C39.3711 39.7349 39.8946 39.6283 40.754 39.449L41.9963 39.1631C42.0744 39.1294 42.1916 39.1014 42.3479 39.079C42.5979 39.0341 42.7229 38.9332 42.7229 38.7763V38.7426L42.8166 38.4399C42.801 38.4287 42.7698 38.4231 42.7229 38.4231L42.465 38.4736C42.2463 38.5184 42.09 38.5576 41.9963 38.5913C41.9025 38.6249 41.7931 38.6473 41.6681 38.6585C41.5431 38.6698 41.3009 38.7146 40.9415 38.7931C39.8789 39.0285 39.1523 39.2023 38.7617 39.3144C38.5429 39.3817 38.4335 39.4209 38.4335 39.4321C38.4491 39.4321 38.457 39.4377 38.457 39.449L38.4101 39.533C38.3944 39.533 38.3788 39.5218 38.3632 39.4994C38.3319 39.4658 38.2929 39.449 38.246 39.449C38.1679 39.449 38.0507 39.4714 37.8944 39.5162C37.6756 39.5947 37.5663 39.6508 37.5663 39.6844C37.5663 39.7068 37.5506 39.7292 37.5194 39.7517C37.4881 39.7741 37.4569 39.7853 37.4256 39.7853C37.3944 39.7853 37.3787 39.7797 37.3787 39.7685L37.4022 39.7012C37.4022 39.6788 37.3866 39.6676 37.3553 39.6676L37.285 39.6844C37.1912 39.7068 37.1444 39.7461 37.1444 39.8021C37.1444 39.8582 37.0193 39.9255 36.7693 40.0039C36.5193 40.0712 36.3709 40.1273 36.324 40.1721C36.2771 40.2057 36.2459 40.2226 36.2302 40.2226C36.2146 40.2226 36.2068 40.217 36.2068 40.2057C36.2068 40.1833 36.1912 40.1721 36.1599 40.1721C36.0505 40.1721 35.8943 40.2338 35.6911 40.3571C35.5661 40.4468 35.4411 40.5141 35.3161 40.5589C35.1755 40.6038 35.1052 40.6374 35.1052 40.6598C35.1052 40.671 35.1208 40.6878 35.152 40.7103C35.1677 40.7215 35.1989 40.7271 35.2458 40.7271H35.363ZM36.7693 40.5757C37.0662 40.5645 37.3084 40.5477 37.4959 40.5253L37.6131 40.5085C37.8788 40.4748 38.1366 40.4132 38.3866 40.3235C38.5116 40.2786 38.5741 40.245 38.5741 40.2226C38.5741 40.2001 38.6992 40.1777 38.9492 40.1553C39.1679 40.1553 39.3008 40.1385 39.3476 40.1048C39.3945 40.06 39.4961 40.0376 39.6523 40.0376C39.793 40.0376 39.8867 40.0208 39.9336 39.9871C39.9649 39.9423 40.0274 39.903 40.1211 39.8694C40.3086 39.8245 40.4337 39.8021 40.4962 39.8021C40.543 39.8021 40.5899 39.8077 40.6368 39.8189C40.668 39.8302 40.7227 39.8358 40.8009 39.8358C40.8634 39.8358 40.9181 39.8302 40.9649 39.8189C41.0274 39.7965 41.0587 39.7741 41.0587 39.7517C41.0587 39.7292 41.0821 39.7068 41.129 39.6844C41.1759 39.6508 41.2462 39.6227 41.34 39.6003C41.4493 39.5667 41.5275 39.5499 41.5744 39.5499C41.6212 39.5499 41.6525 39.5611 41.6681 39.5835C41.6994 39.6059 41.7306 39.6171 41.7619 39.6171C41.7931 39.6171 41.8322 39.5947 41.8791 39.5499C41.9259 39.505 42.0041 39.4826 42.1135 39.4826C42.2228 39.4826 42.3244 39.4546 42.4182 39.3985C42.5275 39.3312 42.59 39.2752 42.6057 39.2303C42.6057 39.2191 42.5979 39.2079 42.5822 39.1967C42.5822 39.1855 42.5666 39.1799 42.5354 39.1799L40.6837 39.5835C39.6055 39.8077 38.9882 39.9479 38.832 40.0039L38.6445 40.0712L37.7303 40.3066L36.7693 40.5757ZM42.1838 58.2171C42.1994 58.2171 42.2072 58.1779 42.2072 58.0994L42.0666 56.384L41.9728 55.5768C41.9259 54.8368 41.9025 53.6372 41.9025 51.9779C41.9025 50.2625 41.8947 49.3936 41.8791 49.3712C41.8634 49.4273 41.8478 49.7356 41.8322 50.2962C41.7853 51.4285 41.7619 52.4376 41.7619 53.3233C41.7619 54.4893 41.7697 55.1171 41.7853 55.2068C41.8166 55.2405 41.8478 55.5824 41.8791 56.2327C41.8947 56.6363 41.9416 57.096 42.0197 57.6117C42.0978 57.7799 42.1369 57.9424 42.1369 58.0994C42.1369 58.1779 42.1525 58.2171 42.1838 58.2171ZM41.9259 49.2871C41.9728 49.2535 41.9963 49.0853 41.9963 48.7826L41.9728 48.3453C41.9416 48.3566 41.9181 48.4126 41.9025 48.5135C41.9025 48.6144 41.8947 48.7265 41.8791 48.8499C41.8791 48.9732 41.8791 49.0797 41.8791 49.1694C41.8791 49.2479 41.8947 49.2871 41.9259 49.2871ZM41.9963 48.2613C42.0431 48.194 42.0666 48.1323 42.0666 48.0763C42.0666 47.9978 42.0588 47.9585 42.0431 47.9585C42.0275 47.9585 42.0041 47.9922 41.9728 48.0594C41.9416 48.1267 41.9259 48.1772 41.9259 48.2108C41.9259 48.2444 41.9416 48.2613 41.9728 48.2613H41.9963ZM41.6916 58.2171C41.7541 58.2171 41.7853 58.0994 41.7853 57.864L41.7619 57.4604L41.6447 56.0141L41.5978 55.2909C41.5665 54.7528 41.5509 54.0801 41.5509 53.2728C41.5509 53.0038 41.5509 52.6506 41.5509 52.2133C41.5509 51.7649 41.5509 51.3108 41.5509 50.8511C41.5509 50.3802 41.5587 50.0943 41.5744 49.9934C41.6212 49.6907 41.6447 49.2479 41.6447 48.6649C41.6916 47.5661 41.7931 46.6188 41.9494 45.8227L42.0431 45.3014C42.1369 44.7072 42.1838 44.3372 42.1838 44.1915C42.1838 44.0345 42.2072 43.8887 42.2541 43.7542L42.3244 43.4179C42.3557 43.1936 42.4025 42.9526 42.465 42.6947C42.5432 42.2799 42.5822 42.0388 42.5822 41.9716C42.5822 41.9379 42.5744 41.9211 42.5588 41.9211H42.5354C42.5197 41.9323 42.4963 41.9716 42.465 42.0388C42.4494 42.0949 42.4338 42.1622 42.4182 42.2406C42.4025 42.3191 42.3791 42.4088 42.3479 42.5097C42.3322 42.5994 42.3088 42.6779 42.2775 42.7452C42.2619 42.8012 42.2385 42.8965 42.2072 43.0311C42.1916 43.1656 42.1682 43.3001 42.1369 43.4347C42.1213 43.5692 42.0978 43.6869 42.0666 43.7878C42.0353 43.8775 42.0119 43.928 41.9963 43.9392C41.9806 43.9392 41.9728 43.9448 41.9728 43.956L42.0197 44.1915C42.0197 44.2251 42.0041 44.2419 41.9728 44.2419C41.9416 44.2419 41.9259 44.2755 41.9259 44.3428L41.9494 44.4942C41.9494 44.5166 41.9416 44.5446 41.9259 44.5783C41.9259 44.6119 41.9181 44.6343 41.9025 44.6455C41.8869 44.6455 41.8713 44.6736 41.8556 44.7296C41.84 44.7745 41.8244 44.8249 41.8088 44.881C41.8088 44.937 41.8088 44.9931 41.8088 45.0491C41.8088 45.094 41.8166 45.1164 41.8322 45.1164C41.8634 45.1164 41.8791 45.1276 41.8791 45.15C41.8791 45.1613 41.8634 45.1725 41.8322 45.1837C41.8166 45.1949 41.8088 45.2341 41.8088 45.3014L41.7384 45.6041C41.6916 45.862 41.6525 46.1255 41.6212 46.3945C41.5275 46.843 41.4572 47.4036 41.4103 48.0763L41.3634 48.749C41.3009 49.6235 41.2696 51.0025 41.2696 52.886C41.2696 54.9938 41.2853 56.1486 41.3165 56.3504L41.3868 56.7204C41.4493 57.2249 41.4962 57.6005 41.5275 57.8472C41.5744 58.0938 41.629 58.2171 41.6916 58.2171ZM42.5588 41.8202C42.5744 41.8202 42.59 41.809 42.6057 41.7866C42.6213 41.7529 42.6369 41.7249 42.6526 41.7025C42.6682 41.6689 42.676 41.6464 42.676 41.6352C42.676 41.6016 42.6604 41.5792 42.6291 41.5679C42.5666 41.5679 42.5354 41.624 42.5354 41.7361C42.5354 41.7922 42.5432 41.8202 42.5588 41.8202ZM42.6057 41.4839C42.6213 41.4839 42.6369 41.4727 42.6526 41.4502C42.6838 41.4278 42.7072 41.3717 42.7229 41.2821C42.7541 41.1811 42.7854 41.069 42.8166 40.9457L42.9104 40.458C42.9104 40.4019 42.9026 40.3739 42.8869 40.3739C42.8088 40.3739 42.7541 40.5533 42.7229 40.9121C42.6916 40.9906 42.6682 41.069 42.6526 41.1475C42.6369 41.226 42.6135 41.2821 42.5822 41.3157C42.5666 41.3493 42.5588 41.383 42.5588 41.4166C42.5588 41.4614 42.5744 41.4839 42.6057 41.4839ZM42.9104 40.2898C42.926 40.2898 42.9495 40.273 42.9807 40.2394C43.0276 40.1945 43.051 40.1273 43.051 40.0376C43.051 39.9815 43.0354 39.9535 43.0041 39.9535C42.9885 39.9535 42.9573 39.9927 42.9104 40.0712C42.8791 40.1385 42.8713 40.1889 42.8869 40.2226C42.8869 40.245 42.8869 40.2618 42.8869 40.273C42.8869 40.2842 42.8948 40.2898 42.9104 40.2898ZM43.2854 39.1799C43.3323 39.1462 43.3557 39.1182 43.3557 39.0958C43.3557 39.0846 43.3479 39.079 43.3323 39.079C43.3323 39.0678 43.3245 39.0622 43.3089 39.0622L43.262 39.0958C43.2307 39.1182 43.2151 39.1406 43.2151 39.1631C43.2151 39.1743 43.2229 39.1799 43.2385 39.1799H43.262H43.2854Z" fill="url(#paint15_linear_1245_705)"/>
<path d="M49.9524 56.6195C49.8118 56.6195 49.6633 56.5971 49.507 56.5522C49.3508 56.5074 49.2101 56.4457 49.0851 56.3672C48.9601 56.2887 48.8664 56.2159 48.8039 56.1486C48.7414 56.0813 48.7101 56.0309 48.7101 55.9972C48.7101 55.986 48.7179 55.9748 48.7336 55.9636C48.7492 55.9412 48.757 55.9132 48.757 55.8795C48.757 55.7786 48.7023 55.6609 48.5929 55.5264C48.4992 55.3918 48.4288 55.3245 48.382 55.3245C48.3507 55.3245 48.3273 55.3414 48.3116 55.375C48.296 55.4086 48.2726 55.4255 48.2413 55.4255C48.0851 55.4255 47.8351 54.792 47.4913 53.5251C47.2413 52.6842 47.1162 51.4509 47.1162 49.8253L47.1397 48.1435C47.1397 44.5222 48.2726 40.4076 50.5384 35.7996C50.8665 35.2278 51.2415 34.7625 51.6634 34.4038C52.101 34.0338 52.4369 33.8488 52.6713 33.8488H52.8354C52.9917 33.8488 53.101 33.8208 53.1635 33.7647C53.2417 33.6974 53.4604 33.6638 53.8198 33.6638C54.398 33.6638 54.8746 33.7198 55.2496 33.832C56.1091 34.1347 56.6091 34.6056 56.7497 35.2446C56.781 35.4464 56.7966 35.6651 56.7966 35.9005C56.7966 37.0553 56.3591 38.681 55.484 40.7775C54.8902 42.2238 54.3511 43.3506 53.8667 44.1578C53.3823 44.9651 52.7416 45.9124 51.9447 47C51.2572 47.9529 50.429 49.1302 49.4602 50.5316V51.5575C49.4602 52.1741 49.507 52.5665 49.6008 52.7347C49.632 52.7683 49.6555 52.8132 49.6711 52.8692C49.6711 52.9365 49.6633 52.9981 49.6477 53.0542C49.632 53.1103 49.6242 53.1607 49.6242 53.2056C49.6242 53.2504 49.6399 53.2728 49.6711 53.2728C49.7336 53.2728 49.8508 53.0598 50.0227 52.6338C50.1165 52.3983 50.179 52.2358 50.2102 52.1461C50.2415 52.0452 50.2571 51.9779 50.2571 51.9443C50.2571 51.9106 50.2493 51.8938 50.2337 51.8938C50.2024 51.8938 50.1712 51.905 50.1399 51.9274C50.1087 51.9387 50.0852 51.9443 50.0696 51.9443C50.0383 51.9443 50.0227 51.933 50.0227 51.9106L50.0461 51.8265C50.1086 51.7481 50.1712 51.7088 50.2337 51.7088C50.2649 51.7088 50.2962 51.7144 50.3274 51.7256C50.3587 51.7368 50.3821 51.7425 50.3977 51.7425C50.4134 51.7425 50.4212 51.7312 50.4212 51.7088L50.3743 51.4902C50.3743 51.4453 50.3977 51.4229 50.4446 51.4229C50.5071 51.4229 50.6946 51.1202 51.0071 50.5148C51.5697 49.3824 52.2025 48.3958 52.9057 47.5549C53.3432 47.0056 54.0464 46.7309 55.0152 46.7309C55.2028 46.7309 55.3512 46.7533 55.4606 46.7981C55.57 46.8318 55.695 46.9327 55.8356 47.1009C56.0387 47.3924 56.1559 47.7007 56.1872 48.0258L56.281 49.1862C56.3591 50.6437 56.5232 51.7761 56.7732 52.5833C56.9763 53.2672 57.1951 53.6092 57.4295 53.6092C57.5076 53.6092 57.6561 53.5587 57.8748 53.4578C58.3905 53.2336 58.7811 52.9981 59.0468 52.7515C59.1249 52.673 59.2421 52.5609 59.3984 52.4151C59.5546 52.2694 59.7031 52.1124 59.8437 51.9443C60.1094 51.6528 60.2812 51.507 60.3594 51.507C60.4062 51.507 60.4375 51.535 60.4531 51.5911C60.4844 51.6359 60.5 51.6808 60.5 51.7256C60.5 51.8377 60.4531 52.0227 60.3594 52.2806C60.2656 52.5273 60.1328 52.8132 59.9609 53.1383C59.789 53.4522 59.6249 53.6989 59.4687 53.8783C59.0624 54.2707 58.5467 54.4669 57.9217 54.4669C57.5935 54.4669 57.2263 54.4108 56.8201 54.2987C55.8044 54.0632 55.1168 53.5419 54.7574 52.7347C54.398 51.9162 54.1949 50.4475 54.148 48.3285C54.148 48.1716 54.1402 48.0875 54.1246 48.0763C54.1089 48.0763 54.0699 48.1379 54.0074 48.2613C53.898 48.4294 53.7886 48.5135 53.6792 48.5135C53.5698 48.5135 53.5151 48.5752 53.5151 48.6985C53.5151 48.8218 53.3979 48.9564 53.1635 49.1021C52.9917 49.2479 52.9057 49.3768 52.9057 49.4889L52.9292 49.6066C52.9292 49.7412 52.851 49.8645 52.6948 49.9766C52.5385 50.0775 52.4369 50.128 52.3901 50.128V50.1112C52.3901 49.9878 52.7182 49.4385 53.3745 48.4631C53.7652 47.8913 53.9605 47.5717 53.9605 47.5045H53.937C53.8589 47.5045 53.5386 47.9473 52.976 48.833C52.5541 49.4945 52.1635 50.1504 51.8041 50.8007C51.4603 51.451 51.2806 51.8602 51.265 52.0283V52.0452C51.2806 52.0452 51.4525 51.7649 51.7806 51.2043C52.1088 50.5877 52.2885 50.2793 52.3197 50.2793V50.2962C52.3197 50.4307 52.1557 50.9576 51.8275 51.877L51.1947 53.6596C51.0228 54.1529 50.8899 54.6911 50.7962 55.2741C50.6712 55.9019 50.5227 56.3 50.3509 56.4681C50.2571 56.569 50.1243 56.6195 49.9524 56.6195ZM55.32 52.4656C55.3356 52.4656 55.3434 52.4376 55.3434 52.3815C55.3434 52.2918 55.3121 52.1517 55.2496 51.9611C55.1403 51.6135 55.0074 50.5596 54.8512 48.7994V50.0271L54.8277 50.498C54.8277 51.1707 54.9605 51.7705 55.2262 52.2974C55.2731 52.4095 55.3043 52.4656 55.32 52.4656ZM49.9993 54.0128C50.0305 54.0128 50.1165 53.8614 50.2571 53.5587L51.0306 51.8265C51.4212 50.9745 51.8275 50.1953 52.2494 49.4889C52.6713 48.7377 53.2104 47.9305 53.8667 47.0672L53.4683 47.3868C53.2182 47.611 52.8979 47.9922 52.5073 48.5303C52.1322 49.0685 51.7884 49.6291 51.4759 50.2121C51.304 50.5484 51.1009 50.9969 50.8665 51.5575C50.6321 52.1068 50.4212 52.617 50.2337 53.0878C50.0618 53.5587 49.9758 53.8502 49.9758 53.9623C49.9758 53.996 49.9836 54.0128 49.9993 54.0128ZM55.8591 37.5654C55.8903 37.5654 55.9294 37.4421 55.9762 37.1954C56.0544 36.7694 56.0934 36.4387 56.0934 36.2032C56.0934 36.0575 56.0856 35.9846 56.07 35.9846C56.0387 35.9846 55.9997 36.1191 55.9528 36.3882C55.8747 36.7806 55.8356 37.1057 55.8356 37.3636C55.8356 37.4981 55.8434 37.5654 55.8591 37.5654ZM50.9368 47.1009C50.9837 47.1009 51.304 46.658 51.8978 45.7723C52.4604 44.9426 52.9526 44.1578 53.3745 43.4179C54.734 41.0298 55.5153 39.3256 55.7184 38.3054V38.2549C55.6559 38.2549 55.484 38.6529 55.2028 39.449C53.9839 42.2967 52.6635 44.6679 51.2415 46.5627C51.0384 46.8318 50.9368 47.0112 50.9368 47.1009ZM55.4371 35.1101V35.0933C55.4371 35.0484 55.3746 34.8971 55.2496 34.6392C55.1871 34.5159 55.1246 34.4206 55.0621 34.3533C55.0152 34.286 54.9762 34.2524 54.9449 34.2524C54.9293 34.2524 54.9215 34.2636 54.9215 34.286C54.9215 34.3869 54.984 34.5383 55.109 34.7401C55.2965 34.9868 55.4059 35.1101 55.4371 35.1101ZM49.4836 48.4294L50.2805 47.3363C50.7493 46.6748 51.3119 45.8396 51.9682 44.8305C52.3588 44.2475 52.6791 43.7934 52.9292 43.4683C53.2573 43.0311 53.4839 42.6443 53.6089 42.3079L53.6558 42.1229C53.6558 42.0669 53.6401 42.0388 53.6089 42.0388C53.5776 42.0388 53.5464 42.0444 53.5151 42.0557L53.4917 42.0893L53.4683 42.0725C53.4683 42.0164 53.5229 41.9379 53.6323 41.837C53.7417 41.7249 53.8667 41.5455 54.0074 41.2989C54.3199 40.7383 54.5465 40.217 54.6871 39.7349C54.7496 39.5779 54.7808 39.4658 54.7808 39.3985C54.7808 39.3649 54.773 39.3425 54.7574 39.3312C54.7418 39.32 54.734 39.3032 54.734 39.2808C54.734 39.2359 54.7574 39.2023 54.8043 39.1799C54.9605 39.0902 55.109 38.5857 55.2496 37.6663C55.2809 37.4197 55.3512 37.0553 55.4606 36.5732C55.5075 36.3265 55.5309 36.1135 55.5309 35.9341C55.5309 35.7996 55.5153 35.6875 55.484 35.5978C55.4528 35.4969 55.4215 35.4464 55.3903 35.4464C55.359 35.4464 55.3356 35.5698 55.32 35.8164C55.3043 36.0519 55.2731 36.1696 55.2262 36.1696C55.2106 36.1696 55.1949 36.164 55.1793 36.1528C55.1637 36.1303 55.1481 36.0743 55.1324 35.9846C55.1324 35.8949 55.1324 35.794 55.1324 35.6819V35.5137C55.1324 35.3231 55.0856 35.1101 54.9918 34.8746C54.8355 34.471 54.5933 34.258 54.2652 34.2356C54.1558 34.2356 54.0542 34.2916 53.9605 34.4038C52.8667 35.7716 52.015 37.2683 51.4056 38.894C50.7962 40.5197 50.3509 42.0949 50.0696 43.6197C49.8039 45.1444 49.6321 46.445 49.5539 47.5213L49.4836 48.4294ZM50.3274 48.009C50.3587 48.009 50.429 47.9473 50.5384 47.824C50.679 47.6446 50.7493 47.5045 50.7493 47.4036C50.7493 47.3924 50.7415 47.3868 50.7259 47.3868C50.7103 47.3868 50.6477 47.454 50.5384 47.5886C50.3821 47.7792 50.304 47.9137 50.304 47.9922C50.304 48.0034 50.3118 48.009 50.3274 48.009Z" fill="url(#paint16_linear_1245_705)"/>
<defs>
<linearGradient id="paint0_linear_1245_705" x1="7.32097" y1="-7.1711" x2="49.4481" y2="38.4079" gradientUnits="userSpaceOnUse">
<stop stop-color="#EA6EE7"/>
<stop offset="0.244792" stop-color="#FD68E3"/>
<stop offset="0.5" stop-color="#B66FFA"/>
<stop offset="0.739583" stop-color="#7668FD"/>
<stop offset="1" stop-color="#7D2AE7"/>
</linearGradient>
<linearGradient id="paint1_linear_1245_705" x1="7.32097" y1="-7.1711" x2="49.4481" y2="38.4079" gradientUnits="userSpaceOnUse">
<stop stop-color="#EA6EE7"/>
<stop offset="0.244792" stop-color="#FD68E3"/>
<stop offset="0.5" stop-color="#B66FFA"/>
<stop offset="0.739583" stop-color="#7668FD"/>
<stop offset="1" stop-color="#7D2AE7"/>
</linearGradient>
<linearGradient id="paint2_linear_1245_705" x1="7.32097" y1="-7.1711" x2="49.4481" y2="38.4079" gradientUnits="userSpaceOnUse">
<stop stop-color="#EA6EE7"/>
<stop offset="0.244792" stop-color="#FD68E3"/>
<stop offset="0.5" stop-color="#B66FFA"/>
<stop offset="0.739583" stop-color="#7668FD"/>
<stop offset="1" stop-color="#7D2AE7"/>
</linearGradient>
<linearGradient id="paint3_linear_1245_705" x1="7.32097" y1="-7.1711" x2="49.4481" y2="38.4079" gradientUnits="userSpaceOnUse">
<stop stop-color="#EA6EE7"/>
<stop offset="0.244792" stop-color="#FD68E3"/>
<stop offset="0.5" stop-color="#B66FFA"/>
<stop offset="0.739583" stop-color="#7668FD"/>
<stop offset="1" stop-color="#7D2AE7"/>
</linearGradient>
<linearGradient id="paint4_linear_1245_705" x1="7.32097" y1="-7.1711" x2="49.4481" y2="38.4079" gradientUnits="userSpaceOnUse">
<stop stop-color="#EA6EE7"/>
<stop offset="0.244792" stop-color="#FD68E3"/>
<stop offset="0.5" stop-color="#B66FFA"/>
<stop offset="0.739583" stop-color="#7668FD"/>
<stop offset="1" stop-color="#7D2AE7"/>
</linearGradient>
<linearGradient id="paint5_linear_1245_705" x1="7.32097" y1="-7.1711" x2="49.4481" y2="38.4079" gradientUnits="userSpaceOnUse">
<stop stop-color="#EA6EE7"/>
<stop offset="0.244792" stop-color="#FD68E3"/>
<stop offset="0.5" stop-color="#B66FFA"/>
<stop offset="0.739583" stop-color="#7668FD"/>
<stop offset="1" stop-color="#7D2AE7"/>
</linearGradient>
<linearGradient id="paint6_linear_1245_705" x1="7.32097" y1="-7.1711" x2="49.4481" y2="38.4079" gradientUnits="userSpaceOnUse">
<stop stop-color="#EA6EE7"/>
<stop offset="0.244792" stop-color="#FD68E3"/>
<stop offset="0.5" stop-color="#B66FFA"/>
<stop offset="0.739583" stop-color="#7668FD"/>
<stop offset="1" stop-color="#7D2AE7"/>
</linearGradient>
<linearGradient id="paint7_linear_1245_705" x1="7.32097" y1="-7.1711" x2="49.4481" y2="38.4079" gradientUnits="userSpaceOnUse">
<stop stop-color="#EA6EE7"/>
<stop offset="0.244792" stop-color="#FD68E3"/>
<stop offset="0.5" stop-color="#B66FFA"/>
<stop offset="0.739583" stop-color="#7668FD"/>
<stop offset="1" stop-color="#7D2AE7"/>
</linearGradient>
<linearGradient id="paint8_linear_1245_705" x1="7.32097" y1="-7.1711" x2="49.4481" y2="38.4079" gradientUnits="userSpaceOnUse">
<stop stop-color="#EA6EE7"/>
<stop offset="0.244792" stop-color="#FD68E3"/>
<stop offset="0.5" stop-color="#B66FFA"/>
<stop offset="0.739583" stop-color="#7668FD"/>
<stop offset="1" stop-color="#7D2AE7"/>
</linearGradient>
<linearGradient id="paint9_linear_1245_705" x1="7.32097" y1="-7.1711" x2="49.4481" y2="38.4079" gradientUnits="userSpaceOnUse">
<stop stop-color="#EA6EE7"/>
<stop offset="0.244792" stop-color="#FD68E3"/>
<stop offset="0.5" stop-color="#B66FFA"/>
<stop offset="0.739583" stop-color="#7668FD"/>
<stop offset="1" stop-color="#7D2AE7"/>
</linearGradient>
<linearGradient id="paint10_linear_1245_705" x1="7.32097" y1="-7.1711" x2="49.4481" y2="38.4079" gradientUnits="userSpaceOnUse">
<stop stop-color="#EA6EE7"/>
<stop offset="0.244792" stop-color="#FD68E3"/>
<stop offset="0.5" stop-color="#B66FFA"/>
<stop offset="0.739583" stop-color="#7668FD"/>
<stop offset="1" stop-color="#7D2AE7"/>
</linearGradient>
<linearGradient id="paint11_linear_1245_705" x1="7.32097" y1="-7.1711" x2="49.4481" y2="38.4079" gradientUnits="userSpaceOnUse">
<stop stop-color="#EA6EE7"/>
<stop offset="0.244792" stop-color="#FD68E3"/>
<stop offset="0.5" stop-color="#B66FFA"/>
<stop offset="0.739583" stop-color="#7668FD"/>
<stop offset="1" stop-color="#7D2AE7"/>
</linearGradient>
<linearGradient id="paint12_linear_1245_705" x1="-11.1059" y1="27.7282" x2="12.4459" y2="85.2672" gradientUnits="userSpaceOnUse">
<stop stop-color="#EA6EE7"/>
<stop offset="0.244792" stop-color="#FD68E3"/>
<stop offset="0.5" stop-color="#B66FFA"/>
<stop offset="0.739583" stop-color="#7668FD"/>
<stop offset="1" stop-color="#7D2AE7"/>
</linearGradient>
<linearGradient id="paint13_linear_1245_705" x1="-11.1059" y1="27.7282" x2="12.4459" y2="85.2672" gradientUnits="userSpaceOnUse">
<stop stop-color="#EA6EE7"/>
<stop offset="0.244792" stop-color="#FD68E3"/>
<stop offset="0.5" stop-color="#B66FFA"/>
<stop offset="0.739583" stop-color="#7668FD"/>
<stop offset="1" stop-color="#7D2AE7"/>
</linearGradient>
<linearGradient id="paint14_linear_1245_705" x1="-11.1059" y1="27.7282" x2="12.4459" y2="85.2672" gradientUnits="userSpaceOnUse">
<stop stop-color="#EA6EE7"/>
<stop offset="0.244792" stop-color="#FD68E3"/>
<stop offset="0.5" stop-color="#B66FFA"/>
<stop offset="0.739583" stop-color="#7668FD"/>
<stop offset="1" stop-color="#7D2AE7"/>
</linearGradient>
<linearGradient id="paint15_linear_1245_705" x1="-11.1059" y1="27.7282" x2="12.4459" y2="85.2672" gradientUnits="userSpaceOnUse">
<stop stop-color="#EA6EE7"/>
<stop offset="0.244792" stop-color="#FD68E3"/>
<stop offset="0.5" stop-color="#B66FFA"/>
<stop offset="0.739583" stop-color="#7668FD"/>
<stop offset="1" stop-color="#7D2AE7"/>
</linearGradient>
<linearGradient id="paint16_linear_1245_705" x1="-11.1059" y1="27.7282" x2="12.4459" y2="85.2672" gradientUnits="userSpaceOnUse">
<stop stop-color="#EA6EE7"/>
<stop offset="0.244792" stop-color="#FD68E3"/>
<stop offset="0.5" stop-color="#B66FFA"/>
<stop offset="0.739583" stop-color="#7668FD"/>
<stop offset="1" stop-color="#7D2AE7"/>
</linearGradient>
</defs>
</svg>
