<svg width="50" height="50" viewBox="0 0 50 50" fill="none" xmlns="http://www.w3.org/2000/svg">
<path d="M11.8699 9.15613C13.7534 5.01053 16.7113 2.01086 21.088 0.525237C21.288 0.489846 21.3708 0.565186 21.318 0.768417C20.6209 1.50976 20.0096 2.3704 19.1999 2.95543C18.5318 3.43804 18.2347 4.03486 18.0382 4.72767C17.7545 5.72559 17.2638 6.43556 16.1316 6.48838C15.9975 6.49482 15.8289 6.48624 15.7396 6.5605C14.5588 7.54046 12.8378 7.81555 12.0868 9.35319C11.9023 9.41191 11.8037 9.37544 11.8699 9.15613Z" fill="#F3F3F3"/>
<path d="M21.2856 27.3343C17.0161 25.7498 13.8143 23.0115 12.0225 18.7512C11.9731 18.5541 12.0423 18.4661 12.249 18.5045C13.0378 19.148 13.9395 19.6963 14.5816 20.4617C15.1101 21.0942 15.7267 21.3465 16.4316 21.4953C17.4472 21.7074 18.1902 22.1466 18.3232 23.2724C18.3387 23.4048 18.3425 23.5743 18.4229 23.6582C19.4841 24.766 19.8801 26.4632 21.4671 27.1035C21.5373 27.2844 21.5081 27.3853 21.2856 27.3343Z" fill="#F3F3F3"/>
<path d="M22.065 9.5658C22.02 9.55498 21.9759 9.54045 21.9333 9.52237L21.7872 9.51754C21.8387 9.47089 21.8945 9.46767 21.9575 9.48859C21.9669 9.49839 21.9771 9.50736 21.988 9.5154C22.012 9.53461 22.0378 9.55149 22.065 9.5658Z" fill="#F3F3F3"/>
<path d="M27.6158 10.4645L27.1436 10.3699C27.2353 10.3281 27.346 10.3377 27.4712 10.394C27.5192 10.4163 27.5675 10.4391 27.6158 10.4645Z" fill="#F3F3F3"/>
<path d="M31.1616 14.057C31.1372 14.0894 31.1147 14.1232 31.094 14.1581C31.0737 14.1437 31.0581 14.1237 31.0492 14.1004C31.0847 14.0813 31.1224 14.0667 31.1616 14.057Z" fill="#F3F3F3"/>
<path d="M33.2218 20.0416C33.4095 20.644 33.0877 21.0419 32.9151 21.4607C32.766 21.8229 32.5295 22.1492 32.3311 22.4914C32.3184 22.5145 32.3029 22.5361 32.285 22.5554C32.1241 22.7176 31.9077 22.9244 31.7155 22.7876C31.531 22.6562 31.6281 22.3688 31.7603 22.1895C31.9292 21.9602 32.0552 21.7388 32.0472 21.4371C32.0431 21.2889 32.144 21.139 32.3032 21.0642C32.725 20.8671 32.9848 20.5151 33.2218 20.0416Z" fill="#F3F3F3"/>
<path d="M22.1296 6.26236C22.051 6.26611 22.0081 6.23743 22.0146 6.14948C22.0299 5.93821 22.3923 5.58188 22.572 5.6095C22.6546 5.62237 22.7205 5.65723 22.7111 5.76233C22.6926 5.96931 22.3438 6.27121 22.1296 6.26236Z" fill="#F3F3F3"/>
<path d="M27.4712 10.394C27.346 10.3377 27.2353 10.3281 27.1436 10.3699L27.6158 10.4645C27.5675 10.4391 27.5192 10.4163 27.4712 10.394Z" fill="#F3F3F3"/>
<path d="M33.5499 14.4181C33.3355 14.638 33.0405 14.7262 32.7778 14.8675C32.4054 15.0699 32.1823 14.9399 32.115 14.5337C31.7522 14.2592 31.3029 14.0892 31.0315 13.7119C31.0664 13.7743 31.0857 13.8442 31.0876 13.9157C31.0811 13.9318 31.0747 13.9463 31.0667 13.9624L31.1616 14.057C31.1372 14.0894 31.1147 14.1232 31.094 14.1581C31.0737 14.1437 31.0581 14.1237 31.0492 14.1004C31.0395 14.0819 31.0335 14.0617 31.0315 14.0409C31.0203 13.9927 31.0203 13.9414 31.0026 13.8964C30.9272 13.7744 30.8227 13.6621 30.8468 13.4999C30.4487 13.3956 30.5867 13.1052 30.6205 12.8499C30.5629 12.8231 30.5082 12.7888 30.4487 12.7776C30.3508 12.7601 30.2159 12.9076 30.1599 12.7239C30.1063 12.5505 30.2417 12.4719 30.3572 12.3885C30.232 12.2276 30.1068 12.0668 29.98 11.9038C29.7073 11.8185 29.6221 11.6228 29.6583 11.3563H29.6567C29.525 11.1348 29.3499 10.9214 29.4993 10.6372L29.4896 10.634C28.9617 10.6758 28.4303 10.768 27.9118 10.6002C27.8812 10.5905 27.8525 10.5809 27.8236 10.5696C27.7546 10.5345 27.6855 10.4991 27.6166 10.4653L27.1444 10.3707C27.0659 10.4061 27.0018 10.4779 26.9567 10.5889C26.7865 11.0032 26.5843 11.1203 26.2521 10.8345C25.9245 10.5554 25.5282 10.4879 25.1797 10.2937C25.0687 10.231 24.9325 10.2326 25.0638 10.0047C25.0719 9.99023 25.0799 9.9779 25.0864 9.96288C25.2405 9.64838 25.0368 9.41244 24.6574 9.45749C24.1646 9.51513 23.6654 9.51996 23.171 9.5827C22.9175 9.61119 22.6671 9.6627 22.4229 9.73659C22.2848 9.78003 21.9301 9.96288 21.9349 9.5221L21.7888 9.51728C21.7904 9.71461 21.614 9.76609 21.5001 9.86583C21.1998 10.1307 20.8258 10.3216 20.7649 10.7986C20.7381 11.0072 20.5129 11.1471 20.296 11.1804C19.8241 11.256 19.646 11.6558 19.4053 11.9735C19.1645 12.2912 18.7969 12.5915 19.0425 13.0923C19.0905 13.1918 19.0345 13.3524 19.0007 13.4776C18.9141 13.8098 18.8178 14.1404 18.7165 14.468C18.683 14.5753 18.6379 14.6847 18.7229 14.7664C19.0586 15.0986 19.0969 15.5995 19.3828 15.9461C19.7906 16.4387 20.1211 17.0792 20.9333 17.0022C21.6717 16.9315 22.4374 17.0872 23.1436 16.7261C23.3299 16.6298 23.5498 16.6923 23.6107 16.887C23.7375 17.2913 24.0072 17.2594 24.3268 17.2224C24.6719 17.1838 24.8386 17.3749 24.7987 17.7216C24.7794 17.9044 24.7451 18.086 24.715 18.2691C24.4968 18.4519 24.5882 18.6302 24.7247 18.8053C24.996 19.152 25.3202 19.4603 25.5145 19.863C25.577 20.1456 25.5577 20.4955 25.7215 20.6899C25.9079 20.9081 25.728 20.9451 25.6735 21.0575C25.1212 21.6514 25.0491 22.1602 25.5931 22.6498C25.7231 22.8761 25.8709 23.0788 25.813 23.3818C25.7778 23.5743 25.903 23.7839 26.0698 23.9354C26.2575 24.1041 26.4007 24.3046 26.4326 24.5615C26.4664 24.8376 26.6878 24.987 26.9382 24.8666C27.2192 24.7325 27.5192 24.6947 27.8179 24.6416C28.5563 24.5135 29.0748 24.0542 29.4759 23.4635C29.5773 23.3142 29.6446 23.1686 29.8229 23.1313C30.1178 23.0654 30.2352 22.8118 30.1937 22.5967C30.1036 22.149 30.3926 21.9996 30.672 21.8103C30.8259 21.7058 30.972 21.5918 31.1214 21.4811C31.5723 21.1425 31.6943 20.5454 31.5131 19.9979C31.3718 19.5689 31.3045 19.104 31.5611 18.6705C31.9632 18.197 32.1552 17.5806 32.6158 17.1457C33.3092 16.4891 33.4859 15.6078 33.6301 14.7187C33.6446 14.6284 33.6784 14.5096 33.5499 14.4181Z" fill="#F3F3F3"/>
<path d="M37.8733 8.98694C36.5059 4.74939 31.0168 0.480847 27.2224 0.462766C27.6163 0.464643 27.7166 1.20866 28.1228 1.09364C27.7892 1.45023 28.8153 1.72478 28.9421 2.16101C28.7864 2.18192 28.674 2.1964 28.4957 2.22214C28.7735 2.4066 29.0014 2.55916 29.2438 2.72137C29.0577 2.82245 28.8217 2.58731 28.711 2.92674C28.6515 3.1096 28.2501 3.08895 28.2694 3.40506C28.064 3.40828 28.0431 3.08734 27.7895 3.20773C27.9067 3.31846 28.011 3.41632 28.1155 3.51418C27.8329 3.53349 27.9485 4.03593 27.5825 3.94933C27.5208 3.85228 27.1149 3.62759 27.4509 3.63457C28.4965 3.51365 27.0903 3.23454 26.7943 3.14526C26.4283 3.0246 25.8135 3.09834 25.6451 3.40667C25.5006 4.1523 24.1866 4.32764 24.5582 5.09847C24.7499 5.47759 25.037 4.92125 25.2373 5.06791C25.4073 5.26739 25.5832 5.77171 25.1215 5.68806C25.3649 5.23628 24.8842 5.22958 24.8802 5.62559C25.0646 6.05725 24.7083 6.03178 24.4844 6.12106C23.9584 6.4916 23.4203 6.93881 22.7846 6.96375C22.9406 7.25036 23.3771 7.43831 23.1281 7.90215C22.9404 8.24427 22.4993 7.95283 22.202 7.93111C21.6199 7.65817 21.7749 8.31183 21.5792 8.63706C21.3019 9.10947 21.8451 9.47652 22.2261 9.56661C22.1988 9.5519 22.173 9.53467 22.1489 9.51513C23.0795 9.57036 23.2163 8.57271 23.9469 8.19252C24.7839 7.53617 26.0859 8.40058 26.1846 9.27758C26.3304 9.22128 26.4109 9.10089 26.3722 8.98694C26.2309 8.56654 26.5331 8.90651 26.5841 8.76066C26.2181 8.49737 25.6457 8.33167 25.5054 7.67881C26.5428 8.00269 26.9423 8.74939 27.4541 9.56339C27.6053 9.22315 27.1401 8.93252 27.5377 8.66762C28.0203 8.17965 28.0088 9.30332 28.4107 9.37705C28.9287 9.72855 29.6752 8.99526 29.8502 9.50467C29.9417 9.86448 30.1183 10.4447 29.6542 10.5868C29.4221 11.5836 30.2095 11.1093 30.5787 11.8453C31.0077 12.136 32.0836 15.37 32.8445 14.3002C34.0175 13.457 35.3876 11.8544 33.8098 10.8806C33.4443 12.1191 33.158 11.0721 32.526 10.9461C32.1866 10.1015 32.4139 10.0699 33.0403 10.642C33.4196 11.1723 33.6189 10.5155 33.8939 10.746C34.2883 11.2155 34.9021 10.4482 35.2793 10.5632C35.5841 10.6798 36.0338 11.655 36.2263 10.9694C36.626 11.918 37.0038 12.8154 37.406 13.7704C37.8122 13.3288 36.8073 8.19359 37.8733 10.2597C38.3586 11.1917 38.3667 10.516 37.8733 8.98694ZM28.2161 1.02768C28.2625 1.00543 28.3188 1.00704 28.3748 1.00865C28.3214 1.00937 28.2682 1.01575 28.2161 1.02768ZM26.7792 5.27194C26.4899 5.3001 26.2982 5.91167 25.6934 5.78512C26.3615 5.49368 26.0829 4.76092 26.2722 4.24292C26.1693 4.76145 26.4023 5.00061 26.8002 4.8754C26.6766 5.03118 26.6975 5.158 26.7792 5.27194ZM29.3397 8.04077C28.833 7.98714 28.5472 8.58424 28.1533 7.90671C28.3587 7.75603 28.4936 7.51365 28.7327 7.40721C28.7327 7.93996 29.3333 7.75013 29.3285 7.28334C29.3354 7.84451 29.9795 7.76729 30.2017 8.16303C29.9143 8.12415 29.6269 8.08742 29.3397 8.04077ZM32.2995 8.57217C32.1373 8.5089 31.8809 8.61292 31.786 8.5593C31.793 7.83673 30.5074 7.54717 31.0168 6.87018C31.4042 6.44119 31.1935 7.39166 31.5369 7.34367C31.823 7.65012 32.2788 8.17858 32.2995 8.57217ZM32.3654 6.95892C32.1595 6.95705 32.0504 6.62861 32.2595 6.54147C32.4424 6.58222 32.6461 6.90986 32.3654 6.95892Z" fill="#F3F3F3"/>
<path d="M27.2769 0.496013L27.3235 0.560092C27.2353 0.528186 27.1484 0.492795 27.0618 0.463839C27.123 0.459013 27.1822 0.454187 27.2434 0.450969L27.2769 0.496013Z" fill="#F3F3F3"/>
<path d="M25.0008 27.8571C17.3207 27.8571 11.0723 21.6101 11.0723 13.9286C11.0723 6.24708 17.3207 0 25.0008 0C32.681 0 38.9294 6.24842 38.9294 13.9286C38.9294 21.6087 32.681 27.8571 25.0008 27.8571ZM25.0008 0.248274C17.4574 0.248274 11.3205 6.38516 11.3205 13.9286C11.3205 21.472 17.4574 27.6089 25.0008 27.6089C32.5443 27.6089 38.6811 21.472 38.6811 13.9286C38.6811 6.38516 32.5443 0.248274 25.0008 0.248274Z" fill="#F3F3F3"/>
<path d="M8.04744 40.2738C7.95629 40.2738 7.91071 40.2691 7.91071 40.2597L7.94978 40.2457C7.97582 40.2364 8.00187 40.2224 8.02791 40.2037C8.05395 40.185 8.07349 40.1663 8.08651 40.1476C8.11255 40.1289 8.13208 40.1196 8.1451 40.1196C8.18417 40.1196 8.2037 40.1336 8.2037 40.1616C8.2037 40.1803 8.19719 40.199 8.18417 40.2177C8.17115 40.2364 8.15161 40.2504 8.12557 40.2597C8.09953 40.2691 8.07348 40.2738 8.04744 40.2738ZM7.2466 40.484H7.20754C7.20754 40.4653 7.2466 40.4279 7.32473 40.3719C7.40286 40.3158 7.49402 40.2878 7.59819 40.2878C7.70236 40.2878 7.75445 40.3065 7.75445 40.3438C7.75445 40.3625 7.74143 40.3765 7.71539 40.3859C7.68934 40.3952 7.65028 40.3999 7.59819 40.3999C7.55913 40.3999 7.51355 40.4092 7.46146 40.4279C7.4224 40.4373 7.38333 40.4513 7.34427 40.47C7.3052 40.4793 7.27265 40.484 7.2466 40.484ZM15.1573 29.3285C15.1834 29.3191 15.2029 29.3004 15.2159 29.2724C15.242 29.2444 15.2615 29.2304 15.2745 29.2304C15.2875 29.2397 15.3006 29.2631 15.3136 29.3004V29.3144L15.1573 29.3285ZM9.278 49.9998C9.03058 49.9998 8.81572 49.9811 8.63342 49.9437C8.3209 49.8877 7.93676 49.7709 7.48099 49.5934C7.03826 49.4252 6.71271 49.271 6.50436 49.1309C6.38717 49.0468 6.23091 48.9487 6.03558 48.8366C5.67097 48.5937 5.43658 48.4302 5.33241 48.3461C5.24125 48.2527 5.19568 48.1873 5.19568 48.1499C5.19568 48.1032 5.10453 47.9724 4.92222 47.7575C4.70085 47.4492 4.48599 47.0241 4.27764 46.4822C3.96512 45.6693 3.78933 44.8752 3.75026 44.0997C3.72422 43.8007 3.7112 43.4924 3.7112 43.1747C3.7112 42.3432 3.67213 41.9275 3.594 41.9275C3.56796 41.9275 3.52238 41.9508 3.45727 41.9975C3.39217 42.0349 3.32055 42.0769 3.24242 42.1237C2.92989 42.2825 2.7541 42.3759 2.71503 42.404L2.36345 42.6422C2.31136 42.6702 2.2723 42.6889 2.24625 42.6983C2.22021 42.6983 2.12255 42.7683 1.95326 42.9085C1.87513 42.9739 1.67329 43.1093 1.34775 43.3149C1.10034 43.427 0.957099 43.5064 0.918033 43.5531C0.89199 43.5999 0.859435 43.6232 0.82037 43.6232H0.664109C0.625044 43.6232 0.605511 43.6092 0.605511 43.5812C0.605511 43.5438 0.559935 43.5111 0.468783 43.4831C0.377631 43.4457 0.325544 43.413 0.312522 43.385L0.332055 43.0626C0.332055 43.0253 0.319033 43.0066 0.292989 43.0066C0.279968 43.0066 0.260435 43.0159 0.234391 43.0346C0.169283 43.0346 0.123707 43.0253 0.0976631 43.0066C0.0716196 42.9785 0.0455761 42.9131 0.0195326 42.8104C0.00651088 42.745 0 42.6749 0 42.6002C0 42.5721 0.0260435 42.5581 0.0781305 42.5581C0.156261 42.5301 0.227881 42.4647 0.292989 42.3619C0.345076 42.2591 0.390652 42.2077 0.429718 42.2077H0.44925C0.527381 42.2077 0.625044 42.175 0.74224 42.1096C0.794327 42.0723 0.885479 42.0256 1.0157 41.9695C1.14591 41.9041 1.28264 41.8387 1.42588 41.7733C1.68632 41.6892 1.92071 41.5864 2.12906 41.465L2.79317 41.1286C3.10569 41.0165 3.33357 40.9091 3.47681 40.8063C3.58098 40.7316 3.6526 40.6241 3.69167 40.484C3.73073 40.3438 3.78282 40.0402 3.84793 39.573L4.14092 37.9754C4.23207 37.6484 4.27764 37.4335 4.27764 37.3307C4.29067 37.2279 4.31671 37.0831 4.35577 36.8963C4.47297 36.3731 4.53808 36.0974 4.5511 36.0694C4.56412 36.0414 4.57715 35.9853 4.59017 35.9012C4.64225 35.5836 4.8506 34.7194 5.21521 33.3086L5.29334 33.0002C5.29334 32.9816 5.28683 32.9722 5.27381 32.9722C5.27381 32.9629 5.2673 32.9582 5.25428 32.9582C5.20219 32.9582 4.96129 33.0283 4.53157 33.1684C4.36229 33.2338 4.21905 33.3039 4.10185 33.3786C3.98466 33.444 3.86095 33.5048 3.73073 33.5608C3.60051 33.6075 3.48983 33.6449 3.39868 33.6729C3.02105 33.7664 2.68248 33.9252 2.38298 34.1494C2.27881 34.2148 2.16812 34.2475 2.05093 34.2475C1.77747 34.2475 1.56912 34.1261 1.42588 33.8832C1.33473 33.7524 1.25009 33.6169 1.17196 33.4767C1.10685 33.3272 1.06127 33.2011 1.03523 33.0983L1.0157 32.9302L0.976631 32.734C0.976631 32.6873 1.00267 32.6639 1.05476 32.6639C1.11987 32.6639 1.15242 32.6452 1.15242 32.6078C1.15242 32.5611 1.18498 32.5144 1.25009 32.4677C1.3152 32.421 1.38031 32.3976 1.44541 32.3976L1.54308 32.4116C1.62121 32.4116 1.7384 32.3743 1.89466 32.2995C2.31136 32.1127 3.08615 31.8511 4.21905 31.5147L5.6254 31.0662C6.68016 30.6832 7.9628 30.3188 9.47332 29.9731L10.6453 29.6928C11.4526 29.4873 12.6767 29.2444 14.3174 28.9641H14.376H14.2588L14.8057 28.88C15.587 28.7679 16.6353 28.7118 17.9505 28.7118C18.0937 28.7212 18.2044 28.7398 18.2825 28.7679C18.3607 28.7866 18.4518 28.8239 18.556 28.88C18.7904 29.0014 18.9076 29.0855 18.9076 29.1323C18.9076 29.1603 18.862 29.1743 18.7709 29.1743C18.6927 29.1743 18.6537 29.193 18.6537 29.2304C18.6537 29.2677 18.7123 29.3238 18.8295 29.3985C18.9597 29.4639 19.0573 29.562 19.1224 29.6928C19.1485 29.7676 19.2136 29.8563 19.3178 29.9591C19.3829 29.9965 19.4219 30.0385 19.435 30.0852C19.435 30.3562 19.4024 30.5477 19.3373 30.6598C19.2982 30.7252 19.2331 30.7953 19.142 30.87C18.9336 30.9915 18.7904 31.0522 18.7123 31.0522H18.6927C18.5755 31.0522 18.4974 31.0616 18.4583 31.0803C18.4323 31.0896 18.4062 31.0943 18.3802 31.0943C18.289 31.0943 18.2435 31.0569 18.2435 30.9822C18.2435 30.9074 18.1914 30.87 18.0872 30.87C17.9961 30.87 17.9375 30.8607 17.9114 30.842C17.8854 30.8233 17.8724 30.786 17.8724 30.7299C17.8724 30.6645 17.8333 30.5617 17.7552 30.4216C17.7031 30.3562 17.677 30.2955 17.677 30.2394C17.677 30.2207 17.6835 30.202 17.6966 30.1833C17.7226 30.1553 17.7356 30.1319 17.7356 30.1133C17.7096 30.0759 17.6249 30.0572 17.4817 30.0572L16.2121 30.1273C15.8084 30.1646 15.3982 30.2114 14.9815 30.2674C14.8513 30.2861 14.7471 30.2955 14.669 30.2955C13.8226 30.3889 13.1064 30.5197 12.5204 30.6879C12.3381 30.7346 12.247 30.7673 12.247 30.786C12.247 30.7953 12.2665 30.8 12.3056 30.8C12.4227 30.8 12.7027 30.7626 13.1455 30.6879C13.3668 30.6411 13.5817 30.5991 13.79 30.5617C14.0114 30.5244 14.2067 30.4963 14.376 30.4776L14.1807 30.5617L13.8682 30.6458C13.764 30.6458 13.5947 30.6738 13.3603 30.7299C13.2952 30.7486 13.2041 30.7673 13.0869 30.786C12.8785 30.8327 12.6832 30.87 12.5009 30.8981C11.7456 31.0569 10.9708 31.2344 10.1765 31.4306C9.53843 31.5895 8.82224 31.795 8.02791 32.0473V32.2995C8.02791 32.5331 7.83258 33.3039 7.44193 34.6119C7.35078 34.8829 7.24009 35.2239 7.10987 35.635C6.97966 36.0461 6.91455 36.2796 6.91455 36.3357C6.87548 36.4665 6.84293 36.5459 6.81689 36.5739C6.80386 36.602 6.77782 36.6767 6.73875 36.7982C6.71271 36.9196 6.69318 37.0551 6.68016 37.2046C6.61505 37.5503 6.56947 37.7371 6.54343 37.7652C6.53041 37.7838 6.51739 37.8165 6.50436 37.8633C6.50436 37.9006 6.50436 37.938 6.50436 37.9754C6.47832 38.2744 6.42623 38.4846 6.3481 38.606C6.29602 38.6808 6.26997 38.8116 6.26997 38.9984C6.26997 39.1386 6.25044 39.2927 6.21137 39.4609C6.18533 39.517 6.17231 39.559 6.17231 39.587L6.19184 39.6291L6.30904 39.587C6.43925 39.5403 6.5239 39.503 6.56296 39.4749L7.01221 39.3068C7.32473 39.176 7.57866 39.0779 7.77398 39.0124C7.87816 38.9751 7.94327 38.9564 7.96931 38.9564C8.00838 38.9564 8.17115 38.9003 8.45763 38.7882C8.79619 38.6668 8.9785 38.606 9.00454 38.606C9.03058 38.606 9.27149 38.5406 9.72725 38.4098C10.5476 38.1763 11.1727 38.0595 11.6024 38.0595C11.8368 38.0595 12.0126 38.0922 12.1298 38.1576L12.286 38.2697C12.1298 38.2323 12.0386 38.2136 12.0126 38.2136C11.9865 38.2136 11.967 38.2183 11.954 38.2276V38.2417C11.954 38.3725 12.0516 38.4612 12.247 38.5079C12.3902 38.536 12.4618 38.5873 12.4618 38.6621C12.4618 38.6901 12.4683 38.7228 12.4813 38.7602C12.5074 38.7882 12.5334 38.8162 12.5595 38.8443C12.6637 38.919 12.7157 39.0451 12.7157 39.2227C12.7157 39.2974 12.6962 39.3581 12.6571 39.4049C12.4618 39.5824 12.1949 39.7505 11.8563 39.9094L11.7196 39.9514C11.6805 39.8954 11.6089 39.8673 11.5047 39.8673C11.4136 39.8673 11.3029 39.8954 11.1727 39.9514C11.0424 39.9981 10.9318 40.0215 10.8406 40.0215C10.7234 40.0215 10.6648 39.9888 10.6648 39.9234V39.8813C10.6648 39.8253 10.6192 39.7879 10.5281 39.7692C10.489 39.7692 10.45 39.7646 10.4109 39.7552C10.3848 39.7365 10.3718 39.7178 10.3718 39.6992C10.3718 39.6711 10.3588 39.6571 10.3328 39.6571L10.2156 39.6851C10.1895 39.6851 10.1765 39.6758 10.1765 39.6571C10.1765 39.6291 10.1244 39.6151 10.0202 39.6151C9.877 39.6151 9.75329 39.6524 9.64912 39.7272L9.57099 39.7552C9.54494 39.7552 9.52541 39.7505 9.51239 39.7412C9.51239 39.7319 9.51239 39.7225 9.51239 39.7132C9.51239 39.6945 9.52541 39.6711 9.55145 39.6431C9.5775 39.6057 9.59052 39.5824 9.59052 39.573H9.57099C9.49286 39.573 9.33659 39.6151 9.1022 39.6992C9.06314 39.6992 9.01105 39.7038 8.94594 39.7132C8.88083 39.7225 8.81572 39.7272 8.75062 39.7272C8.55529 39.7552 8.43158 39.7879 8.3795 39.8253C8.32741 39.8627 8.23626 39.9094 8.10604 39.9654C7.70236 40.1243 7.44193 40.2177 7.32473 40.2457C7.28567 40.2457 7.25311 40.227 7.22707 40.1897C7.22707 40.171 7.27265 40.1383 7.3638 40.0916C7.62423 39.9608 7.83258 39.886 7.98884 39.8673C8.15813 39.83 8.28183 39.7926 8.35996 39.7552C8.98501 39.503 9.38868 39.3628 9.57099 39.3348C9.7012 39.3161 9.8184 39.2834 9.92257 39.2367C10.0398 39.1806 10.2221 39.1292 10.4695 39.0825C10.9643 38.9611 11.2117 38.877 11.2117 38.8303C11.2117 38.8209 11.1987 38.8162 11.1727 38.8162C11.0164 38.8162 10.6127 38.9003 9.96164 39.0685C9.07616 39.3021 8.30136 39.545 7.63726 39.7973L6.13324 40.3859C6.05511 40.4326 6.01605 40.47 6.01605 40.498C6.01605 40.5073 6.02256 40.5167 6.03558 40.526C6.06162 40.5354 6.08767 40.54 6.11371 40.54C6.17882 40.54 6.26997 40.5167 6.38717 40.47C6.53041 40.3859 6.64109 40.3438 6.71922 40.3438C6.81037 40.3438 6.86246 40.3251 6.87548 40.2878C6.90153 40.2504 6.92106 40.2317 6.93408 40.2317C6.9471 40.2317 6.96664 40.2411 6.99268 40.2597C7.01872 40.2784 7.03174 40.2971 7.03174 40.3158C7.03174 40.3438 6.95361 40.3952 6.79735 40.47C6.65411 40.5354 6.56947 40.5681 6.54343 40.5681C6.51739 40.5681 6.47181 40.5821 6.4067 40.6101L5.97698 40.8624V40.8764C5.97698 40.8951 6.00303 40.9044 6.05511 40.9044C6.13324 40.9044 6.23091 40.8624 6.3481 40.7783C6.47832 40.6848 6.56947 40.6381 6.62156 40.6381C6.6476 40.6381 6.66714 40.6475 6.68016 40.6662C6.68016 40.7222 6.63458 40.7689 6.54343 40.8063C6.4653 40.8343 6.38717 40.8717 6.30904 40.9184C6.28299 40.9371 6.24393 40.9605 6.19184 40.9885C6.13976 41.0165 6.08767 41.0445 6.03558 41.0726C5.99652 41.0913 5.95094 41.1099 5.89885 41.1286V43.0346C5.91187 44.8565 5.97047 45.8375 6.07465 45.9776C6.08767 46.015 6.1072 46.0804 6.13324 46.1738C6.17231 46.2673 6.20486 46.3747 6.23091 46.4962C6.33508 46.8606 6.4653 47.2016 6.62156 47.5192C6.79084 47.8369 6.99919 48.1312 7.2466 48.4021C7.28567 48.4675 7.31822 48.5236 7.34427 48.5703C7.37031 48.617 7.40286 48.6637 7.44193 48.7105C7.50704 48.8319 7.65679 48.9347 7.89118 49.0188C8.04744 49.0842 8.19068 49.1169 8.3209 49.1169C8.59435 49.1169 8.88734 49.0655 9.19987 48.9627C9.34311 48.9254 9.44077 48.8926 9.49286 48.8646C9.62307 48.8086 9.74678 48.7712 9.86398 48.7525C10.0463 48.7245 10.3132 48.6264 10.6648 48.4582C11.0164 48.2807 11.1987 48.1919 11.2117 48.1919C11.2247 48.1919 11.2313 48.1966 11.2313 48.2059C11.2313 48.2153 11.2117 48.2386 11.1727 48.276C11.1466 48.304 11.088 48.3508 10.9969 48.4162C10.9187 48.4722 10.8341 48.5236 10.7429 48.5703C10.6518 48.617 10.5802 48.6544 10.5281 48.6824L10.45 48.7385C10.476 48.7478 10.5086 48.7525 10.5476 48.7525C10.6127 48.7525 10.7364 48.7245 10.9187 48.6684C11.101 48.6124 11.2964 48.5236 11.5047 48.4021C11.6349 48.3181 11.7521 48.2573 11.8563 48.22L12.0712 48.1639C12.1493 48.1639 12.26 48.1125 12.4032 48.0097L12.872 47.7294C12.9632 47.6827 13.0934 47.58 13.2627 47.4211C13.4319 47.2623 13.5882 47.0895 13.7314 46.9026L13.8682 46.7484L14.2197 46.37C14.2588 46.314 14.2783 46.2719 14.2783 46.2439C14.2783 46.2065 14.3239 46.1552 14.4151 46.0898C14.4541 46.0617 14.4867 46.029 14.5127 45.9917C14.5388 45.9449 14.5518 45.9122 14.5518 45.8936C14.5518 45.8188 14.5909 45.7534 14.669 45.6973C14.7471 45.6319 14.7862 45.5665 14.7862 45.5011V45.4311C14.7862 45.3844 14.7992 45.3517 14.8253 45.333C14.8643 45.3049 14.8839 45.2676 14.8839 45.2209C14.8839 45.1741 14.8969 45.1274 14.9229 45.0807C14.962 45.034 15.0011 44.992 15.0401 44.9546C15.0922 44.9172 15.1378 44.8985 15.1768 44.8985C15.2029 44.8985 15.2159 44.9125 15.2159 44.9406C15.2159 45.034 15.1117 45.2442 14.9034 45.5712C14.8513 45.6833 14.7016 45.9122 14.4541 46.2579C14.4021 46.314 14.3369 46.4074 14.2588 46.5382C14.1807 46.6597 14.096 46.7905 14.0049 46.9306C13.9268 47.0614 13.8486 47.1829 13.7705 47.295C13.7054 47.4071 13.6533 47.4819 13.6142 47.5192C13.5882 47.5473 13.5752 47.5753 13.5752 47.6033V47.6734C13.5752 47.7201 13.5426 47.7762 13.4775 47.8416C13.4384 47.8602 13.4059 47.8883 13.3798 47.9257C13.3538 47.963 13.3408 48.0004 13.3408 48.0378C13.3408 48.0658 13.3147 48.0798 13.2627 48.0798C13.2236 48.0798 13.2041 48.1078 13.2041 48.1639C13.2041 48.2106 13.1585 48.29 13.0673 48.4021C12.8069 48.6824 12.5465 48.9067 12.286 49.0748C12.0777 49.2243 11.7261 49.4065 11.2313 49.6214C10.8406 49.7989 10.5476 49.9017 10.3523 49.9297C10.2221 49.9484 10.0528 49.9624 9.84444 49.9718C9.63609 49.9904 9.44728 49.9998 9.278 49.9998ZM8.49669 31.4446C8.52273 31.4446 8.60087 31.4213 8.73108 31.3746C8.87432 31.3185 8.94594 31.2858 8.94594 31.2765H8.92641C8.91339 31.2765 8.87432 31.2858 8.80921 31.3045C8.7441 31.3232 8.68551 31.3419 8.63342 31.3606C8.58133 31.3699 8.54227 31.3839 8.51622 31.4026C8.49018 31.4213 8.47716 31.4353 8.47716 31.4446H8.49669ZM7.91071 31.3185C8.2623 31.2998 8.52273 31.2625 8.69202 31.2064C9.40821 30.9915 9.8184 30.8841 9.92257 30.8841L9.94211 30.8981C9.94211 30.9354 9.86397 30.9822 9.70771 31.0382C9.56448 31.0943 9.49286 31.1316 9.49286 31.1503C9.49286 31.1597 9.50588 31.1643 9.53192 31.1643C9.66214 31.1643 9.92908 31.113 10.3328 31.0102C10.7364 30.8981 11.0034 30.828 11.1336 30.8C11.2508 30.7533 11.3094 30.7112 11.3094 30.6738C11.3094 30.6271 11.5894 30.5337 12.1493 30.3936C12.566 30.2814 12.8394 30.2254 12.9697 30.2254C13.0217 30.2254 13.0478 30.2394 13.0478 30.2674C13.0478 30.2861 13.0217 30.2955 12.9697 30.2955C12.9176 30.2955 12.8525 30.3048 12.7743 30.3235C12.7092 30.3422 12.6376 30.3655 12.5595 30.3936C12.4813 30.4216 12.4423 30.4403 12.4423 30.4496C12.4423 30.459 12.4553 30.4636 12.4813 30.4636C12.5855 30.4636 12.8264 30.4216 13.2041 30.3375C13.5817 30.2534 14.2067 30.1506 15.0792 30.0292L16.2707 29.847L16.2511 29.833L15.7433 29.889L15.4503 29.903C15.5805 29.7722 15.7107 29.7068 15.841 29.7068L15.9386 29.7209C15.9777 29.7209 16.0168 29.7068 16.0558 29.6788C16.1991 29.6134 16.479 29.5807 16.8957 29.5807C17.091 29.5714 17.2408 29.562 17.345 29.5527C17.4491 29.5433 17.5533 29.534 17.6575 29.5247C17.9961 29.5153 18.1653 29.5013 18.1653 29.4826C18.1653 29.4359 17.9375 29.4125 17.4817 29.4125C16.1405 29.4125 14.8057 29.5433 13.4775 29.8049C12.9436 29.9171 12.3576 30.0479 11.7196 30.1974L10.0007 30.5757L7.93025 31.1363C7.66981 31.2297 7.53959 31.2858 7.53959 31.3045C7.53959 31.3138 7.57866 31.3185 7.65679 31.3185H7.91071ZM6.50436 31.1503C6.55645 31.1503 6.589 31.1457 6.60203 31.1363C6.62807 31.127 6.69318 31.1176 6.79735 31.1083C6.91455 31.0989 7.04477 31.0896 7.18801 31.0803C7.55262 31.0803 7.79352 31.0429 7.91071 30.9681L8.06697 30.8981L8.16464 30.8841C8.21672 30.8841 8.28183 30.8747 8.35996 30.856C8.45112 30.828 8.55529 30.7953 8.67249 30.7579C9.02407 30.6084 9.35613 30.5244 9.66865 30.5057L10.2156 30.3515L10.782 30.2674C10.8992 30.2394 10.9643 30.2254 10.9773 30.2254C11.0034 30.2254 11.1206 30.1927 11.3289 30.1273C11.6545 30.0245 11.9214 29.9544 12.1298 29.9171C12.273 29.8984 12.4293 29.8703 12.5985 29.833C12.7808 29.7956 12.9371 29.7676 13.0673 29.7489C13.8356 29.5994 14.5974 29.4639 15.3526 29.3425C15.3657 29.3518 15.3852 29.3565 15.4112 29.3565C15.4373 29.3565 15.4829 29.3471 15.548 29.3285C15.7433 29.2817 16.1014 29.2397 16.6223 29.2023L16.9543 29.1743C16.9804 29.165 17.0585 29.1603 17.1887 29.1603L18.0091 29.1743C18.1263 29.1743 18.1849 29.1509 18.1849 29.1042C18.1849 29.0762 18.1328 29.0435 18.0286 29.0061C17.9244 28.9594 17.7747 28.9267 17.5794 28.908C17.4882 28.8987 17.2213 28.894 16.7785 28.894C16.1925 28.894 15.7042 28.9174 15.3136 28.9641L14.4737 29.0762C14.1221 29.1136 13.8551 29.1509 13.6728 29.1883C13.5947 29.2163 13.5166 29.2397 13.4384 29.2584C13.3733 29.2677 13.2496 29.2911 13.0673 29.3285C12.898 29.3565 12.7092 29.3892 12.5009 29.4266L11.5633 29.6087C10.5997 29.833 10.0593 29.9684 9.94211 30.0152L9.43426 30.1273C9.26497 30.1646 8.97199 30.2394 8.55529 30.3515C7.64377 30.5851 6.93408 30.7953 6.42623 30.9822C6.25695 31.0382 6.17231 31.0849 6.17231 31.1223C6.21137 31.141 6.28951 31.1503 6.4067 31.1503H6.50436ZM6.17231 40.1476C6.2244 40.1476 6.50436 40.0355 7.01221 39.8113C7.46797 39.6244 7.73492 39.531 7.81305 39.531C7.9042 39.531 7.94978 39.5123 7.94978 39.4749C7.94978 39.4376 7.96931 39.4189 8.00838 39.4189C8.06046 39.4189 8.25579 39.3628 8.59436 39.2507C9.67516 38.8957 10.4304 38.6808 10.8601 38.606C11.3289 38.55 11.5633 38.4752 11.5633 38.3818C11.5633 38.3164 11.4591 38.2837 11.2508 38.2837C10.9904 38.2837 10.4825 38.3725 9.72725 38.55C8.98501 38.7275 7.99535 39.0498 6.75829 39.517C6.34159 39.6758 6.12022 39.7786 6.09418 39.8253C6.08116 39.8627 6.07465 39.914 6.07465 39.9794C6.07465 40.0916 6.1072 40.1476 6.17231 40.1476ZM5.52773 32.0332C5.5668 32.0332 5.58633 32.0146 5.58633 31.9772C5.58633 31.9398 5.5668 31.9211 5.52773 31.9211C5.48867 31.9211 5.46913 31.9398 5.46913 31.9772C5.46913 32.0146 5.48867 32.0332 5.52773 32.0332ZM4.00419 32.0332L4.27764 31.9912C4.47297 31.9632 4.6683 31.9118 4.86362 31.837C5.05895 31.7623 5.18266 31.7249 5.23474 31.7249C5.29985 31.7249 5.34543 31.7203 5.37147 31.7109C5.41054 31.6922 5.43007 31.6735 5.43007 31.6549C5.46913 31.5988 5.51471 31.5708 5.5668 31.5708C5.63191 31.5708 5.66446 31.51 5.66446 31.3886V31.2204L5.391 31.3325C5.22172 31.4166 5.09801 31.4587 5.01988 31.4587C4.95478 31.4587 4.92222 31.4773 4.92222 31.5147C4.92222 31.5521 4.88967 31.5895 4.82456 31.6268C4.65528 31.7389 4.51855 31.795 4.41437 31.795C4.36229 31.795 4.22556 31.8744 4.00419 32.0332ZM2.7541 41.9555C2.78014 41.9555 2.9364 41.8948 3.22288 41.7733C3.50936 41.6425 3.6526 41.5678 3.6526 41.5491C3.6526 41.5397 3.64609 41.5351 3.63307 41.5351C3.55494 41.5351 3.43123 41.5818 3.26195 41.6752C2.91036 41.8434 2.73457 41.9368 2.73457 41.9555H2.7541ZM1.48448 42.2638L1.66027 42.1797C1.71236 42.1517 1.77747 42.1237 1.8556 42.0956L2.22672 41.9134C2.46111 41.792 2.59784 41.7172 2.6369 41.6892C2.67597 41.6612 2.85176 41.5724 3.16428 41.4229C3.2945 41.3762 3.40519 41.3248 3.49634 41.2688C3.60051 41.2127 3.6526 41.1613 3.6526 41.1146L3.63307 41.1006L3.57447 41.1426C3.52238 41.1707 3.48332 41.1847 3.45727 41.1847C3.44425 41.1847 3.43123 41.1847 3.41821 41.1847C3.39217 41.1847 3.37914 41.1707 3.37914 41.1426C3.37914 41.1333 3.39868 41.124 3.43774 41.1146C3.47681 41.0959 3.51587 41.0726 3.55494 41.0445C3.60702 41.0165 3.64609 40.9932 3.67213 40.9745C3.69818 40.9464 3.7112 40.9231 3.7112 40.9044C3.7112 40.8951 3.7112 40.8904 3.7112 40.8904H3.69167C3.6526 40.8904 3.56145 40.9184 3.41821 40.9745C3.02756 41.1333 2.47413 41.4183 1.75794 41.8294L1.69934 41.8574C1.62121 41.9134 1.58214 41.9461 1.58214 41.9555C1.62121 41.9555 1.69934 41.9275 1.81653 41.8714C1.88164 41.8247 1.94024 41.8013 1.99233 41.8013C2.00535 41.8013 2.01186 41.806 2.01186 41.8153C2.02488 41.8247 2.03139 41.834 2.03139 41.8434C2.00535 41.8994 1.84258 42.0209 1.54308 42.2077L1.48448 42.2498V42.2638ZM14.5909 29.4266H14.5713L15.1573 29.3285C15.1183 29.3752 14.9294 29.4079 14.5909 29.4266ZM15.3526 29.3425L15.3136 29.3144L15.8019 29.2444V29.2584L15.3526 29.3425Z" fill="#F3F3F3"/>
<path d="M22.392 46.356H22.353C22.3009 46.356 22.2358 46.3373 22.1576 46.3C22.0925 46.2626 22.0274 46.2439 21.9623 46.2439C21.9363 46.2439 21.9102 46.2486 21.8842 46.2579C21.8711 46.2673 21.8516 46.2719 21.8256 46.2719C21.7995 46.2719 21.7605 46.2439 21.7084 46.1879C21.6693 46.1225 21.5977 46.0898 21.4935 46.0898C21.4024 46.0898 21.2982 45.9963 21.181 45.8095C21.0378 45.5759 20.914 45.2022 20.8099 44.6883C20.8099 44.6509 20.8034 44.6182 20.7903 44.5902C20.7643 44.422 20.7513 44.1791 20.7513 43.8615C20.7513 42.8711 20.8424 41.7079 21.0247 40.3719L20.9075 40.54C20.7903 40.6708 20.7122 40.7736 20.6731 40.8483C20.6471 40.9231 20.6341 41.0305 20.6341 41.1707C20.6341 41.3108 20.608 41.4136 20.5559 41.479C20.5039 41.5351 20.4062 41.5771 20.263 41.6051C20.1327 41.6238 20.0676 41.6565 20.0676 41.7032L20.0872 41.7313L19.9504 41.9134C19.8593 42.0442 19.8137 42.1283 19.8137 42.1657C19.8137 42.2031 19.7877 42.2264 19.7356 42.2358C19.6835 42.2451 19.6574 42.2778 19.6574 42.3339C19.6705 42.3526 19.677 42.3759 19.677 42.404C19.677 42.4226 19.664 42.4413 19.6379 42.46C19.5728 42.5534 19.5077 42.6702 19.4426 42.8104C19.3514 43.0066 19.2863 43.1187 19.2473 43.1467C19.2082 43.1747 19.1366 43.2962 19.0324 43.5111C18.8241 43.8755 18.5701 44.2585 18.2706 44.6603C17.9451 45.0433 17.7823 45.2536 17.7823 45.2909C17.7823 45.319 17.7693 45.3517 17.7433 45.389C17.7302 45.4171 17.6326 45.4965 17.4503 45.6273C17.3331 45.7114 17.2745 45.7674 17.2745 45.7955C17.2745 45.8235 17.2289 45.8375 17.1377 45.8375C16.8903 45.8375 16.7015 45.8095 16.5713 45.7534C16.4932 45.7067 16.4281 45.6833 16.376 45.6833L16.3174 45.6973C16.2523 45.6973 16.2002 45.66 16.1611 45.5852C16.07 45.4918 15.9788 45.4451 15.8877 45.4451C15.8095 45.4451 15.6793 45.2629 15.497 44.8985C15.4449 44.7864 15.4189 44.6042 15.4189 44.352C15.4189 43.9782 15.4644 43.5578 15.5556 43.0907C15.6858 42.5114 15.8746 41.9648 16.122 41.451C16.3825 40.9278 16.6234 40.5867 16.8448 40.4279C16.9099 40.3905 16.9424 40.3532 16.9424 40.3158L16.9229 40.2597C16.9229 40.2317 16.9619 40.2177 17.0401 40.2177C17.1182 40.2177 17.1573 40.2037 17.1573 40.1756C17.1573 40.1476 17.3461 40.0682 17.7237 39.9374C17.906 39.8813 18.173 39.8533 18.5246 39.8533C18.7329 39.8627 18.9022 39.8813 19.0324 39.9094C19.1626 39.9281 19.3384 39.9794 19.5598 40.0635C19.5858 40.0822 19.7095 40.1243 19.9309 40.1897C19.996 40.2177 20.0416 40.2364 20.0676 40.2457H20.1067L20.1458 40.2317L20.1262 40.2037C20.1262 40.1476 20.4192 39.8066 21.0052 39.1806C21.2656 38.9097 21.4284 38.7742 21.4935 38.7742C21.5196 38.7742 21.5326 38.7929 21.5326 38.8303C21.5326 38.8676 21.5847 38.8863 21.6888 38.8863C21.793 38.8863 21.8581 38.8723 21.8842 38.8443C21.9102 38.8162 21.9363 38.8022 21.9623 38.8022C22.0404 38.8022 22.0795 38.8209 22.0795 38.8583V38.9424C22.0795 38.9517 22.0795 38.9564 22.0795 38.9564C22.0925 38.9564 22.112 38.9564 22.1381 38.9564L22.4115 38.9424C22.5157 38.9424 22.5678 38.9751 22.5678 39.0405C22.5678 39.0592 22.5613 39.0872 22.5483 39.1246C22.5353 39.1526 22.5287 39.1946 22.5287 39.2507C22.5287 39.2974 22.5353 39.3441 22.5483 39.3908C22.5743 39.4376 22.5873 39.5123 22.5873 39.6151C22.5873 39.7832 22.5678 40.0448 22.5287 40.3999C22.4636 40.9791 22.4246 41.3108 22.4115 41.3949C22.4115 41.479 22.4115 42.1096 22.4115 43.2869V44.0577C22.4115 44.2725 22.4115 44.4874 22.4115 44.7023C22.4115 44.9172 22.4376 45.1087 22.4897 45.2769C22.5418 45.4451 22.6264 45.6506 22.7436 45.8936C22.8087 46.0337 22.8413 46.1365 22.8413 46.2019C22.8413 46.2766 22.7762 46.314 22.6459 46.314C22.5157 46.314 22.4311 46.328 22.392 46.356ZM17.1963 44.2398C17.2094 44.2398 17.2289 44.2258 17.2549 44.1978C17.3331 44.1137 17.6912 43.6092 18.3292 42.6842L19.3059 41.2688C19.2538 41.166 19.2017 41.0726 19.1496 40.9885C19.0975 40.9044 19.0454 40.8297 18.9933 40.7643C18.9543 40.6895 18.9217 40.6428 18.8957 40.6241C18.8696 40.6054 18.8436 40.5961 18.8175 40.5961C18.8045 40.5961 18.7785 40.6008 18.7394 40.6101C18.7134 40.6194 18.5506 40.8343 18.2511 41.2548C17.7042 42.0583 17.3591 42.9739 17.2159 44.0016C17.1898 44.095 17.1768 44.1604 17.1768 44.1978C17.1768 44.2258 17.1833 44.2398 17.1963 44.2398ZM17.7628 44.0156V44.0016C17.7758 44.0016 17.8344 43.9596 17.9386 43.8755C18.1079 43.754 18.2055 43.6419 18.2316 43.5391C18.2967 43.4177 18.3488 43.3429 18.3878 43.3149C18.4269 43.2869 18.4594 43.2261 18.4855 43.1327C18.5246 43.0393 18.5636 42.9926 18.6027 42.9926C18.6548 42.9926 18.6808 42.9552 18.6808 42.8804C18.6808 42.8057 18.7329 42.7123 18.8371 42.6002C18.9413 42.4787 18.9933 42.3993 18.9933 42.3619C18.9933 42.3245 19.0324 42.2638 19.1105 42.1797C19.2017 42.0863 19.2603 42.0115 19.2863 41.9555C19.3254 41.8901 19.3645 41.8434 19.4035 41.8153C19.4817 41.7406 19.5272 41.6752 19.5403 41.6191C19.5403 41.5724 19.5142 41.5397 19.4621 41.521H19.4426C19.3775 41.521 19.2017 41.7313 18.9152 42.1517C18.7589 42.3666 18.6157 42.5815 18.4855 42.7964C18.1469 43.3009 17.9776 43.5718 17.9776 43.6092L18.0753 43.5952C18.0753 43.6045 18.0558 43.6232 18.0167 43.6512C17.9776 43.6699 17.9516 43.6886 17.9386 43.7073V43.7213C17.9646 43.7213 17.9776 43.726 17.9776 43.7353L17.9581 43.7493C17.9321 43.7587 17.906 43.782 17.88 43.8194C17.8539 43.8474 17.8279 43.8848 17.8018 43.9315C17.7758 43.9689 17.7628 43.9969 17.7628 44.0156ZM20.302 40.484C20.315 40.484 20.3476 40.4326 20.3997 40.3298C20.4648 40.227 20.5169 40.1756 20.5559 40.1756C20.608 40.1756 20.6341 40.1523 20.6341 40.1056C20.6341 40.0589 20.6536 40.0355 20.6927 40.0355C20.7317 40.0355 20.7578 40.0121 20.7708 39.9654C20.7969 39.9187 20.901 39.7926 21.0833 39.587C21.1875 39.4282 21.2396 39.3021 21.2396 39.2087C21.2396 39.1806 21.2331 39.1666 21.2201 39.1666C21.181 39.1666 21.1484 39.1993 21.1224 39.2647C21.0573 39.3581 20.9922 39.4282 20.9271 39.4749C20.8359 39.5684 20.7383 39.6805 20.6341 39.8113C20.3736 40.1289 20.2434 40.3251 20.2434 40.3999V40.4139C20.2695 40.4606 20.289 40.484 20.302 40.484ZM21.1224 43.8474C21.1354 43.8474 21.1745 43.3663 21.2396 42.404C21.2917 41.6659 21.3438 41.1193 21.3959 40.7643C21.487 40.3719 21.5326 40.1056 21.5326 39.9654L21.513 39.9514C21.474 39.9701 21.3763 40.54 21.2201 41.6612C21.181 41.8948 21.1615 42.161 21.1615 42.46C21.1484 42.6375 21.1419 42.8477 21.1419 43.0907L21.1224 43.8474Z" fill="#F3F3F3"/>
<path d="M25.6651 46.4822C25.574 46.4822 25.4893 46.4822 25.4112 46.4822C25.3461 46.4728 25.307 46.4635 25.294 46.4541C25.281 46.4354 25.2484 46.4214 25.1963 46.4121C25.1573 46.3934 25.1052 46.3841 25.0401 46.3841C24.988 46.3747 24.9359 46.3607 24.8838 46.342C24.8317 46.314 24.7926 46.286 24.7666 46.2579C24.7406 46.2299 24.721 46.2159 24.708 46.2159C24.695 46.2065 24.6689 46.1972 24.6299 46.1879H24.6103C24.5713 46.1879 24.4671 46.1365 24.2978 46.0337C24.2327 45.9776 24.1546 45.9309 24.0634 45.8936C23.9853 45.8468 23.9397 45.8188 23.9267 45.8095C23.9007 45.7908 23.8876 45.7674 23.8876 45.7394C23.8876 45.7207 23.9007 45.7114 23.9267 45.7114C23.9527 45.7114 23.9658 45.5011 23.9658 45.0807C23.9658 44.8939 23.9788 44.7023 24.0048 44.5061C24.0179 44.3099 24.0439 44.1464 24.083 44.0156C24.2002 43.5111 24.2653 43.114 24.2783 42.8244C24.3043 42.4039 24.3499 41.9368 24.415 41.4229C24.4931 40.8997 24.5648 40.4373 24.6299 40.0355C24.708 39.6338 24.7731 39.4002 24.8252 39.3348L24.8447 39.2787C24.8447 39.26 24.8317 39.2507 24.8057 39.2507C24.7796 39.2507 24.7666 39.2367 24.7666 39.2087C24.7666 39.1526 24.7992 39.0965 24.8643 39.0405C24.9424 38.9751 25.0335 38.9284 25.1377 38.9003C25.2549 38.863 25.3526 38.8443 25.4307 38.8443C25.4698 38.8443 25.5023 38.8489 25.5284 38.8583C25.5544 38.8676 25.6977 38.8863 25.9581 38.9143C26.1664 38.9237 26.3227 38.947 26.4269 38.9844C26.5311 39.0218 26.6092 39.0779 26.6613 39.1526C26.7134 39.218 26.7394 39.2694 26.7394 39.3068C26.7394 39.3535 26.7199 39.4095 26.6808 39.4749C26.6548 39.5403 26.6027 39.7646 26.5245 40.1476C26.4594 40.5307 26.4269 40.7456 26.4269 40.7923V40.8343C26.4399 40.8343 26.4855 40.7829 26.5636 40.6802C27.1886 39.9047 27.7291 39.517 28.1848 39.517C28.276 39.517 28.3606 39.531 28.4387 39.559C28.5299 39.587 28.6145 39.6057 28.6927 39.6151L28.8685 39.6571C29.2852 39.7692 29.5456 39.858 29.6498 39.9234C29.767 39.9794 29.8776 40.0682 29.9818 40.1897C30.1641 40.3672 30.392 40.5634 30.6655 40.7783C30.8998 40.9464 31.0561 41.0492 31.1342 41.0866H31.271C31.3621 41.0679 31.4272 41.0445 31.4663 41.0165C31.4663 41.0072 31.4858 40.9932 31.5249 40.9745C31.577 40.9558 31.6356 40.9418 31.7007 40.9324C31.8439 40.9044 31.9741 40.8203 32.0913 40.6802C32.1564 40.5681 32.215 40.512 32.2671 40.512C32.2932 40.512 32.3192 40.5213 32.3453 40.54C32.3843 40.5587 32.4169 40.5774 32.4429 40.5961C32.482 40.6054 32.508 40.6101 32.5211 40.6101C32.5471 40.6101 32.5797 40.6288 32.6187 40.6662C32.6708 40.6942 32.7164 40.7269 32.7554 40.7643C32.8075 40.8016 32.8401 40.8297 32.8531 40.8483C32.8661 40.8577 32.8792 40.8857 32.8922 40.9324C32.8922 40.9418 32.8922 40.9558 32.8922 40.9745C32.9052 40.9838 32.9378 40.9932 32.9898 41.0025C33.0419 41.0118 33.068 41.0445 33.068 41.1006C33.068 41.2501 32.9247 41.4089 32.6382 41.5771C32.482 41.6612 32.2736 41.7032 32.0132 41.7032C31.8049 41.7032 31.5574 41.6752 31.271 41.6191C31.0756 41.5724 30.9259 41.5491 30.8217 41.5491H30.8022C30.7241 41.5491 30.4897 41.4556 30.099 41.2688C29.8907 41.1847 29.6953 41.0959 29.513 41.0025C28.888 40.6848 28.5755 40.4746 28.5755 40.3719V40.3578C28.6276 40.3672 28.6536 40.3719 28.6536 40.3719L28.888 40.54C28.914 40.5774 28.9271 40.6008 28.9271 40.6101C28.9271 40.6194 28.9336 40.6288 28.9466 40.6381C28.9726 40.6475 29.0442 40.6802 29.1614 40.7362H29.181C29.181 40.7269 29.1419 40.6942 29.0638 40.6381C29.0117 40.6008 28.9596 40.5494 28.9075 40.484L28.6341 40.2177C28.621 40.2084 28.6015 40.2037 28.5755 40.2037H28.5364C28.5234 40.2037 28.4973 40.2177 28.4583 40.2457C28.3541 40.2924 28.302 40.3251 28.302 40.3438C28.302 40.3625 28.2825 40.3999 28.2434 40.4559C27.983 40.7362 27.8528 40.8857 27.8528 40.9044C27.8528 40.9137 27.8397 40.9371 27.8137 40.9745C27.7876 41.0025 27.7616 41.0399 27.7356 41.0866C27.7225 41.0866 27.716 41.0913 27.716 41.1006C27.6509 41.1753 27.5533 41.3155 27.423 41.521C27.0975 42.0629 26.9022 42.4226 26.8371 42.6002L26.7785 42.7263C26.7524 42.745 26.7134 42.8244 26.6613 42.9645C26.6222 43.0393 26.5766 43.1467 26.5245 43.2869C26.4725 43.427 26.4008 43.6139 26.3097 43.8474C26.0362 44.5855 25.8995 45.1134 25.8995 45.4311L25.919 45.6833C25.919 45.973 25.9386 46.1879 25.9776 46.328V46.4261C25.9646 46.4448 25.8604 46.4635 25.6651 46.4822ZM24.6494 44.2959C24.6755 44.2959 24.6885 44.2632 24.6885 44.1978C24.6885 44.1511 24.6755 44.1277 24.6494 44.1277L24.6103 44.1558C24.5843 44.1744 24.5778 44.1978 24.5908 44.2258C24.5908 44.2352 24.5973 44.2492 24.6103 44.2679C24.6234 44.2866 24.6364 44.2959 24.6494 44.2959ZM24.7471 42.9645C24.7861 42.9458 24.8057 42.9272 24.8057 42.9085C24.8057 42.8991 24.7861 42.8945 24.7471 42.8945C24.708 42.8945 24.6885 42.9085 24.6885 42.9365C24.6885 42.9552 24.695 42.9645 24.708 42.9645H24.7471ZM26.4659 42.5721C26.479 42.5721 26.4985 42.5628 26.5245 42.5441C26.5506 42.5254 26.5962 42.4507 26.6613 42.3199C26.6743 42.2638 26.7003 42.2031 26.7394 42.1377L26.9738 41.7453C27.1431 41.4183 27.3579 41.0772 27.6184 40.7222C27.6444 40.7035 27.677 40.6708 27.716 40.6241C27.7551 40.5774 27.7942 40.5354 27.8332 40.498C27.9374 40.4046 27.9895 40.3392 27.9895 40.3018C27.9895 40.2644 28.0351 40.2177 28.1262 40.1616C28.2304 40.0962 28.2825 40.0402 28.2825 39.9935H28.2629C28.1588 39.9935 27.9048 40.2457 27.5012 40.7502C27.2017 41.124 26.8631 41.7172 26.4855 42.5301L26.4659 42.5721ZM27.5012 40.0495L27.6379 39.9514C27.7421 39.8954 27.7942 39.8533 27.7942 39.8253V39.8113C27.7421 39.8113 27.69 39.8393 27.6379 39.8954C27.5337 39.9514 27.4816 39.9981 27.4816 40.0355C27.4816 40.0448 27.4881 40.0495 27.5012 40.0495ZM26.8371 40.7502C26.8501 40.7502 26.8761 40.7362 26.9152 40.7082C26.9543 40.6708 26.9998 40.6194 27.0519 40.554C27.117 40.4793 27.1756 40.4092 27.2277 40.3438C27.2928 40.2691 27.3384 40.2084 27.3644 40.1616C27.3905 40.1149 27.4035 40.0869 27.4035 40.0775C27.3775 40.0775 27.2733 40.1803 27.091 40.3859C26.9217 40.5914 26.8371 40.7082 26.8371 40.7362V40.7502ZM26.3097 42.0676C26.3487 42.0676 26.4204 41.9929 26.5245 41.8434C26.6548 41.6285 26.7264 41.4837 26.7394 41.4089C26.7654 41.3342 26.7915 41.2875 26.8175 41.2688C26.8566 41.2408 26.9543 41.1146 27.1105 40.8904C27.2147 40.7316 27.3254 40.5867 27.4426 40.4559C27.6639 40.2504 27.8072 40.0962 27.8723 39.9935L27.9309 39.9094C27.8267 39.9561 27.6705 40.0869 27.4621 40.3018C27.2668 40.5167 27.091 40.7409 26.9347 40.9745C26.7003 41.2921 26.5831 41.4697 26.5831 41.507C26.5831 41.5351 26.5376 41.6238 26.4464 41.7733C26.3553 41.8854 26.3097 41.9835 26.3097 42.0676ZM26.2901 43.0206C26.3292 43.0206 26.3553 42.9926 26.3683 42.9365C26.3943 42.8804 26.4269 42.7823 26.4659 42.6422L26.3683 42.7823C26.3162 42.8664 26.2836 42.9318 26.2706 42.9785C26.2706 43.0066 26.2771 43.0206 26.2901 43.0206Z" fill="#F3F3F3"/>
<path d="M32.8223 32.6359C32.8093 32.6359 32.8028 32.6312 32.8028 32.6219C32.8028 32.6125 32.8223 32.6032 32.8613 32.5938C32.8874 32.5751 32.9134 32.5658 32.9395 32.5658C32.9655 32.5658 32.9785 32.5705 32.9785 32.5798L32.9395 32.6078C32.9134 32.6265 32.8744 32.6359 32.8223 32.6359ZM32.5684 33.8551C32.5163 33.8551 32.4902 33.8505 32.4902 33.8411L32.5293 33.8131C32.5423 33.8037 32.5749 33.7991 32.627 33.7991C32.653 33.7991 32.666 33.8037 32.666 33.8131C32.666 33.8411 32.6335 33.8551 32.5684 33.8551ZM34.9123 49.1309H34.8732C34.7951 49.1309 34.6909 49.1215 34.5607 49.1029H34.5216C34.3523 49.0655 34.2677 49.0328 34.2677 49.0048C34.2677 48.9767 34.2547 48.9347 34.2286 48.8786C34.1114 48.7105 34.0333 48.5843 33.9942 48.5002C33.9682 48.4162 33.9291 48.1499 33.877 47.7014C33.851 47.2062 33.8184 46.8652 33.7794 46.6784C33.7143 45.9216 33.6817 44.9546 33.6817 43.7774C33.6817 42.6002 33.7143 41.479 33.7794 40.4139C33.8184 40.1056 33.838 39.7739 33.838 39.4189C33.864 38.9797 33.9096 38.592 33.9747 38.2557L33.9942 38.2136C34.0333 37.9707 34.0724 37.7231 34.1114 37.4709C34.1635 37.2093 34.2221 36.8309 34.2872 36.3357L34.5607 34.8642C34.7821 33.9112 34.8927 33.3646 34.8927 33.2245C34.8927 33.2058 34.8732 33.1964 34.8341 33.1964C34.7821 33.1964 34.6518 33.2245 34.4435 33.2805C34.3914 33.3086 34.2872 33.3226 34.131 33.3226C33.7273 33.4627 33.4473 33.5468 33.2911 33.5748C33.1218 33.5935 32.946 33.6309 32.7637 33.687C32.5684 33.743 32.4316 33.7944 32.3535 33.8411C32.2493 33.9159 31.7545 34.0747 30.869 34.3176C30.1138 34.5231 29.645 34.6586 29.4627 34.724C29.4366 34.7427 29.2804 34.7988 28.9939 34.8922C28.7595 34.9483 28.434 35.051 28.0173 35.2005C27.7568 35.2939 27.5745 35.3547 27.4703 35.3827C27.3531 35.4014 27.2229 35.4107 27.0797 35.4107C26.8453 35.3827 26.7281 35.1678 26.7281 34.7661L26.7086 34.682V34.6119C26.7086 34.5839 26.6956 34.5652 26.6695 34.5558C26.6304 34.5372 26.6109 34.5138 26.6109 34.4858C26.6109 34.4297 26.65 34.3643 26.7281 34.2896C26.8323 34.1307 26.943 34.0513 27.0602 34.0513C27.1122 34.0513 27.1643 34.0467 27.2164 34.0373C27.2555 34.0186 27.2815 33.9999 27.2946 33.9813C27.3857 33.9159 28.3037 33.6402 30.0487 33.1544C31.5071 32.762 32.9004 32.4303 34.2286 32.1594C34.5021 32.1033 34.73 32.0519 34.9123 32.0052C34.9644 31.9959 35.0034 31.9912 35.0295 31.9912C35.0555 31.9819 35.0816 31.9772 35.1076 31.9772C35.1336 31.9678 35.1662 31.9538 35.2053 31.9351C35.2574 31.9165 35.3159 31.8184 35.3811 31.6408C35.4201 31.5381 35.5308 31.1784 35.7131 30.5617C35.7522 30.459 35.7847 30.3515 35.8108 30.2394L36.3186 28.5577C36.3186 28.5109 36.3121 28.4736 36.2991 28.4455C36.2991 28.3708 36.3186 28.3147 36.3577 28.2774C36.3968 28.2307 36.4163 28.198 36.4163 28.1793L36.3968 28.1232C36.3837 28.0952 36.3902 28.0718 36.4163 28.0531C36.4553 28.0251 36.4749 28.0018 36.4749 27.9831L36.4554 27.955C36.4554 27.9363 36.4684 27.9177 36.4944 27.899C36.5205 27.8803 36.6572 27.8709 36.9046 27.8709L37.0999 27.8569C37.3734 27.8569 37.751 27.9644 38.2328 28.1793C38.4151 28.2727 38.5063 28.4362 38.5063 28.6698C38.5063 28.7725 38.4802 28.88 38.4281 28.9921L38.311 29.4266C38.2589 29.6321 38.2133 29.7909 38.1742 29.903C38.018 30.2394 37.8877 30.6131 37.7836 31.0242C37.7185 31.2297 37.6859 31.3652 37.6859 31.4306C37.6859 31.4773 37.6924 31.5007 37.7054 31.5007C37.7315 31.5007 37.751 31.5007 37.764 31.5007L38.2328 31.4587C38.2589 31.4587 38.2719 31.4633 38.2719 31.4727H38.2914L38.2133 31.5007C38.1482 31.5194 37.9594 31.5521 37.6468 31.5988C37.6208 31.6735 37.5882 31.753 37.5492 31.837C37.5231 31.9211 37.5101 32.0005 37.5101 32.0753C37.5882 32.0753 37.7119 32.0659 37.8812 32.0473C38.5193 31.9445 39.1704 31.8557 39.8345 31.781L41.1041 31.6268C41.3776 31.6081 41.7292 31.5708 42.1589 31.5147C42.5886 31.4493 42.8751 31.4166 43.0183 31.4166C43.0964 31.4166 43.1355 31.426 43.1355 31.4446C43.1355 31.454 43.0964 31.468 43.0183 31.4867C42.9402 31.496 42.836 31.5054 42.7058 31.5147C42.3672 31.5427 41.2539 31.6735 39.3657 31.9071L38.6625 32.0052C38.1807 32.0706 37.8617 32.122 37.7054 32.1594C37.5492 32.1967 37.458 32.2435 37.432 32.2995C37.432 32.3275 37.4385 32.3556 37.4515 32.3836C37.4645 32.4023 37.4776 32.4116 37.4906 32.4116C37.5296 32.4116 37.5492 32.393 37.5492 32.3556C37.5492 32.3182 37.6599 32.2995 37.8812 32.2995C37.9463 32.2995 37.9919 32.3042 38.018 32.3135C38.044 32.3229 38.0766 32.3275 38.1156 32.3275C38.1547 32.3275 38.2068 32.3182 38.2719 32.2995C38.337 32.2808 38.6039 32.2528 39.0727 32.2154C39.1899 32.1874 39.255 32.164 39.268 32.1454C39.2811 32.1267 39.3527 32.1173 39.4829 32.1173L39.6196 32.1313C39.6847 32.1313 39.7173 32.122 39.7173 32.1033C39.7173 32.0753 39.7303 32.0613 39.7564 32.0613H39.7954C39.8085 32.0613 39.8215 32.0613 39.8345 32.0613C39.8475 32.0613 39.854 32.0566 39.854 32.0473C39.8671 32.0379 39.8996 32.0332 39.9517 32.0332C40.0168 32.0239 40.0689 32.0192 40.1079 32.0192C40.16 32.0192 40.2056 32.0239 40.2447 32.0332C40.4791 32.0332 40.5963 32.0239 40.5963 32.0052C40.5963 31.9772 40.6614 31.9632 40.7916 31.9632C40.9348 31.9632 41.026 31.9538 41.065 31.9351C41.1171 31.9165 41.1497 31.9071 41.1627 31.9071C41.1757 31.9071 41.1822 31.9118 41.1822 31.9211L41.1432 31.9492C41.1041 31.9772 41.0585 32.0005 41.0065 32.0192C40.9674 32.0379 40.9348 32.0473 40.9088 32.0473L40.8502 32.0613C40.8502 32.0706 40.9413 32.0753 41.1236 32.0753C41.319 32.0753 41.4166 32.0519 41.4166 32.0052C41.4166 31.9865 41.3971 31.9678 41.358 31.9492C41.319 31.9305 41.2994 31.9165 41.2994 31.9071C41.2994 31.8978 41.3125 31.8931 41.3385 31.8931C41.3776 31.8838 41.4166 31.8791 41.4557 31.8791C41.5078 31.8697 41.5534 31.8604 41.5924 31.8511L41.7487 31.837C41.8008 31.837 41.8268 31.8604 41.8268 31.9071C41.8268 31.9538 41.8333 31.9772 41.8464 31.9772C41.8724 31.9772 41.8984 31.9772 41.9245 31.9772L42.1979 31.9492H42.4128L42.4323 31.9351C42.4323 31.9258 42.4193 31.9165 42.3933 31.9071C42.3802 31.8978 42.2956 31.8931 42.1393 31.8931C41.9961 31.8931 41.9245 31.8744 41.9245 31.837C41.9245 31.8184 41.9505 31.8043 42.0026 31.795L42.237 31.809C42.4454 31.809 42.556 31.7903 42.5691 31.753C42.5951 31.7156 42.7123 31.6969 42.9207 31.6969L43.1941 31.7109C43.5717 31.7109 43.7736 31.7016 43.7996 31.6829V31.6689C43.7996 31.6502 43.754 31.6362 43.6629 31.6268C43.6499 31.6268 43.6434 31.6222 43.6434 31.6128L43.9363 31.5848L44.2489 31.5708C44.34 31.5708 44.3986 31.5801 44.4247 31.5988C44.4507 31.6081 44.5288 31.6128 44.659 31.6128C44.8023 31.6128 44.8804 31.5988 44.8934 31.5708C44.9065 31.5427 44.926 31.5241 44.952 31.5147C44.9781 31.5054 45.0172 31.5007 45.0692 31.5007C45.0823 31.5007 45.0888 31.51 45.0888 31.5287V31.5427C45.0888 31.5614 45.1083 31.5708 45.1474 31.5708C45.1864 31.5708 45.245 31.5614 45.3232 31.5427C45.4143 31.5147 45.4794 31.496 45.5185 31.4867C45.5575 31.4773 45.5836 31.4727 45.5966 31.4727C45.6227 31.4727 45.6422 31.4773 45.6552 31.4867C45.6682 31.496 45.6878 31.5147 45.7138 31.5427C45.7399 31.5614 45.7659 31.5708 45.7919 31.5708C45.818 31.5708 45.8505 31.5568 45.8896 31.5287C45.9417 31.4914 45.9808 31.4727 46.0068 31.4727C46.0328 31.4727 46.0524 31.4773 46.0654 31.4867C46.0914 31.496 46.137 31.5007 46.2021 31.5007C46.2542 31.5007 46.3258 31.496 46.417 31.4867C46.5081 31.4773 46.6709 31.4727 46.9053 31.4727C47.0225 31.4633 47.1462 31.4587 47.2764 31.4587L47.6671 31.4727C47.9275 31.4727 48.1424 31.4727 48.3117 31.4727C48.4809 31.4633 48.5656 31.454 48.5656 31.4446C48.5395 31.426 48.4549 31.4073 48.3117 31.3886C48.1814 31.3699 48.0187 31.3512 47.8233 31.3325C47.628 31.3138 47.4522 31.3045 47.296 31.3045C47.1527 31.2952 47.0355 31.2858 46.9444 31.2765C46.8662 31.2671 46.8272 31.2578 46.8272 31.2484C46.8272 31.2391 46.8988 31.2344 47.042 31.2344L47.2764 31.2204C47.3676 31.2204 47.4848 31.2251 47.628 31.2344C47.7843 31.2438 47.9536 31.2578 48.1359 31.2765C48.3182 31.2858 48.4614 31.2998 48.5656 31.3185C48.6698 31.3372 48.7479 31.3465 48.8 31.3465C48.839 31.3465 48.8586 31.3419 48.8586 31.3325C48.8586 31.3045 48.8 31.2625 48.6828 31.2064C48.3442 31.0476 47.6345 30.9681 46.5537 30.9681L45.6747 30.9541C45.6747 30.9448 45.3232 30.9401 44.62 30.9401C44.62 30.9308 44.8153 30.9121 45.206 30.8841C45.5966 30.856 45.7919 30.8373 45.7919 30.828L45.3818 30.8L45.6943 30.7579C45.7594 30.7579 45.805 30.7719 45.831 30.8C45.8701 30.828 45.8961 30.842 45.9091 30.842H45.9287V30.786C45.9287 30.7673 45.9352 30.7533 45.9482 30.7439C45.9743 30.7252 46.098 30.7159 46.3193 30.7159C46.4365 30.7252 46.5928 30.7299 46.7881 30.7299C47.3611 30.7486 47.6606 30.7719 47.6866 30.8C47.7257 30.828 47.7517 30.842 47.7647 30.842C47.7778 30.842 47.7843 30.8373 47.7843 30.828C47.7973 30.8093 47.8298 30.8 47.8819 30.8C48.0382 30.8 48.2986 30.8607 48.6632 30.9822C49.0409 31.1036 49.2492 31.2064 49.2883 31.2905C49.2883 31.3372 49.2753 31.3699 49.2492 31.3886C49.2232 31.3979 49.2102 31.4119 49.2102 31.4306C49.2102 31.4773 49.2492 31.5568 49.3274 31.6689C49.4185 31.7716 49.4706 31.8838 49.4836 32.0052C49.4836 32.1267 49.4445 32.2154 49.3664 32.2715C49.3013 32.3275 49.1776 32.3556 48.9953 32.3556C48.8651 32.3556 48.7023 32.3836 48.507 32.4397C48.4028 32.4677 48.3182 32.4817 48.2531 32.4817C48.1359 32.4817 48.0773 32.4303 48.0773 32.3275V32.3135C48.0773 32.2668 48.0642 32.2388 48.0382 32.2294C47.9991 32.2294 47.9601 32.2435 47.921 32.2715C47.895 32.2995 47.8038 32.3135 47.6475 32.3135C47.5824 32.3135 47.5108 32.3089 47.4327 32.2995C47.3676 32.2808 47.335 32.2528 47.335 32.2154C47.335 32.1781 47.4066 32.15 47.5499 32.1313C47.7582 32.1033 47.8819 32.0846 47.921 32.0753C47.9731 32.0566 48.0577 31.9959 48.1749 31.8931L47.9796 31.9211C47.9145 31.9211 47.8689 31.9165 47.8429 31.9071C47.8168 31.8884 47.5824 31.8791 47.1397 31.8791C46.697 31.8791 46.4691 31.8744 46.4561 31.8651C46.443 31.8557 46.3323 31.8511 46.124 31.8511C45.9287 31.8511 45.6813 31.8604 45.3818 31.8791C45.0302 31.9071 44.7046 31.9211 44.4051 31.9211C43.5066 31.9585 42.81 32.0099 42.3151 32.0753L41.3971 32.1594C41.2278 32.1687 40.9804 32.1921 40.6549 32.2294C39.7694 32.3322 39.2941 32.3976 39.229 32.4257C39.1639 32.4443 38.8839 32.477 38.3891 32.5238C37.7901 32.6078 37.445 32.6779 37.3539 32.734C37.2757 32.7807 37.1325 33.2105 36.9241 34.0233L36.7288 34.8361C36.6767 35.0604 36.6116 35.4154 36.5335 35.9012C36.4684 36.1068 36.4228 36.2843 36.3968 36.4338C36.3707 36.5833 36.3447 36.7281 36.3186 36.8682C36.2926 36.999 36.2796 37.0925 36.2796 37.1485C36.2796 37.1952 36.2665 37.2373 36.2405 37.2747L36.1819 37.5549C36.1819 37.7044 36.1558 37.8633 36.1038 38.0314C36.0777 38.1529 36.0712 38.2417 36.0842 38.2977V38.3398C36.0842 38.4145 36.0647 38.4939 36.0256 38.578C35.9866 38.7368 35.9345 39.2834 35.8694 40.2177C35.8303 40.7876 35.8108 41.3015 35.8108 41.7593C35.7978 41.8994 35.7782 41.9788 35.7522 41.9975C35.7392 42.0162 35.7261 42.133 35.7131 42.3479C35.674 43.0206 35.6545 43.5625 35.6545 43.9736L35.635 44.38L35.674 45.403C35.7001 45.8515 35.7131 46.286 35.7131 46.7064L35.7326 46.8325C35.7326 47.2997 35.8108 47.8509 35.967 48.4862C35.9801 48.5983 35.9931 48.6824 36.0061 48.7385C36.0191 48.7852 36.0256 48.8366 36.0256 48.8926C36.0126 48.9113 35.9801 48.9207 35.928 48.9207C35.8889 48.9207 35.8043 48.93 35.674 48.9487C35.3485 49.0141 35.1271 49.0702 35.0099 49.1169L34.9123 49.1309ZM29.0525 33.9392C29.2348 33.9112 29.5668 33.8364 30.0487 33.715L30.869 33.5048C31.2987 33.402 31.5462 33.3413 31.6113 33.3226C31.6633 33.3039 31.7219 33.2852 31.7871 33.2665C31.9303 33.2011 32.08 33.1591 32.2363 33.1404C32.3926 33.1124 32.8288 33.0236 33.545 32.8741L34.5802 32.6359C34.6453 32.6078 34.743 32.5845 34.8732 32.5658C35.0816 32.5284 35.1857 32.4443 35.1857 32.3135V32.2855L35.2639 32.0332C35.2508 32.0239 35.2248 32.0192 35.1857 32.0192L34.9709 32.0613C34.7886 32.0986 34.6584 32.1313 34.5802 32.1594C34.5021 32.1874 34.4109 32.2061 34.3068 32.2154C34.2026 32.2248 34.0008 32.2621 33.7013 32.3275C32.8158 32.5238 32.2103 32.6686 31.8847 32.762C31.7024 32.8181 31.6113 32.8508 31.6113 32.8601C31.6243 32.8601 31.6308 32.8648 31.6308 32.8741L31.5917 32.9442C31.5787 32.9442 31.5657 32.9348 31.5527 32.9162C31.5266 32.8881 31.4941 32.8741 31.455 32.8741C31.3899 32.8741 31.2922 32.8928 31.162 32.9302C30.9797 32.9956 30.8886 33.0423 30.8886 33.0703C30.8886 33.089 30.8755 33.1077 30.8495 33.1264C30.8234 33.1451 30.7974 33.1544 30.7714 33.1544C30.7453 33.1544 30.7323 33.1497 30.7323 33.1404L30.7518 33.0843C30.7518 33.0656 30.7388 33.0563 30.7128 33.0563L30.6542 33.0703C30.576 33.089 30.537 33.1217 30.537 33.1684C30.537 33.2151 30.4328 33.2712 30.2244 33.3366C30.0161 33.3926 29.8924 33.4394 29.8533 33.4767C29.8143 33.5048 29.7882 33.5188 29.7752 33.5188C29.7622 33.5188 29.7557 33.5141 29.7557 33.5048C29.7557 33.4861 29.7426 33.4767 29.7166 33.4767C29.6254 33.4767 29.4952 33.5281 29.3259 33.6309C29.2218 33.7056 29.1176 33.7617 29.0134 33.7991C28.8962 33.8364 28.8376 33.8645 28.8376 33.8832C28.8376 33.8925 28.8507 33.9065 28.8767 33.9252C28.8897 33.9345 28.9158 33.9392 28.9548 33.9392H29.0525ZM30.2244 33.8131C30.4719 33.8037 30.6737 33.7897 30.83 33.771L30.9276 33.757C31.149 33.729 31.3638 33.6776 31.5722 33.6029C31.6764 33.5655 31.7285 33.5375 31.7285 33.5188C31.7285 33.5001 31.8326 33.4814 32.041 33.4627C32.2233 33.4627 32.334 33.4487 32.373 33.4207C32.4121 33.3833 32.4967 33.3646 32.627 33.3646C32.7442 33.3646 32.8223 33.3506 32.8613 33.3226C32.8874 33.2852 32.9395 33.2525 33.0176 33.2245C33.1739 33.1871 33.278 33.1684 33.3301 33.1684C33.3692 33.1684 33.4083 33.1731 33.4473 33.1824C33.4734 33.1918 33.5189 33.1964 33.5841 33.1964C33.6361 33.1964 33.6817 33.1918 33.7208 33.1824C33.7729 33.1637 33.7989 33.1451 33.7989 33.1264C33.7989 33.1077 33.8184 33.089 33.8575 33.0703C33.8966 33.0423 33.9552 33.0189 34.0333 33.0002C34.1245 32.9722 34.1896 32.9582 34.2286 32.9582C34.2677 32.9582 34.2937 32.9675 34.3068 32.9862C34.3328 33.0049 34.3589 33.0143 34.3849 33.0143C34.4109 33.0143 34.4435 32.9956 34.4826 32.9582C34.5216 32.9208 34.5867 32.9021 34.6779 32.9021C34.769 32.9021 34.8537 32.8788 34.9318 32.8321C35.023 32.776 35.075 32.7293 35.0881 32.6919C35.0881 32.6826 35.0816 32.6732 35.0685 32.6639C35.0685 32.6546 35.0555 32.6499 35.0295 32.6499L33.4864 32.9862C32.5879 33.1731 32.0735 33.2899 31.9433 33.3366L31.7871 33.3926L31.0253 33.5889L30.2244 33.8131ZM34.7365 48.5143C34.7495 48.5143 34.756 48.4816 34.756 48.4162L34.6388 46.9867L34.5607 46.314C34.5216 45.6973 34.5021 44.6977 34.5021 43.3149C34.5021 41.8854 34.4956 41.1613 34.4826 41.1426C34.4695 41.1894 34.4565 41.4463 34.4435 41.9134C34.4044 42.8571 34.3849 43.698 34.3849 44.436C34.3849 45.4077 34.3914 45.9309 34.4044 46.0057C34.4305 46.0337 34.4565 46.3187 34.4826 46.8605C34.4956 47.1969 34.5346 47.58 34.5998 48.0097C34.6649 48.1499 34.6974 48.2854 34.6974 48.4162C34.6974 48.4816 34.7104 48.5143 34.7365 48.5143ZM34.5216 41.0726C34.5607 41.0445 34.5802 40.9044 34.5802 40.6521L34.5607 40.2878C34.5346 40.2971 34.5151 40.3438 34.5021 40.4279C34.5021 40.512 34.4956 40.6054 34.4826 40.7082C34.4826 40.811 34.4826 40.8997 34.4826 40.9745C34.4826 41.0399 34.4956 41.0726 34.5216 41.0726ZM34.5802 40.2177C34.6193 40.1616 34.6388 40.1102 34.6388 40.0635C34.6388 39.9981 34.6323 39.9654 34.6193 39.9654C34.6063 39.9654 34.5867 39.9935 34.5607 40.0495C34.5346 40.1056 34.5216 40.1476 34.5216 40.1756C34.5216 40.2037 34.5346 40.2177 34.5607 40.2177H34.5802ZM34.3263 48.5143C34.3784 48.5143 34.4044 48.4162 34.4044 48.22L34.3849 47.8836L34.2872 46.6784L34.2482 46.0757C34.2221 45.6273 34.2091 45.0667 34.2091 44.394C34.2091 44.1698 34.2091 43.8755 34.2091 43.5111C34.2091 43.1374 34.2091 42.759 34.2091 42.3759C34.2091 41.9835 34.2156 41.7453 34.2286 41.6612C34.2677 41.4089 34.2872 41.0399 34.2872 40.554C34.3263 39.6384 34.4109 38.8489 34.5412 38.1856L34.6193 37.7511C34.6974 37.256 34.7365 36.9477 34.7365 36.8262C34.7365 36.6954 34.756 36.5739 34.7951 36.4618L34.8537 36.1815C34.8797 35.9947 34.9188 35.7938 34.9709 35.5789C35.036 35.2332 35.0685 35.0323 35.0685 34.9763C35.0685 34.9483 35.062 34.9342 35.049 34.9342H35.0295C35.0164 34.9436 34.9969 34.9763 34.9709 35.0323C34.9579 35.0791 34.9448 35.1351 34.9318 35.2005C34.9188 35.2659 34.8993 35.3407 34.8732 35.4247C34.8602 35.4995 34.8407 35.5649 34.8146 35.6209C34.8016 35.6677 34.7821 35.7471 34.756 35.8592C34.743 35.9713 34.7235 36.0834 34.6974 36.1955C34.6844 36.3077 34.6649 36.4058 34.6388 36.4898C34.6128 36.5646 34.5932 36.6066 34.5802 36.616C34.5672 36.616 34.5607 36.6206 34.5607 36.63L34.5998 36.8262C34.5998 36.8542 34.5867 36.8682 34.5607 36.8682C34.5346 36.8682 34.5216 36.8963 34.5216 36.9523L34.5412 37.0785C34.5412 37.0971 34.5346 37.1205 34.5216 37.1485C34.5216 37.1766 34.5151 37.1952 34.5021 37.2046C34.4891 37.2046 34.476 37.2279 34.463 37.2747C34.45 37.312 34.437 37.3541 34.424 37.4008C34.424 37.4475 34.424 37.4942 34.424 37.5409C34.424 37.5783 34.4305 37.597 34.4435 37.597C34.4695 37.597 34.4826 37.6063 34.4826 37.625C34.4826 37.6344 34.4695 37.6437 34.4435 37.653C34.4305 37.6624 34.424 37.6951 34.424 37.7511L34.3654 38.0034C34.3263 38.2183 34.2937 38.4379 34.2677 38.6621C34.1896 39.0358 34.131 39.503 34.0919 40.0635L34.0528 40.6241C34.0008 41.3529 33.9747 42.5021 33.9747 44.0717C33.9747 45.8282 33.9877 46.7905 34.0138 46.9587L34.0724 47.267C34.1245 47.6874 34.1635 48.0004 34.1896 48.2059C34.2286 48.4115 34.2742 48.5143 34.3263 48.5143ZM35.049 34.8502C35.062 34.8502 35.075 34.8408 35.0881 34.8221C35.1011 34.7941 35.1141 34.7707 35.1271 34.7521C35.1402 34.724 35.1467 34.7053 35.1467 34.696C35.1467 34.668 35.1336 34.6493 35.1076 34.6399C35.0555 34.6399 35.0295 34.6867 35.0295 34.7801C35.0295 34.8268 35.036 34.8502 35.049 34.8502ZM35.0881 34.5699C35.1011 34.5699 35.1141 34.5605 35.1271 34.5418C35.1532 34.5231 35.1727 34.4764 35.1857 34.4017C35.2118 34.3176 35.2378 34.2242 35.2639 34.1214L35.342 33.715C35.342 33.6683 35.3355 33.6449 35.3225 33.6449C35.2573 33.6449 35.2118 33.7944 35.1857 34.0934C35.1597 34.1588 35.1402 34.2242 35.1271 34.2896C35.1141 34.355 35.0946 34.4017 35.0685 34.4297C35.0555 34.4577 35.049 34.4858 35.049 34.5138C35.049 34.5512 35.062 34.5699 35.0881 34.5699ZM35.342 33.5748C35.355 33.5748 35.3745 33.5608 35.4006 33.5328C35.4397 33.4954 35.4592 33.4394 35.4592 33.3646C35.4592 33.3179 35.4462 33.2945 35.4201 33.2945C35.4071 33.2945 35.3811 33.3272 35.342 33.3926C35.3159 33.4487 35.3094 33.4907 35.3225 33.5188C35.3225 33.5375 35.3225 33.5515 35.3225 33.5608C35.3225 33.5702 35.329 33.5748 35.342 33.5748ZM35.6545 32.6499C35.6936 32.6219 35.7131 32.5985 35.7131 32.5798C35.7131 32.5705 35.7066 32.5658 35.6936 32.5658C35.6936 32.5565 35.6871 32.5518 35.674 32.5518L35.635 32.5798C35.6089 32.5985 35.5959 32.6172 35.5959 32.6359C35.5959 32.6452 35.6024 32.6499 35.6154 32.6499H35.635H35.6545Z" fill="#F3F3F3"/>
<path d="M41.2103 47.1829C41.0931 47.1829 40.9694 47.1642 40.8392 47.1268C40.709 47.0895 40.5918 47.0381 40.4876 46.9727C40.3834 46.9073 40.3053 46.8465 40.2532 46.7905C40.2011 46.7344 40.1751 46.6924 40.1751 46.6643C40.1751 46.655 40.1816 46.6457 40.1946 46.6363C40.2076 46.6176 40.2142 46.5943 40.2142 46.5662C40.2142 46.4822 40.1686 46.3841 40.0774 46.2719C39.9993 46.1598 39.9407 46.1038 39.9016 46.1038C39.8756 46.1038 39.8561 46.1178 39.843 46.1458C39.83 46.1738 39.8105 46.1879 39.7844 46.1879C39.6542 46.1879 39.4459 45.66 39.1594 44.6042C38.951 43.9035 38.8469 42.8758 38.8469 41.521L38.8664 40.1196C38.8664 37.1018 39.8105 33.6729 41.6986 29.833C41.9721 29.3565 42.2846 28.9687 42.6362 28.6698C43.0008 28.3615 43.2808 28.2073 43.4761 28.2073H43.6128C43.7431 28.2073 43.8342 28.1839 43.8863 28.1372C43.9514 28.0812 44.1337 28.0531 44.4332 28.0531C44.915 28.0531 45.3122 28.0999 45.6247 28.1933C46.3409 28.4455 46.7576 28.8379 46.8748 29.3705C46.9008 29.5387 46.9138 29.7209 46.9138 29.9171C46.9138 30.8794 46.5492 32.2341 45.82 33.9813C45.3252 35.1865 44.8759 36.1255 44.4723 36.7982C44.0686 37.4709 43.5347 38.2603 42.8706 39.1666C42.2976 39.9608 41.6075 40.9418 40.8001 42.1096V42.9645C40.8001 43.4784 40.8392 43.8054 40.9173 43.9455C40.9434 43.9736 40.9629 44.0109 40.9759 44.0577C40.9759 44.1137 40.9694 44.1651 40.9564 44.2118C40.9434 44.2585 40.9369 44.3006 40.9369 44.3379C40.9369 44.3753 40.9499 44.394 40.9759 44.394C41.028 44.394 41.1257 44.2165 41.2689 43.8615C41.3471 43.6653 41.3991 43.5298 41.4252 43.455C41.4512 43.3709 41.4642 43.3149 41.4642 43.2869C41.4642 43.2588 41.4577 43.2448 41.4447 43.2448C41.4187 43.2448 41.3926 43.2542 41.3666 43.2728C41.3405 43.2822 41.321 43.2869 41.308 43.2869C41.2819 43.2869 41.2689 43.2775 41.2689 43.2588L41.2885 43.1888C41.3405 43.1234 41.3926 43.0907 41.4447 43.0907C41.4708 43.0907 41.4968 43.0953 41.5228 43.1047C41.5489 43.114 41.5684 43.1187 41.5814 43.1187C41.5945 43.1187 41.601 43.1093 41.601 43.0907L41.5619 42.9085C41.5619 42.8711 41.5814 42.8524 41.6205 42.8524C41.6726 42.8524 41.8289 42.6002 42.0893 42.0956C42.5581 41.152 43.0855 40.3298 43.6714 39.6291C44.036 39.1713 44.622 38.9424 45.4294 38.9424C45.5856 38.9424 45.7093 38.9611 45.8005 38.9984C45.8916 39.0265 45.9958 39.1106 46.113 39.2507C46.2823 39.4936 46.38 39.7505 46.406 40.0215L46.4841 40.9885C46.5492 42.2031 46.686 43.1467 46.8943 43.8194C47.0636 44.3893 47.2459 44.6743 47.4412 44.6743C47.5063 44.6743 47.63 44.6322 47.8124 44.5482C48.2421 44.3613 48.5676 44.1651 48.789 43.9596C48.8541 43.8942 48.9518 43.8007 49.082 43.6793C49.2122 43.5578 49.3359 43.427 49.4531 43.2869C49.6745 43.0439 49.8177 42.9225 49.8828 42.9225C49.9219 42.9225 49.9479 42.9458 49.9609 42.9926C49.987 43.0299 50 43.0673 50 43.1047C50 43.1981 49.9609 43.3523 49.8828 43.5672C49.8047 43.7727 49.694 44.0109 49.5508 44.2819C49.4075 44.5435 49.2708 44.749 49.1406 44.8985C48.802 45.2255 48.3723 45.389 47.8514 45.389C47.578 45.389 47.2719 45.3423 46.9334 45.2489C46.087 45.0527 45.514 44.6182 45.2145 43.9455C44.915 43.2635 44.7457 42.0396 44.7067 40.2738C44.7067 40.143 44.7001 40.0729 44.6871 40.0635C44.6741 40.0635 44.6416 40.1149 44.5895 40.2177C44.4983 40.3578 44.4072 40.4279 44.316 40.4279C44.2249 40.4279 44.1793 40.4793 44.1793 40.5821C44.1793 40.6848 44.0816 40.797 43.8863 40.9184C43.7431 41.0399 43.6714 41.1473 43.6714 41.2407L43.691 41.3389C43.691 41.451 43.6259 41.5537 43.4956 41.6472C43.3654 41.7313 43.2808 41.7733 43.2417 41.7733V41.7593C43.2417 41.6565 43.5152 41.1987 44.0621 40.3859C44.3876 39.9094 44.5504 39.6431 44.5504 39.587H44.5309C44.4658 39.587 44.1988 39.9561 43.73 40.6942C43.3784 41.2454 43.0529 41.792 42.7534 42.3339C42.4669 42.8758 42.3172 43.2168 42.3041 43.3569V43.3709C42.3172 43.3709 42.4604 43.1374 42.7339 42.6702C43.0073 42.1564 43.1571 41.8994 43.1831 41.8994V41.9134C43.1831 42.0256 43.0464 42.4647 42.7729 43.2308L42.2456 44.7163C42.1023 45.1274 41.9916 45.5759 41.9135 46.0617C41.8093 46.5849 41.6856 46.9166 41.5424 47.0568C41.4642 47.1408 41.3536 47.1829 41.2103 47.1829ZM45.6833 43.7213C45.6963 43.7213 45.7028 43.698 45.7028 43.6512C45.7028 43.5765 45.6768 43.4597 45.6247 43.3009C45.5335 43.0112 45.4229 42.133 45.2926 40.6662V41.6892L45.2731 42.0816C45.2731 42.6422 45.3838 43.142 45.6052 43.5812C45.6442 43.6746 45.6703 43.7213 45.6833 43.7213ZM41.2494 45.0106C41.2754 45.0106 41.3471 44.8845 41.4642 44.6322L42.1088 43.1888C42.4344 42.4787 42.7729 41.8294 43.1245 41.2407C43.4761 40.6148 43.9254 39.9421 44.4723 39.2227L44.1402 39.4889C43.9319 39.6758 43.6649 39.9935 43.3394 40.4419C43.0269 40.8904 42.7404 41.3575 42.4799 41.8434C42.3367 42.1237 42.1674 42.4974 41.9721 42.9645C41.7768 43.4223 41.601 43.8474 41.4447 44.2398C41.3015 44.6322 41.2299 44.8752 41.2299 44.9686C41.2299 44.9966 41.2364 45.0106 41.2494 45.0106ZM46.1325 31.3045C46.1586 31.3045 46.1911 31.2017 46.2302 30.9962C46.2953 30.6411 46.3279 30.3655 46.3279 30.1693C46.3279 30.0479 46.3214 29.9871 46.3083 29.9871C46.2823 29.9871 46.2497 30.0992 46.2107 30.3235C46.1456 30.6505 46.113 30.9214 46.113 31.1363C46.113 31.2484 46.1195 31.3045 46.1325 31.3045ZM42.0307 39.2507C42.0698 39.2507 42.3367 38.8816 42.8315 38.1436C43.3003 37.4522 43.7105 36.7982 44.0621 36.1815C45.195 34.1915 45.8461 32.7713 46.0154 31.9211V31.8791C45.9633 31.8791 45.82 32.2108 45.5856 32.8741C44.5699 35.2472 43.4696 37.2233 42.2846 38.8022C42.1153 39.0265 42.0307 39.176 42.0307 39.2507ZM45.781 29.2584V29.2444C45.781 29.207 45.7289 29.0809 45.6247 28.866C45.5726 28.7632 45.5205 28.6838 45.4684 28.6277C45.4294 28.5717 45.3968 28.5436 45.3708 28.5436C45.3577 28.5436 45.3512 28.553 45.3512 28.5717C45.3512 28.6558 45.4033 28.7819 45.5075 28.9501C45.6638 29.1556 45.7549 29.2584 45.781 29.2584ZM40.8197 40.3578L41.4838 39.4469C41.8744 38.8957 42.3432 38.1996 42.8901 37.3587C43.2157 36.8729 43.4826 36.4945 43.691 36.2236C43.9644 35.8592 44.1532 35.5369 44.2574 35.2566L44.2965 35.1024C44.2965 35.0557 44.2835 35.0323 44.2574 35.0323C44.2314 35.0323 44.2053 35.037 44.1793 35.0464L44.1597 35.0744L44.1402 35.0604C44.1402 35.0137 44.1858 34.9483 44.2769 34.8642C44.3681 34.7707 44.4723 34.6213 44.5895 34.4157C44.8499 33.9486 45.0387 33.5141 45.1559 33.1124C45.208 32.9816 45.234 32.8881 45.234 32.8321C45.234 32.804 45.2275 32.7854 45.2145 32.776C45.2015 32.7667 45.195 32.7527 45.195 32.734C45.195 32.6966 45.2145 32.6686 45.2536 32.6499C45.3838 32.5751 45.5075 32.1547 45.6247 31.3886C45.6507 31.183 45.7093 30.8794 45.8005 30.4776C45.8396 30.2721 45.8591 30.0946 45.8591 29.9451C45.8591 29.833 45.8461 29.7395 45.82 29.6648C45.794 29.5807 45.7679 29.5387 45.7419 29.5387C45.7158 29.5387 45.6963 29.6414 45.6833 29.847C45.6703 30.0432 45.6442 30.1413 45.6052 30.1413C45.5921 30.1413 45.5791 30.1366 45.5661 30.1273C45.5531 30.1086 45.5401 30.0619 45.527 29.9871C45.527 29.9124 45.527 29.8283 45.527 29.7349V29.5947C45.527 29.4359 45.488 29.2584 45.4098 29.0622C45.2796 28.7258 45.0778 28.5483 44.8043 28.5296C44.7132 28.5296 44.6285 28.5763 44.5504 28.6698C43.6389 29.8096 42.9292 31.0569 42.4213 32.4116C41.9135 33.7664 41.5424 35.0791 41.308 36.3497C41.0866 37.6203 40.9434 38.7041 40.8783 39.6011L40.8197 40.3578ZM41.5228 40.0075C41.5489 40.0075 41.6075 39.9561 41.6986 39.8533C41.8158 39.7038 41.8744 39.587 41.8744 39.503C41.8744 39.4936 41.8679 39.4889 41.8549 39.4889C41.8419 39.4889 41.7898 39.545 41.6986 39.6571C41.5684 39.8159 41.5033 39.9281 41.5033 39.9935C41.5033 40.0028 41.5098 40.0075 41.5228 40.0075Z" fill="#F3F3F3"/>
</svg>
