<svg width="706" height="72" viewBox="0 0 706 72" fill="none" xmlns="http://www.w3.org/2000/svg">
<path d="M12.6482 11.21H7.17622L6.16822 14H4.44022L8.97622 1.526H10.8662L15.3842 14H13.6562L12.6482 11.21ZM12.1802 9.878L9.91222 3.542L7.64422 9.878H12.1802ZM19.9891 5.738C20.2771 5.174 20.6851 4.736 21.2131 4.424C21.7531 4.112 22.4071 3.956 23.1751 3.956V5.648H22.7431C20.9071 5.648 19.9891 6.644 19.9891 8.636V14H18.3511V4.136H19.9891V5.738ZM35.056 8.69C35.056 9.002 35.038 9.332 35.002 9.68H27.118C27.178 10.652 27.508 11.414 28.108 11.966C28.72 12.506 29.458 12.776 30.322 12.776C31.03 12.776 31.618 12.614 32.086 12.29C32.566 11.954 32.902 11.51 33.094 10.958H34.858C34.594 11.906 34.066 12.68 33.274 13.28C32.482 13.868 31.498 14.162 30.322 14.162C29.386 14.162 28.546 13.952 27.802 13.532C27.07 13.112 26.494 12.518 26.074 11.75C25.654 10.97 25.444 10.07 25.444 9.05C25.444 8.03 25.648 7.136 26.056 6.368C26.464 5.6 27.034 5.012 27.766 4.604C28.51 4.184 29.362 3.974 30.322 3.974C31.258 3.974 32.086 4.178 32.806 4.586C33.526 4.994 34.078 5.558 34.462 6.278C34.858 6.986 35.056 7.79 35.056 8.69ZM33.364 8.348C33.364 7.724 33.226 7.19 32.95 6.746C32.674 6.29 32.296 5.948 31.816 5.72C31.348 5.48 30.826 5.36 30.25 5.36C29.422 5.36 28.714 5.624 28.126 6.152C27.55 6.68 27.22 7.412 27.136 8.348H33.364ZM52.4929 4.136L46.5529 18.644H44.8609L46.8049 13.892L42.8269 4.136H44.6449L47.7409 12.128L50.8009 4.136H52.4929ZM59.4315 14.162C58.5075 14.162 57.6675 13.952 56.9115 13.532C56.1675 13.112 55.5795 12.518 55.1475 11.75C54.7275 10.97 54.5175 10.07 54.5175 9.05C54.5175 8.042 54.7335 7.154 55.1655 6.386C55.6095 5.606 56.2095 5.012 56.9655 4.604C57.7215 4.184 58.5675 3.974 59.5035 3.974C60.4395 3.974 61.2855 4.184 62.0415 4.604C62.7975 5.012 63.3915 5.6 63.8235 6.368C64.2675 7.136 64.4895 8.03 64.4895 9.05C64.4895 10.07 64.2615 10.97 63.8055 11.75C63.3615 12.518 62.7555 13.112 61.9875 13.532C61.2195 13.952 60.3675 14.162 59.4315 14.162ZM59.4315 12.722C60.0195 12.722 60.5715 12.584 61.0875 12.308C61.6035 12.032 62.0175 11.618 62.3295 11.066C62.6535 10.514 62.8155 9.842 62.8155 9.05C62.8155 8.258 62.6595 7.586 62.3475 7.034C62.0355 6.482 61.6275 6.074 61.1235 5.81C60.6195 5.534 60.0735 5.396 59.4855 5.396C58.8855 5.396 58.3335 5.534 57.8295 5.81C57.3375 6.074 56.9415 6.482 56.6415 7.034C56.3415 7.586 56.1915 8.258 56.1915 9.05C56.1915 9.854 56.3355 10.532 56.6235 11.084C56.9235 11.636 57.3195 12.05 57.8115 12.326C58.3035 12.59 58.8435 12.722 59.4315 12.722ZM76.3812 4.136V14H74.7432V12.542C74.4312 13.046 73.9932 13.442 73.4292 13.73C72.8772 14.006 72.2652 14.144 71.5932 14.144C70.8252 14.144 70.1352 13.988 69.5232 13.676C68.9112 13.352 68.4252 12.872 68.0652 12.236C67.7172 11.6 67.5432 10.826 67.5432 9.914V4.136H69.1632V9.698C69.1632 10.67 69.4092 11.42 69.9012 11.948C70.3932 12.464 71.0652 12.722 71.9172 12.722C72.7932 12.722 73.4832 12.452 73.9872 11.912C74.4912 11.372 74.7432 10.586 74.7432 9.554V4.136H76.3812ZM85.3137 9.032C85.3137 8.024 85.5177 7.142 85.9257 6.386C86.3337 5.618 86.8917 5.024 87.5997 4.604C88.3197 4.184 89.1177 3.974 89.9937 3.974C90.8577 3.974 91.6077 4.16 92.2437 4.532C92.8797 4.904 93.3537 5.372 93.6657 5.936V4.136H95.3217V14H93.6657V12.164C93.3417 12.74 92.8557 13.22 92.2077 13.604C91.5717 13.976 90.8277 14.162 89.9757 14.162C89.0997 14.162 88.3077 13.946 87.5997 13.514C86.8917 13.082 86.3337 12.476 85.9257 11.696C85.5177 10.916 85.3137 10.028 85.3137 9.032ZM93.6657 9.05C93.6657 8.306 93.5157 7.658 93.2157 7.106C92.9157 6.554 92.5077 6.134 91.9917 5.846C91.4877 5.546 90.9297 5.396 90.3177 5.396C89.7057 5.396 89.1477 5.54 88.6437 5.828C88.1397 6.116 87.7377 6.536 87.4377 7.088C87.1377 7.64 86.9877 8.288 86.9877 9.032C86.9877 9.788 87.1377 10.448 87.4377 11.012C87.7377 11.564 88.1397 11.99 88.6437 12.29C89.1477 12.578 89.7057 12.722 90.3177 12.722C90.9297 12.722 91.4877 12.578 91.9917 12.29C92.5077 11.99 92.9157 11.564 93.2157 11.012C93.5157 10.448 93.6657 9.794 93.6657 9.05ZM103.886 3.956C105.086 3.956 106.058 4.322 106.802 5.054C107.546 5.774 107.918 6.818 107.918 8.186V14H106.298V8.42C106.298 7.436 106.052 6.686 105.56 6.17C105.068 5.642 104.396 5.378 103.544 5.378C102.68 5.378 101.99 5.648 101.474 6.188C100.97 6.728 100.718 7.514 100.718 8.546V14H99.0797V4.136H100.718V5.54C101.042 5.036 101.48 4.646 102.032 4.37C102.596 4.094 103.214 3.956 103.886 3.956ZM116.76 9.032C116.76 8.024 116.964 7.142 117.372 6.386C117.78 5.618 118.338 5.024 119.046 4.604C119.766 4.184 120.564 3.974 121.44 3.974C122.304 3.974 123.054 4.16 123.69 4.532C124.326 4.904 124.8 5.372 125.112 5.936V4.136H126.768V14H125.112V12.164C124.788 12.74 124.302 13.22 123.654 13.604C123.018 13.976 122.274 14.162 121.422 14.162C120.546 14.162 119.754 13.946 119.046 13.514C118.338 13.082 117.78 12.476 117.372 11.696C116.964 10.916 116.76 10.028 116.76 9.032ZM125.112 9.05C125.112 8.306 124.962 7.658 124.662 7.106C124.362 6.554 123.954 6.134 123.438 5.846C122.934 5.546 122.376 5.396 121.764 5.396C121.152 5.396 120.594 5.54 120.09 5.828C119.586 6.116 119.184 6.536 118.884 7.088C118.584 7.64 118.434 8.288 118.434 9.032C118.434 9.788 118.584 10.448 118.884 11.012C119.184 11.564 119.586 11.99 120.09 12.29C120.594 12.578 121.152 12.722 121.764 12.722C122.376 12.722 122.934 12.578 123.438 12.29C123.954 11.99 124.362 11.564 124.662 11.012C124.962 10.448 125.112 9.794 125.112 9.05ZM132.164 5.738C132.452 5.174 132.86 4.736 133.388 4.424C133.928 4.112 134.582 3.956 135.35 3.956V5.648H134.918C133.082 5.648 132.164 6.644 132.164 8.636V14H130.526V4.136H132.164V5.738ZM140.229 5.486V11.3C140.229 11.78 140.331 12.122 140.535 12.326C140.739 12.518 141.093 12.614 141.597 12.614H142.803V14H141.327C140.415 14 139.731 13.79 139.275 13.37C138.819 12.95 138.591 12.26 138.591 11.3V5.486H137.313V4.136H138.591V1.652H140.229V4.136H142.803V5.486H140.229ZM146.624 2.534C146.312 2.534 146.048 2.426 145.832 2.21C145.616 1.994 145.508 1.73 145.508 1.418C145.508 1.106 145.616 0.842 145.832 0.625999C146.048 0.409999 146.312 0.301999 146.624 0.301999C146.924 0.301999 147.176 0.409999 147.38 0.625999C147.596 0.842 147.704 1.106 147.704 1.418C147.704 1.73 147.596 1.994 147.38 2.21C147.176 2.426 146.924 2.534 146.624 2.534ZM147.416 4.136V14H145.778V4.136H147.416ZM154.689 14.162C153.933 14.162 153.255 14.036 152.655 13.784C152.055 13.52 151.581 13.16 151.233 12.704C150.885 12.236 150.693 11.702 150.657 11.102H152.349C152.397 11.594 152.625 11.996 153.033 12.308C153.453 12.62 153.999 12.776 154.671 12.776C155.295 12.776 155.787 12.638 156.147 12.362C156.507 12.086 156.687 11.738 156.687 11.318C156.687 10.886 156.495 10.568 156.111 10.364C155.727 10.148 155.133 9.938 154.329 9.734C153.597 9.542 152.997 9.35 152.529 9.158C152.073 8.954 151.677 8.66 151.341 8.276C151.017 7.88 150.855 7.364 150.855 6.728C150.855 6.224 151.005 5.762 151.305 5.342C151.605 4.922 152.031 4.592 152.583 4.352C153.135 4.1 153.765 3.974 154.473 3.974C155.565 3.974 156.447 4.25 157.119 4.802C157.791 5.354 158.151 6.11 158.199 7.07H156.561C156.525 6.554 156.315 6.14 155.931 5.828C155.559 5.516 155.055 5.36 154.419 5.36C153.831 5.36 153.363 5.486 153.015 5.738C152.667 5.99 152.493 6.32 152.493 6.728C152.493 7.052 152.595 7.322 152.799 7.538C153.015 7.742 153.279 7.91 153.591 8.042C153.915 8.162 154.359 8.3 154.923 8.456C155.631 8.648 156.207 8.84 156.651 9.032C157.095 9.212 157.473 9.488 157.785 9.86C158.109 10.232 158.277 10.718 158.289 11.318C158.289 11.858 158.139 12.344 157.839 12.776C157.539 13.208 157.113 13.55 156.561 13.802C156.021 14.042 155.397 14.162 154.689 14.162ZM163.59 5.486V11.3C163.59 11.78 163.692 12.122 163.896 12.326C164.1 12.518 164.454 12.614 164.958 12.614H166.164V14H164.688C163.776 14 163.092 13.79 162.636 13.37C162.18 12.95 161.952 12.26 161.952 11.3V5.486H160.674V4.136H161.952V1.652H163.59V4.136H166.164V5.486H163.59ZM176.565 0.68V14H174.927V0.68H176.565ZM184.649 14.162C183.725 14.162 182.885 13.952 182.129 13.532C181.385 13.112 180.797 12.518 180.365 11.75C179.945 10.97 179.735 10.07 179.735 9.05C179.735 8.042 179.951 7.154 180.383 6.386C180.827 5.606 181.427 5.012 182.183 4.604C182.939 4.184 183.785 3.974 184.721 3.974C185.657 3.974 186.503 4.184 187.259 4.604C188.015 5.012 188.609 5.6 189.041 6.368C189.485 7.136 189.707 8.03 189.707 9.05C189.707 10.07 189.479 10.97 189.023 11.75C188.579 12.518 187.973 13.112 187.205 13.532C186.437 13.952 185.585 14.162 184.649 14.162ZM184.649 12.722C185.237 12.722 185.789 12.584 186.305 12.308C186.821 12.032 187.235 11.618 187.547 11.066C187.871 10.514 188.033 9.842 188.033 9.05C188.033 8.258 187.877 7.586 187.565 7.034C187.253 6.482 186.845 6.074 186.341 5.81C185.837 5.534 185.291 5.396 184.703 5.396C184.103 5.396 183.551 5.534 183.047 5.81C182.555 6.074 182.159 6.482 181.859 7.034C181.559 7.586 181.409 8.258 181.409 9.05C181.409 9.854 181.553 10.532 181.841 11.084C182.141 11.636 182.537 12.05 183.029 12.326C183.521 12.59 184.061 12.722 184.649 12.722ZM197.153 14.162C196.229 14.162 195.389 13.952 194.633 13.532C193.889 13.112 193.301 12.518 192.869 11.75C192.449 10.97 192.239 10.07 192.239 9.05C192.239 8.042 192.455 7.154 192.887 6.386C193.331 5.606 193.931 5.012 194.687 4.604C195.443 4.184 196.289 3.974 197.225 3.974C198.161 3.974 199.007 4.184 199.763 4.604C200.519 5.012 201.113 5.6 201.545 6.368C201.989 7.136 202.211 8.03 202.211 9.05C202.211 10.07 201.983 10.97 201.527 11.75C201.083 12.518 200.477 13.112 199.709 13.532C198.941 13.952 198.089 14.162 197.153 14.162ZM197.153 12.722C197.741 12.722 198.293 12.584 198.809 12.308C199.325 12.032 199.739 11.618 200.051 11.066C200.375 10.514 200.537 9.842 200.537 9.05C200.537 8.258 200.381 7.586 200.069 7.034C199.757 6.482 199.349 6.074 198.845 5.81C198.341 5.534 197.795 5.396 197.207 5.396C196.607 5.396 196.055 5.534 195.551 5.81C195.059 6.074 194.663 6.482 194.363 7.034C194.063 7.586 193.913 8.258 193.913 9.05C193.913 9.854 194.057 10.532 194.345 11.084C194.645 11.636 195.041 12.05 195.533 12.326C196.025 12.59 196.565 12.722 197.153 12.722ZM210.862 14L206.992 9.644V14H205.354V0.68H206.992V8.51L210.79 4.136H213.076L208.432 9.05L213.094 14H210.862ZM216.454 2.534C216.142 2.534 215.878 2.426 215.662 2.21C215.446 1.994 215.338 1.73 215.338 1.418C215.338 1.106 215.446 0.842 215.662 0.625999C215.878 0.409999 216.142 0.301999 216.454 0.301999C216.754 0.301999 217.006 0.409999 217.21 0.625999C217.426 0.842 217.534 1.106 217.534 1.418C217.534 1.73 217.426 1.994 217.21 2.21C217.006 2.426 216.754 2.534 216.454 2.534ZM217.246 4.136V14H215.608V4.136H217.246ZM225.834 3.956C227.034 3.956 228.006 4.322 228.75 5.054C229.494 5.774 229.866 6.818 229.866 8.186V14H228.246V8.42C228.246 7.436 228 6.686 227.508 6.17C227.016 5.642 226.344 5.378 225.492 5.378C224.628 5.378 223.938 5.648 223.422 6.188C222.918 6.728 222.666 7.514 222.666 8.546V14H221.028V4.136H222.666V5.54C222.99 5.036 223.428 4.646 223.98 4.37C224.544 4.094 225.162 3.956 225.834 3.956ZM237.599 3.974C238.451 3.974 239.195 4.16 239.831 4.532C240.479 4.904 240.959 5.372 241.271 5.936V4.136H242.927V14.216C242.927 15.116 242.735 15.914 242.351 16.61C241.967 17.318 241.415 17.87 240.695 18.266C239.987 18.662 239.159 18.86 238.211 18.86C236.915 18.86 235.835 18.554 234.971 17.942C234.107 17.33 233.597 16.496 233.441 15.44H235.061C235.241 16.04 235.613 16.52 236.177 16.88C236.741 17.252 237.419 17.438 238.211 17.438C239.111 17.438 239.843 17.156 240.407 16.592C240.983 16.028 241.271 15.236 241.271 14.216V12.146C240.947 12.722 240.467 13.202 239.831 13.586C239.195 13.97 238.451 14.162 237.599 14.162C236.723 14.162 235.925 13.946 235.205 13.514C234.497 13.082 233.939 12.476 233.531 11.696C233.123 10.916 232.919 10.028 232.919 9.032C232.919 8.024 233.123 7.142 233.531 6.386C233.939 5.618 234.497 5.024 235.205 4.604C235.925 4.184 236.723 3.974 237.599 3.974ZM241.271 9.05C241.271 8.306 241.121 7.658 240.821 7.106C240.521 6.554 240.113 6.134 239.597 5.846C239.093 5.546 238.535 5.396 237.923 5.396C237.311 5.396 236.753 5.54 236.249 5.828C235.745 6.116 235.343 6.536 235.043 7.088C234.743 7.64 234.593 8.288 234.593 9.032C234.593 9.788 234.743 10.448 235.043 11.012C235.343 11.564 235.745 11.99 236.249 12.29C236.753 12.578 237.311 12.722 237.923 12.722C238.535 12.722 239.093 12.578 239.597 12.29C240.113 11.99 240.521 11.564 240.821 11.012C241.121 10.448 241.271 9.794 241.271 9.05ZM254.472 5.486V11.3C254.472 11.78 254.574 12.122 254.778 12.326C254.982 12.518 255.336 12.614 255.84 12.614H257.046V14H255.57C254.658 14 253.974 13.79 253.518 13.37C253.062 12.95 252.834 12.26 252.834 11.3V5.486H251.556V4.136H252.834V1.652H254.472V4.136H257.046V5.486H254.472ZM264.323 14.162C263.399 14.162 262.559 13.952 261.803 13.532C261.059 13.112 260.471 12.518 260.039 11.75C259.619 10.97 259.409 10.07 259.409 9.05C259.409 8.042 259.625 7.154 260.057 6.386C260.501 5.606 261.101 5.012 261.857 4.604C262.613 4.184 263.459 3.974 264.395 3.974C265.331 3.974 266.177 4.184 266.933 4.604C267.689 5.012 268.283 5.6 268.715 6.368C269.159 7.136 269.381 8.03 269.381 9.05C269.381 10.07 269.153 10.97 268.697 11.75C268.253 12.518 267.647 13.112 266.879 13.532C266.111 13.952 265.259 14.162 264.323 14.162ZM264.323 12.722C264.911 12.722 265.463 12.584 265.979 12.308C266.495 12.032 266.909 11.618 267.221 11.066C267.545 10.514 267.707 9.842 267.707 9.05C267.707 8.258 267.551 7.586 267.239 7.034C266.927 6.482 266.519 6.074 266.015 5.81C265.511 5.534 264.965 5.396 264.377 5.396C263.777 5.396 263.225 5.534 262.721 5.81C262.229 6.074 261.833 6.482 261.533 7.034C261.233 7.586 261.083 8.258 261.083 9.05C261.083 9.854 261.227 10.532 261.515 11.084C261.815 11.636 262.211 12.05 262.703 12.326C263.195 12.59 263.735 12.722 264.323 12.722ZM281.805 14.162C281.049 14.162 280.371 14.036 279.771 13.784C279.171 13.52 278.697 13.16 278.349 12.704C278.001 12.236 277.809 11.702 277.773 11.102H279.465C279.513 11.594 279.741 11.996 280.149 12.308C280.569 12.62 281.115 12.776 281.787 12.776C282.411 12.776 282.903 12.638 283.263 12.362C283.623 12.086 283.803 11.738 283.803 11.318C283.803 10.886 283.611 10.568 283.227 10.364C282.843 10.148 282.249 9.938 281.445 9.734C280.713 9.542 280.113 9.35 279.645 9.158C279.189 8.954 278.793 8.66 278.457 8.276C278.133 7.88 277.971 7.364 277.971 6.728C277.971 6.224 278.121 5.762 278.421 5.342C278.721 4.922 279.147 4.592 279.699 4.352C280.251 4.1 280.881 3.974 281.589 3.974C282.681 3.974 283.563 4.25 284.235 4.802C284.907 5.354 285.267 6.11 285.315 7.07H283.677C283.641 6.554 283.431 6.14 283.047 5.828C282.675 5.516 282.171 5.36 281.535 5.36C280.947 5.36 280.479 5.486 280.131 5.738C279.783 5.99 279.609 6.32 279.609 6.728C279.609 7.052 279.711 7.322 279.915 7.538C280.131 7.742 280.395 7.91 280.707 8.042C281.031 8.162 281.475 8.3 282.039 8.456C282.747 8.648 283.323 8.84 283.767 9.032C284.211 9.212 284.589 9.488 284.901 9.86C285.225 10.232 285.393 10.718 285.405 11.318C285.405 11.858 285.255 12.344 284.955 12.776C284.655 13.208 284.229 13.55 283.677 13.802C283.137 14.042 282.513 14.162 281.805 14.162ZM293.604 3.956C294.348 3.956 295.02 4.118 295.62 4.442C296.22 4.754 296.688 5.228 297.024 5.864C297.372 6.5 297.546 7.274 297.546 8.186V14H295.926V8.42C295.926 7.436 295.68 6.686 295.188 6.17C294.696 5.642 294.024 5.378 293.172 5.378C292.308 5.378 291.618 5.648 291.102 6.188C290.598 6.728 290.346 7.514 290.346 8.546V14H288.708V0.68H290.346V5.54C290.67 5.036 291.114 4.646 291.678 4.37C292.254 4.094 292.896 3.956 293.604 3.956ZM305.513 14.162C304.589 14.162 303.749 13.952 302.993 13.532C302.249 13.112 301.661 12.518 301.229 11.75C300.809 10.97 300.599 10.07 300.599 9.05C300.599 8.042 300.815 7.154 301.247 6.386C301.691 5.606 302.291 5.012 303.047 4.604C303.803 4.184 304.649 3.974 305.585 3.974C306.521 3.974 307.367 4.184 308.123 4.604C308.879 5.012 309.473 5.6 309.905 6.368C310.349 7.136 310.571 8.03 310.571 9.05C310.571 10.07 310.343 10.97 309.887 11.75C309.443 12.518 308.837 13.112 308.069 13.532C307.301 13.952 306.449 14.162 305.513 14.162ZM305.513 12.722C306.101 12.722 306.653 12.584 307.169 12.308C307.685 12.032 308.099 11.618 308.411 11.066C308.735 10.514 308.897 9.842 308.897 9.05C308.897 8.258 308.741 7.586 308.429 7.034C308.117 6.482 307.709 6.074 307.205 5.81C306.701 5.534 306.155 5.396 305.567 5.396C304.967 5.396 304.415 5.534 303.911 5.81C303.419 6.074 303.023 6.482 302.723 7.034C302.423 7.586 302.273 8.258 302.273 9.05C302.273 9.854 302.417 10.532 302.705 11.084C303.005 11.636 303.401 12.05 303.893 12.326C304.385 12.59 304.925 12.722 305.513 12.722ZM326.855 4.136L323.777 14H322.085L319.709 6.17L317.333 14H315.641L312.545 4.136H314.219L316.487 12.416L318.935 4.136H320.609L323.003 12.434L325.235 4.136H326.855ZM328.859 9.05C328.859 8.03 329.063 7.142 329.471 6.386C329.879 5.618 330.443 5.024 331.163 4.604C331.895 4.184 332.729 3.974 333.665 3.974C334.877 3.974 335.873 4.268 336.653 4.856C337.445 5.444 337.967 6.26 338.219 7.304H336.455C336.287 6.704 335.957 6.23 335.465 5.882C334.985 5.534 334.385 5.36 333.665 5.36C332.729 5.36 331.973 5.684 331.397 6.332C330.821 6.968 330.533 7.874 330.533 9.05C330.533 10.238 330.821 11.156 331.397 11.804C331.973 12.452 332.729 12.776 333.665 12.776C334.385 12.776 334.985 12.608 335.465 12.272C335.945 11.936 336.275 11.456 336.455 10.832H338.219C337.955 11.84 337.427 12.65 336.635 13.262C335.843 13.862 334.853 14.162 333.665 14.162C332.729 14.162 331.895 13.952 331.163 13.532C330.443 13.112 329.879 12.518 329.471 11.75C329.063 10.982 328.859 10.082 328.859 9.05ZM340.782 9.032C340.782 8.024 340.986 7.142 341.394 6.386C341.802 5.618 342.36 5.024 343.068 4.604C343.788 4.184 344.586 3.974 345.462 3.974C346.326 3.974 347.076 4.16 347.712 4.532C348.348 4.904 348.822 5.372 349.134 5.936V4.136H350.79V14H349.134V12.164C348.81 12.74 348.324 13.22 347.676 13.604C347.04 13.976 346.296 14.162 345.444 14.162C344.568 14.162 343.776 13.946 343.068 13.514C342.36 13.082 341.802 12.476 341.394 11.696C340.986 10.916 340.782 10.028 340.782 9.032ZM349.134 9.05C349.134 8.306 348.984 7.658 348.684 7.106C348.384 6.554 347.976 6.134 347.46 5.846C346.956 5.546 346.398 5.396 345.786 5.396C345.174 5.396 344.616 5.54 344.112 5.828C343.608 6.116 343.206 6.536 342.906 7.088C342.606 7.64 342.456 8.288 342.456 9.032C342.456 9.788 342.606 10.448 342.906 11.012C343.206 11.564 343.608 11.99 344.112 12.29C344.616 12.578 345.174 12.722 345.786 12.722C346.398 12.722 346.956 12.578 347.46 12.29C347.976 11.99 348.384 11.564 348.684 11.012C348.984 10.448 349.134 9.794 349.134 9.05ZM358.04 14.162C357.284 14.162 356.606 14.036 356.006 13.784C355.406 13.52 354.932 13.16 354.584 12.704C354.236 12.236 354.044 11.702 354.008 11.102H355.7C355.748 11.594 355.976 11.996 356.384 12.308C356.804 12.62 357.35 12.776 358.022 12.776C358.646 12.776 359.138 12.638 359.498 12.362C359.858 12.086 360.038 11.738 360.038 11.318C360.038 10.886 359.846 10.568 359.462 10.364C359.078 10.148 358.484 9.938 357.68 9.734C356.948 9.542 356.348 9.35 355.88 9.158C355.424 8.954 355.028 8.66 354.692 8.276C354.368 7.88 354.206 7.364 354.206 6.728C354.206 6.224 354.356 5.762 354.656 5.342C354.956 4.922 355.382 4.592 355.934 4.352C356.486 4.1 357.116 3.974 357.824 3.974C358.916 3.974 359.798 4.25 360.47 4.802C361.142 5.354 361.502 6.11 361.55 7.07H359.912C359.876 6.554 359.666 6.14 359.282 5.828C358.91 5.516 358.406 5.36 357.77 5.36C357.182 5.36 356.714 5.486 356.366 5.738C356.018 5.99 355.844 6.32 355.844 6.728C355.844 7.052 355.946 7.322 356.15 7.538C356.366 7.742 356.63 7.91 356.942 8.042C357.266 8.162 357.71 8.3 358.274 8.456C358.982 8.648 359.558 8.84 360.002 9.032C360.446 9.212 360.824 9.488 361.136 9.86C361.46 10.232 361.628 10.718 361.64 11.318C361.64 11.858 361.49 12.344 361.19 12.776C360.89 13.208 360.464 13.55 359.912 13.802C359.372 14.042 358.748 14.162 358.04 14.162ZM373.943 8.69C373.943 9.002 373.925 9.332 373.889 9.68H366.005C366.065 10.652 366.395 11.414 366.995 11.966C367.607 12.506 368.345 12.776 369.209 12.776C369.917 12.776 370.505 12.614 370.973 12.29C371.453 11.954 371.789 11.51 371.981 10.958H373.745C373.481 11.906 372.953 12.68 372.161 13.28C371.369 13.868 370.385 14.162 369.209 14.162C368.273 14.162 367.433 13.952 366.689 13.532C365.957 13.112 365.381 12.518 364.961 11.75C364.541 10.97 364.331 10.07 364.331 9.05C364.331 8.03 364.535 7.136 364.943 6.368C365.351 5.6 365.921 5.012 366.653 4.604C367.397 4.184 368.249 3.974 369.209 3.974C370.145 3.974 370.973 4.178 371.693 4.586C372.413 4.994 372.965 5.558 373.349 6.278C373.745 6.986 373.943 7.79 373.943 8.69ZM372.251 8.348C372.251 7.724 372.113 7.19 371.837 6.746C371.561 6.29 371.183 5.948 370.703 5.72C370.235 5.48 369.713 5.36 369.137 5.36C368.309 5.36 367.601 5.624 367.013 6.152C366.437 6.68 366.107 7.412 366.023 8.348H372.251ZM391.379 4.136L385.439 18.644H383.747L385.691 13.892L381.713 4.136H383.531L386.627 12.128L389.687 4.136H391.379ZM398.318 14.162C397.394 14.162 396.554 13.952 395.798 13.532C395.054 13.112 394.466 12.518 394.034 11.75C393.614 10.97 393.404 10.07 393.404 9.05C393.404 8.042 393.62 7.154 394.052 6.386C394.496 5.606 395.096 5.012 395.852 4.604C396.608 4.184 397.454 3.974 398.39 3.974C399.326 3.974 400.172 4.184 400.928 4.604C401.684 5.012 402.278 5.6 402.71 6.368C403.154 7.136 403.376 8.03 403.376 9.05C403.376 10.07 403.148 10.97 402.692 11.75C402.248 12.518 401.642 13.112 400.874 13.532C400.106 13.952 399.254 14.162 398.318 14.162ZM398.318 12.722C398.906 12.722 399.458 12.584 399.974 12.308C400.49 12.032 400.904 11.618 401.216 11.066C401.54 10.514 401.702 9.842 401.702 9.05C401.702 8.258 401.546 7.586 401.234 7.034C400.922 6.482 400.514 6.074 400.01 5.81C399.506 5.534 398.96 5.396 398.372 5.396C397.772 5.396 397.22 5.534 396.716 5.81C396.224 6.074 395.828 6.482 395.528 7.034C395.228 7.586 395.078 8.258 395.078 9.05C395.078 9.854 395.222 10.532 395.51 11.084C395.81 11.636 396.206 12.05 396.698 12.326C397.19 12.59 397.73 12.722 398.318 12.722ZM415.268 4.136V14H413.63V12.542C413.318 13.046 412.88 13.442 412.316 13.73C411.764 14.006 411.152 14.144 410.48 14.144C409.712 14.144 409.022 13.988 408.41 13.676C407.798 13.352 407.312 12.872 406.952 12.236C406.604 11.6 406.43 10.826 406.43 9.914V4.136H408.05V9.698C408.05 10.67 408.296 11.42 408.788 11.948C409.28 12.464 409.952 12.722 410.804 12.722C411.68 12.722 412.37 12.452 412.874 11.912C413.378 11.372 413.63 10.586 413.63 9.554V4.136H415.268ZM420.661 5.738C420.949 5.174 421.357 4.736 421.885 4.424C422.425 4.112 423.079 3.956 423.847 3.956V5.648H423.415C421.579 5.648 420.661 6.644 420.661 8.636V14H419.023V4.136H420.661V5.738ZM434.515 5.486V11.3C434.515 11.78 434.617 12.122 434.821 12.326C435.025 12.518 435.379 12.614 435.883 12.614H437.089V14H435.613C434.701 14 434.017 13.79 433.561 13.37C433.105 12.95 432.877 12.26 432.877 11.3V5.486H431.599V4.136H432.877V1.652H434.515V4.136H437.089V5.486H434.515ZM439.452 9.032C439.452 8.024 439.656 7.142 440.064 6.386C440.472 5.618 441.03 5.024 441.738 4.604C442.458 4.184 443.256 3.974 444.132 3.974C444.996 3.974 445.746 4.16 446.382 4.532C447.018 4.904 447.492 5.372 447.804 5.936V4.136H449.46V14H447.804V12.164C447.48 12.74 446.994 13.22 446.346 13.604C445.71 13.976 444.966 14.162 444.114 14.162C443.238 14.162 442.446 13.946 441.738 13.514C441.03 13.082 440.472 12.476 440.064 11.696C439.656 10.916 439.452 10.028 439.452 9.032ZM447.804 9.05C447.804 8.306 447.654 7.658 447.354 7.106C447.054 6.554 446.646 6.134 446.13 5.846C445.626 5.546 445.068 5.396 444.456 5.396C443.844 5.396 443.286 5.54 442.782 5.828C442.278 6.116 441.876 6.536 441.576 7.088C441.276 7.64 441.126 8.288 441.126 9.032C441.126 9.788 441.276 10.448 441.576 11.012C441.876 11.564 442.278 11.99 442.782 12.29C443.286 12.578 443.844 12.722 444.456 12.722C445.068 12.722 445.626 12.578 446.13 12.29C446.646 11.99 447.054 11.564 447.354 11.012C447.654 10.448 447.804 9.794 447.804 9.05ZM454.856 0.68V14H453.218V0.68H454.856ZM467.637 8.69C467.637 9.002 467.619 9.332 467.583 9.68H459.699C459.759 10.652 460.089 11.414 460.689 11.966C461.301 12.506 462.039 12.776 462.903 12.776C463.611 12.776 464.199 12.614 464.667 12.29C465.147 11.954 465.483 11.51 465.675 10.958H467.439C467.175 11.906 466.647 12.68 465.855 13.28C465.063 13.868 464.079 14.162 462.903 14.162C461.967 14.162 461.127 13.952 460.383 13.532C459.651 13.112 459.075 12.518 458.655 11.75C458.235 10.97 458.025 10.07 458.025 9.05C458.025 8.03 458.229 7.136 458.637 6.368C459.045 5.6 459.615 5.012 460.347 4.604C461.091 4.184 461.943 3.974 462.903 3.974C463.839 3.974 464.667 4.178 465.387 4.586C466.107 4.994 466.659 5.558 467.043 6.278C467.439 6.986 467.637 7.79 467.637 8.69ZM465.945 8.348C465.945 7.724 465.807 7.19 465.531 6.746C465.255 6.29 464.877 5.948 464.397 5.72C463.929 5.48 463.407 5.36 462.831 5.36C462.003 5.36 461.295 5.624 460.707 6.152C460.131 6.68 459.801 7.412 459.717 8.348H465.945ZM475.596 3.956C476.796 3.956 477.768 4.322 478.512 5.054C479.256 5.774 479.628 6.818 479.628 8.186V14H478.008V8.42C478.008 7.436 477.762 6.686 477.27 6.17C476.778 5.642 476.106 5.378 475.254 5.378C474.39 5.378 473.7 5.648 473.184 6.188C472.68 6.728 472.428 7.514 472.428 8.546V14H470.79V4.136H472.428V5.54C472.752 5.036 473.19 4.646 473.742 4.37C474.306 4.094 474.924 3.956 475.596 3.956ZM485.291 5.486V11.3C485.291 11.78 485.393 12.122 485.597 12.326C485.801 12.518 486.155 12.614 486.659 12.614H487.865V14H486.389C485.477 14 484.793 13.79 484.337 13.37C483.881 12.95 483.653 12.26 483.653 11.3V5.486H482.375V4.136H483.653V1.652H485.291V4.136H487.865V5.486H485.291ZM498.627 5.486V11.3C498.627 11.78 498.729 12.122 498.933 12.326C499.137 12.518 499.491 12.614 499.995 12.614H501.201V14H499.725C498.813 14 498.129 13.79 497.673 13.37C497.217 12.95 496.989 12.26 496.989 11.3V5.486H495.711V4.136H496.989V1.652H498.627V4.136H501.201V5.486H498.627ZM508.477 14.162C507.553 14.162 506.713 13.952 505.957 13.532C505.213 13.112 504.625 12.518 504.193 11.75C503.773 10.97 503.563 10.07 503.563 9.05C503.563 8.042 503.779 7.154 504.211 6.386C504.655 5.606 505.255 5.012 506.011 4.604C506.767 4.184 507.613 3.974 508.549 3.974C509.485 3.974 510.331 4.184 511.087 4.604C511.843 5.012 512.437 5.6 512.869 6.368C513.313 7.136 513.535 8.03 513.535 9.05C513.535 10.07 513.307 10.97 512.851 11.75C512.407 12.518 511.801 13.112 511.033 13.532C510.265 13.952 509.413 14.162 508.477 14.162ZM508.477 12.722C509.065 12.722 509.617 12.584 510.133 12.308C510.649 12.032 511.063 11.618 511.375 11.066C511.699 10.514 511.861 9.842 511.861 9.05C511.861 8.258 511.705 7.586 511.393 7.034C511.081 6.482 510.673 6.074 510.169 5.81C509.665 5.534 509.119 5.396 508.531 5.396C507.931 5.396 507.379 5.534 506.875 5.81C506.383 6.074 505.987 6.482 505.687 7.034C505.387 7.586 505.237 8.258 505.237 9.05C505.237 9.854 505.381 10.532 505.669 11.084C505.969 11.636 506.365 12.05 506.857 12.326C507.349 12.59 507.889 12.722 508.477 12.722ZM524.466 5.486V11.3C524.466 11.78 524.568 12.122 524.772 12.326C524.976 12.518 525.33 12.614 525.834 12.614H527.04V14H525.564C524.652 14 523.968 13.79 523.512 13.37C523.056 12.95 522.828 12.26 522.828 11.3V5.486H521.55V4.136H522.828V1.652H524.466V4.136H527.04V5.486H524.466ZM534.911 3.956C535.655 3.956 536.327 4.118 536.927 4.442C537.527 4.754 537.995 5.228 538.331 5.864C538.679 6.5 538.853 7.274 538.853 8.186V14H537.233V8.42C537.233 7.436 536.987 6.686 536.495 6.17C536.003 5.642 535.331 5.378 534.479 5.378C533.615 5.378 532.925 5.648 532.409 6.188C531.905 6.728 531.653 7.514 531.653 8.546V14H530.015V0.68H531.653V5.54C531.977 5.036 532.421 4.646 532.985 4.37C533.561 4.094 534.203 3.956 534.911 3.956ZM551.518 8.69C551.518 9.002 551.5 9.332 551.464 9.68H543.58C543.64 10.652 543.97 11.414 544.57 11.966C545.182 12.506 545.92 12.776 546.784 12.776C547.492 12.776 548.08 12.614 548.548 12.29C549.028 11.954 549.364 11.51 549.556 10.958H551.32C551.056 11.906 550.528 12.68 549.736 13.28C548.944 13.868 547.96 14.162 546.784 14.162C545.848 14.162 545.008 13.952 544.264 13.532C543.532 13.112 542.956 12.518 542.536 11.75C542.116 10.97 541.906 10.07 541.906 9.05C541.906 8.03 542.11 7.136 542.518 6.368C542.926 5.6 543.496 5.012 544.228 4.604C544.972 4.184 545.824 3.974 546.784 3.974C547.72 3.974 548.548 4.178 549.268 4.586C549.988 4.994 550.54 5.558 550.924 6.278C551.32 6.986 551.518 7.79 551.518 8.69ZM549.826 8.348C549.826 7.724 549.688 7.19 549.412 6.746C549.136 6.29 548.758 5.948 548.278 5.72C547.81 5.48 547.288 5.36 546.712 5.36C545.884 5.36 545.176 5.624 544.588 6.152C544.012 6.68 543.682 7.412 543.598 8.348H549.826ZM562.097 5.738C562.385 5.174 562.793 4.736 563.321 4.424C563.861 4.112 564.515 3.956 565.283 3.956V5.648H564.851C563.015 5.648 562.097 6.644 562.097 8.636V14H560.459V4.136H562.097V5.738ZM569.01 2.534C568.698 2.534 568.434 2.426 568.218 2.21C568.002 1.994 567.894 1.73 567.894 1.418C567.894 1.106 568.002 0.842 568.218 0.625999C568.434 0.409999 568.698 0.301999 569.01 0.301999C569.31 0.301999 569.562 0.409999 569.766 0.625999C569.982 0.842 570.09 1.106 570.09 1.418C570.09 1.73 569.982 1.994 569.766 2.21C569.562 2.426 569.31 2.534 569.01 2.534ZM569.802 4.136V14H568.164V4.136H569.802ZM577.652 3.974C578.504 3.974 579.248 4.16 579.884 4.532C580.532 4.904 581.012 5.372 581.324 5.936V4.136H582.98V14.216C582.98 15.116 582.788 15.914 582.404 16.61C582.02 17.318 581.468 17.87 580.748 18.266C580.04 18.662 579.212 18.86 578.264 18.86C576.968 18.86 575.888 18.554 575.024 17.942C574.16 17.33 573.65 16.496 573.494 15.44H575.114C575.294 16.04 575.666 16.52 576.23 16.88C576.794 17.252 577.472 17.438 578.264 17.438C579.164 17.438 579.896 17.156 580.46 16.592C581.036 16.028 581.324 15.236 581.324 14.216V12.146C581 12.722 580.52 13.202 579.884 13.586C579.248 13.97 578.504 14.162 577.652 14.162C576.776 14.162 575.978 13.946 575.258 13.514C574.55 13.082 573.992 12.476 573.584 11.696C573.176 10.916 572.972 10.028 572.972 9.032C572.972 8.024 573.176 7.142 573.584 6.386C573.992 5.618 574.55 5.024 575.258 4.604C575.978 4.184 576.776 3.974 577.652 3.974ZM581.324 9.05C581.324 8.306 581.174 7.658 580.874 7.106C580.574 6.554 580.166 6.134 579.65 5.846C579.146 5.546 578.588 5.396 577.976 5.396C577.364 5.396 576.806 5.54 576.302 5.828C575.798 6.116 575.396 6.536 575.096 7.088C574.796 7.64 574.646 8.288 574.646 9.032C574.646 9.788 574.796 10.448 575.096 11.012C575.396 11.564 575.798 11.99 576.302 12.29C576.806 12.578 577.364 12.722 577.976 12.722C578.588 12.722 579.146 12.578 579.65 12.29C580.166 11.99 580.574 11.564 580.874 11.012C581.174 10.448 581.324 9.794 581.324 9.05ZM591.634 3.956C592.378 3.956 593.05 4.118 593.65 4.442C594.25 4.754 594.718 5.228 595.054 5.864C595.402 6.5 595.576 7.274 595.576 8.186V14H593.956V8.42C593.956 7.436 593.71 6.686 593.218 6.17C592.726 5.642 592.054 5.378 591.202 5.378C590.338 5.378 589.648 5.648 589.132 6.188C588.628 6.728 588.376 7.514 588.376 8.546V14H586.738V0.68H588.376V5.54C588.7 5.036 589.144 4.646 589.708 4.37C590.284 4.094 590.926 3.956 591.634 3.956ZM601.239 5.486V11.3C601.239 11.78 601.341 12.122 601.545 12.326C601.749 12.518 602.103 12.614 602.607 12.614H603.813V14H602.337C601.425 14 600.741 13.79 600.285 13.37C599.829 12.95 599.601 12.26 599.601 11.3V5.486H598.323V4.136H599.601V1.652H601.239V4.136H603.813V5.486H601.239ZM611.965 9.032C611.965 8.024 612.169 7.142 612.577 6.386C612.985 5.618 613.543 5.024 614.251 4.604C614.971 4.184 615.769 3.974 616.645 3.974C617.509 3.974 618.259 4.16 618.895 4.532C619.531 4.904 620.005 5.372 620.317 5.936V4.136H621.973V14H620.317V12.164C619.993 12.74 619.507 13.22 618.859 13.604C618.223 13.976 617.479 14.162 616.627 14.162C615.751 14.162 614.959 13.946 614.251 13.514C613.543 13.082 612.985 12.476 612.577 11.696C612.169 10.916 611.965 10.028 611.965 9.032ZM620.317 9.05C620.317 8.306 620.167 7.658 619.867 7.106C619.567 6.554 619.159 6.134 618.643 5.846C618.139 5.546 617.581 5.396 616.969 5.396C616.357 5.396 615.799 5.54 615.295 5.828C614.791 6.116 614.389 6.536 614.089 7.088C613.789 7.64 613.639 8.288 613.639 9.032C613.639 9.788 613.789 10.448 614.089 11.012C614.389 11.564 614.791 11.99 615.295 12.29C615.799 12.578 616.357 12.722 616.969 12.722C617.581 12.722 618.139 12.578 618.643 12.29C619.159 11.99 619.567 11.564 619.867 11.012C620.167 10.448 620.317 9.794 620.317 9.05ZM634.479 4.136V14H632.841V12.542C632.529 13.046 632.091 13.442 631.527 13.73C630.975 14.006 630.363 14.144 629.691 14.144C628.923 14.144 628.233 13.988 627.621 13.676C627.009 13.352 626.523 12.872 626.163 12.236C625.815 11.6 625.641 10.826 625.641 9.914V4.136H627.261V9.698C627.261 10.67 627.507 11.42 627.999 11.948C628.491 12.464 629.163 12.722 630.015 12.722C630.891 12.722 631.581 12.452 632.085 11.912C632.589 11.372 632.841 10.586 632.841 9.554V4.136H634.479ZM637.623 9.032C637.623 8.024 637.827 7.142 638.235 6.386C638.643 5.618 639.201 5.024 639.909 4.604C640.629 4.184 641.433 3.974 642.321 3.974C643.089 3.974 643.803 4.154 644.463 4.514C645.123 4.862 645.627 5.324 645.975 5.9V0.68H647.631V14H645.975V12.146C645.651 12.734 645.171 13.22 644.535 13.604C643.899 13.976 643.155 14.162 642.303 14.162C641.427 14.162 640.629 13.946 639.909 13.514C639.201 13.082 638.643 12.476 638.235 11.696C637.827 10.916 637.623 10.028 637.623 9.032ZM645.975 9.05C645.975 8.306 645.825 7.658 645.525 7.106C645.225 6.554 644.817 6.134 644.301 5.846C643.797 5.546 643.239 5.396 642.627 5.396C642.015 5.396 641.457 5.54 640.953 5.828C640.449 6.116 640.047 6.536 639.747 7.088C639.447 7.64 639.297 8.288 639.297 9.032C639.297 9.788 639.447 10.448 639.747 11.012C640.047 11.564 640.449 11.99 640.953 12.29C641.457 12.578 642.015 12.722 642.627 12.722C643.239 12.722 643.797 12.578 644.301 12.29C644.817 11.99 645.225 11.564 645.525 11.012C645.825 10.448 645.975 9.794 645.975 9.05ZM652.235 2.534C651.923 2.534 651.659 2.426 651.443 2.21C651.227 1.994 651.119 1.73 651.119 1.418C651.119 1.106 651.227 0.842 651.443 0.625999C651.659 0.409999 651.923 0.301999 652.235 0.301999C652.535 0.301999 652.787 0.409999 652.991 0.625999C653.207 0.842 653.315 1.106 653.315 1.418C653.315 1.73 653.207 1.994 652.991 2.21C652.787 2.426 652.535 2.534 652.235 2.534ZM653.027 4.136V14H651.389V4.136H653.027ZM665.808 8.69C665.808 9.002 665.79 9.332 665.754 9.68H657.87C657.93 10.652 658.26 11.414 658.86 11.966C659.472 12.506 660.21 12.776 661.074 12.776C661.782 12.776 662.37 12.614 662.838 12.29C663.318 11.954 663.654 11.51 663.846 10.958H665.61C665.346 11.906 664.818 12.68 664.026 13.28C663.234 13.868 662.25 14.162 661.074 14.162C660.138 14.162 659.298 13.952 658.554 13.532C657.822 13.112 657.246 12.518 656.826 11.75C656.406 10.97 656.196 10.07 656.196 9.05C656.196 8.03 656.4 7.136 656.808 6.368C657.216 5.6 657.786 5.012 658.518 4.604C659.262 4.184 660.114 3.974 661.074 3.974C662.01 3.974 662.838 4.178 663.558 4.586C664.278 4.994 664.83 5.558 665.214 6.278C665.61 6.986 665.808 7.79 665.808 8.69ZM664.116 8.348C664.116 7.724 663.978 7.19 663.702 6.746C663.426 6.29 663.048 5.948 662.568 5.72C662.1 5.48 661.578 5.36 661.002 5.36C660.174 5.36 659.466 5.624 658.878 6.152C658.302 6.68 657.972 7.412 657.888 8.348H664.116ZM673.766 3.956C674.966 3.956 675.938 4.322 676.682 5.054C677.426 5.774 677.798 6.818 677.798 8.186V14H676.178V8.42C676.178 7.436 675.932 6.686 675.44 6.17C674.948 5.642 674.276 5.378 673.424 5.378C672.56 5.378 671.87 5.648 671.354 6.188C670.85 6.728 670.598 7.514 670.598 8.546V14H668.96V4.136H670.598V5.54C670.922 5.036 671.36 4.646 671.912 4.37C672.476 4.094 673.094 3.956 673.766 3.956ZM680.852 9.05C680.852 8.03 681.056 7.142 681.464 6.386C681.872 5.618 682.436 5.024 683.156 4.604C683.888 4.184 684.722 3.974 685.658 3.974C686.87 3.974 687.866 4.268 688.646 4.856C689.438 5.444 689.96 6.26 690.212 7.304H688.448C688.28 6.704 687.95 6.23 687.458 5.882C686.978 5.534 686.378 5.36 685.658 5.36C684.722 5.36 683.966 5.684 683.39 6.332C682.814 6.968 682.526 7.874 682.526 9.05C682.526 10.238 682.814 11.156 683.39 11.804C683.966 12.452 684.722 12.776 685.658 12.776C686.378 12.776 686.978 12.608 687.458 12.272C687.938 11.936 688.268 11.456 688.448 10.832H690.212C689.948 11.84 689.42 12.65 688.628 13.262C687.836 13.862 686.846 14.162 685.658 14.162C684.722 14.162 683.888 13.952 683.156 13.532C682.436 13.112 681.872 12.518 681.464 11.75C681.056 10.982 680.852 10.082 680.852 9.05ZM702.388 8.69C702.388 9.002 702.37 9.332 702.334 9.68H694.45C694.51 10.652 694.84 11.414 695.44 11.966C696.052 12.506 696.79 12.776 697.654 12.776C698.362 12.776 698.95 12.614 699.418 12.29C699.898 11.954 700.234 11.51 700.426 10.958H702.19C701.926 11.906 701.398 12.68 700.606 13.28C699.814 13.868 698.83 14.162 697.654 14.162C696.718 14.162 695.878 13.952 695.134 13.532C694.402 13.112 693.826 12.518 693.406 11.75C692.986 10.97 692.776 10.07 692.776 9.05C692.776 8.03 692.98 7.136 693.388 6.368C693.796 5.6 694.366 5.012 695.098 4.604C695.842 4.184 696.694 3.974 697.654 3.974C698.59 3.974 699.418 4.178 700.138 4.586C700.858 4.994 701.41 5.558 701.794 6.278C702.19 6.986 702.388 7.79 702.388 8.69ZM700.696 8.348C700.696 7.724 700.558 7.19 700.282 6.746C700.006 6.29 699.628 5.948 699.148 5.72C698.68 5.48 698.158 5.36 697.582 5.36C696.754 5.36 696.046 5.624 695.458 6.152C694.882 6.68 694.552 7.412 694.468 8.348H700.696ZM5.42408 43.162C4.50008 43.162 3.66008 42.952 2.90408 42.532C2.16008 42.112 1.57208 41.518 1.14008 40.75C0.720084 39.97 0.510084 39.07 0.510084 38.05C0.510084 37.042 0.726084 36.154 1.15808 35.386C1.60208 34.606 2.20208 34.012 2.95808 33.604C3.71408 33.184 4.56008 32.974 5.49608 32.974C6.43208 32.974 7.27808 33.184 8.03408 33.604C8.79008 34.012 9.38408 34.6 9.81608 35.368C10.2601 36.136 10.4821 37.03 10.4821 38.05C10.4821 39.07 10.2541 39.97 9.79808 40.75C9.35408 41.518 8.74808 42.112 7.98008 42.532C7.21208 42.952 6.36008 43.162 5.42408 43.162ZM5.42408 41.722C6.01208 41.722 6.56408 41.584 7.08008 41.308C7.59608 41.032 8.01008 40.618 8.32208 40.066C8.64608 39.514 8.80808 38.842 8.80808 38.05C8.80808 37.258 8.65208 36.586 8.34008 36.034C8.02808 35.482 7.62008 35.074 7.11608 34.81C6.61208 34.534 6.06608 34.396 5.47808 34.396C4.87808 34.396 4.32608 34.534 3.82208 34.81C3.33008 35.074 2.93408 35.482 2.63408 36.034C2.33408 36.586 2.18408 37.258 2.18408 38.05C2.18408 38.854 2.32808 39.532 2.61608 40.084C2.91608 40.636 3.31208 41.05 3.80408 41.326C4.29608 41.59 4.83608 41.722 5.42408 41.722ZM15.2638 34.738C15.5518 34.174 15.9598 33.736 16.4878 33.424C17.0278 33.112 17.6818 32.956 18.4498 32.956V34.648H18.0178C16.1818 34.648 15.2638 35.644 15.2638 37.636V43H13.6258V33.136H15.2638V34.738ZM28.7574 34.954C29.0814 34.39 29.5614 33.922 30.1974 33.55C30.8454 33.166 31.5954 32.974 32.4474 32.974C33.3234 32.974 34.1154 33.184 34.8234 33.604C35.5434 34.024 36.1074 34.618 36.5154 35.386C36.9234 36.142 37.1274 37.024 37.1274 38.032C37.1274 39.028 36.9234 39.916 36.5154 40.696C36.1074 41.476 35.5434 42.082 34.8234 42.514C34.1154 42.946 33.3234 43.162 32.4474 43.162C31.6074 43.162 30.8634 42.976 30.2154 42.604C29.5794 42.22 29.0934 41.746 28.7574 41.182V47.68H27.1194V33.136H28.7574V34.954ZM35.4534 38.032C35.4534 37.288 35.3034 36.64 35.0034 36.088C34.7034 35.536 34.2954 35.116 33.7794 34.828C33.2754 34.54 32.7174 34.396 32.1054 34.396C31.5054 34.396 30.9474 34.546 30.4314 34.846C29.9274 35.134 29.5194 35.56 29.2074 36.124C28.9074 36.676 28.7574 37.318 28.7574 38.05C28.7574 38.794 28.9074 39.448 29.2074 40.012C29.5194 40.564 29.9274 40.99 30.4314 41.29C30.9474 41.578 31.5054 41.722 32.1054 41.722C32.7174 41.722 33.2754 41.578 33.7794 41.29C34.2954 40.99 34.7034 40.564 35.0034 40.012C35.3034 39.448 35.4534 38.788 35.4534 38.032ZM49.2735 37.69C49.2735 38.002 49.2555 38.332 49.2195 38.68H41.3355C41.3955 39.652 41.7255 40.414 42.3255 40.966C42.9375 41.506 43.6755 41.776 44.5395 41.776C45.2475 41.776 45.8355 41.614 46.3035 41.29C46.7835 40.954 47.1195 40.51 47.3115 39.958H49.0755C48.8115 40.906 48.2835 41.68 47.4915 42.28C46.6995 42.868 45.7155 43.162 44.5395 43.162C43.6035 43.162 42.7635 42.952 42.0195 42.532C41.2875 42.112 40.7115 41.518 40.2915 40.75C39.8715 39.97 39.6615 39.07 39.6615 38.05C39.6615 37.03 39.8655 36.136 40.2735 35.368C40.6815 34.6 41.2515 34.012 41.9835 33.604C42.7275 33.184 43.5795 32.974 44.5395 32.974C45.4755 32.974 46.3035 33.178 47.0235 33.586C47.7435 33.994 48.2955 34.558 48.6795 35.278C49.0755 35.986 49.2735 36.79 49.2735 37.69ZM47.5815 37.348C47.5815 36.724 47.4435 36.19 47.1675 35.746C46.8915 35.29 46.5135 34.948 46.0335 34.72C45.5655 34.48 45.0435 34.36 44.4675 34.36C43.6395 34.36 42.9315 34.624 42.3435 35.152C41.7675 35.68 41.4375 36.412 41.3535 37.348H47.5815ZM54.0636 34.738C54.3516 34.174 54.7596 33.736 55.2876 33.424C55.8276 33.112 56.4816 32.956 57.2496 32.956V34.648H56.8176C54.9816 34.648 54.0636 35.644 54.0636 37.636V43H52.4256V33.136H54.0636V34.738ZM65.0264 32.956C65.7704 32.956 66.4424 33.118 67.0424 33.442C67.6424 33.754 68.1104 34.228 68.4464 34.864C68.7944 35.5 68.9684 36.274 68.9684 37.186V43H67.3484V37.42C67.3484 36.436 67.1024 35.686 66.6104 35.17C66.1184 34.642 65.4464 34.378 64.5944 34.378C63.7304 34.378 63.0404 34.648 62.5244 35.188C62.0204 35.728 61.7684 36.514 61.7684 37.546V43H60.1304V29.68H61.7684V34.54C62.0924 34.036 62.5364 33.646 63.1004 33.37C63.6764 33.094 64.3184 32.956 65.0264 32.956ZM72.0221 38.032C72.0221 37.024 72.2261 36.142 72.6341 35.386C73.0421 34.618 73.6001 34.024 74.3081 33.604C75.0281 33.184 75.8261 32.974 76.7021 32.974C77.5661 32.974 78.3161 33.16 78.9521 33.532C79.5881 33.904 80.0621 34.372 80.3741 34.936V33.136H82.0301V43H80.3741V41.164C80.0501 41.74 79.5641 42.22 78.9161 42.604C78.2801 42.976 77.5361 43.162 76.6841 43.162C75.8081 43.162 75.0161 42.946 74.3081 42.514C73.6001 42.082 73.0421 41.476 72.6341 40.696C72.2261 39.916 72.0221 39.028 72.0221 38.032ZM80.3741 38.05C80.3741 37.306 80.2241 36.658 79.9241 36.106C79.6241 35.554 79.2161 35.134 78.7001 34.846C78.1961 34.546 77.6381 34.396 77.0261 34.396C76.4141 34.396 75.8561 34.54 75.3521 34.828C74.8481 35.116 74.4461 35.536 74.1461 36.088C73.8461 36.64 73.6961 37.288 73.6961 38.032C73.6961 38.788 73.8461 39.448 74.1461 40.012C74.4461 40.564 74.8481 40.99 75.3521 41.29C75.8561 41.578 76.4141 41.722 77.0261 41.722C77.6381 41.722 78.1961 41.578 78.7001 41.29C79.2161 40.99 79.6241 40.564 79.9241 40.012C80.2241 39.448 80.3741 38.794 80.3741 38.05ZM87.4262 34.954C87.7502 34.39 88.2302 33.922 88.8662 33.55C89.5142 33.166 90.2642 32.974 91.1162 32.974C91.9922 32.974 92.7842 33.184 93.4922 33.604C94.2122 34.024 94.7762 34.618 95.1842 35.386C95.5922 36.142 95.7962 37.024 95.7962 38.032C95.7962 39.028 95.5922 39.916 95.1842 40.696C94.7762 41.476 94.2122 42.082 93.4922 42.514C92.7842 42.946 91.9922 43.162 91.1162 43.162C90.2762 43.162 89.5322 42.976 88.8842 42.604C88.2482 42.22 87.7622 41.746 87.4262 41.182V47.68H85.7882V33.136H87.4262V34.954ZM94.1222 38.032C94.1222 37.288 93.9722 36.64 93.6722 36.088C93.3722 35.536 92.9642 35.116 92.4482 34.828C91.9442 34.54 91.3862 34.396 90.7742 34.396C90.1742 34.396 89.6162 34.546 89.1002 34.846C88.5962 35.134 88.1882 35.56 87.8762 36.124C87.5762 36.676 87.4262 37.318 87.4262 38.05C87.4262 38.794 87.5762 39.448 87.8762 40.012C88.1882 40.564 88.5962 40.99 89.1002 41.29C89.6162 41.578 90.1742 41.722 90.7742 41.722C91.3862 41.722 91.9442 41.578 92.4482 41.29C92.9642 40.99 93.3722 40.564 93.6722 40.012C93.9722 39.448 94.1222 38.788 94.1222 38.032ZM102.434 43.162C101.678 43.162 101 43.036 100.4 42.784C99.8002 42.52 99.3262 42.16 98.9782 41.704C98.6302 41.236 98.4382 40.702 98.4022 40.102H100.094C100.142 40.594 100.37 40.996 100.778 41.308C101.198 41.62 101.744 41.776 102.416 41.776C103.04 41.776 103.532 41.638 103.892 41.362C104.252 41.086 104.432 40.738 104.432 40.318C104.432 39.886 104.24 39.568 103.856 39.364C103.472 39.148 102.878 38.938 102.074 38.734C101.342 38.542 100.742 38.35 100.274 38.158C99.8182 37.954 99.4222 37.66 99.0862 37.276C98.7622 36.88 98.6002 36.364 98.6002 35.728C98.6002 35.224 98.7502 34.762 99.0502 34.342C99.3502 33.922 99.7762 33.592 100.328 33.352C100.88 33.1 101.51 32.974 102.218 32.974C103.31 32.974 104.192 33.25 104.864 33.802C105.536 34.354 105.896 35.11 105.944 36.07H104.306C104.27 35.554 104.06 35.14 103.676 34.828C103.304 34.516 102.8 34.36 102.164 34.36C101.576 34.36 101.108 34.486 100.76 34.738C100.412 34.99 100.238 35.32 100.238 35.728C100.238 36.052 100.34 36.322 100.544 36.538C100.76 36.742 101.024 36.91 101.336 37.042C101.66 37.162 102.104 37.3 102.668 37.456C103.376 37.648 103.952 37.84 104.396 38.032C104.84 38.212 105.218 38.488 105.53 38.86C105.854 39.232 106.022 39.718 106.034 40.318C106.034 40.858 105.884 41.344 105.584 41.776C105.284 42.208 104.858 42.55 104.306 42.802C103.766 43.042 103.142 43.162 102.434 43.162ZM123.621 33.136L117.681 47.644H115.989L117.933 42.892L113.955 33.136H115.773L118.869 41.128L121.929 33.136H123.621ZM130.56 43.162C129.636 43.162 128.796 42.952 128.04 42.532C127.296 42.112 126.708 41.518 126.276 40.75C125.856 39.97 125.646 39.07 125.646 38.05C125.646 37.042 125.862 36.154 126.294 35.386C126.738 34.606 127.338 34.012 128.094 33.604C128.85 33.184 129.696 32.974 130.632 32.974C131.568 32.974 132.414 33.184 133.17 33.604C133.926 34.012 134.52 34.6 134.952 35.368C135.396 36.136 135.618 37.03 135.618 38.05C135.618 39.07 135.39 39.97 134.934 40.75C134.49 41.518 133.884 42.112 133.116 42.532C132.348 42.952 131.496 43.162 130.56 43.162ZM130.56 41.722C131.148 41.722 131.7 41.584 132.216 41.308C132.732 41.032 133.146 40.618 133.458 40.066C133.782 39.514 133.944 38.842 133.944 38.05C133.944 37.258 133.788 36.586 133.476 36.034C133.164 35.482 132.756 35.074 132.252 34.81C131.748 34.534 131.202 34.396 130.614 34.396C130.014 34.396 129.462 34.534 128.958 34.81C128.466 35.074 128.07 35.482 127.77 36.034C127.47 36.586 127.32 37.258 127.32 38.05C127.32 38.854 127.464 39.532 127.752 40.084C128.052 40.636 128.448 41.05 128.94 41.326C129.432 41.59 129.972 41.722 130.56 41.722ZM147.51 33.136V43H145.872V41.542C145.56 42.046 145.122 42.442 144.558 42.73C144.006 43.006 143.394 43.144 142.722 43.144C141.954 43.144 141.264 42.988 140.652 42.676C140.04 42.352 139.554 41.872 139.194 41.236C138.846 40.6 138.672 39.826 138.672 38.914V33.136H140.292V38.698C140.292 39.67 140.538 40.42 141.03 40.948C141.522 41.464 142.194 41.722 143.046 41.722C143.922 41.722 144.612 41.452 145.116 40.912C145.62 40.372 145.872 39.586 145.872 38.554V33.136H147.51ZM151.517 30.454H153.335L151.607 34.54H150.455L151.517 30.454ZM157.831 34.738C158.119 34.174 158.527 33.736 159.055 33.424C159.595 33.112 160.249 32.956 161.017 32.956V34.648H160.585C158.749 34.648 157.831 35.644 157.831 37.636V43H156.193V33.136H157.831V34.738ZM172.898 37.69C172.898 38.002 172.88 38.332 172.844 38.68H164.96C165.02 39.652 165.35 40.414 165.95 40.966C166.562 41.506 167.3 41.776 168.164 41.776C168.872 41.776 169.46 41.614 169.928 41.29C170.408 40.954 170.744 40.51 170.936 39.958H172.7C172.436 40.906 171.908 41.68 171.116 42.28C170.324 42.868 169.34 43.162 168.164 43.162C167.228 43.162 166.388 42.952 165.644 42.532C164.912 42.112 164.336 41.518 163.916 40.75C163.496 39.97 163.286 39.07 163.286 38.05C163.286 37.03 163.49 36.136 163.898 35.368C164.306 34.6 164.876 34.012 165.608 33.604C166.352 33.184 167.204 32.974 168.164 32.974C169.1 32.974 169.928 33.178 170.648 33.586C171.368 33.994 171.92 34.558 172.304 35.278C172.7 35.986 172.898 36.79 172.898 37.69ZM171.206 37.348C171.206 36.724 171.068 36.19 170.792 35.746C170.516 35.29 170.138 34.948 169.658 34.72C169.19 34.48 168.668 34.36 168.092 34.36C167.264 34.36 166.556 34.624 165.968 35.152C165.392 35.68 165.062 36.412 164.978 37.348H171.206ZM181.227 38.032C181.227 37.024 181.431 36.142 181.839 35.386C182.247 34.618 182.805 34.024 183.513 33.604C184.233 33.184 185.031 32.974 185.907 32.974C186.771 32.974 187.521 33.16 188.157 33.532C188.793 33.904 189.267 34.372 189.579 34.936V33.136H191.235V43H189.579V41.164C189.255 41.74 188.769 42.22 188.121 42.604C187.485 42.976 186.741 43.162 185.889 43.162C185.013 43.162 184.221 42.946 183.513 42.514C182.805 42.082 182.247 41.476 181.839 40.696C181.431 39.916 181.227 39.028 181.227 38.032ZM189.579 38.05C189.579 37.306 189.429 36.658 189.129 36.106C188.829 35.554 188.421 35.134 187.905 34.846C187.401 34.546 186.843 34.396 186.231 34.396C185.619 34.396 185.061 34.54 184.557 34.828C184.053 35.116 183.651 35.536 183.351 36.088C183.051 36.64 182.901 37.288 182.901 38.032C182.901 38.788 183.051 39.448 183.351 40.012C183.651 40.564 184.053 40.99 184.557 41.29C185.061 41.578 185.619 41.722 186.231 41.722C186.843 41.722 187.401 41.578 187.905 41.29C188.421 40.99 188.829 40.564 189.129 40.012C189.429 39.448 189.579 38.794 189.579 38.05ZM202.419 34.972C202.755 34.384 203.247 33.904 203.895 33.532C204.543 33.16 205.281 32.974 206.109 32.974C206.997 32.974 207.795 33.184 208.503 33.604C209.211 34.024 209.769 34.618 210.177 35.386C210.585 36.142 210.789 37.024 210.789 38.032C210.789 39.028 210.585 39.916 210.177 40.696C209.769 41.476 209.205 42.082 208.485 42.514C207.777 42.946 206.985 43.162 206.109 43.162C205.257 43.162 204.507 42.976 203.859 42.604C203.223 42.232 202.743 41.758 202.419 41.182V43H200.781V29.68H202.419V34.972ZM209.115 38.032C209.115 37.288 208.965 36.64 208.665 36.088C208.365 35.536 207.957 35.116 207.441 34.828C206.937 34.54 206.379 34.396 205.767 34.396C205.167 34.396 204.609 34.546 204.093 34.846C203.589 35.134 203.181 35.56 202.869 36.124C202.569 36.676 202.419 37.318 202.419 38.05C202.419 38.794 202.569 39.448 202.869 40.012C203.181 40.564 203.589 40.99 204.093 41.29C204.609 41.578 205.167 41.722 205.767 41.722C206.379 41.722 206.937 41.578 207.441 41.29C207.957 40.99 208.365 40.564 208.665 40.012C208.965 39.448 209.115 38.788 209.115 38.032ZM222.684 33.136V43H221.046V41.542C220.734 42.046 220.296 42.442 219.732 42.73C219.18 43.006 218.568 43.144 217.896 43.144C217.128 43.144 216.438 42.988 215.826 42.676C215.214 42.352 214.728 41.872 214.368 41.236C214.02 40.6 213.846 39.826 213.846 38.914V33.136H215.466V38.698C215.466 39.67 215.712 40.42 216.204 40.948C216.696 41.464 217.368 41.722 218.22 41.722C219.096 41.722 219.786 41.452 220.29 40.912C220.794 40.372 221.046 39.586 221.046 38.554V33.136H222.684ZM234.935 33.136L228.995 47.644H227.303L229.247 42.892L225.269 33.136H227.087L230.183 41.128L233.243 33.136H234.935ZM246.572 37.69C246.572 38.002 246.554 38.332 246.518 38.68H238.634C238.694 39.652 239.024 40.414 239.624 40.966C240.236 41.506 240.974 41.776 241.838 41.776C242.546 41.776 243.134 41.614 243.602 41.29C244.082 40.954 244.418 40.51 244.61 39.958H246.374C246.11 40.906 245.582 41.68 244.79 42.28C243.998 42.868 243.014 43.162 241.838 43.162C240.902 43.162 240.062 42.952 239.318 42.532C238.586 42.112 238.01 41.518 237.59 40.75C237.17 39.97 236.96 39.07 236.96 38.05C236.96 37.03 237.164 36.136 237.572 35.368C237.98 34.6 238.55 34.012 239.282 33.604C240.026 33.184 240.878 32.974 241.838 32.974C242.774 32.974 243.602 33.178 244.322 33.586C245.042 33.994 245.594 34.558 245.978 35.278C246.374 35.986 246.572 36.79 246.572 37.69ZM244.88 37.348C244.88 36.724 244.742 36.19 244.466 35.746C244.19 35.29 243.812 34.948 243.332 34.72C242.864 34.48 242.342 34.36 241.766 34.36C240.938 34.36 240.23 34.624 239.642 35.152C239.066 35.68 238.736 36.412 238.652 37.348H244.88ZM251.362 34.738C251.65 34.174 252.058 33.736 252.586 33.424C253.126 33.112 253.78 32.956 254.548 32.956V34.648H254.116C252.28 34.648 251.362 35.644 251.362 37.636V43H249.724V33.136H251.362V34.738ZM266.71 43.162C265.954 43.162 265.276 43.036 264.676 42.784C264.076 42.52 263.602 42.16 263.254 41.704C262.906 41.236 262.714 40.702 262.678 40.102H264.37C264.418 40.594 264.646 40.996 265.054 41.308C265.474 41.62 266.02 41.776 266.692 41.776C267.316 41.776 267.808 41.638 268.168 41.362C268.528 41.086 268.708 40.738 268.708 40.318C268.708 39.886 268.516 39.568 268.132 39.364C267.748 39.148 267.154 38.938 266.35 38.734C265.618 38.542 265.018 38.35 264.55 38.158C264.094 37.954 263.698 37.66 263.362 37.276C263.038 36.88 262.876 36.364 262.876 35.728C262.876 35.224 263.026 34.762 263.326 34.342C263.626 33.922 264.052 33.592 264.604 33.352C265.156 33.1 265.786 32.974 266.494 32.974C267.586 32.974 268.468 33.25 269.14 33.802C269.812 34.354 270.172 35.11 270.22 36.07H268.582C268.546 35.554 268.336 35.14 267.952 34.828C267.58 34.516 267.076 34.36 266.44 34.36C265.852 34.36 265.384 34.486 265.036 34.738C264.688 34.99 264.514 35.32 264.514 35.728C264.514 36.052 264.616 36.322 264.82 36.538C265.036 36.742 265.3 36.91 265.612 37.042C265.936 37.162 266.38 37.3 266.944 37.456C267.652 37.648 268.228 37.84 268.672 38.032C269.116 38.212 269.494 38.488 269.806 38.86C270.13 39.232 270.298 39.718 270.31 40.318C270.31 40.858 270.16 41.344 269.86 41.776C269.56 42.208 269.134 42.55 268.582 42.802C268.042 43.042 267.418 43.162 266.71 43.162ZM282.612 37.69C282.612 38.002 282.594 38.332 282.558 38.68H274.674C274.734 39.652 275.064 40.414 275.664 40.966C276.276 41.506 277.014 41.776 277.878 41.776C278.586 41.776 279.174 41.614 279.642 41.29C280.122 40.954 280.458 40.51 280.65 39.958H282.414C282.15 40.906 281.622 41.68 280.83 42.28C280.038 42.868 279.054 43.162 277.878 43.162C276.942 43.162 276.102 42.952 275.358 42.532C274.626 42.112 274.05 41.518 273.63 40.75C273.21 39.97 273 39.07 273 38.05C273 37.03 273.204 36.136 273.612 35.368C274.02 34.6 274.59 34.012 275.322 33.604C276.066 33.184 276.918 32.974 277.878 32.974C278.814 32.974 279.642 33.178 280.362 33.586C281.082 33.994 281.634 34.558 282.018 35.278C282.414 35.986 282.612 36.79 282.612 37.69ZM280.92 37.348C280.92 36.724 280.782 36.19 280.506 35.746C280.23 35.29 279.852 34.948 279.372 34.72C278.904 34.48 278.382 34.36 277.806 34.36C276.978 34.36 276.27 34.624 275.682 35.152C275.106 35.68 274.776 36.412 274.692 37.348H280.92ZM285.152 38.032C285.152 37.024 285.356 36.142 285.764 35.386C286.172 34.618 286.73 34.024 287.438 33.604C288.158 33.184 288.956 32.974 289.832 32.974C290.696 32.974 291.446 33.16 292.082 33.532C292.718 33.904 293.192 34.372 293.504 34.936V33.136H295.16V43H293.504V41.164C293.18 41.74 292.694 42.22 292.046 42.604C291.41 42.976 290.666 43.162 289.814 43.162C288.938 43.162 288.146 42.946 287.438 42.514C286.73 42.082 286.172 41.476 285.764 40.696C285.356 39.916 285.152 39.028 285.152 38.032ZM293.504 38.05C293.504 37.306 293.354 36.658 293.054 36.106C292.754 35.554 292.346 35.134 291.83 34.846C291.326 34.546 290.768 34.396 290.156 34.396C289.544 34.396 288.986 34.54 288.482 34.828C287.978 35.116 287.576 35.536 287.276 36.088C286.976 36.64 286.826 37.288 286.826 38.032C286.826 38.788 286.976 39.448 287.276 40.012C287.576 40.564 287.978 40.99 288.482 41.29C288.986 41.578 289.544 41.722 290.156 41.722C290.768 41.722 291.326 41.578 291.83 41.29C292.346 40.99 292.754 40.564 293.054 40.012C293.354 39.448 293.504 38.794 293.504 38.05ZM300.556 34.738C300.844 34.174 301.252 33.736 301.78 33.424C302.32 33.112 302.974 32.956 303.742 32.956V34.648H303.31C301.474 34.648 300.556 35.644 300.556 37.636V43H298.918V33.136H300.556V34.738ZM306.011 38.05C306.011 37.03 306.215 36.142 306.623 35.386C307.031 34.618 307.595 34.024 308.315 33.604C309.047 33.184 309.881 32.974 310.817 32.974C312.029 32.974 313.025 33.268 313.805 33.856C314.597 34.444 315.119 35.26 315.371 36.304H313.607C313.439 35.704 313.109 35.23 312.617 34.882C312.137 34.534 311.537 34.36 310.817 34.36C309.881 34.36 309.125 34.684 308.549 35.332C307.973 35.968 307.685 36.874 307.685 38.05C307.685 39.238 307.973 40.156 308.549 40.804C309.125 41.452 309.881 41.776 310.817 41.776C311.537 41.776 312.137 41.608 312.617 41.272C313.097 40.936 313.427 40.456 313.607 39.832H315.371C315.107 40.84 314.579 41.65 313.787 42.262C312.995 42.862 312.005 43.162 310.817 43.162C309.881 43.162 309.047 42.952 308.315 42.532C307.595 42.112 307.031 41.518 306.623 40.75C306.215 39.982 306.011 39.082 306.011 38.05ZM323.442 32.956C324.186 32.956 324.858 33.118 325.458 33.442C326.058 33.754 326.526 34.228 326.862 34.864C327.21 35.5 327.384 36.274 327.384 37.186V43H325.764V37.42C325.764 36.436 325.518 35.686 325.026 35.17C324.534 34.642 323.862 34.378 323.01 34.378C322.146 34.378 321.456 34.648 320.94 35.188C320.436 35.728 320.184 36.514 320.184 37.546V43H318.546V29.68H320.184V34.54C320.508 34.036 320.952 33.646 321.516 33.37C322.092 33.094 322.734 32.956 323.442 32.956ZM331.896 31.534C331.584 31.534 331.32 31.426 331.104 31.21C330.888 30.994 330.78 30.73 330.78 30.418C330.78 30.106 330.888 29.842 331.104 29.626C331.32 29.41 331.584 29.302 331.896 29.302C332.196 29.302 332.448 29.41 332.652 29.626C332.868 29.842 332.976 30.106 332.976 30.418C332.976 30.73 332.868 30.994 332.652 31.21C332.448 31.426 332.196 31.534 331.896 31.534ZM332.688 33.136V43H331.05V33.136H332.688ZM341.276 32.956C342.476 32.956 343.448 33.322 344.192 34.054C344.936 34.774 345.308 35.818 345.308 37.186V43H343.688V37.42C343.688 36.436 343.442 35.686 342.95 35.17C342.458 34.642 341.786 34.378 340.934 34.378C340.07 34.378 339.38 34.648 338.864 35.188C338.36 35.728 338.108 36.514 338.108 37.546V43H336.47V33.136H338.108V34.54C338.432 34.036 338.87 33.646 339.422 33.37C339.986 33.094 340.604 32.956 341.276 32.956ZM353.041 32.974C353.893 32.974 354.637 33.16 355.273 33.532C355.921 33.904 356.401 34.372 356.713 34.936V33.136H358.369V43.216C358.369 44.116 358.177 44.914 357.793 45.61C357.409 46.318 356.857 46.87 356.137 47.266C355.429 47.662 354.601 47.86 353.653 47.86C352.357 47.86 351.277 47.554 350.413 46.942C349.549 46.33 349.039 45.496 348.883 44.44H350.503C350.683 45.04 351.055 45.52 351.619 45.88C352.183 46.252 352.861 46.438 353.653 46.438C354.553 46.438 355.285 46.156 355.849 45.592C356.425 45.028 356.713 44.236 356.713 43.216V41.146C356.389 41.722 355.909 42.202 355.273 42.586C354.637 42.97 353.893 43.162 353.041 43.162C352.165 43.162 351.367 42.946 350.647 42.514C349.939 42.082 349.381 41.476 348.973 40.696C348.565 39.916 348.361 39.028 348.361 38.032C348.361 37.024 348.565 36.142 348.973 35.386C349.381 34.618 349.939 34.024 350.647 33.604C351.367 33.184 352.165 32.974 353.041 32.974ZM356.713 38.05C356.713 37.306 356.563 36.658 356.263 36.106C355.963 35.554 355.555 35.134 355.039 34.846C354.535 34.546 353.977 34.396 353.365 34.396C352.753 34.396 352.195 34.54 351.691 34.828C351.187 35.116 350.785 35.536 350.485 36.088C350.185 36.64 350.035 37.288 350.035 38.032C350.035 38.788 350.185 39.448 350.485 40.012C350.785 40.564 351.187 40.99 351.691 41.29C352.195 41.578 352.753 41.722 353.365 41.722C353.977 41.722 354.535 41.578 355.039 41.29C355.555 40.99 355.963 40.564 356.263 40.012C356.563 39.448 356.713 38.794 356.713 38.05ZM371.93 34.486H369.86V43H368.222V34.486H366.944V33.136H368.222V32.434C368.222 31.33 368.504 30.526 369.068 30.022C369.644 29.506 370.562 29.248 371.822 29.248V30.616C371.102 30.616 370.592 30.76 370.292 31.048C370.004 31.324 369.86 31.786 369.86 32.434V33.136H371.93V34.486ZM379.132 43.162C378.208 43.162 377.368 42.952 376.612 42.532C375.868 42.112 375.28 41.518 374.848 40.75C374.428 39.97 374.218 39.07 374.218 38.05C374.218 37.042 374.434 36.154 374.866 35.386C375.31 34.606 375.91 34.012 376.666 33.604C377.422 33.184 378.268 32.974 379.204 32.974C380.14 32.974 380.986 33.184 381.742 33.604C382.498 34.012 383.092 34.6 383.524 35.368C383.968 36.136 384.19 37.03 384.19 38.05C384.19 39.07 383.962 39.97 383.506 40.75C383.062 41.518 382.456 42.112 381.688 42.532C380.92 42.952 380.068 43.162 379.132 43.162ZM379.132 41.722C379.72 41.722 380.272 41.584 380.788 41.308C381.304 41.032 381.718 40.618 382.03 40.066C382.354 39.514 382.516 38.842 382.516 38.05C382.516 37.258 382.36 36.586 382.048 36.034C381.736 35.482 381.328 35.074 380.824 34.81C380.32 34.534 379.774 34.396 379.186 34.396C378.586 34.396 378.034 34.534 377.53 34.81C377.038 35.074 376.642 35.482 376.342 36.034C376.042 36.586 375.892 37.258 375.892 38.05C375.892 38.854 376.036 39.532 376.324 40.084C376.624 40.636 377.02 41.05 377.512 41.326C378.004 41.59 378.544 41.722 379.132 41.722ZM388.972 34.738C389.26 34.174 389.668 33.736 390.196 33.424C390.736 33.112 391.39 32.956 392.158 32.956V34.648H391.726C389.89 34.648 388.972 35.644 388.972 37.636V43H387.334V33.136H388.972V34.738ZM402.826 34.486V40.3C402.826 40.78 402.928 41.122 403.132 41.326C403.336 41.518 403.69 41.614 404.194 41.614H405.4V43H403.924C403.012 43 402.328 42.79 401.872 42.37C401.416 41.95 401.188 41.26 401.188 40.3V34.486H399.91V33.136H401.188V30.652H402.826V33.136H405.4V34.486H402.826ZM413.27 32.956C414.014 32.956 414.686 33.118 415.286 33.442C415.886 33.754 416.354 34.228 416.69 34.864C417.038 35.5 417.212 36.274 417.212 37.186V43H415.592V37.42C415.592 36.436 415.346 35.686 414.854 35.17C414.362 34.642 413.69 34.378 412.838 34.378C411.974 34.378 411.284 34.648 410.768 35.188C410.264 35.728 410.012 36.514 410.012 37.546V43H408.374V29.68H410.012V34.54C410.336 34.036 410.78 33.646 411.344 33.37C411.92 33.094 412.562 32.956 413.27 32.956ZM420.266 38.032C420.266 37.024 420.47 36.142 420.878 35.386C421.286 34.618 421.844 34.024 422.552 33.604C423.272 33.184 424.07 32.974 424.946 32.974C425.81 32.974 426.56 33.16 427.196 33.532C427.832 33.904 428.306 34.372 428.618 34.936V33.136H430.274V43H428.618V41.164C428.294 41.74 427.808 42.22 427.16 42.604C426.524 42.976 425.78 43.162 424.928 43.162C424.052 43.162 423.26 42.946 422.552 42.514C421.844 42.082 421.286 41.476 420.878 40.696C420.47 39.916 420.266 39.028 420.266 38.032ZM428.618 38.05C428.618 37.306 428.468 36.658 428.168 36.106C427.868 35.554 427.46 35.134 426.944 34.846C426.44 34.546 425.882 34.396 425.27 34.396C424.658 34.396 424.1 34.54 423.596 34.828C423.092 35.116 422.69 35.536 422.39 36.088C422.09 36.64 421.94 37.288 421.94 38.032C421.94 38.788 422.09 39.448 422.39 40.012C422.69 40.564 423.092 40.99 423.596 41.29C424.1 41.578 424.658 41.722 425.27 41.722C425.882 41.722 426.44 41.578 426.944 41.29C427.46 40.99 427.868 40.564 428.168 40.012C428.468 39.448 428.618 38.794 428.618 38.05ZM436.03 34.486V40.3C436.03 40.78 436.132 41.122 436.336 41.326C436.54 41.518 436.894 41.614 437.398 41.614H438.604V43H437.128C436.216 43 435.532 42.79 435.076 42.37C434.62 41.95 434.392 41.26 434.392 40.3V34.486H433.114V33.136H434.392V30.652H436.03V33.136H438.604V34.486H436.03ZM449.005 34.954C449.329 34.39 449.809 33.922 450.445 33.55C451.093 33.166 451.843 32.974 452.695 32.974C453.571 32.974 454.363 33.184 455.071 33.604C455.791 34.024 456.355 34.618 456.763 35.386C457.171 36.142 457.375 37.024 457.375 38.032C457.375 39.028 457.171 39.916 456.763 40.696C456.355 41.476 455.791 42.082 455.071 42.514C454.363 42.946 453.571 43.162 452.695 43.162C451.855 43.162 451.111 42.976 450.463 42.604C449.827 42.22 449.341 41.746 449.005 41.182V47.68H447.367V33.136H449.005V34.954ZM455.701 38.032C455.701 37.288 455.551 36.64 455.251 36.088C454.951 35.536 454.543 35.116 454.027 34.828C453.523 34.54 452.965 34.396 452.353 34.396C451.753 34.396 451.195 34.546 450.679 34.846C450.175 35.134 449.767 35.56 449.455 36.124C449.155 36.676 449.005 37.318 449.005 38.05C449.005 38.794 449.155 39.448 449.455 40.012C449.767 40.564 450.175 40.99 450.679 41.29C451.195 41.578 451.753 41.722 452.353 41.722C452.965 41.722 453.523 41.578 454.027 41.29C454.543 40.99 454.951 40.564 455.251 40.012C455.551 39.448 455.701 38.788 455.701 38.032ZM469.521 37.69C469.521 38.002 469.503 38.332 469.467 38.68H461.583C461.643 39.652 461.973 40.414 462.573 40.966C463.185 41.506 463.923 41.776 464.787 41.776C465.495 41.776 466.083 41.614 466.551 41.29C467.031 40.954 467.367 40.51 467.559 39.958H469.323C469.059 40.906 468.531 41.68 467.739 42.28C466.947 42.868 465.963 43.162 464.787 43.162C463.851 43.162 463.011 42.952 462.267 42.532C461.535 42.112 460.959 41.518 460.539 40.75C460.119 39.97 459.909 39.07 459.909 38.05C459.909 37.03 460.113 36.136 460.521 35.368C460.929 34.6 461.499 34.012 462.231 33.604C462.975 33.184 463.827 32.974 464.787 32.974C465.723 32.974 466.551 33.178 467.271 33.586C467.991 33.994 468.543 34.558 468.927 35.278C469.323 35.986 469.521 36.79 469.521 37.69ZM467.829 37.348C467.829 36.724 467.691 36.19 467.415 35.746C467.139 35.29 466.761 34.948 466.281 34.72C465.813 34.48 465.291 34.36 464.715 34.36C463.887 34.36 463.179 34.624 462.591 35.152C462.015 35.68 461.685 36.412 461.601 37.348H467.829ZM474.312 34.738C474.6 34.174 475.008 33.736 475.536 33.424C476.076 33.112 476.73 32.956 477.498 32.956V34.648H477.066C475.23 34.648 474.312 35.644 474.312 37.636V43H472.674V33.136H474.312V34.738ZM484.392 34.486H482.322V43H480.684V34.486H479.406V33.136H480.684V32.434C480.684 31.33 480.966 30.526 481.53 30.022C482.106 29.506 483.024 29.248 484.284 29.248V30.616C483.564 30.616 483.054 30.76 482.754 31.048C482.466 31.324 482.322 31.786 482.322 32.434V33.136H484.392V34.486ZM496.292 37.69C496.292 38.002 496.274 38.332 496.238 38.68H488.354C488.414 39.652 488.744 40.414 489.344 40.966C489.956 41.506 490.694 41.776 491.558 41.776C492.266 41.776 492.854 41.614 493.322 41.29C493.802 40.954 494.138 40.51 494.33 39.958H496.094C495.83 40.906 495.302 41.68 494.51 42.28C493.718 42.868 492.734 43.162 491.558 43.162C490.622 43.162 489.782 42.952 489.038 42.532C488.306 42.112 487.73 41.518 487.31 40.75C486.89 39.97 486.68 39.07 486.68 38.05C486.68 37.03 486.884 36.136 487.292 35.368C487.7 34.6 488.27 34.012 489.002 33.604C489.746 33.184 490.598 32.974 491.558 32.974C492.494 32.974 493.322 33.178 494.042 33.586C494.762 33.994 495.314 34.558 495.698 35.278C496.094 35.986 496.292 36.79 496.292 37.69ZM494.6 37.348C494.6 36.724 494.462 36.19 494.186 35.746C493.91 35.29 493.532 34.948 493.052 34.72C492.584 34.48 492.062 34.36 491.486 34.36C490.658 34.36 489.95 34.624 489.362 35.152C488.786 35.68 488.456 36.412 488.372 37.348H494.6ZM498.832 38.05C498.832 37.03 499.036 36.142 499.444 35.386C499.852 34.618 500.416 34.024 501.136 33.604C501.868 33.184 502.702 32.974 503.638 32.974C504.85 32.974 505.846 33.268 506.626 33.856C507.418 34.444 507.94 35.26 508.192 36.304H506.428C506.26 35.704 505.93 35.23 505.438 34.882C504.958 34.534 504.358 34.36 503.638 34.36C502.702 34.36 501.946 34.684 501.37 35.332C500.794 35.968 500.506 36.874 500.506 38.05C500.506 39.238 500.794 40.156 501.37 40.804C501.946 41.452 502.702 41.776 503.638 41.776C504.358 41.776 504.958 41.608 505.438 41.272C505.918 40.936 506.248 40.456 506.428 39.832H508.192C507.928 40.84 507.4 41.65 506.608 42.262C505.816 42.862 504.826 43.162 503.638 43.162C502.702 43.162 501.868 42.952 501.136 42.532C500.416 42.112 499.852 41.518 499.444 40.75C499.036 39.982 498.832 39.082 498.832 38.05ZM513.366 34.486V40.3C513.366 40.78 513.468 41.122 513.672 41.326C513.876 41.518 514.23 41.614 514.734 41.614H515.94V43H514.464C513.552 43 512.868 42.79 512.412 42.37C511.956 41.95 511.728 41.26 511.728 40.3V34.486H510.45V33.136H511.728V30.652H513.366V33.136H515.94V34.486H513.366ZM526.341 34.954C526.665 34.39 527.145 33.922 527.781 33.55C528.429 33.166 529.179 32.974 530.031 32.974C530.907 32.974 531.699 33.184 532.407 33.604C533.127 34.024 533.691 34.618 534.099 35.386C534.507 36.142 534.711 37.024 534.711 38.032C534.711 39.028 534.507 39.916 534.099 40.696C533.691 41.476 533.127 42.082 532.407 42.514C531.699 42.946 530.907 43.162 530.031 43.162C529.191 43.162 528.447 42.976 527.799 42.604C527.163 42.22 526.677 41.746 526.341 41.182V47.68H524.703V33.136H526.341V34.954ZM533.037 38.032C533.037 37.288 532.887 36.64 532.587 36.088C532.287 35.536 531.879 35.116 531.363 34.828C530.859 34.54 530.301 34.396 529.689 34.396C529.089 34.396 528.531 34.546 528.015 34.846C527.511 35.134 527.103 35.56 526.791 36.124C526.491 36.676 526.341 37.318 526.341 38.05C526.341 38.794 526.491 39.448 526.791 40.012C527.103 40.564 527.511 40.99 528.015 41.29C528.531 41.578 529.089 41.722 529.689 41.722C530.301 41.722 530.859 41.578 531.363 41.29C531.879 40.99 532.287 40.564 532.587 40.012C532.887 39.448 533.037 38.788 533.037 38.032ZM538.703 31.534C538.391 31.534 538.127 31.426 537.911 31.21C537.695 30.994 537.587 30.73 537.587 30.418C537.587 30.106 537.695 29.842 537.911 29.626C538.127 29.41 538.391 29.302 538.703 29.302C539.003 29.302 539.255 29.41 539.459 29.626C539.675 29.842 539.783 30.106 539.783 30.418C539.783 30.73 539.675 30.994 539.459 31.21C539.255 31.426 539.003 31.534 538.703 31.534ZM539.495 33.136V43H537.857V33.136H539.495ZM552.277 37.69C552.277 38.002 552.259 38.332 552.223 38.68H544.339C544.399 39.652 544.729 40.414 545.329 40.966C545.941 41.506 546.679 41.776 547.543 41.776C548.251 41.776 548.839 41.614 549.307 41.29C549.787 40.954 550.123 40.51 550.315 39.958H552.079C551.815 40.906 551.287 41.68 550.495 42.28C549.703 42.868 548.719 43.162 547.543 43.162C546.607 43.162 545.767 42.952 545.023 42.532C544.291 42.112 543.715 41.518 543.295 40.75C542.875 39.97 542.665 39.07 542.665 38.05C542.665 37.03 542.869 36.136 543.277 35.368C543.685 34.6 544.255 34.012 544.987 33.604C545.731 33.184 546.583 32.974 547.543 32.974C548.479 32.974 549.307 33.178 550.027 33.586C550.747 33.994 551.299 34.558 551.683 35.278C552.079 35.986 552.277 36.79 552.277 37.69ZM550.585 37.348C550.585 36.724 550.447 36.19 550.171 35.746C549.895 35.29 549.517 34.948 549.037 34.72C548.569 34.48 548.047 34.36 547.471 34.36C546.643 34.36 545.935 34.624 545.347 35.152C544.771 35.68 544.441 36.412 544.357 37.348H550.585ZM554.817 38.05C554.817 37.03 555.021 36.142 555.429 35.386C555.837 34.618 556.401 34.024 557.121 33.604C557.853 33.184 558.687 32.974 559.623 32.974C560.835 32.974 561.831 33.268 562.611 33.856C563.403 34.444 563.925 35.26 564.177 36.304H562.413C562.245 35.704 561.915 35.23 561.423 34.882C560.943 34.534 560.343 34.36 559.623 34.36C558.687 34.36 557.931 34.684 557.355 35.332C556.779 35.968 556.491 36.874 556.491 38.05C556.491 39.238 556.779 40.156 557.355 40.804C557.931 41.452 558.687 41.776 559.623 41.776C560.343 41.776 560.943 41.608 561.423 41.272C561.903 40.936 562.233 40.456 562.413 39.832H564.177C563.913 40.84 563.385 41.65 562.593 42.262C561.801 42.862 560.811 43.162 559.623 43.162C558.687 43.162 557.853 42.952 557.121 42.532C556.401 42.112 555.837 41.518 555.429 40.75C555.021 39.982 554.817 39.082 554.817 38.05ZM576.353 37.69C576.353 38.002 576.335 38.332 576.299 38.68H568.415C568.475 39.652 568.805 40.414 569.405 40.966C570.017 41.506 570.755 41.776 571.619 41.776C572.327 41.776 572.915 41.614 573.383 41.29C573.863 40.954 574.199 40.51 574.391 39.958H576.155C575.891 40.906 575.363 41.68 574.571 42.28C573.779 42.868 572.795 43.162 571.619 43.162C570.683 43.162 569.843 42.952 569.099 42.532C568.367 42.112 567.791 41.518 567.371 40.75C566.951 39.97 566.741 39.07 566.741 38.05C566.741 37.03 566.945 36.136 567.353 35.368C567.761 34.6 568.331 34.012 569.063 33.604C569.807 33.184 570.659 32.974 571.619 32.974C572.555 32.974 573.383 33.178 574.103 33.586C574.823 33.994 575.375 34.558 575.759 35.278C576.155 35.986 576.353 36.79 576.353 37.69ZM574.661 37.348C574.661 36.724 574.523 36.19 574.247 35.746C573.971 35.29 573.593 34.948 573.113 34.72C572.645 34.48 572.123 34.36 571.547 34.36C570.719 34.36 570.011 34.624 569.423 35.152C568.847 35.68 568.517 36.412 568.433 37.348H574.661ZM589.596 43.162C588.672 43.162 587.832 42.952 587.076 42.532C586.332 42.112 585.744 41.518 585.312 40.75C584.892 39.97 584.682 39.07 584.682 38.05C584.682 37.042 584.898 36.154 585.33 35.386C585.774 34.606 586.374 34.012 587.13 33.604C587.886 33.184 588.732 32.974 589.668 32.974C590.604 32.974 591.45 33.184 592.206 33.604C592.962 34.012 593.556 34.6 593.988 35.368C594.432 36.136 594.654 37.03 594.654 38.05C594.654 39.07 594.426 39.97 593.97 40.75C593.526 41.518 592.92 42.112 592.152 42.532C591.384 42.952 590.532 43.162 589.596 43.162ZM589.596 41.722C590.184 41.722 590.736 41.584 591.252 41.308C591.768 41.032 592.182 40.618 592.494 40.066C592.818 39.514 592.98 38.842 592.98 38.05C592.98 37.258 592.824 36.586 592.512 36.034C592.2 35.482 591.792 35.074 591.288 34.81C590.784 34.534 590.238 34.396 589.65 34.396C589.05 34.396 588.498 34.534 587.994 34.81C587.502 35.074 587.106 35.482 586.806 36.034C586.506 36.586 586.356 37.258 586.356 38.05C586.356 38.854 586.5 39.532 586.788 40.084C587.088 40.636 587.484 41.05 587.976 41.326C588.468 41.59 589.008 41.722 589.596 41.722ZM601.811 34.486H599.741V43H598.103V34.486H596.825V33.136H598.103V32.434C598.103 31.33 598.385 30.526 598.949 30.022C599.525 29.506 600.443 29.248 601.703 29.248V30.616C600.983 30.616 600.473 30.76 600.173 31.048C599.885 31.324 599.741 31.786 599.741 32.434V33.136H601.811V34.486ZM609.888 38.032C609.888 37.024 610.092 36.142 610.5 35.386C610.908 34.618 611.466 34.024 612.174 33.604C612.894 33.184 613.692 32.974 614.568 32.974C615.432 32.974 616.182 33.16 616.818 33.532C617.454 33.904 617.928 34.372 618.24 34.936V33.136H619.896V43H618.24V41.164C617.916 41.74 617.43 42.22 616.782 42.604C616.146 42.976 615.402 43.162 614.55 43.162C613.674 43.162 612.882 42.946 612.174 42.514C611.466 42.082 610.908 41.476 610.5 40.696C610.092 39.916 609.888 39.028 609.888 38.032ZM618.24 38.05C618.24 37.306 618.09 36.658 617.79 36.106C617.49 35.554 617.082 35.134 616.566 34.846C616.062 34.546 615.504 34.396 614.892 34.396C614.28 34.396 613.722 34.54 613.218 34.828C612.714 35.116 612.312 35.536 612.012 36.088C611.712 36.64 611.562 37.288 611.562 38.032C611.562 38.788 611.712 39.448 612.012 40.012C612.312 40.564 612.714 40.99 613.218 41.29C613.722 41.578 614.28 41.722 614.892 41.722C615.504 41.722 616.062 41.578 616.566 41.29C617.082 40.99 617.49 40.564 617.79 40.012C618.09 39.448 618.24 38.794 618.24 38.05ZM625.292 34.738C625.58 34.174 625.988 33.736 626.516 33.424C627.056 33.112 627.71 32.956 628.478 32.956V34.648H628.046C626.21 34.648 625.292 35.644 625.292 37.636V43H623.654V33.136H625.292V34.738ZM633.357 34.486V40.3C633.357 40.78 633.459 41.122 633.663 41.326C633.867 41.518 634.221 41.614 634.725 41.614H635.931V43H634.455C633.543 43 632.859 42.79 632.403 42.37C631.947 41.95 631.719 41.26 631.719 40.3V34.486H630.441V33.136H631.719V30.652H633.357V33.136H635.931V34.486H633.357ZM642.11 30.292C643.298 30.292 644.258 30.628 644.99 31.3C645.722 31.972 646.088 32.872 646.088 34C646.088 35.26 645.698 36.196 644.918 36.808C644.138 37.408 643.082 37.708 641.75 37.708L641.696 39.418H640.274L640.202 36.574H640.724C641.912 36.574 642.842 36.394 643.514 36.034C644.186 35.674 644.522 34.996 644.522 34C644.522 33.28 644.306 32.71 643.874 32.29C643.442 31.87 642.86 31.66 642.128 31.66C641.384 31.66 640.796 31.864 640.364 32.272C639.944 32.668 639.734 33.214 639.734 33.91H638.186C638.186 33.19 638.348 32.56 638.672 32.02C638.996 31.468 639.452 31.042 640.04 30.742C640.64 30.442 641.33 30.292 642.11 30.292ZM640.976 43.108C640.664 43.108 640.4 43 640.184 42.784C639.968 42.568 639.86 42.304 639.86 41.992C639.86 41.68 639.968 41.416 640.184 41.2C640.4 40.984 640.664 40.876 640.976 40.876C641.276 40.876 641.528 40.984 641.732 41.2C641.948 41.416 642.056 41.68 642.056 41.992C642.056 42.304 641.948 42.568 641.732 42.784C641.528 43 641.276 43.108 640.976 43.108ZM659.102 43.126C658.274 43.126 657.53 42.982 656.87 42.694C656.222 42.394 655.712 41.986 655.34 41.47C654.968 40.942 654.776 40.336 654.764 39.652H656.51C656.57 40.24 656.81 40.738 657.23 41.146C657.662 41.542 658.286 41.74 659.102 41.74C659.882 41.74 660.494 41.548 660.938 41.164C661.394 40.768 661.622 40.264 661.622 39.652C661.622 39.172 661.49 38.782 661.226 38.482C660.962 38.182 660.632 37.954 660.236 37.798C659.84 37.642 659.306 37.474 658.634 37.294C657.806 37.078 657.14 36.862 656.636 36.646C656.144 36.43 655.718 36.094 655.358 35.638C655.01 35.17 654.836 34.546 654.836 33.766C654.836 33.082 655.01 32.476 655.358 31.948C655.706 31.42 656.192 31.012 656.816 30.724C657.452 30.436 658.178 30.292 658.994 30.292C660.17 30.292 661.13 30.586 661.874 31.174C662.63 31.762 663.056 32.542 663.152 33.514H661.352C661.292 33.034 661.04 32.614 660.596 32.254C660.152 31.882 659.564 31.696 658.832 31.696C658.148 31.696 657.59 31.876 657.158 32.236C656.726 32.584 656.51 33.076 656.51 33.712C656.51 34.168 656.636 34.54 656.888 34.828C657.152 35.116 657.47 35.338 657.842 35.494C658.226 35.638 658.76 35.806 659.444 35.998C660.272 36.226 660.938 36.454 661.442 36.682C661.946 36.898 662.378 37.24 662.738 37.708C663.098 38.164 663.278 38.788 663.278 39.58C663.278 40.192 663.116 40.768 662.792 41.308C662.468 41.848 661.988 42.286 661.352 42.622C660.716 42.958 659.966 43.126 659.102 43.126ZM666.066 38.05C666.066 37.03 666.27 36.142 666.678 35.386C667.086 34.618 667.65 34.024 668.37 33.604C669.102 33.184 669.936 32.974 670.872 32.974C672.084 32.974 673.08 33.268 673.86 33.856C674.652 34.444 675.174 35.26 675.426 36.304H673.662C673.494 35.704 673.164 35.23 672.672 34.882C672.192 34.534 671.592 34.36 670.872 34.36C669.936 34.36 669.18 34.684 668.604 35.332C668.028 35.968 667.74 36.874 667.74 38.05C667.74 39.238 668.028 40.156 668.604 40.804C669.18 41.452 669.936 41.776 670.872 41.776C671.592 41.776 672.192 41.608 672.672 41.272C673.152 40.936 673.482 40.456 673.662 39.832H675.426C675.162 40.84 674.634 41.65 673.842 42.262C673.05 42.862 672.06 43.162 670.872 43.162C669.936 43.162 669.102 42.952 668.37 42.532C667.65 42.112 667.086 41.518 666.678 40.75C666.27 39.982 666.066 39.082 666.066 38.05ZM680.24 34.738C680.528 34.174 680.936 33.736 681.464 33.424C682.004 33.112 682.658 32.956 683.426 32.956V34.648H682.994C681.158 34.648 680.24 35.644 680.24 37.636V43H678.602V33.136H680.24V34.738ZM690.609 43.162C689.685 43.162 688.845 42.952 688.089 42.532C687.345 42.112 686.757 41.518 686.325 40.75C685.905 39.97 685.695 39.07 685.695 38.05C685.695 37.042 685.911 36.154 686.343 35.386C686.787 34.606 687.387 34.012 688.143 33.604C688.899 33.184 689.745 32.974 690.681 32.974C691.617 32.974 692.463 33.184 693.219 33.604C693.975 34.012 694.569 34.6 695.001 35.368C695.445 36.136 695.667 37.03 695.667 38.05C695.667 39.07 695.439 39.97 694.983 40.75C694.539 41.518 693.933 42.112 693.165 42.532C692.397 42.952 691.545 43.162 690.609 43.162ZM690.609 41.722C691.197 41.722 691.749 41.584 692.265 41.308C692.781 41.032 693.195 40.618 693.507 40.066C693.831 39.514 693.993 38.842 693.993 38.05C693.993 37.258 693.837 36.586 693.525 36.034C693.213 35.482 692.805 35.074 692.301 34.81C691.797 34.534 691.251 34.396 690.663 34.396C690.063 34.396 689.511 34.534 689.007 34.81C688.515 35.074 688.119 35.482 687.819 36.034C687.519 36.586 687.369 37.258 687.369 38.05C687.369 38.854 687.513 39.532 687.801 40.084C688.101 40.636 688.497 41.05 688.989 41.326C689.481 41.59 690.021 41.722 690.609 41.722ZM700.448 29.68V43H698.81V29.68H700.448ZM705.868 29.68V43H704.23V29.68H705.868ZM257.692 66.032C257.692 65.024 257.896 64.142 258.304 63.386C258.712 62.618 259.27 62.024 259.978 61.604C260.698 61.184 261.502 60.974 262.39 60.974C263.158 60.974 263.872 61.154 264.532 61.514C265.192 61.862 265.696 62.324 266.044 62.9V57.68H267.7V71H266.044V69.146C265.72 69.734 265.24 70.22 264.604 70.604C263.968 70.976 263.224 71.162 262.372 71.162C261.496 71.162 260.698 70.946 259.978 70.514C259.27 70.082 258.712 69.476 258.304 68.696C257.896 67.916 257.692 67.028 257.692 66.032ZM266.044 66.05C266.044 65.306 265.894 64.658 265.594 64.106C265.294 63.554 264.886 63.134 264.37 62.846C263.866 62.546 263.308 62.396 262.696 62.396C262.084 62.396 261.526 62.54 261.022 62.828C260.518 63.116 260.116 63.536 259.816 64.088C259.516 64.64 259.366 65.288 259.366 66.032C259.366 66.788 259.516 67.448 259.816 68.012C260.116 68.564 260.518 68.99 261.022 69.29C261.526 69.578 262.084 69.722 262.696 69.722C263.308 69.722 263.866 69.578 264.37 69.29C264.886 68.99 265.294 68.564 265.594 68.012C265.894 67.448 266.044 66.794 266.044 66.05ZM275.76 71.162C274.836 71.162 273.996 70.952 273.24 70.532C272.496 70.112 271.908 69.518 271.476 68.75C271.056 67.97 270.846 67.07 270.846 66.05C270.846 65.042 271.062 64.154 271.494 63.386C271.938 62.606 272.538 62.012 273.294 61.604C274.05 61.184 274.896 60.974 275.832 60.974C276.768 60.974 277.614 61.184 278.37 61.604C279.126 62.012 279.72 62.6 280.152 63.368C280.596 64.136 280.818 65.03 280.818 66.05C280.818 67.07 280.59 67.97 280.134 68.75C279.69 69.518 279.084 70.112 278.316 70.532C277.548 70.952 276.696 71.162 275.76 71.162ZM275.76 69.722C276.348 69.722 276.9 69.584 277.416 69.308C277.932 69.032 278.346 68.618 278.658 68.066C278.982 67.514 279.144 66.842 279.144 66.05C279.144 65.258 278.988 64.586 278.676 64.034C278.364 63.482 277.956 63.074 277.452 62.81C276.948 62.534 276.402 62.396 275.814 62.396C275.214 62.396 274.662 62.534 274.158 62.81C273.666 63.074 273.27 63.482 272.97 64.034C272.67 64.586 272.52 65.258 272.52 66.05C272.52 66.854 272.664 67.532 272.952 68.084C273.252 68.636 273.648 69.05 274.14 69.326C274.632 69.59 275.172 69.722 275.76 69.722ZM297.102 61.136L294.024 71H292.332L289.956 63.17L287.58 71H285.888L282.792 61.136H284.466L286.734 69.416L289.182 61.136H290.856L293.25 69.434L295.482 61.136H297.102ZM304.523 60.956C305.723 60.956 306.695 61.322 307.439 62.054C308.183 62.774 308.555 63.818 308.555 65.186V71H306.935V65.42C306.935 64.436 306.689 63.686 306.197 63.17C305.705 62.642 305.033 62.378 304.181 62.378C303.317 62.378 302.627 62.648 302.111 63.188C301.607 63.728 301.355 64.514 301.355 65.546V71H299.717V61.136H301.355V62.54C301.679 62.036 302.117 61.646 302.669 61.37C303.233 61.094 303.851 60.956 304.523 60.956ZM320.008 62.486V68.3C320.008 68.78 320.11 69.122 320.314 69.326C320.518 69.518 320.872 69.614 321.376 69.614H322.582V71H321.106C320.194 71 319.51 70.79 319.054 70.37C318.598 69.95 318.37 69.26 318.37 68.3V62.486H317.092V61.136H318.37V58.652H320.008V61.136H322.582V62.486H320.008ZM329.859 71.162C328.935 71.162 328.095 70.952 327.339 70.532C326.595 70.112 326.007 69.518 325.575 68.75C325.155 67.97 324.945 67.07 324.945 66.05C324.945 65.042 325.161 64.154 325.593 63.386C326.037 62.606 326.637 62.012 327.393 61.604C328.149 61.184 328.995 60.974 329.931 60.974C330.867 60.974 331.713 61.184 332.469 61.604C333.225 62.012 333.819 62.6 334.251 63.368C334.695 64.136 334.917 65.03 334.917 66.05C334.917 67.07 334.689 67.97 334.233 68.75C333.789 69.518 333.183 70.112 332.415 70.532C331.647 70.952 330.795 71.162 329.859 71.162ZM329.859 69.722C330.447 69.722 330.999 69.584 331.515 69.308C332.031 69.032 332.445 68.618 332.757 68.066C333.081 67.514 333.243 66.842 333.243 66.05C333.243 65.258 333.087 64.586 332.775 64.034C332.463 63.482 332.055 63.074 331.551 62.81C331.047 62.534 330.501 62.396 329.913 62.396C329.313 62.396 328.761 62.534 328.257 62.81C327.765 63.074 327.369 63.482 327.069 64.034C326.769 64.586 326.619 65.258 326.619 66.05C326.619 66.854 326.763 67.532 327.051 68.084C327.351 68.636 327.747 69.05 328.239 69.326C328.731 69.59 329.271 69.722 329.859 69.722ZM345.487 57.68V71H343.849V57.68H345.487ZM358.269 65.69C358.269 66.002 358.251 66.332 358.215 66.68H350.331C350.391 67.652 350.721 68.414 351.321 68.966C351.933 69.506 352.671 69.776 353.535 69.776C354.243 69.776 354.831 69.614 355.299 69.29C355.779 68.954 356.115 68.51 356.307 67.958H358.071C357.807 68.906 357.279 69.68 356.487 70.28C355.695 70.868 354.711 71.162 353.535 71.162C352.599 71.162 351.759 70.952 351.015 70.532C350.283 70.112 349.707 69.518 349.287 68.75C348.867 67.97 348.657 67.07 348.657 66.05C348.657 65.03 348.861 64.136 349.269 63.368C349.677 62.6 350.247 62.012 350.979 61.604C351.723 61.184 352.575 60.974 353.535 60.974C354.471 60.974 355.299 61.178 356.019 61.586C356.739 61.994 357.291 62.558 357.675 63.278C358.071 63.986 358.269 64.79 358.269 65.69ZM356.577 65.348C356.577 64.724 356.439 64.19 356.163 63.746C355.887 63.29 355.509 62.948 355.029 62.72C354.561 62.48 354.039 62.36 353.463 62.36C352.635 62.36 351.927 62.624 351.339 63.152C350.763 63.68 350.433 64.412 350.349 65.348H356.577ZM360.809 66.032C360.809 65.024 361.013 64.142 361.421 63.386C361.829 62.618 362.387 62.024 363.095 61.604C363.815 61.184 364.613 60.974 365.489 60.974C366.353 60.974 367.103 61.16 367.739 61.532C368.375 61.904 368.849 62.372 369.161 62.936V61.136H370.817V71H369.161V69.164C368.837 69.74 368.351 70.22 367.703 70.604C367.067 70.976 366.323 71.162 365.471 71.162C364.595 71.162 363.803 70.946 363.095 70.514C362.387 70.082 361.829 69.476 361.421 68.696C361.013 67.916 360.809 67.028 360.809 66.032ZM369.161 66.05C369.161 65.306 369.011 64.658 368.711 64.106C368.411 63.554 368.003 63.134 367.487 62.846C366.983 62.546 366.425 62.396 365.813 62.396C365.201 62.396 364.643 62.54 364.139 62.828C363.635 63.116 363.233 63.536 362.933 64.088C362.633 64.64 362.483 65.288 362.483 66.032C362.483 66.788 362.633 67.448 362.933 68.012C363.233 68.564 363.635 68.99 364.139 69.29C364.643 69.578 365.201 69.722 365.813 69.722C366.425 69.722 366.983 69.578 367.487 69.29C368.003 68.99 368.411 68.564 368.711 68.012C369.011 67.448 369.161 66.794 369.161 66.05ZM376.213 62.738C376.501 62.174 376.909 61.736 377.437 61.424C377.977 61.112 378.631 60.956 379.399 60.956V62.648H378.967C377.131 62.648 376.213 63.644 376.213 65.636V71H374.575V61.136H376.213V62.738ZM387.086 60.956C388.286 60.956 389.258 61.322 390.002 62.054C390.746 62.774 391.118 63.818 391.118 65.186V71H389.498V65.42C389.498 64.436 389.252 63.686 388.76 63.17C388.268 62.642 387.596 62.378 386.744 62.378C385.88 62.378 385.19 62.648 384.674 63.188C384.17 63.728 383.918 64.514 383.918 65.546V71H382.28V61.136H383.918V62.54C384.242 62.036 384.68 61.646 385.232 61.37C385.796 61.094 386.414 60.956 387.086 60.956ZM412.434 60.956C413.202 60.956 413.886 61.118 414.486 61.442C415.086 61.754 415.56 62.228 415.908 62.864C416.256 63.5 416.43 64.274 416.43 65.186V71H414.81V65.42C414.81 64.436 414.564 63.686 414.072 63.17C413.592 62.642 412.938 62.378 412.11 62.378C411.258 62.378 410.58 62.654 410.076 63.206C409.572 63.746 409.32 64.532 409.32 65.564V71H407.7V65.42C407.7 64.436 407.454 63.686 406.962 63.17C406.482 62.642 405.828 62.378 405 62.378C404.148 62.378 403.47 62.654 402.966 63.206C402.462 63.746 402.21 64.532 402.21 65.564V71H400.572V61.136H402.21V62.558C402.534 62.042 402.966 61.646 403.506 61.37C404.058 61.094 404.664 60.956 405.324 60.956C406.152 60.956 406.884 61.142 407.52 61.514C408.156 61.886 408.63 62.432 408.942 63.152C409.218 62.456 409.674 61.916 410.31 61.532C410.946 61.148 411.654 60.956 412.434 60.956ZM424.409 71.162C423.485 71.162 422.645 70.952 421.889 70.532C421.145 70.112 420.557 69.518 420.125 68.75C419.705 67.97 419.495 67.07 419.495 66.05C419.495 65.042 419.711 64.154 420.143 63.386C420.587 62.606 421.187 62.012 421.943 61.604C422.699 61.184 423.545 60.974 424.481 60.974C425.417 60.974 426.263 61.184 427.019 61.604C427.775 62.012 428.369 62.6 428.801 63.368C429.245 64.136 429.467 65.03 429.467 66.05C429.467 67.07 429.239 67.97 428.783 68.75C428.339 69.518 427.733 70.112 426.965 70.532C426.197 70.952 425.345 71.162 424.409 71.162ZM424.409 69.722C424.997 69.722 425.549 69.584 426.065 69.308C426.581 69.032 426.995 68.618 427.307 68.066C427.631 67.514 427.793 66.842 427.793 66.05C427.793 65.258 427.637 64.586 427.325 64.034C427.013 63.482 426.605 63.074 426.101 62.81C425.597 62.534 425.051 62.396 424.463 62.396C423.863 62.396 423.311 62.534 422.807 62.81C422.315 63.074 421.919 63.482 421.619 64.034C421.319 64.586 421.169 65.258 421.169 66.05C421.169 66.854 421.313 67.532 421.601 68.084C421.901 68.636 422.297 69.05 422.789 69.326C423.281 69.59 423.821 69.722 424.409 69.722ZM434.249 62.738C434.537 62.174 434.945 61.736 435.473 61.424C436.013 61.112 436.667 60.956 437.435 60.956V62.648H437.003C435.167 62.648 434.249 63.644 434.249 65.636V71H432.611V61.136H434.249V62.738ZM449.316 65.69C449.316 66.002 449.298 66.332 449.262 66.68H441.378C441.438 67.652 441.768 68.414 442.368 68.966C442.98 69.506 443.718 69.776 444.582 69.776C445.29 69.776 445.878 69.614 446.346 69.29C446.826 68.954 447.162 68.51 447.354 67.958H449.118C448.854 68.906 448.326 69.68 447.534 70.28C446.742 70.868 445.758 71.162 444.582 71.162C443.646 71.162 442.806 70.952 442.062 70.532C441.33 70.112 440.754 69.518 440.334 68.75C439.914 67.97 439.704 67.07 439.704 66.05C439.704 65.03 439.908 64.136 440.316 63.368C440.724 62.6 441.294 62.012 442.026 61.604C442.77 61.184 443.622 60.974 444.582 60.974C445.518 60.974 446.346 61.178 447.066 61.586C447.786 61.994 448.338 62.558 448.722 63.278C449.118 63.986 449.316 64.79 449.316 65.69ZM447.624 65.348C447.624 64.724 447.486 64.19 447.21 63.746C446.934 63.29 446.556 62.948 446.076 62.72C445.608 62.48 445.086 62.36 444.51 62.36C443.682 62.36 442.974 62.624 442.386 63.152C441.81 63.68 441.48 64.412 441.396 65.348H447.624Z" fill="#1E0734"/>
</svg>
